<svg width="281" height="588" viewBox="0 0 281 588" fill="none" xmlns="http://www.w3.org/2000/svg">
<rect y="252" width="60" height="60" fill="#D9D9D9"/>
<path d="M7.36 12.24H49.78V44.94H31.54V55.44H52.72V60.36H4.42V55.44H25.54V44.94H7.36V12.24ZM13.36 40.02H43.78V17.16H13.36V40.02ZM13.72 124.5V130.08H44.92V124.5H50.92V145.56H7.72V124.5H13.72ZM4.42 95.4H38.32V100.32H24.1V104.1C24.1 104.9 24.02 105.68 23.86 106.44C23.74 107.16 23.56 107.86 23.32 108.54L38.98 117.24L35.8 121.38L20.8 112.92C19.16 114.84 17.06 116.48 14.5 117.84C11.98 119.16 9.1 120.28 5.86 121.2L3.22 116.82C5.26 116.3 7.16 115.68 8.92 114.96C10.72 114.2 12.3 113.32 13.66 112.32C15.02 111.32 16.08 110.14 16.84 108.78C17.64 107.42 18.04 105.84 18.04 104.04V100.32H4.42V95.4ZM44.92 140.64V135H13.72V140.64H44.92ZM50.92 94.8V121.2H44.92V94.8H50.92ZM21.1 208.08C22.7 208.08 24.16 207.78 25.48 207.18C26.84 206.54 28 205.66 28.96 204.54C29.96 203.42 30.74 202.12 31.3 200.64C31.86 199.12 32.14 197.46 32.14 195.66C32.14 193.82 31.86 192.14 31.3 190.62C30.74 189.06 29.96 187.74 28.96 186.66C28 185.54 26.84 184.68 25.48 184.08C24.16 183.48 22.7 183.18 21.1 183.18C19.42 183.18 17.9 183.5 16.54 184.14C15.18 184.74 14.02 185.6 13.06 186.72C12.1 187.8 11.36 189.1 10.84 190.62C10.32 192.14 10.06 193.82 10.06 195.66C10.06 197.5 10.32 199.18 10.84 200.7C11.4 202.22 12.16 203.54 13.12 204.66C14.08 205.74 15.24 206.58 16.6 207.18C17.96 207.78 19.46 208.08 21.1 208.08ZM4 195.66C4 192.86 4.44 190.38 5.32 188.22C6.2 186.06 7.4 184.24 8.92 182.76C10.48 181.28 12.3 180.16 14.38 179.4C16.46 178.64 18.7 178.26 21.1 178.26C23.46 178.26 25.68 178.64 27.76 179.4C29.84 180.16 31.64 181.28 33.16 182.76C34.72 184.24 35.94 186.06 36.82 188.22C37.74 190.38 38.2 192.86 38.2 195.66C38.2 198.42 37.74 200.88 36.82 203.04C35.94 205.16 34.72 206.96 33.16 208.44C31.64 209.88 29.84 211 27.76 211.8C25.68 212.56 23.46 212.94 21.1 212.94C18.7 212.94 16.46 212.56 14.38 211.8C12.3 211 10.48 209.88 8.92 208.44C7.4 206.96 6.2 205.16 5.32 203.04C4.44 200.88 4 198.42 4 195.66ZM40.96 222.18V227.1H2.92V222.18H40.96ZM50.92 228.36H44.92V178.8H50.92V228.36ZM55.36 378.06V397.56H7.72V378.06H55.36ZM30.34 347.4V373.86H5.2V347.4H30.34ZM36.58 374.76V346.8H42.58V358.74L49.36 356.4V346.8H55.36V374.76H49.36V361.38L42.58 363.72V374.76H36.58ZM13.72 382.98V392.64H49.36V382.98H13.72ZM11.2 368.94H24.34V352.32H11.2V368.94ZM11.2 450.6H27.94V432H33.94V479.76H5.2V432H11.2V450.6ZM50.92 480.36H44.92V455.82L36.34 458.82V454.14L44.92 451.14V430.8H50.92V480.36ZM27.94 455.52H11.2V474.84H27.94V455.52ZM27.94 563.76V520.92H5.2V516H33.94V563.76H27.94ZM49.12 534.48H56.14V539.4H49.12V564.36H43.12V514.8H49.12V534.48Z" fill="#FAFAFA"/>
<path d="M130.34 38.04V32.34H117.02V11.4H149.48V16.32H123.02V27.42H150.08V32.34H136.34V38.04H152.96V42.96H114.92V38.04H130.34ZM123.74 46.86V56.64H163.52V61.56H117.74V46.86H123.74ZM162.92 50.16H156.92V10.8H162.92V50.16ZM156.92 215.46V211.2H119.72V206.28H162.92V220.38H125.72V224.64H163.52V229.56H119.72V215.46H156.92ZM139.94 202.26V184.32H117.2V179.4H145.94V202.26H139.94ZM162.92 178.8V202.98H156.92V192L148.34 193.98V189.06L156.92 187.08V178.8H162.92Z" fill="#FAFAFA"/>
<path d="M238.74 40.14V35.82C236.82 35.74 235.06 35.54 233.46 35.22C231.86 34.86 230.48 34.36 229.32 33.72C228.2 33.04 227.32 32.2 226.68 31.2C226.04 30.16 225.72 28.92 225.72 27.48C225.72 25.88 226.1 24.54 226.86 23.46C227.66 22.34 228.76 21.46 230.16 20.82C231.56 20.18 233.22 19.72 235.14 19.44C237.06 19.16 239.16 19.02 241.44 19.02C243.72 19.02 245.82 19.16 247.74 19.44C249.7 19.72 251.38 20.18 252.78 20.82C254.22 21.46 255.32 22.34 256.08 23.46C256.88 24.54 257.28 25.88 257.28 27.48C257.28 28.92 256.98 30.14 256.38 31.14C255.78 32.14 254.92 32.98 253.8 33.66C252.68 34.3 251.34 34.8 249.78 35.16C248.26 35.48 246.58 35.7 244.74 35.82V40.14H260.76V45.06H223.92V40.14H238.74ZM270.72 29.64V50.76H264.72V10.8H270.72V24.72H277.74V29.64H270.72ZM232.74 48.66V56.64H271.32V61.56H226.74V48.66H232.74ZM224.22 11.52H238.44V7.92H244.44V11.52H258.72V16.44H224.22V11.52ZM241.44 23.94C238.44 23.94 236.06 24.18 234.3 24.66C232.58 25.14 231.72 26.08 231.72 27.48C231.72 28.84 232.58 29.76 234.3 30.24C236.06 30.72 238.44 30.96 241.44 30.96C244.44 30.96 246.82 30.72 248.58 30.24C250.38 29.76 251.28 28.84 251.28 27.48C251.28 26.8 251.04 26.24 250.56 25.8C250.08 25.32 249.4 24.96 248.52 24.72C247.64 24.44 246.6 24.24 245.4 24.12C244.2 24 242.88 23.94 241.44 23.94ZM224.4 108.66C224.4 106.7 224.76 104.88 225.48 103.2C226.2 101.48 227.24 100 228.6 98.76C230 97.52 231.7 96.56 233.7 95.88C235.74 95.16 238.04 94.8 240.6 94.8C244.04 94.8 246.96 95.42 249.36 96.66C251.76 97.86 253.6 99.5 254.88 101.58L265.92 99.42V94.8H271.92V124.56H265.92V114.06L254.4 116.4C253.08 118.28 251.26 119.76 248.94 120.84C246.62 121.92 243.84 122.46 240.6 122.46C238.04 122.46 235.74 122.12 233.7 121.44C231.7 120.72 230 119.74 228.6 118.5C227.24 117.26 226.2 115.8 225.48 114.12C224.76 112.44 224.4 110.62 224.4 108.66ZM250.38 146.76C246.9 146.76 243.74 146.54 240.9 146.1C238.1 145.66 235.72 145 233.76 144.12C231.8 143.24 230.28 142.12 229.2 140.76C228.16 139.44 227.64 137.88 227.64 136.08C227.64 134.28 228.16 132.72 229.2 131.4C230.28 130.04 231.8 128.94 233.76 128.1C235.72 127.22 238.1 126.56 240.9 126.12C243.74 125.68 246.9 125.46 250.38 125.46C253.86 125.46 257 125.68 259.8 126.12C262.64 126.56 265.04 127.22 267 128.1C268.96 128.94 270.46 130.04 271.5 131.4C272.58 132.72 273.12 134.28 273.12 136.08C273.12 137.88 272.58 139.44 271.5 140.76C270.46 142.12 268.96 143.24 267 144.12C265.04 145 262.64 145.66 259.8 146.1C257 146.54 253.86 146.76 250.38 146.76ZM250.38 141.84C252.94 141.84 255.24 141.72 257.28 141.48C259.36 141.24 261.12 140.88 262.56 140.4C264.04 139.92 265.16 139.32 265.92 138.6C266.72 137.88 267.12 137.04 267.12 136.08C267.12 135.12 266.72 134.3 265.92 133.62C265.16 132.9 264.04 132.3 262.56 131.82C261.12 131.34 259.36 130.98 257.28 130.74C255.24 130.5 252.94 130.38 250.38 130.38C247.82 130.38 245.5 130.5 243.42 130.74C241.38 130.98 239.62 131.34 238.14 131.82C236.7 132.3 235.58 132.9 234.78 133.62C234.02 134.3 233.64 135.12 233.64 136.08C233.64 137.04 234.02 137.88 234.78 138.6C235.58 139.32 236.7 139.92 238.14 140.4C239.62 140.88 241.38 141.24 243.42 141.48C245.5 141.72 247.82 141.84 250.38 141.84ZM240.6 117.54C242.16 117.54 243.56 117.32 244.8 116.88C246.08 116.4 247.16 115.78 248.04 115.02C248.92 114.22 249.6 113.28 250.08 112.2C250.56 111.12 250.8 109.94 250.8 108.66C250.8 107.38 250.56 106.2 250.08 105.12C249.6 104 248.92 103.04 248.04 102.24C247.16 101.44 246.08 100.82 244.8 100.38C243.56 99.94 242.16 99.72 240.6 99.72C239.04 99.72 237.62 99.94 236.34 100.38C235.1 100.82 234.04 101.44 233.16 102.24C232.28 103.04 231.6 104 231.12 105.12C230.64 106.2 230.4 107.38 230.4 108.66C230.4 109.94 230.64 111.12 231.12 112.2C231.6 113.28 232.28 114.22 233.16 115.02C234.04 115.78 235.1 116.4 236.34 116.88C237.62 117.32 239.04 117.54 240.6 117.54ZM256.8 108.66C256.8 109.5 256.74 110.3 256.62 111.06L265.92 109.2V104.28L256.56 106.14C256.72 106.9 256.8 107.74 256.8 108.66ZM254.28 210.96C254.28 214.12 253.88 216.82 253.08 219.06C252.28 221.26 251.2 223.04 249.84 224.4C248.52 225.8 247 226.8 245.28 227.4C243.56 228.04 241.78 228.36 239.94 228.36C238.06 228.36 236.26 228.04 234.54 227.4C232.82 226.8 231.3 225.8 229.98 224.4C228.7 223.04 227.66 221.26 226.86 219.06C226.1 216.82 225.72 214.12 225.72 210.96C225.72 207.8 226.1 205.12 226.86 202.92C227.66 200.72 228.7 198.94 229.98 197.58C231.3 196.18 232.82 195.16 234.54 194.52C236.26 193.88 238.06 193.56 239.94 193.56C241.78 193.56 243.56 193.88 245.28 194.52C247 195.16 248.52 196.18 249.84 197.58C251.2 198.94 252.28 200.72 253.08 202.92C253.88 205.12 254.28 207.8 254.28 210.96ZM259.98 228.36V178.8H265.98V201.36L272.76 199.02V178.8H278.76V228.36H272.76V204L265.98 206.34V228.36H259.98ZM231.72 210.96C231.72 215.08 232.46 218.2 233.94 220.32C235.42 222.4 237.42 223.44 239.94 223.44C242.3 223.44 244.26 222.4 245.82 220.32C247.42 218.2 248.22 215.06 248.22 210.9C248.22 208.86 248 207.08 247.56 205.56C247.16 204 246.58 202.7 245.82 201.66C245.1 200.58 244.24 199.78 243.24 199.26C242.24 198.74 241.14 198.48 239.94 198.48C237.42 198.48 235.42 199.54 233.94 201.66C232.46 203.74 231.72 206.84 231.72 210.96ZM224.22 183.6H236.94V177.12H242.94V183.6H255.72V188.52H224.22V183.6ZM225.42 307.44H235.14V293.82C232.74 292.3 230.9 290.4 229.62 288.12C228.38 285.8 227.76 283.24 227.76 280.44C227.76 277.96 228.26 275.68 229.26 273.6C230.3 271.52 231.76 269.72 233.64 268.2C235.52 266.68 237.8 265.5 240.48 264.66C243.16 263.78 246.18 263.34 249.54 263.34C252.74 263.34 255.68 263.78 258.36 264.66C261.04 265.5 263.34 266.68 265.26 268.2C267.18 269.72 268.68 271.52 269.76 273.6C270.84 275.68 271.38 277.96 271.38 280.44C271.38 283.24 270.74 285.8 269.46 288.12C268.18 290.4 266.34 292.3 263.94 293.82V307.44H273.72V312.36H225.42V307.44ZM249.54 292.62C252.1 292.62 254.36 292.3 256.32 291.66C258.28 290.98 259.92 290.1 261.24 289.02C262.6 287.9 263.62 286.6 264.3 285.12C265.02 283.64 265.38 282.08 265.38 280.44C265.38 278.8 265.02 277.24 264.3 275.76C263.62 274.28 262.6 273 261.24 271.92C259.92 270.8 258.28 269.92 256.32 269.28C254.36 268.6 252.1 268.26 249.54 268.26C246.98 268.26 244.72 268.6 242.76 269.28C240.8 269.92 239.14 270.8 237.78 271.92C236.46 273 235.46 274.28 234.78 275.76C234.1 277.24 233.76 278.8 233.76 280.44C233.76 282.08 234.1 283.64 234.78 285.12C235.46 286.6 236.46 287.9 237.78 289.02C239.14 290.1 240.8 290.98 242.76 291.66C244.72 292.3 246.98 292.62 249.54 292.62ZM249.54 297.54C246.38 297.54 243.58 297.18 241.14 296.46V307.44H257.94V296.46C255.42 297.18 252.62 297.54 249.54 297.54Z" fill="#FAFAFA"/>
<rect x="113" y="252" width="60" height="145" fill="#D9D9D9"/>
<rect x="276" y="337" width="60" height="163" transform="rotate(90 276 337)" fill="#D9D9D9"/>
<rect x="113" y="416" width="163" height="165" fill="#D9D9D9"/>
</svg>
