<svg width="360" height="230" viewBox="0 0 360 230" fill="none" xmlns="http://www.w3.org/2000/svg">
<rect width="360" height="230" fill="#171717"/>
<path d="M70.84 49.806C70.84 46.376 73.612 43.59 77.042 43.59C80.472 43.59 83.258 46.376 83.258 49.806C83.258 53.222 80.472 56.008 77.042 56.008C73.612 56.008 70.84 53.222 70.84 49.806ZM71.694 49.806C71.694 52.732 74.116 55.154 77.042 55.154C79.982 55.154 82.39 52.732 82.39 49.806C82.39 46.866 79.982 44.458 77.042 44.458C74.116 44.458 71.694 46.866 71.694 49.806ZM75.39 47.23L76.902 46.208H77.714V53.502H76.818V47.342L75.908 47.944L75.39 47.23ZM98.0689 43.772H99.0769V56.022H98.0689V43.772ZM88.8429 49.05C88.8429 46.446 89.8649 44.808 91.4329 44.808C92.9309 44.808 93.9109 46.236 94.0369 48.56H95.6469V44.052H96.6409V55.392H95.6469V49.428H94.0369C93.9529 51.822 92.9449 53.306 91.4329 53.306C89.8649 53.306 88.8429 51.668 88.8429 49.05ZM89.8089 49.05C89.8089 51.052 90.4389 52.326 91.4329 52.326C92.4549 52.326 93.0849 51.052 93.0849 49.05C93.0849 47.048 92.4549 45.788 91.4329 45.788C90.4389 45.788 89.8089 47.048 89.8089 49.05ZM105.881 44.612H106.973V45.564C106.973 47.692 109.381 49.554 111.467 49.946L110.977 50.814C109.171 50.394 107.211 49.078 106.427 47.272C105.643 49.078 103.697 50.394 101.877 50.814L101.415 49.946C103.473 49.54 105.881 47.692 105.881 45.564V44.612ZM100.925 54.342V53.474H112.027V54.342H100.925ZM114.492 44.976H122.864V46.152C122.864 47.65 122.864 49.316 122.36 51.808L121.324 51.682C121.562 50.562 121.688 49.596 121.758 48.728L114.324 49.162L114.17 48.238L121.8 47.93C121.828 47.286 121.828 46.698 121.828 46.152V45.844H114.492V44.976ZM113.162 54.314V53.446H117.516V50.254H118.552V53.446H124.222V54.314H113.162ZM128.646 44.724C130.312 44.724 131.516 46.166 131.67 48.476H134.414V43.758H135.45V56.036H134.414V49.316H131.67C131.572 51.724 130.34 53.25 128.646 53.25C126.868 53.25 125.608 51.584 125.608 48.98C125.608 46.376 126.868 44.724 128.646 44.724ZM126.602 48.98C126.602 50.982 127.442 52.312 128.646 52.312C129.864 52.312 130.69 50.982 130.69 48.98C130.69 46.978 129.864 45.662 128.646 45.662C127.442 45.662 126.602 46.978 126.602 48.98ZM142.289 44.906H150.535V45.774H143.325V49.666H150.675V50.52H142.289V44.906ZM140.861 54.328V53.46H151.963V54.328H140.861ZM162.057 43.772H163.121V51.024H162.057V43.772ZM153.699 45.368V44.5H159.243V47.818H154.749V49.568C156.933 49.568 158.571 49.498 160.531 49.176L160.657 50.044C158.627 50.366 156.961 50.436 154.707 50.436H153.727V46.992H158.221V45.368H153.699ZM155.239 55.854V51.724H163.121V55.854H155.239ZM156.261 55H162.085V52.564H156.261V55ZM170.002 46.936C170.366 46.936 170.618 47.188 170.618 47.552C170.618 47.916 170.366 48.182 170.002 48.182C169.638 48.182 169.372 47.916 169.372 47.552C169.372 47.188 169.638 46.936 170.002 46.936ZM169.372 52.27C169.372 51.906 169.638 51.654 170.002 51.654C170.366 51.654 170.618 51.906 170.618 52.27C170.618 52.634 170.366 52.9 170.002 52.9C169.638 52.9 169.372 52.634 169.372 52.27ZM182.149 55.056H176.549V43.212H178.453V53.39H182.527C183.563 53.39 184.319 53.222 184.725 52.872V43.058H186.643V48.154H188.575V49.806H186.643V55.91H184.725V54.426C184.305 54.846 183.367 55.056 182.149 55.056ZM192.313 46.11H200.419V47.776H190.395V43.128H192.313V46.11ZM189.583 49.092H201.147V50.758H189.583V49.092ZM192.313 54.286H200.559V55.966H190.395V51.71H192.313V54.286ZM213.465 55.056H207.613V43.282H213.941V44.948H209.517V53.39H213.829C214.865 53.39 215.635 53.222 216.041 52.872V43.058H217.959V55.91H216.041V54.426C215.621 54.846 214.669 55.056 213.465 55.056ZM227.871 43.282V44.948H225.295V47.832C225.295 51.444 226.527 52.62 227.983 53.292V55.056C226.429 54.608 225.043 53.53 224.343 52.326C223.629 53.53 222.243 54.608 220.703 55.056V53.292C222.145 52.62 223.377 51.444 223.377 47.832V44.948H220.829V43.282H227.871ZM231.077 48.154H233.009V49.806H231.077V55.91H229.159V43.058H231.077V48.154ZM241.058 49.148C241.058 51.402 240.876 53.124 240.092 54.146C239.56 54.846 238.706 55.224 237.698 55.224C236.704 55.224 235.85 54.846 235.304 54.146C234.52 53.124 234.352 51.402 234.352 49.148C234.352 46.908 234.52 45.186 235.304 44.164C235.85 43.464 236.704 43.072 237.698 43.072C238.706 43.072 239.56 43.464 240.092 44.164C240.876 45.186 241.058 46.908 241.058 49.148ZM236.242 49.148C236.242 51.052 236.34 52.466 236.76 53.096C236.97 53.404 237.306 53.572 237.698 53.572C238.09 53.572 238.44 53.404 238.65 53.096C239.07 52.466 239.154 51.052 239.154 49.148C239.154 47.258 239.07 45.844 238.65 45.214C238.44 44.906 238.09 44.738 237.698 44.738C237.306 44.738 236.97 44.906 236.76 45.214C236.34 45.844 236.242 47.258 236.242 49.148ZM244.838 55.91H242.92V43.058H244.838V55.91ZM253.14 55.056H247.932V43.212H249.836V53.39H253.238C254.078 53.39 254.806 53.362 255.394 53.208V54.79C254.806 54.986 254.022 55.056 253.14 55.056ZM252.692 47.426H256.36V43.058H258.278V55.91H256.36V49.092H252.692V47.426ZM266.901 55.056H261.301V43.282H267.615V44.948H263.205V53.39H267.279C268.315 53.39 269.071 53.222 269.477 52.872V43.058H271.395V48.154H273.327V49.806H271.395V55.91H269.477V54.426C269.057 54.846 268.119 55.056 266.901 55.056Z" fill="#FAFAFA"/>
<path d="M70.84 82.806C70.84 79.376 73.612 76.59 77.042 76.59C80.472 76.59 83.258 79.376 83.258 82.806C83.258 86.222 80.472 89.008 77.042 89.008C73.612 89.008 70.84 86.222 70.84 82.806ZM71.694 82.806C71.694 85.732 74.116 88.154 77.042 88.154C79.982 88.154 82.39 85.732 82.39 82.806C82.39 79.866 79.982 77.458 77.042 77.458C74.116 77.458 71.694 79.866 71.694 82.806ZM74.76 80.51C75.124 79.558 76.076 78.9 77.042 78.9C78.358 78.9 79.282 79.852 79.282 81.196C79.282 82.652 77.532 84.192 76.174 85.438H79.394V86.292H74.956L74.816 85.508C75.068 85.256 75.348 85.004 75.628 84.738C77.084 83.38 78.344 82.218 78.344 81.196C78.344 80.356 77.812 79.754 77.042 79.754C76.468 79.754 75.866 80.216 75.6 80.888L74.76 80.51ZM91.9369 77.724C93.0569 77.724 93.9809 78.382 94.4989 79.53H97.7049V76.758H98.7409V89.036H97.7049V84.276H94.5689C94.0649 85.522 93.1129 86.25 91.9369 86.25C90.1589 86.25 88.8989 84.584 88.8989 81.98C88.8989 79.376 90.1589 77.724 91.9369 77.724ZM89.8929 81.98C89.8929 83.982 90.7329 85.312 91.9369 85.312C93.1549 85.312 93.9949 83.982 93.9949 81.98C93.9949 79.978 93.1549 78.662 91.9369 78.662C90.7329 78.662 89.8929 79.978 89.8929 81.98ZM94.7929 80.398C94.9189 80.874 94.9749 81.406 94.9749 81.98C94.9749 82.498 94.9189 82.974 94.8349 83.408H97.7049V80.398H94.7929ZM109.899 76.772H110.949V89.022H109.899V76.772ZM101.079 85.872C104.383 84.29 106.049 81.896 106.273 78.956H101.625V78.088H107.337C107.337 81.616 105.713 84.724 101.639 86.712L101.079 85.872ZM116.41 77.724C118.076 77.724 119.28 79.166 119.434 81.476H122.178V76.758H123.214V89.036H122.178V82.316H119.434C119.336 84.724 118.104 86.25 116.41 86.25C114.632 86.25 113.372 84.584 113.372 81.98C113.372 79.376 114.632 77.724 116.41 77.724ZM114.366 81.98C114.366 83.982 115.206 85.312 116.41 85.312C117.628 85.312 118.454 83.982 118.454 81.98C118.454 79.978 117.628 78.662 116.41 78.662C115.206 78.662 114.366 79.978 114.366 81.98ZM132.454 77.038H133.448V81.798H134.932V76.772H135.94V89.022H134.932V82.652H133.448V88.406H132.454V77.038ZM125.776 85.802V78.326H128.394V79.18H126.756V84.92C127.218 84.906 127.834 84.85 128.506 84.682L128.59 85.564C127.568 85.802 126.756 85.802 126.252 85.802H125.776ZM128.94 85.802V78.326H131.628V79.18H129.906V84.934C130.48 84.906 131.166 84.85 131.894 84.64L132.006 85.522C130.984 85.788 130.144 85.802 129.43 85.802H128.94ZM141.141 77.458H147.693V78.326H144.949V78.718C144.949 80.202 146.223 81.518 147.987 82.036L147.511 82.862C146.097 82.442 144.991 81.532 144.445 80.356C143.927 81.686 142.779 82.722 141.295 83.184L140.763 82.358C142.597 81.798 143.913 80.356 143.913 78.732V78.326H141.141V77.458ZM142.611 84.5V83.674H150.353V86.6H143.675V88.084H150.801V88.896H142.639V85.816H149.317V84.5H142.611ZM149.303 83.086V76.772H150.353V79.474H152.187V80.328H150.353V83.086H149.303ZM153.713 77.668H154.763V82.512C156.499 82.512 158.305 82.386 160.293 81.98L160.419 82.848C158.347 83.268 156.499 83.394 154.679 83.394H153.713V77.668ZM155.043 88.742V84.766H156.107V87.874H163.037V88.742H155.043ZM161.553 85.634V76.786H162.603V80.426H164.423V81.322H162.603V85.634H161.553ZM170.317 81.63H172.249V77.066H173.229V88.378H172.249V82.498H170.317V81.63ZM165.235 85.69C166.887 84.724 167.867 82.568 167.867 80.552V79.922H165.557V79.054H167.867V77.206H168.875V79.054H171.157V79.922H168.875V80.552C168.875 82.512 169.883 84.542 171.521 85.438L170.919 86.222C169.715 85.55 168.833 84.276 168.385 82.792C167.951 84.374 167.069 85.76 165.851 86.502L165.235 85.69ZM174.699 89.022V76.772H175.707V89.022H174.699ZM182.238 79.936C182.602 79.936 182.854 80.188 182.854 80.552C182.854 80.916 182.602 81.182 182.238 81.182C181.874 81.182 181.608 80.916 181.608 80.552C181.608 80.188 181.874 79.936 182.238 79.936ZM181.608 85.27C181.608 84.906 181.874 84.654 182.238 84.654C182.602 84.654 182.854 84.906 182.854 85.27C182.854 85.634 182.602 85.9 182.238 85.9C181.874 85.9 181.608 85.634 181.608 85.27ZM195.575 85.998C195.781 85.998 195.949 86.0353 196.079 86.11C196.219 86.1847 196.327 86.278 196.401 86.39C196.485 86.502 196.541 86.628 196.569 86.768C196.607 86.908 196.625 87.0433 196.625 87.174C196.625 87.314 196.607 87.454 196.569 87.594C196.541 87.734 196.485 87.86 196.401 87.972C196.317 88.084 196.205 88.1773 196.065 88.252C195.935 88.3267 195.771 88.364 195.575 88.364H190.465C190.045 88.364 189.695 88.3267 189.415 88.252C189.145 88.1773 188.93 88.056 188.771 87.888C188.613 87.7107 188.501 87.4867 188.435 87.216C188.37 86.936 188.337 86.5953 188.337 86.194V77.808C188.337 77.3413 188.473 77.0053 188.743 76.8C189.023 76.5853 189.355 76.478 189.737 76.478C190.129 76.478 190.456 76.5853 190.717 76.8C190.979 77.0053 191.109 77.3413 191.109 77.808V85.62C191.109 85.7787 191.133 85.8813 191.179 85.928C191.235 85.9747 191.343 85.998 191.501 85.998H195.575ZM197.437 77.276C197.437 76.828 197.577 76.492 197.857 76.268C198.137 76.0347 198.459 75.918 198.823 75.918C199.001 75.918 199.173 75.9507 199.341 76.016C199.509 76.072 199.654 76.156 199.775 76.268C199.906 76.38 200.009 76.52 200.083 76.688C200.167 76.856 200.209 77.052 200.209 77.276V80.818H200.671C200.886 80.818 201.063 80.8553 201.203 80.93C201.343 81.0047 201.455 81.1027 201.539 81.224C201.623 81.336 201.684 81.4667 201.721 81.616C201.759 81.756 201.777 81.896 201.777 82.036C201.777 82.176 201.759 82.3207 201.721 82.47C201.684 82.61 201.623 82.7407 201.539 82.862C201.455 82.974 201.339 83.0673 201.189 83.142C201.049 83.2167 200.877 83.254 200.671 83.254H200.209V89.064H197.437V77.276ZM204.591 89.064C204.199 89.064 203.873 89.0267 203.611 88.952C203.35 88.8867 203.145 88.7747 202.995 88.616C202.846 88.4573 202.739 88.252 202.673 88C202.617 87.7387 202.589 87.4167 202.589 87.034V86.04C202.589 85.564 202.734 85.2187 203.023 85.004C203.313 84.7893 203.653 84.682 204.045 84.682C204.437 84.682 204.769 84.7893 205.039 85.004C205.319 85.2187 205.459 85.564 205.459 86.04V86.544C205.459 86.7027 205.483 86.8007 205.529 86.838C205.576 86.8753 205.679 86.894 205.837 86.894H213.383C213.813 86.894 214.116 87.006 214.293 87.23C214.471 87.4447 214.559 87.692 214.559 87.972C214.559 88.2613 214.466 88.5133 214.279 88.728C214.102 88.952 213.803 89.064 213.383 89.064H204.591ZM204.465 80.958C204.073 80.958 203.747 80.9253 203.485 80.86C203.224 80.7853 203.019 80.6687 202.869 80.51C202.72 80.3513 202.613 80.146 202.547 79.894C202.491 79.6327 202.463 79.3107 202.463 78.928V77.402C202.463 76.926 202.603 76.5807 202.883 76.366C203.173 76.1513 203.513 76.044 203.905 76.044C204.297 76.044 204.629 76.1513 204.899 76.366C205.179 76.5807 205.319 76.926 205.319 77.402V78.438C205.319 78.5967 205.343 78.6947 205.389 78.732C205.436 78.7693 205.539 78.788 205.697 78.788H213.299C213.729 78.788 214.032 78.9 214.209 79.124C214.387 79.3387 214.475 79.586 214.475 79.866C214.475 80.1553 214.382 80.412 214.195 80.636C214.018 80.8507 213.719 80.958 213.299 80.958H204.465ZM213.817 81.798C214.032 81.798 214.214 81.8353 214.363 81.91C214.513 81.9753 214.634 82.064 214.727 82.176C214.821 82.2787 214.886 82.4 214.923 82.54C214.97 82.68 214.993 82.82 214.993 82.96C214.993 83.2493 214.9 83.5153 214.713 83.758C214.536 83.9913 214.237 84.108 213.817 84.108H203.065C202.645 84.108 202.342 83.9913 202.155 83.758C201.978 83.5153 201.889 83.2493 201.889 82.96C201.889 82.82 201.908 82.68 201.945 82.54C201.992 82.4 202.062 82.2787 202.155 82.176C202.249 82.064 202.37 81.9753 202.519 81.91C202.669 81.8353 202.851 81.798 203.065 81.798H213.817ZM222.403 88.504C221.946 88.504 221.577 88.4713 221.297 88.406C221.017 88.3407 220.798 88.224 220.639 88.056C220.49 87.8973 220.387 87.678 220.331 87.398C220.275 87.118 220.247 86.7587 220.247 86.32V78.578C220.247 78.1393 220.275 77.78 220.331 77.5C220.387 77.22 220.49 77.0007 220.639 76.842C220.798 76.674 221.017 76.562 221.297 76.506C221.577 76.4407 221.946 76.408 222.403 76.408H226.897C227.103 76.408 227.271 76.4453 227.401 76.52C227.541 76.5947 227.653 76.688 227.737 76.8C227.821 76.912 227.882 77.038 227.919 77.178C227.957 77.318 227.975 77.4533 227.975 77.584C227.975 77.724 227.957 77.864 227.919 78.004C227.882 78.144 227.821 78.27 227.737 78.382C227.653 78.494 227.541 78.5873 227.401 78.662C227.261 78.7367 227.093 78.774 226.897 78.774H223.425C223.295 78.774 223.201 78.802 223.145 78.858C223.089 78.914 223.061 79.0213 223.061 79.18V85.76C223.061 85.9187 223.089 86.026 223.145 86.082C223.201 86.138 223.295 86.166 223.425 86.166H227.779C227.985 86.166 228.153 86.2033 228.283 86.278C228.423 86.3527 228.531 86.446 228.605 86.558C228.689 86.67 228.745 86.796 228.773 86.936C228.811 87.076 228.829 87.2113 228.829 87.342C228.829 87.482 228.811 87.622 228.773 87.762C228.745 87.8927 228.689 88.014 228.605 88.126C228.521 88.238 228.409 88.3267 228.269 88.392C228.139 88.4667 227.975 88.504 227.779 88.504H222.403ZM229.739 89.064V77.304C229.739 76.8467 229.879 76.5013 230.159 76.268C230.439 76.0347 230.766 75.918 231.139 75.918C231.513 75.918 231.839 76.0347 232.119 76.268C232.399 76.5013 232.539 76.8467 232.539 77.304V89.064H229.739ZM236.585 78.844H234.793C234.579 78.844 234.397 78.8113 234.247 78.746C234.107 78.6713 233.986 78.578 233.883 78.466C233.79 78.354 233.72 78.228 233.673 78.088C233.636 77.9387 233.617 77.794 233.617 77.654C233.617 77.514 233.636 77.374 233.673 77.234C233.72 77.0847 233.79 76.954 233.883 76.842C233.977 76.73 234.098 76.6367 234.247 76.562C234.397 76.4873 234.579 76.45 234.793 76.45H241.121C241.336 76.45 241.513 76.4873 241.653 76.562C241.803 76.6367 241.924 76.73 242.017 76.842C242.111 76.954 242.176 77.0847 242.213 77.234C242.251 77.374 242.269 77.514 242.269 77.654C242.269 77.794 242.246 77.9387 242.199 78.088C242.162 78.228 242.097 78.354 242.003 78.466C241.919 78.578 241.803 78.6713 241.653 78.746C241.504 78.8113 241.327 78.844 241.121 78.844H239.301V80.356C239.301 80.6827 239.292 80.9953 239.273 81.294C239.255 81.5927 239.227 81.882 239.189 82.162C239.693 82.3393 240.146 82.5773 240.547 82.876C240.949 83.1747 241.285 83.5667 241.555 84.052C241.826 84.528 242.022 85.1113 242.143 85.802C242.274 86.4927 242.321 87.3187 242.283 88.28H239.665C239.749 87.3467 239.698 86.586 239.511 85.998C239.334 85.41 239.035 84.962 238.615 84.654C238.289 85.5407 237.855 86.2873 237.313 86.894C236.772 87.5007 236.137 87.9533 235.409 88.252C235.26 88.3173 235.097 88.35 234.919 88.35C234.751 88.3593 234.583 88.3407 234.415 88.294C234.257 88.2567 234.107 88.1913 233.967 88.098C233.837 88.014 233.739 87.902 233.673 87.762C233.533 87.5007 233.496 87.2253 233.561 86.936C233.636 86.6467 233.813 86.4133 234.093 86.236C234.532 85.9653 234.905 85.648 235.213 85.284C235.531 84.92 235.792 84.5 235.997 84.024C236.203 83.5387 236.352 82.988 236.445 82.372C236.539 81.756 236.585 81.0607 236.585 80.286V78.844ZM243.361 77.276C243.361 76.828 243.501 76.492 243.781 76.268C244.061 76.0347 244.383 75.918 244.747 75.918C244.925 75.918 245.097 75.9507 245.265 76.016C245.433 76.072 245.578 76.156 245.699 76.268C245.83 76.38 245.933 76.52 246.007 76.688C246.091 76.856 246.133 77.052 246.133 77.276V80.818H246.595C246.81 80.818 246.987 80.8553 247.127 80.93C247.267 81.0047 247.379 81.1027 247.463 81.224C247.547 81.336 247.608 81.4667 247.645 81.616C247.683 81.756 247.701 81.896 247.701 82.036C247.701 82.176 247.683 82.3207 247.645 82.47C247.608 82.61 247.547 82.7407 247.463 82.862C247.379 82.974 247.263 83.0673 247.113 83.142C246.973 83.2167 246.801 83.254 246.595 83.254H246.133V89.064H243.361V77.276ZM248.177 79.936C248.177 79.32 248.275 78.7787 248.471 78.312C248.667 77.836 248.938 77.4393 249.283 77.122C249.638 76.7953 250.058 76.5527 250.543 76.394C251.029 76.226 251.565 76.142 252.153 76.142C252.741 76.142 253.278 76.226 253.763 76.394C254.249 76.5527 254.669 76.7907 255.023 77.108C255.378 77.4253 255.653 77.822 255.849 78.298C256.045 78.774 256.143 79.32 256.143 79.936V85.004C256.143 85.62 256.045 86.166 255.849 86.642C255.653 87.118 255.378 87.5147 255.023 87.832C254.678 88.1493 254.258 88.3873 253.763 88.546C253.278 88.714 252.746 88.798 252.167 88.798C251.579 88.798 251.043 88.714 250.557 88.546C250.072 88.3873 249.652 88.1493 249.297 87.832C248.943 87.5147 248.667 87.118 248.471 86.642C248.275 86.166 248.177 85.62 248.177 85.004V79.936ZM250.949 85.06C250.949 85.536 251.061 85.8953 251.285 86.138C251.519 86.3713 251.808 86.488 252.153 86.488C252.499 86.488 252.788 86.3713 253.021 86.138C253.255 85.8953 253.371 85.536 253.371 85.06V79.88C253.371 79.404 253.255 79.0447 253.021 78.802C252.788 78.5593 252.499 78.4427 252.153 78.452C251.808 78.4613 251.519 78.5873 251.285 78.83C251.061 79.0633 250.949 79.4133 250.949 79.88V85.06ZM257.739 89.064V77.304C257.739 76.8467 257.879 76.5013 258.159 76.268C258.439 76.0347 258.766 75.918 259.139 75.918C259.513 75.918 259.839 76.0347 260.119 76.268C260.399 76.5013 260.539 76.8467 260.539 77.304V89.064H257.739ZM271.753 83.03H269.051C268.837 83.03 268.655 82.9927 268.505 82.918C268.365 82.8433 268.244 82.75 268.141 82.638C268.048 82.5167 267.978 82.386 267.931 82.246C267.894 82.0967 267.875 81.952 267.875 81.812C267.875 81.672 267.894 81.532 267.931 81.392C267.978 81.2427 268.048 81.112 268.141 81C268.235 80.8787 268.356 80.7807 268.505 80.706C268.655 80.6313 268.837 80.594 269.051 80.594H271.753V77.276C271.753 76.828 271.893 76.492 272.173 76.268C272.453 76.0347 272.775 75.918 273.139 75.918C273.317 75.918 273.489 75.9507 273.657 76.016C273.825 76.072 273.975 76.156 274.105 76.268C274.236 76.38 274.339 76.52 274.413 76.688C274.497 76.856 274.539 77.052 274.539 77.276V89.064H271.753V83.03ZM269.499 85.998C269.705 85.998 269.873 86.0353 270.003 86.11C270.143 86.1847 270.251 86.278 270.325 86.39C270.409 86.502 270.465 86.628 270.493 86.768C270.531 86.908 270.549 87.0433 270.549 87.174C270.549 87.314 270.531 87.454 270.493 87.594C270.465 87.734 270.409 87.86 270.325 87.972C270.241 88.084 270.129 88.1773 269.989 88.252C269.859 88.3267 269.695 88.364 269.499 88.364H264.389C263.969 88.364 263.619 88.3267 263.339 88.252C263.069 88.1773 262.854 88.056 262.695 87.888C262.537 87.7107 262.425 87.4867 262.359 87.216C262.294 86.936 262.261 86.5953 262.261 86.194V77.808C262.261 77.3413 262.401 77.0053 262.681 76.8C262.961 76.5853 263.293 76.478 263.675 76.478C264.067 76.478 264.394 76.5853 264.655 76.8C264.917 77.0053 265.047 77.3413 265.047 77.808V85.62C265.047 85.7787 265.071 85.8813 265.117 85.928C265.173 85.9747 265.281 85.998 265.439 85.998H269.499ZM278.403 88.504C277.946 88.504 277.577 88.4713 277.297 88.406C277.017 88.3407 276.798 88.224 276.639 88.056C276.49 87.8973 276.387 87.678 276.331 87.398C276.275 87.118 276.247 86.7587 276.247 86.32V78.578C276.247 78.1393 276.275 77.78 276.331 77.5C276.387 77.22 276.49 77.0007 276.639 76.842C276.798 76.674 277.017 76.562 277.297 76.506C277.577 76.4407 277.946 76.408 278.403 76.408H282.855C283.061 76.408 283.229 76.4453 283.359 76.52C283.499 76.5947 283.607 76.688 283.681 76.8C283.765 76.912 283.821 77.038 283.849 77.178C283.887 77.318 283.905 77.4533 283.905 77.584C283.905 77.724 283.887 77.864 283.849 78.004C283.821 78.144 283.765 78.27 283.681 78.382C283.597 78.494 283.485 78.5873 283.345 78.662C283.215 78.7367 283.051 78.774 282.855 78.774H279.369C279.239 78.774 279.145 78.802 279.089 78.858C279.033 78.914 279.005 79.0213 279.005 79.18V85.76C279.005 85.9187 279.033 86.026 279.089 86.082C279.145 86.138 279.239 86.166 279.369 86.166H283.499C283.705 86.166 283.873 86.2033 284.003 86.278C284.143 86.3527 284.251 86.446 284.325 86.558C284.409 86.67 284.465 86.796 284.493 86.936C284.531 87.076 284.549 87.2113 284.549 87.342C284.549 87.482 284.531 87.622 284.493 87.762C284.465 87.8927 284.409 88.014 284.325 88.126C284.241 88.238 284.129 88.3267 283.989 88.392C283.859 88.4667 283.695 88.504 283.499 88.504H278.403ZM285.361 77.276C285.361 76.828 285.501 76.492 285.781 76.268C286.061 76.0347 286.383 75.918 286.747 75.918C286.925 75.918 287.097 75.9507 287.265 76.016C287.433 76.072 287.578 76.156 287.699 76.268C287.83 76.38 287.933 76.52 288.007 76.688C288.091 76.856 288.133 77.052 288.133 77.276V80.818H288.595C288.81 80.818 288.987 80.8553 289.127 80.93C289.267 81.0047 289.379 81.1027 289.463 81.224C289.547 81.336 289.608 81.4667 289.645 81.616C289.683 81.756 289.701 81.896 289.701 82.036C289.701 82.176 289.683 82.3207 289.645 82.47C289.608 82.61 289.547 82.7407 289.463 82.862C289.379 82.974 289.263 83.0673 289.113 83.142C288.973 83.2167 288.801 83.254 288.595 83.254H288.133V89.064H285.361V77.276Z" fill="#FAFAFA"/>
<path d="M70.84 115.806C70.84 112.376 73.612 109.59 77.042 109.59C80.472 109.59 83.258 112.376 83.258 115.806C83.258 119.222 80.472 122.008 77.042 122.008C73.612 122.008 70.84 119.222 70.84 115.806ZM71.694 115.806C71.694 118.732 74.116 121.154 77.042 121.154C79.982 121.154 82.39 118.732 82.39 115.806C82.39 112.866 79.982 110.458 77.042 110.458C74.116 110.458 71.694 112.866 71.694 115.806ZM74.704 117.206H75.628C75.53 118.046 76.132 118.634 77.084 118.634C77.952 118.634 78.554 118.102 78.554 117.332C78.554 116.604 77.952 116.086 77.112 116.086H76.468V115.218H77.112C77.896 115.218 78.456 114.756 78.456 114.098C78.456 113.412 77.91 112.922 77.14 112.922C76.272 112.922 75.74 113.454 75.824 114.224H74.9C74.83 112.964 75.754 112.068 77.14 112.068C78.456 112.068 79.38 112.908 79.38 114.112C79.38 114.63 79.016 115.26 78.498 115.666C79.072 116.058 79.478 116.744 79.478 117.318C79.478 118.592 78.484 119.488 77.084 119.488C75.614 119.488 74.634 118.55 74.704 117.206ZM98.9509 115.764C99.0069 116.114 98.9369 116.716 98.9369 116.716C98.6709 119.614 96.8649 121.056 94.1909 121.112C91.2789 121.112 89.2209 118.984 89.2209 115.946C89.2209 112.922 91.2789 110.794 94.1909 110.794C97.3269 110.794 98.4049 113.23 98.4049 113.23L97.5089 113.636C97.5089 113.636 96.6829 111.69 94.1909 111.69C91.8669 111.69 90.2289 113.454 90.2289 115.946C90.2289 118.452 91.8669 120.216 94.1909 120.216C96.4029 120.132 97.7189 118.97 97.9289 116.66H94.3729V115.764H98.9509ZM101.293 111.004H106.879V118.9H101.293V111.004ZM102.315 118.046H105.857V111.858H102.315V118.046ZM109.133 122.022V109.772H110.183V114.7H112.213V115.582H110.183V122.022H109.133ZM122.363 109.772H123.357V118.102H122.363V109.772ZM113.123 113.398L117.113 113.132C117.267 112.67 117.365 112.18 117.393 111.676H113.697V110.822H118.443C118.443 111.732 118.317 112.586 118.051 113.384H119.969V109.996H120.963V116.996H119.969V114.252H117.673C116.945 115.666 115.657 116.842 113.669 117.724L113.137 116.94C114.957 116.17 116.119 115.148 116.777 113.916L113.291 114.28L113.123 113.398ZM114.551 121.154C116.665 120.804 118.765 119.46 118.765 117.794V117.388H119.815V117.794C119.815 119.46 121.915 120.804 124.001 121.154L123.609 121.98C121.803 121.658 120.039 120.678 119.283 119.278C118.541 120.678 116.777 121.658 114.971 121.98L114.551 121.154ZM131.526 110.5H132.548V112.068C132.548 113.776 133.822 115.344 135.6 115.974L135.068 116.8C133.682 116.296 132.604 115.246 132.072 113.944C131.568 115.414 130.462 116.548 129.02 117.122L128.446 116.282C130.294 115.61 131.526 113.958 131.526 112.04V110.5ZM130.406 121.742V117.948H131.456V120.874H138.526V121.742H130.406ZM136.916 118.816V109.758H137.966V113.538H139.8V114.42H137.966V118.816H136.916ZM145.666 110.612H146.758V111.564C146.758 113.692 149.166 115.554 151.252 115.946L150.762 116.814C148.956 116.394 146.996 115.078 146.212 113.272C145.428 115.078 143.482 116.394 141.662 116.814L141.2 115.946C143.258 115.54 145.666 113.692 145.666 111.564V110.612ZM140.71 120.342V119.474H151.812V120.342H140.71ZM157.615 112.936C157.979 112.936 158.231 113.188 158.231 113.552C158.231 113.916 157.979 114.182 157.615 114.182C157.251 114.182 156.985 113.916 156.985 113.552C156.985 113.188 157.251 112.936 157.615 112.936ZM156.985 118.27C156.985 117.906 157.251 117.654 157.615 117.654C157.979 117.654 158.231 117.906 158.231 118.27C158.231 118.634 157.979 118.9 157.615 118.9C157.251 118.9 156.985 118.634 156.985 118.27ZM176.132 117.164H174.732V122.456H172.366V110.5H174.732V114.868H176.132V117.164ZM168.712 119.726C169.291 119.726 169.86 119.679 170.42 119.586C170.99 119.493 171.452 119.362 171.806 119.194V121.336C171.452 121.513 170.985 121.649 170.406 121.742C169.828 121.845 169.24 121.896 168.642 121.896H163.91V110.71H166.332V119.726H168.712ZM180.079 113.328H188.451V115.288H177.699V110.43H180.079V113.328ZM189.067 118.088H176.971V116.114H189.067V118.088ZM180.079 120.482H188.507V122.456H177.671V118.746H180.079V120.482ZM205.926 122.456H203.56V110.5H205.926V122.456ZM201.992 112.936H197.288V119.74H199.836C200.405 119.74 200.97 119.693 201.53 119.6C202.099 119.497 202.566 119.362 202.93 119.194V121.322C202.575 121.499 202.099 121.639 201.502 121.742C200.914 121.845 200.326 121.896 199.738 121.896H194.894V110.78H201.992V112.936ZM220.457 117.164H219.057V122.456H216.691V110.5H219.057V114.868H220.457V117.164ZM213.275 112.95C213.247 114.042 213.149 115.041 212.981 115.946L216.397 120.454L214.521 121.84L212.169 118.606C211.683 119.651 211.072 120.459 210.335 121.028C209.607 121.597 208.799 121.887 207.913 121.896V119.516C208.491 119.451 209 119.143 209.439 118.592C209.877 118.032 210.223 117.271 210.475 116.31C210.727 115.339 210.867 114.219 210.895 112.95H208.249V110.78H215.781V112.95H213.275ZM232.859 122.456H230.493V110.5H232.859V122.456ZM225.411 110.64C226.578 110.64 227.493 111.116 228.155 112.068C228.827 113.011 229.163 114.434 229.163 116.338C229.163 118.242 228.827 119.67 228.155 120.622C227.493 121.565 226.578 122.036 225.411 122.036C224.245 122.036 223.325 121.565 222.653 120.622C221.981 119.67 221.645 118.242 221.645 116.338C221.645 114.434 221.981 113.011 222.653 112.068C223.325 111.116 224.245 110.64 225.411 110.64ZM225.411 112.81C224.459 112.81 223.983 113.986 223.983 116.338C223.983 118.69 224.459 119.866 225.411 119.866C226.354 119.866 226.825 118.69 226.825 116.338C226.825 115.087 226.695 114.187 226.433 113.636C226.181 113.085 225.841 112.81 225.411 112.81ZM246.382 110.5V122.456H244.016V116.548H240.32V114.266H244.016V110.5H246.382ZM239.872 119.726C240.442 119.726 241.006 119.679 241.566 119.586C242.136 119.483 242.602 119.348 242.966 119.18V121.322C242.612 121.499 242.14 121.639 241.552 121.742C240.974 121.845 240.39 121.896 239.802 121.896H235.238V110.71H237.674V119.726H239.872ZM260.857 117.164H259.457V122.456H257.091V110.5H259.457V114.868H260.857V117.164ZM253.437 119.754C254.016 119.754 254.585 119.707 255.145 119.614C255.714 119.521 256.176 119.39 256.531 119.222V121.336C256.186 121.513 255.705 121.649 255.089 121.742C254.482 121.845 253.876 121.896 253.269 121.896H248.635V110.78H255.593V112.922H251.043V119.754H253.437Z" fill="#FAFAFA"/>
<path d="M70.84 148.806C70.84 145.376 73.612 142.59 77.042 142.59C80.472 142.59 83.258 145.376 83.258 148.806C83.258 152.222 80.472 155.008 77.042 155.008C73.612 155.008 70.84 152.222 70.84 148.806ZM71.694 148.806C71.694 151.732 74.116 154.154 77.042 154.154C79.982 154.154 82.39 151.732 82.39 148.806C82.39 145.866 79.982 143.458 77.042 143.458C74.116 143.458 71.694 145.866 71.694 148.806ZM74.2 149.66L77.462 145.124H78.316V149.59H79.366V150.444H78.316V152.432H77.392V150.444H74.34L74.2 149.66ZM75.404 149.59H77.392V146.818L75.404 149.59ZM89.3189 143.892H90.3269V154H89.3189V143.892ZM97.5115 149.8C97.5115 148.61 96.7555 147.77 95.6915 147.77C94.4315 147.77 93.5495 148.75 93.5495 149.8V154H92.5415V146.874H93.5495V148.092C94.0395 147.378 94.9215 146.874 95.6915 146.874C97.3575 146.874 98.5195 148.036 98.5195 149.702V154H97.5115V149.8ZM102.554 154.028C101.462 154.028 100.678 153.23 100.636 152.068V147.784H99.4744V146.888H100.636V145.04H101.644V146.888H103.45V147.784H101.644V151.984C101.644 152.586 102.022 153.104 102.554 153.104C102.876 153.104 103.002 153.062 103.24 153.02L103.408 153.944C103.17 153.986 102.96 154.028 102.554 154.028ZM109.96 150.038C109.848 148.89 109.344 147.742 107.832 147.742C106.6 147.742 105.634 148.694 105.466 150.052L109.96 150.038ZM104.43 150.444C104.43 148.33 105.816 146.846 107.79 146.846C110.002 146.846 110.632 148.61 110.702 148.778C111.122 149.926 110.954 150.92 110.954 150.934H105.466C105.648 152.236 106.614 153.146 107.804 153.146C109.414 153.146 109.89 152.152 109.988 152.012L110.772 152.474C110.772 152.474 110.128 154.042 107.79 154.042C105.816 154.042 104.43 152.558 104.43 150.444ZM113.44 148.372C113.832 147.448 114.882 146.804 115.974 146.804V147.784C114.63 147.784 113.44 148.974 113.44 150.332V154H112.432V146.874H113.44V148.372ZM121.754 145.936C122.118 145.936 122.37 146.188 122.37 146.552C122.37 146.916 122.118 147.182 121.754 147.182C121.39 147.182 121.124 146.916 121.124 146.552C121.124 146.188 121.39 145.936 121.754 145.936ZM121.124 151.27C121.124 150.906 121.39 150.654 121.754 150.654C122.118 150.654 122.37 150.906 122.37 151.27C122.37 151.634 122.118 151.9 121.754 151.9C121.39 151.9 121.124 151.634 121.124 151.27ZM137.191 147.182H139.473V148.708H137.191V147.182ZM135.805 142.268H137.681V155.232H135.805V142.268ZM127.909 143.514H129.771V151.564H127.909V143.514ZM127.909 150.528H129.029C130.877 150.528 132.879 150.402 134.965 149.982L135.161 151.508C133.019 151.956 130.933 152.068 129.029 152.068H127.909V150.528ZM141.852 145.782H150.84V147.252H141.852V145.782ZM140.396 148.596H152.142V150.08H140.396V148.596ZM141.852 142.744H143.7V146.51H141.852V142.744ZM141.726 153.482H150.91V154.966H141.726V153.482ZM141.726 151.116H143.588V153.874H141.726V151.116ZM165.405 142.282H167.281V155.288H165.405V142.282ZM157.299 150.64H158.419C161.149 150.64 162.689 150.584 164.425 150.262L164.593 151.788C162.843 152.138 161.205 152.194 158.419 152.194H157.299V150.64ZM157.299 143.43H163.557V144.928H159.147V151.228H157.299V143.43ZM172.306 144.326H173.776V145.782C173.776 148.708 172.544 151.69 170.164 152.81L169.114 151.34C171.256 150.332 172.306 147.91 172.306 145.782V144.326ZM172.698 144.326H174.168V145.782C174.168 147.742 175.176 150.038 177.304 151.018L176.282 152.488C173.902 151.382 172.698 148.54 172.698 145.782V144.326ZM169.618 143.528H176.73V145.054H169.618V143.528ZM177.682 142.282H179.558V155.246H177.682V142.282ZM179.138 147.224H181.434V148.764H179.138V147.224ZM191.163 142.268H193.039V155.274H191.163V142.268ZM186.053 143.178C188.013 143.178 189.455 144.97 189.455 147.798C189.455 150.654 188.013 152.446 186.053 152.446C184.093 152.446 182.651 150.654 182.651 147.798C182.651 144.97 184.093 143.178 186.053 143.178ZM186.053 144.872C185.087 144.872 184.429 145.894 184.429 147.798C184.429 149.73 185.087 150.766 186.053 150.766C187.019 150.766 187.663 149.73 187.663 147.798C187.663 145.894 187.019 144.872 186.053 144.872ZM204.182 142.282H206.044V155.288H204.182V142.282ZM200.696 146.286H204.714V147.784H200.696V146.286ZM195.824 143.668H197.672V151.718H195.824V143.668ZM195.824 150.696H196.916C198.764 150.696 200.682 150.57 202.698 150.164L202.894 151.704C200.808 152.124 198.82 152.236 196.916 152.236H195.824V150.696ZM216.319 142.268H218.195V155.274H216.319V142.268ZM217.775 147.07H220.071V148.596H217.775V147.07ZM208.535 150.612H209.627C211.811 150.612 213.533 150.542 215.437 150.206L215.619 151.746C213.659 152.096 211.881 152.152 209.627 152.152H208.535V150.612ZM208.535 143.472H214.583V144.97H210.383V151.354H208.535V143.472Z" fill="#FAFAFA"/>
<path d="M70.84 181.806C70.84 178.376 73.612 175.59 77.042 175.59C80.472 175.59 83.258 178.376 83.258 181.806C83.258 185.222 80.472 188.008 77.042 188.008C73.612 188.008 70.84 185.222 70.84 181.806ZM71.694 181.806C71.694 184.732 74.116 187.154 77.042 187.154C79.982 187.154 82.39 184.732 82.39 181.806C82.39 178.866 79.982 176.458 77.042 176.458C74.116 176.458 71.694 178.866 71.694 181.806ZM74.662 183.626L75.558 183.416C75.684 184.172 76.3 184.704 77.056 184.704C77.938 184.704 78.568 184.046 78.568 183.122C78.568 182.212 77.938 181.568 77.056 181.568C76.65 181.568 76.174 181.806 75.894 182.156L75.012 182.002L75.194 178.194H78.988V179.048H76.104L75.978 180.924C76.286 180.784 76.734 180.686 77.056 180.686C78.498 180.686 79.506 181.694 79.506 183.122C79.506 184.578 78.498 185.6 77.056 185.6C75.852 185.6 74.858 184.788 74.662 183.626ZM90.1169 176.36H98.3349V180.672H94.7369V182.31H99.7489V183.164H88.6889V182.31H93.7009V180.672H90.1169V176.36ZM90.1309 187.756V184.228H91.1809V186.888H98.5309V187.756H90.1309ZM91.1389 179.818H97.2989V177.2H91.1389V179.818ZM100.925 185.53H105.909V182.534H106.945V185.53H112.027V186.412H100.925V185.53ZM101.387 181.778C103.473 181.4 105.881 179.608 105.881 177.55V176.584H106.973V177.55C106.973 179.608 109.409 181.4 111.481 181.778L111.019 182.66C109.185 182.254 107.225 180.994 106.427 179.23C105.629 180.98 103.669 182.254 101.835 182.66L101.387 181.778ZM122.136 175.758H123.186V188.036H122.136V175.758ZM113.848 177.788V176.934H119.49V181.26H114.926V184.186C116.956 184.186 118.762 184.102 120.946 183.752L121.058 184.606C118.818 184.984 116.97 185.054 114.884 185.054H113.876V180.392H118.44V177.788H113.848ZM130.382 180.63H132.314V176.066H133.294V187.378H132.314V181.498H130.382V180.63ZM125.3 184.69C126.952 183.724 127.932 181.568 127.932 179.552V178.922H125.622V178.054H127.932V176.206H128.94V178.054H131.222V178.922H128.94V179.552C128.94 181.512 129.948 183.542 131.586 184.438L130.984 185.222C129.78 184.55 128.898 183.276 128.45 181.792C128.016 183.374 127.134 184.76 125.916 185.502L125.3 184.69ZM134.764 188.022V175.772H135.772V188.022H134.764ZM142.303 178.936C142.667 178.936 142.919 179.188 142.919 179.552C142.919 179.916 142.667 180.182 142.303 180.182C141.939 180.182 141.673 179.916 141.673 179.552C141.673 179.188 141.939 178.936 142.303 178.936ZM141.673 184.27C141.673 183.906 141.939 183.654 142.303 183.654C142.667 183.654 142.919 183.906 142.919 184.27C142.919 184.634 142.667 184.9 142.303 184.9C141.939 184.9 141.673 184.634 141.673 184.27ZM158.146 176.36V180.406H159.196V182.506H158.146V187H155.514V176.36H158.146ZM148.346 186.58V176.5H150.978V184.48H154.59V186.58H148.346ZM162.933 178.012H169.821V180.112H160.315V176.514H162.933V178.012ZM170.101 182.954V180.868H160.035V182.954H170.101ZM160.315 183.71H162.947V184.9H169.835V187H160.315V183.71ZM183.145 176.36H185.777V187H183.145V176.36ZM178.595 184.48H182.207V186.58H175.977V176.5H181.927V178.6H178.595V184.48ZM197.261 180.406H198.311V182.506H197.261V187H194.629V176.36H197.261V180.406ZM191.829 179.006C191.829 180.117 191.922 181.073 192.109 181.876C192.296 182.669 192.552 183.281 192.879 183.71C193.206 184.13 193.579 184.363 193.999 184.41L193.439 186.58C192.935 186.543 192.431 186.361 191.927 186.034C191.423 185.707 190.98 185.227 190.597 184.592C190.205 185.227 189.757 185.707 189.253 186.034C188.749 186.361 188.245 186.543 187.741 186.58L187.181 184.41C187.928 184.345 188.474 183.864 188.819 182.968C189.174 182.072 189.351 180.751 189.351 179.006V178.6H187.461V176.5H193.705V178.6H191.829V179.006ZM206.347 176.36H208.979V187H206.347V176.36ZM202.287 176.472C203.313 176.472 204.093 176.743 204.625 177.284C205.157 177.825 205.423 178.619 205.423 179.664V183.388C205.423 184.433 205.157 185.227 204.625 185.768C204.093 186.309 203.313 186.58 202.287 186.58C201.26 186.58 200.481 186.309 199.949 185.768C199.417 185.227 199.151 184.433 199.151 183.388V179.664C199.151 178.619 199.417 177.825 199.949 177.284C200.481 176.743 201.26 176.472 202.287 176.472ZM202.287 178.572C201.941 178.572 201.769 178.749 201.769 179.104V183.948C201.769 184.303 201.941 184.48 202.287 184.48C202.632 184.48 202.805 184.303 202.805 183.948V179.104C202.805 178.749 202.632 178.572 202.287 178.572ZM217.97 176.332H220.602V187H217.97V182.506H216.29V180.406H217.97V176.332ZM210.662 186.58V176.472H213.294V184.48H216.906V186.58H210.662ZM232.083 176.36V180.406H233.133V182.506H232.083V187H229.451V176.36H232.083ZM222.283 176.5H228.233V178.6H224.915V184.48H228.513V186.58H222.283V176.5Z" fill="#FAFAFA"/>
</svg>
