<svg width="360" height="230" viewBox="0 0 360 230" fill="none" xmlns="http://www.w3.org/2000/svg">
<rect width="360" height="230" fill="#171717"/>
<path d="M25.84 49.806C25.84 46.376 28.612 43.59 32.042 43.59C35.472 43.59 38.258 46.376 38.258 49.806C38.258 53.222 35.472 56.008 32.042 56.008C28.612 56.008 25.84 53.222 25.84 49.806ZM26.694 49.806C26.694 52.732 29.116 55.154 32.042 55.154C34.982 55.154 37.39 52.732 37.39 49.806C37.39 46.866 34.982 44.458 32.042 44.458C29.116 44.458 26.694 46.866 26.694 49.806ZM30.39 47.23L31.902 46.208H32.714V53.502H31.818V47.342L30.908 47.944L30.39 47.23ZM43.7029 49.232H54.7489V50.044H49.7369V51.206H53.3209V53.852H46.0969V55.07H53.6989V55.882H45.0749V53.096H52.2989V52.004H45.0329V51.206H48.6869V50.044H43.7029V49.232ZM44.2909 47.846C46.5169 47.706 48.4629 46.922 48.6449 45.662H44.8369V44.85H48.7009V43.688H49.7509V44.85H53.6289V45.662H49.8069C49.9889 46.922 51.9209 47.706 54.1469 47.846L53.8389 48.658C51.8229 48.49 49.9749 47.846 49.2189 46.684C48.4769 47.846 46.6289 48.49 44.6129 48.658L44.2909 47.846ZM56.4012 44.514H61.6792V47.944H57.4792V49.876C59.7892 49.876 60.9652 49.834 62.4072 49.568L62.5192 50.422C60.9932 50.688 59.7752 50.73 57.2972 50.73H56.4432V47.118H60.6432V45.382H56.4012V44.514ZM57.8012 52.83V51.976H65.9772V56.05H64.9272V52.83H57.8012ZM62.4912 48.994V48.14H64.9272V46.474H62.4912V45.606H64.9272V43.786H65.9772V51.304H64.9272V48.994H62.4912ZM68.1616 48.98H79.2216V49.834H74.2096V51.066H77.7936V53.768H70.5696V55.056H78.1716V55.882H69.5476V52.998H76.7716V51.878H69.5056V51.066H73.1596V49.834H68.1616V48.98ZM69.6176 47.902V44.192H77.7796V47.902H69.6176ZM70.6396 47.062H76.7576V45.032H70.6396V47.062ZM85.9279 43.996C88.6159 43.996 90.2259 44.738 90.2259 46.11C90.2259 47.482 88.6159 48.238 85.9279 48.238C83.2399 48.238 81.6299 47.482 81.6299 46.11C81.6299 44.738 83.2399 43.996 85.9279 43.996ZM80.3979 49.946V49.092H91.4579V49.946H80.3979ZM81.7419 51.836V51.024H90.0299V53.74H82.8059V55.056H90.4079V55.882H81.7839V52.97H89.0079V51.836H81.7419ZM82.7079 46.11C82.7079 46.964 83.9119 47.44 85.9279 47.44C87.9439 47.44 89.1479 46.964 89.1479 46.11C89.1479 45.27 87.9439 44.78 85.9279 44.78C83.9119 44.78 82.7079 45.27 82.7079 46.11ZM102.371 46.768H104.849V43.772H105.885V50.422H104.849V47.636H102.371V46.768ZM95.9028 49.792C97.6948 49.134 98.9968 47.524 98.9968 45.76V45.368H96.2388V44.528H102.777V45.368H100.047V45.746C100.047 47.356 101.293 48.882 103.057 49.512L102.511 50.338C101.139 49.834 100.075 48.798 99.5568 47.524C99.0388 48.952 97.8908 50.086 96.4488 50.632L95.9028 49.792ZM98.1008 55.854V51.01H99.1368V52.564H104.863V51.01H105.885V55.854H98.1008ZM99.1368 54.986H104.863V53.404H99.1368V54.986ZM113.627 43.996C116.315 43.996 117.925 44.738 117.925 46.11C117.925 47.482 116.315 48.238 113.627 48.238C110.939 48.238 109.329 47.482 109.329 46.11C109.329 44.738 110.939 43.996 113.627 43.996ZM108.097 49.946V49.092H119.157V49.946H108.097ZM109.441 51.836V51.024H117.729V53.74H110.505V55.056H118.107V55.882H109.483V52.97H116.707V51.836H109.441ZM110.407 46.11C110.407 46.964 111.611 47.44 113.627 47.44C115.643 47.44 116.847 46.964 116.847 46.11C116.847 45.27 115.643 44.78 113.627 44.78C111.611 44.78 110.407 45.27 110.407 46.11ZM128.558 44.22H129.65V44.92C129.65 46.656 131.918 48.154 134.074 48.476L133.64 49.316C131.778 48.994 129.902 47.93 129.118 46.432C128.348 47.958 126.458 48.994 124.568 49.316L124.134 48.476C126.318 48.154 128.558 46.698 128.558 44.92V44.22ZM123.56 51.57V50.702H134.634V51.57H129.594V56.022H128.558V51.57H123.56ZM142.117 51.332H143.125V52.004C143.125 53.11 143.713 54.272 144.861 54.944C146.051 54.202 146.653 52.956 146.653 52.004V51.332H147.675V52.004C147.675 53.278 148.613 54.538 150.153 55.07L149.635 55.854C148.431 55.42 147.577 54.552 147.143 53.53C146.779 54.524 146.037 55.476 144.903 55.966C143.727 55.504 142.971 54.608 142.607 53.572C142.173 54.552 141.333 55.406 140.171 55.854L139.639 55.07C141.179 54.51 142.117 53.18 142.117 52.004V51.332ZM139.317 47.356C139.317 45.662 140.647 44.5 142.495 44.5C144.343 44.5 145.673 45.662 145.673 47.356C145.673 49.036 144.343 50.184 142.495 50.184C140.647 50.184 139.317 49.036 139.317 47.356ZM140.339 47.356C140.339 48.518 141.249 49.316 142.495 49.316C143.755 49.316 144.651 48.518 144.651 47.356C144.651 46.194 143.755 45.382 142.495 45.382C141.249 45.382 140.339 46.194 140.339 47.356ZM147.997 50.786V43.786H149.061V50.786H147.997ZM152.687 44.752H160.933V45.62H153.737V49.512H161.073V50.38H157.307V53.572H162.361V54.454H151.259V53.572H156.271V50.38H152.687V44.752ZM163.496 50.534H168.508V49.19H164.938V46.25H172.12V44.934H164.91V44.094H173.156V47.02H165.96V48.364H173.422V49.19H169.558V50.534H174.598V51.402H163.496V50.534ZM164.728 53.222V52.354H173.226V55.896H172.176V53.222H164.728ZM180.386 44.752H188.632V45.62H181.436V49.512H188.772V50.38H185.006V53.572H190.06V54.454H178.958V53.572H183.97V50.38H180.386V44.752ZM194.863 44.57C196.739 44.57 198.083 45.746 198.083 47.44C198.083 48.98 196.991 50.072 195.395 50.282V52.382C196.529 52.326 197.677 52.242 198.741 52.102L198.825 52.886C196.249 53.32 193.365 53.348 191.223 53.348L191.055 52.466C192.035 52.466 193.169 52.466 194.345 52.424V50.282C192.735 50.086 191.629 48.994 191.629 47.44C191.629 45.746 192.973 44.57 194.863 44.57ZM192.651 47.44C192.651 48.602 193.575 49.414 194.863 49.414C196.137 49.414 197.061 48.602 197.061 47.44C197.061 46.278 196.137 45.466 194.863 45.466C193.575 45.466 192.651 46.278 192.651 47.44ZM199.525 56.022V43.772H200.561V48.854H202.549V49.736H200.561V56.022H199.525ZM203.431 50.786H214.505V51.654H209.465V56.022H208.429V51.654H203.431V50.786ZM204.103 48.868C206.189 48.56 208.387 47.16 208.387 45.508V45.41H204.481V44.556H213.427V45.41H209.549V45.508C209.549 47.16 211.747 48.56 213.833 48.868L213.427 49.722C211.565 49.4 209.703 48.364 208.975 46.88C208.233 48.364 206.371 49.4 204.509 49.722L204.103 48.868ZM217.179 44.22H218.215V47.496H225.481V48.35H217.179V44.22ZM215.667 50.898V50.03H226.769V50.898H215.667ZM217.109 55.728V52.144H218.145V54.86H225.551V55.728H217.109ZM237.64 46.768H240.118V43.772H241.154V50.422H240.118V47.636H237.64V46.768ZM231.172 49.792C232.964 49.134 234.266 47.524 234.266 45.76V45.368H231.508V44.528H238.046V45.368H235.316V45.746C235.316 47.356 236.562 48.882 238.326 49.512L237.78 50.338C236.408 49.834 235.344 48.798 234.826 47.524C234.308 48.952 233.16 50.086 231.718 50.632L231.172 49.792ZM233.37 55.854V51.01H234.406V52.564H240.132V51.01H241.154V55.854H233.37ZM234.406 54.986H240.132V53.404H234.406V54.986ZM243.745 45.032H250.591V45.914H247.679V47.566C247.679 49.652 249.219 51.752 250.983 52.522L250.381 53.362C248.981 52.704 247.735 51.276 247.161 49.582C246.601 51.388 245.369 52.956 243.969 53.656L243.367 52.83C245.089 51.99 246.629 49.68 246.629 47.566V45.914H243.745V45.032ZM252.299 56.022V43.772H253.349V56.022H252.299ZM261.889 46.684H264.605V43.786H265.655V52.956H264.605V47.566H261.889V46.684ZM255.617 50.338C257.409 49.652 258.697 47.93 258.697 46.04V44.5H259.733V46.068C259.733 47.804 260.993 49.414 262.729 50.072L262.169 50.884C260.825 50.352 259.761 49.274 259.243 47.93C258.725 49.414 257.605 50.59 256.163 51.178L255.617 50.338ZM257.801 55.742V51.92H258.851V54.874H265.949V55.742H257.801ZM273.369 43.996C276.057 43.996 277.667 44.738 277.667 46.11C277.667 47.482 276.057 48.238 273.369 48.238C270.681 48.238 269.071 47.482 269.071 46.11C269.071 44.738 270.681 43.996 273.369 43.996ZM267.839 49.946V49.092H278.899V49.946H267.839ZM269.183 51.836V51.024H277.471V53.74H270.247V55.056H277.849V55.882H269.225V52.97H276.449V51.836H269.183ZM270.149 46.11C270.149 46.964 271.353 47.44 273.369 47.44C275.385 47.44 276.589 46.964 276.589 46.11C276.589 45.27 275.385 44.78 273.369 44.78C271.353 44.78 270.149 45.27 270.149 46.11ZM291.758 43.772H292.808V46.446H294.628V47.314H292.808V50.016H291.758V43.772ZM283.848 49.358V44.472H289.448V49.358H283.848ZM284.87 48.518H288.426V45.312H284.87V48.518ZM285.066 51.444V50.604H292.808V53.572H286.13V55H293.256V55.854H285.094V52.774H291.772V51.444H285.066ZM303.981 43.786H305.031V47.832H306.865V48.714H305.031V52.97H303.981V43.786ZM295.581 46.138V45.284H298.675V43.786H299.725V45.284H302.819V46.138H295.581ZM296.281 49.12C296.281 47.734 297.457 46.838 299.193 46.838C300.929 46.838 302.119 47.734 302.119 49.12C302.119 50.492 300.929 51.388 299.193 51.388C297.457 51.388 296.281 50.492 296.281 49.12ZM297.275 49.12C297.275 49.988 298.045 50.562 299.193 50.562C300.341 50.562 301.111 49.988 301.111 49.12C301.111 48.238 300.341 47.664 299.193 47.664C298.045 47.664 297.275 48.238 297.275 49.12ZM297.443 55.742V52.228H298.479V54.874H305.605V55.742H297.443ZM316.133 43.758H317.183V48.63H319.213V49.512H317.183V56.036H316.133V43.758ZM308.321 52.97V44.976H314.005V45.83H309.357V52.074C311.611 52.074 313.165 52.004 314.957 51.654L315.083 52.55C313.193 52.9 311.597 52.97 309.273 52.97H308.321ZM321.033 53.782C321.439 53.782 321.719 54.062 321.719 54.468C321.719 54.888 321.439 55.182 321.033 55.182C320.613 55.182 320.319 54.888 320.319 54.468C320.319 54.062 320.613 53.782 321.033 53.782Z" fill="#FAFAFA"/>
<path d="M25.84 82.806C25.84 79.376 28.612 76.59 32.042 76.59C35.472 76.59 38.258 79.376 38.258 82.806C38.258 86.222 35.472 89.008 32.042 89.008C28.612 89.008 25.84 86.222 25.84 82.806ZM26.694 82.806C26.694 85.732 29.116 88.154 32.042 88.154C34.982 88.154 37.39 85.732 37.39 82.806C37.39 79.866 34.982 77.458 32.042 77.458C29.116 77.458 26.694 79.866 26.694 82.806ZM29.76 80.51C30.124 79.558 31.076 78.9 32.042 78.9C33.358 78.9 34.282 79.852 34.282 81.196C34.282 82.652 32.532 84.192 31.174 85.438H34.394V86.292H29.956L29.816 85.508C30.068 85.256 30.348 85.004 30.628 84.738C32.084 83.38 33.344 82.218 33.344 81.196C33.344 80.356 32.812 79.754 32.042 79.754C31.468 79.754 30.866 80.216 30.6 80.888L29.76 80.51ZM52.6489 76.786H53.7129V85.732H52.6489V76.786ZM43.9689 80.65C43.9689 78.872 45.3409 77.64 47.1469 77.64C48.9669 77.64 50.3249 78.872 50.3249 80.65C50.3249 82.4 48.9669 83.646 47.1469 83.646C45.3409 83.646 43.9689 82.4 43.9689 80.65ZM44.9909 80.65C44.9909 81.854 45.9289 82.722 47.1469 82.722C48.3789 82.722 49.3169 81.854 49.3169 80.65C49.3169 79.418 48.3789 78.55 47.1469 78.55C45.9289 78.55 44.9909 79.418 44.9909 80.65ZM45.8869 88.742V84.822H46.9229V87.874H54.0909V88.742H45.8869ZM58.5432 82.764H59.5512V85.284C60.4472 85.242 61.3572 85.158 62.1412 85.046L62.1972 85.83C60.1532 86.208 57.5492 86.25 55.9252 86.25L55.7712 85.368C56.5272 85.368 57.5072 85.368 58.5432 85.326V82.764ZM55.8832 82.33C57.5072 81.742 58.5292 80.342 58.5292 78.844V77.752H59.5652V78.844C59.5652 80.188 60.5592 81.49 62.0992 82.05L61.5672 82.862C60.3772 82.414 59.5092 81.532 59.0752 80.468C58.6272 81.672 57.7032 82.638 56.4152 83.142L55.8832 82.33ZM62.6452 88.35V77.052H63.6392V81.854H65.1652V76.772H66.1732V89.022H65.1652V82.722H63.6392V88.35H62.6452ZM80.7681 76.772H81.7761V89.022H80.7681V76.772ZM71.8501 86.054V78.284H76.4561V79.152H72.8861V85.172C74.6501 85.172 75.7701 85.102 77.0721 84.808L77.1841 85.69C75.7841 85.998 74.5941 86.054 72.6341 86.054H71.8501ZM75.6161 82.344V81.462H78.3041V77.066H79.2981V88.378H78.3041V82.344H75.6161ZM92.5705 76.758H93.6205V89.036H92.5705V76.758ZM84.0725 81.98C84.0725 79.376 85.3605 77.724 87.1805 77.724C88.9865 77.724 90.2745 79.376 90.2745 81.98C90.2745 84.584 88.9865 86.25 87.1805 86.25C85.3605 86.25 84.0725 84.584 84.0725 81.98ZM85.0945 81.98C85.0945 83.982 85.9485 85.312 87.1805 85.312C88.3985 85.312 89.2665 83.982 89.2665 81.98C89.2665 79.978 88.3985 78.662 87.1805 78.662C85.9485 78.662 85.0945 79.978 85.0945 81.98ZM104.877 76.758H105.913V89.036H104.877V82.288H102.287V81.434H104.877V76.758ZM96.4208 86.082V77.906H102.077V78.774H97.4568V81.336H101.531V82.19H97.4568V85.2C99.7248 85.2 101.167 85.144 102.847 84.822L102.959 85.69C101.195 85.998 99.7108 86.082 97.3448 86.082H96.4208ZM108.111 81.938H119.171V82.792H108.111V81.938ZM109.441 84.724V83.898H117.729V86.726H110.505V88.028H118.107V88.882H109.483V85.942H116.707V84.724H109.441ZM109.595 80.902V77.192H117.715V78.06H110.631V80.062H117.855V80.902H109.595ZM125.863 76.996C128.551 76.996 130.161 77.738 130.161 79.11C130.161 80.482 128.551 81.238 125.863 81.238C123.175 81.238 121.565 80.482 121.565 79.11C121.565 77.738 123.175 76.996 125.863 76.996ZM120.333 82.946V82.092H131.393V82.946H120.333ZM121.677 84.836V84.024H129.965V86.74H122.741V88.056H130.343V88.882H121.719V85.97H128.943V84.836H121.677ZM122.643 79.11C122.643 79.964 123.847 80.44 125.863 80.44C127.879 80.44 129.083 79.964 129.083 79.11C129.083 78.27 127.879 77.78 125.863 77.78C123.847 77.78 122.643 78.27 122.643 79.11ZM144.21 76.786H145.26V80.51H147.094V81.378H145.26V84.976H144.21V76.786ZM135.74 83.758C136.72 83.758 137.868 83.758 139.058 83.716V82.792C137.644 82.68 136.734 82.022 136.734 81C136.734 79.88 137.854 79.194 139.562 79.194C141.284 79.194 142.404 79.88 142.404 81C142.404 82.008 141.508 82.666 140.094 82.792V83.674C141.242 83.618 142.39 83.52 143.468 83.366L143.552 84.122C140.92 84.598 138.008 84.612 135.88 84.612L135.74 83.758ZM136.048 78.704V77.906H139.058V76.674H140.094V77.906H143.09V78.704H136.048ZM137.238 86.446V85.606H145.26V89.022H144.21V86.446H137.238ZM137.728 81C137.728 81.644 138.442 82.092 139.562 82.092C140.696 82.092 141.41 81.644 141.41 81C141.41 80.342 140.696 79.922 139.562 79.922C138.442 79.922 137.728 80.342 137.728 81ZM156.993 76.786H158.057V85.732H156.993V76.786ZM148.313 80.65C148.313 78.872 149.685 77.64 151.491 77.64C153.311 77.64 154.669 78.872 154.669 80.65C154.669 82.4 153.311 83.646 151.491 83.646C149.685 83.646 148.313 82.4 148.313 80.65ZM149.335 80.65C149.335 81.854 150.273 82.722 151.491 82.722C152.723 82.722 153.661 81.854 153.661 80.65C153.661 79.418 152.723 78.55 151.491 78.55C150.273 78.55 149.335 79.418 149.335 80.65ZM150.231 88.742V84.822H151.267V87.874H158.435V88.742H150.231ZM168.711 76.73H169.761V79.712H171.609V80.594H169.761V83.506H168.711V76.73ZM160.311 78.718V77.892H163.405V76.632H164.455V77.892H167.549V78.718H160.311ZM161.011 81.308C161.011 80.062 162.159 79.292 163.923 79.292C165.687 79.292 166.849 80.062 166.849 81.308C166.849 82.54 165.687 83.31 163.923 83.31C162.159 83.31 161.011 82.54 161.011 81.308ZM162.005 81.308C162.005 82.05 162.761 82.54 163.923 82.54C165.085 82.54 165.841 82.05 165.841 81.308C165.841 80.552 165.085 80.076 163.923 80.076C162.761 80.076 162.005 80.552 162.005 81.308ZM162.019 84.948V84.15H169.761V86.838H163.083V88.056H170.209V88.882H162.061V86.068H168.725V84.948H162.019ZM180.73 77.22H181.822V77.92C181.822 79.656 184.09 81.154 186.246 81.476L185.812 82.316C183.95 81.994 182.074 80.93 181.29 79.432C180.52 80.958 178.63 81.994 176.74 82.316L176.306 81.476C178.49 81.154 180.73 79.698 180.73 77.92V77.22ZM175.732 84.57V83.702H186.806V84.57H181.766V89.022H180.73V84.57H175.732ZM194.289 84.332H195.297V85.004C195.297 86.11 195.885 87.272 197.033 87.944C198.223 87.202 198.825 85.956 198.825 85.004V84.332H199.847V85.004C199.847 86.278 200.785 87.538 202.325 88.07L201.807 88.854C200.603 88.42 199.749 87.552 199.315 86.53C198.951 87.524 198.209 88.476 197.075 88.966C195.899 88.504 195.143 87.608 194.779 86.572C194.345 87.552 193.505 88.406 192.343 88.854L191.811 88.07C193.351 87.51 194.289 86.18 194.289 85.004V84.332ZM191.489 80.356C191.489 78.662 192.819 77.5 194.667 77.5C196.515 77.5 197.845 78.662 197.845 80.356C197.845 82.036 196.515 83.184 194.667 83.184C192.819 83.184 191.489 82.036 191.489 80.356ZM192.511 80.356C192.511 81.518 193.421 82.316 194.667 82.316C195.927 82.316 196.823 81.518 196.823 80.356C196.823 79.194 195.927 78.382 194.667 78.382C193.421 78.382 192.511 79.194 192.511 80.356ZM200.169 83.786V76.786H201.233V83.786H200.169ZM204.859 77.752H213.105V78.62H205.909V82.512H213.245V83.38H209.479V86.572H214.533V87.454H203.431V86.572H208.443V83.38H204.859V77.752ZM215.667 83.534H220.679V82.19H217.109V79.25H224.291V77.934H217.081V77.094H225.327V80.02H218.131V81.364H225.593V82.19H221.729V83.534H226.769V84.402H215.667V83.534ZM216.899 86.222V85.354H225.397V88.896H224.347V86.222H216.899ZM240.104 76.772H241.154V89.022H240.104V76.772ZM231.284 85.872C234.588 84.29 236.254 81.896 236.478 78.956H231.83V78.088H237.542C237.542 81.616 235.918 84.724 231.844 86.712L231.284 85.872ZM243.367 83.534H248.379V82.19H244.809V79.25H251.991V77.934H244.781V77.094H253.027V80.02H245.831V81.364H253.293V82.19H249.429V83.534H254.469V84.402H243.367V83.534ZM244.599 86.222V85.354H253.097V88.896H252.047V86.222H244.599ZM264.045 76.786H265.095V80.832H266.929V81.714H265.095V85.97H264.045V76.786ZM255.645 79.138V78.284H258.739V76.786H259.789V78.284H262.883V79.138H255.645ZM256.345 82.12C256.345 80.734 257.521 79.838 259.257 79.838C260.993 79.838 262.183 80.734 262.183 82.12C262.183 83.492 260.993 84.388 259.257 84.388C257.521 84.388 256.345 83.492 256.345 82.12ZM257.339 82.12C257.339 82.988 258.109 83.562 259.257 83.562C260.405 83.562 261.175 82.988 261.175 82.12C261.175 81.238 260.405 80.664 259.257 80.664C258.109 80.664 257.339 81.238 257.339 82.12ZM257.507 88.742V85.228H258.543V87.874H265.669V88.742H257.507ZM271.052 83.072H282.154V83.926H277.212V86.446H276.148V83.926H271.052V83.072ZM272.48 88.756V85.242H273.53V87.888H280.922V88.756H272.48ZM272.494 81.63V77.36H280.712V81.63H272.494ZM273.516 80.776H279.676V78.2H273.516V80.776ZM283.54 78.032H290.134V78.914H287.39V80.566C287.39 82.512 288.818 84.696 290.568 85.522L289.966 86.362C288.594 85.676 287.432 84.22 286.886 82.582C286.326 84.36 285.094 85.942 283.736 86.656L283.12 85.83C284.828 84.976 286.368 82.652 286.368 80.566V78.914H283.54V78.032ZM291.646 89.022V76.772H292.696V81.756H294.726V82.638H292.696V89.022H291.646ZM298.871 77.192C299.949 77.192 300.859 77.598 301.419 78.27H304.541V76.772H305.577V83.058H304.541V81.644H301.461C300.901 82.344 299.977 82.764 298.871 82.764C297.051 82.764 295.735 81.616 295.735 79.978C295.735 78.34 297.051 77.192 298.871 77.192ZM296.729 79.978C296.729 81.098 297.639 81.91 298.871 81.91C300.103 81.91 301.013 81.098 301.013 79.978C301.013 78.872 300.103 78.06 298.871 78.06C297.639 78.06 296.729 78.872 296.729 79.978ZM297.723 84.542V83.702H305.577V86.614H298.787V88.014H306.053V88.854H297.751V85.816H304.541V84.542H297.723ZM301.881 79.11C301.979 79.376 302.021 79.67 302.021 79.978C302.021 80.272 301.979 80.552 301.895 80.804H304.541V79.11H301.881ZM316.721 76.758H317.771V89.036H316.721V76.758ZM308.223 81.98C308.223 79.376 309.511 77.724 311.331 77.724C313.137 77.724 314.425 79.376 314.425 81.98C314.425 84.584 313.137 86.25 311.331 86.25C309.511 86.25 308.223 84.584 308.223 81.98ZM309.245 81.98C309.245 83.982 310.099 85.312 311.331 85.312C312.549 85.312 313.417 83.982 313.417 81.98C313.417 79.978 312.549 78.662 311.331 78.662C310.099 78.662 309.245 79.978 309.245 81.98ZM328.369 76.758H329.419V81.63H331.449V82.512H329.419V89.036H328.369V76.758ZM320.557 85.97V77.976H326.241V78.83H321.593V85.074C323.847 85.074 325.401 85.004 327.193 84.654L327.319 85.55C325.429 85.9 323.833 85.97 321.509 85.97H320.557ZM333.27 86.782C333.676 86.782 333.956 87.062 333.956 87.468C333.956 87.888 333.676 88.182 333.27 88.182C332.85 88.182 332.556 87.888 332.556 87.468C332.556 87.062 332.85 86.782 333.27 86.782Z" fill="#FAFAFA"/>
<path d="M25.84 115.806C25.84 112.376 28.612 109.59 32.042 109.59C35.472 109.59 38.258 112.376 38.258 115.806C38.258 119.222 35.472 122.008 32.042 122.008C28.612 122.008 25.84 119.222 25.84 115.806ZM26.694 115.806C26.694 118.732 29.116 121.154 32.042 121.154C34.982 121.154 37.39 118.732 37.39 115.806C37.39 112.866 34.982 110.458 32.042 110.458C29.116 110.458 26.694 112.866 26.694 115.806ZM29.704 117.206H30.628C30.53 118.046 31.132 118.634 32.084 118.634C32.952 118.634 33.554 118.102 33.554 117.332C33.554 116.604 32.952 116.086 32.112 116.086H31.468V115.218H32.112C32.896 115.218 33.456 114.756 33.456 114.098C33.456 113.412 32.91 112.922 32.14 112.922C31.272 112.922 30.74 113.454 30.824 114.224H29.9C29.83 112.964 30.754 112.068 32.14 112.068C33.456 112.068 34.38 112.908 34.38 114.112C34.38 114.63 34.016 115.26 33.498 115.666C34.072 116.058 34.478 116.744 34.478 117.318C34.478 118.592 33.484 119.488 32.084 119.488C30.614 119.488 29.634 118.55 29.704 117.206ZM50.0029 112.74H52.6909V109.772H53.7409V116.114H52.6909V113.594H50.0029V112.74ZM43.9969 112.684L48.5609 112.474C48.7289 112.082 48.8129 111.662 48.8549 111.214H44.5989V110.374H49.9609C49.9609 113.426 48.1969 115.512 44.4309 116.52L44.0389 115.694C46.0969 115.148 47.4269 114.308 48.1689 113.23L44.1649 113.524L43.9969 112.684ZM45.8869 117.542V116.702H53.7409V119.6H46.9369V121.014H54.1609V121.854H45.9149V118.802H52.7049V117.542H45.8869ZM64.9272 109.758H65.9632V122.036H64.9272V115.372H62.5472V114.504H64.9272V109.758ZM56.3452 111.788V110.934H61.8052V115.176H57.4092V118.2C59.5372 118.2 61.0492 118.13 62.8272 117.808L62.9252 118.676C61.0912 119.012 59.5232 119.082 57.3112 119.082H56.3732V114.322H60.7832V111.788H56.3452ZM80.3481 109.786H81.4121V118.732H80.3481V109.786ZM71.6681 113.65C71.6681 111.872 73.0401 110.64 74.8461 110.64C76.6661 110.64 78.0241 111.872 78.0241 113.65C78.0241 115.4 76.6661 116.646 74.8461 116.646C73.0401 116.646 71.6681 115.4 71.6681 113.65ZM72.6901 113.65C72.6901 114.854 73.6281 115.722 74.8461 115.722C76.0781 115.722 77.0161 114.854 77.0161 113.65C77.0161 112.418 76.0781 111.55 74.8461 111.55C73.6281 111.55 72.6901 112.418 72.6901 113.65ZM73.5861 121.742V117.822H74.6221V120.874H81.7901V121.742H73.5861ZM86.2425 115.764H87.2505V118.284C88.1465 118.242 89.0565 118.158 89.8405 118.046L89.8965 118.83C87.8525 119.208 85.2485 119.25 83.6245 119.25L83.4705 118.368C84.2265 118.368 85.2065 118.368 86.2425 118.326V115.764ZM83.5825 115.33C85.2065 114.742 86.2285 113.342 86.2285 111.844V110.752H87.2645V111.844C87.2645 113.188 88.2585 114.49 89.7985 115.05L89.2665 115.862C88.0765 115.414 87.2085 114.532 86.7745 113.468C86.3265 114.672 85.4025 115.638 84.1145 116.142L83.5825 115.33ZM90.3445 121.35V110.052H91.3385V114.854H92.8645V109.772H93.8725V122.022H92.8645V115.722H91.3385V121.35H90.3445ZM97.4288 119.936L96.6588 122.526H95.9168L96.3368 119.936H97.4288ZM109.439 112.53H111.917V109.772H112.953V116.1H111.917V113.384H109.439V112.53ZM102.971 115.414C104.749 114.798 106.051 113.258 106.051 111.648V111.284H103.307V110.416H109.831V111.284H107.101V111.662C107.101 113.146 108.347 114.56 110.083 115.12L109.579 115.946C108.193 115.484 107.115 114.504 106.583 113.3C106.065 114.644 104.931 115.736 103.489 116.226L102.971 115.414ZM105.099 117.584V116.744H112.953V119.628H106.163V121.042H113.429V121.882H105.127V118.83H111.917V117.584H105.099ZM123.608 109.758H124.658V113.44H126.492V114.308H124.658V118.634H123.608V109.758ZM115.754 116.464V110.822H121.144V111.704H116.79V115.582C119.24 115.582 120.64 115.512 122.264 115.176L122.39 116.03C120.682 116.366 119.24 116.464 116.692 116.464H115.754ZM117.07 121.742V117.752H118.106V120.874H125.218V121.742H117.07ZM133.849 110.85H134.899V113.076C134.899 115.316 136.425 117.57 138.189 118.396L137.559 119.236C136.173 118.55 134.969 117.08 134.395 115.316C133.835 117.178 132.617 118.746 131.189 119.46L130.545 118.592C132.323 117.738 133.849 115.4 133.849 113.076V110.85ZM139.547 122.036V109.758H140.597V122.036H139.547ZM155.038 109.786H156.102V118.816H155.038V109.786ZM146.288 116.072C146.778 116.072 147.296 116.072 147.856 116.058V111.788H146.624V110.92H153.19V111.788H151.958V115.918C152.588 115.862 153.204 115.806 153.792 115.736L153.876 116.534C151.384 116.912 148.514 116.954 146.414 116.954L146.288 116.072ZM148.178 121.742V117.99H149.228V120.874H156.382V121.742H148.178ZM148.878 116.044C149.55 116.03 150.25 116.016 150.936 115.974V111.788H148.878V116.044ZM163.844 109.996C166.532 109.996 168.142 110.738 168.142 112.11C168.142 113.482 166.532 114.238 163.844 114.238C161.156 114.238 159.546 113.482 159.546 112.11C159.546 110.738 161.156 109.996 163.844 109.996ZM158.314 115.946V115.092H169.374V115.946H158.314ZM159.658 117.836V117.024H167.946V119.74H160.722V121.056H168.324V121.882H159.7V118.97H166.924V117.836H159.658ZM160.624 112.11C160.624 112.964 161.828 113.44 163.844 113.44C165.86 113.44 167.064 112.964 167.064 112.11C167.064 111.27 165.86 110.78 163.844 110.78C161.828 110.78 160.624 111.27 160.624 112.11ZM174.323 110.612H179.923V115.848H174.323V110.612ZM175.023 121.168C177.025 120.846 178.859 119.712 178.957 118.354H175.499V117.5H183.493V118.354H180.035C180.133 119.684 181.995 120.846 183.955 121.182L183.563 121.98C181.813 121.672 180.189 120.776 179.489 119.558C178.817 120.79 177.207 121.672 175.429 121.98L175.023 121.168ZM175.345 114.994H178.901V111.466H175.345V114.994ZM182.233 116.772V109.772H183.283V112.74H185.103V113.622H183.283V116.772H182.233ZM186.013 117.178H197.087V118.06H192.075V122.036H191.025V118.06H186.013V117.178ZM186.727 115.386C188.869 115.078 191.025 113.748 191.025 112.18V112.152H187.091V111.298H191.025V109.772H192.075V111.298H196.009V112.152H192.075V112.18C192.075 113.734 194.217 115.078 196.359 115.386L195.981 116.226C194.105 115.946 192.327 114.98 191.557 113.636C190.773 114.98 188.981 115.932 187.105 116.226L186.727 115.386ZM207.223 109.772H208.273V122.022H207.223V109.772ZM198.403 118.872C201.707 117.29 203.373 114.896 203.597 111.956H198.949V111.088H204.661C204.661 114.616 203.037 117.724 198.963 119.712L198.403 118.872ZM217.702 110.36C219.522 110.36 220.824 111.368 220.824 112.866C220.824 114.35 219.522 115.372 217.702 115.372C215.896 115.372 214.594 114.35 214.594 112.866C214.594 111.368 215.896 110.36 217.702 110.36ZM213.67 116.436C215.952 116.436 219.074 116.408 221.776 115.988L221.846 116.786C220.684 116.996 219.466 117.122 218.29 117.206V121.644H217.24V117.262C216.008 117.318 214.832 117.332 213.81 117.332L213.67 116.436ZM215.602 112.866C215.602 113.832 216.484 114.49 217.702 114.49C218.934 114.49 219.816 113.832 219.816 112.866C219.816 111.9 218.934 111.228 217.702 111.228C216.484 111.228 215.602 111.9 215.602 112.866ZM222.672 122.036V109.772H223.708V122.036H222.672ZM234.391 109.786H235.441V113.832H237.275V114.714H235.441V118.97H234.391V109.786ZM225.991 112.138V111.284H229.085V109.786H230.135V111.284H233.229V112.138H225.991ZM226.691 115.12C226.691 113.734 227.867 112.838 229.603 112.838C231.339 112.838 232.529 113.734 232.529 115.12C232.529 116.492 231.339 117.388 229.603 117.388C227.867 117.388 226.691 116.492 226.691 115.12ZM227.685 115.12C227.685 115.988 228.455 116.562 229.603 116.562C230.751 116.562 231.521 115.988 231.521 115.12C231.521 114.238 230.751 113.664 229.603 113.664C228.455 113.664 227.685 114.238 227.685 115.12ZM227.853 121.742V118.228H228.889V120.874H236.015V121.742H227.853ZM249.826 109.786H250.876V113.51H252.71V114.378H250.876V117.976H249.826V109.786ZM241.356 116.758C242.336 116.758 243.484 116.758 244.674 116.716V115.792C243.26 115.68 242.35 115.022 242.35 114C242.35 112.88 243.47 112.194 245.178 112.194C246.9 112.194 248.02 112.88 248.02 114C248.02 115.008 247.124 115.666 245.71 115.792V116.674C246.858 116.618 248.006 116.52 249.084 116.366L249.168 117.122C246.536 117.598 243.624 117.612 241.496 117.612L241.356 116.758ZM241.664 111.704V110.906H244.674V109.674H245.71V110.906H248.706V111.704H241.664ZM242.854 119.446V118.606H250.876V122.022H249.826V119.446H242.854ZM243.344 114C243.344 114.644 244.058 115.092 245.178 115.092C246.312 115.092 247.026 114.644 247.026 114C247.026 113.342 246.312 112.922 245.178 112.922C244.058 112.922 243.344 113.342 243.344 114ZM262.608 109.786H263.672V118.732H262.608V109.786ZM253.928 113.65C253.928 111.872 255.3 110.64 257.106 110.64C258.926 110.64 260.284 111.872 260.284 113.65C260.284 115.4 258.926 116.646 257.106 116.646C255.3 116.646 253.928 115.4 253.928 113.65ZM254.95 113.65C254.95 114.854 255.888 115.722 257.106 115.722C258.338 115.722 259.276 114.854 259.276 113.65C259.276 112.418 258.338 111.55 257.106 111.55C255.888 111.55 254.95 112.418 254.95 113.65ZM255.846 121.742V117.822H256.882V120.874H264.05V121.742H255.846ZM265.884 115.862H268.642V114.112C267.662 113.72 267.116 113.104 267.116 112.278C267.116 110.836 268.768 110.01 271.414 110.01C274.06 110.01 275.712 110.836 275.712 112.278C275.712 113.104 275.166 113.72 274.2 114.098V115.862H276.944V116.702H265.884V115.862ZM267.228 119.824C267.228 118.452 268.796 117.668 271.414 117.668C274.032 117.668 275.6 118.452 275.6 119.824C275.6 121.224 274.032 122.008 271.414 122.008C268.796 122.008 267.228 121.224 267.228 119.824ZM268.194 112.278C268.194 113.174 269.44 113.72 271.414 113.72C273.388 113.72 274.634 113.174 274.634 112.278C274.634 111.368 273.388 110.822 271.414 110.822C269.44 110.822 268.194 111.368 268.194 112.278ZM268.278 119.824C268.278 120.692 269.454 121.182 271.414 121.182C273.36 121.182 274.536 120.692 274.536 119.824C274.536 118.984 273.36 118.48 271.414 118.48C269.454 118.48 268.278 118.984 268.278 119.824ZM269.678 115.862H273.164V114.392C272.646 114.476 272.058 114.532 271.414 114.532C270.77 114.532 270.196 114.49 269.678 114.392V115.862ZM281.347 119.642H284.469V116.674H282.369V115.82H284.259V111.774H282.341V110.92H291.399V111.774H289.467V115.82H291.385V116.674H289.271V119.642H292.449V120.51H281.347V119.642ZM285.323 115.82H288.431V111.774H285.323V115.82ZM285.519 119.642H288.235V116.674H285.519V119.642ZM296.817 110.85H297.867V113.076C297.867 115.316 299.393 117.57 301.157 118.396L300.527 119.236C299.141 118.55 297.937 117.08 297.363 115.316C296.803 117.178 295.585 118.746 294.157 119.46L293.513 118.592C295.291 117.738 296.817 115.4 296.817 113.076V110.85ZM302.515 122.036V109.758H303.565V122.036H302.515ZM314.766 109.758H315.816V122.036H314.766V109.758ZM306.268 114.98C306.268 112.376 307.556 110.724 309.376 110.724C311.182 110.724 312.47 112.376 312.47 114.98C312.47 117.584 311.182 119.25 309.376 119.25C307.556 119.25 306.268 117.584 306.268 114.98ZM307.29 114.98C307.29 116.982 308.144 118.312 309.376 118.312C310.594 118.312 311.462 116.982 311.462 114.98C311.462 112.978 310.594 111.662 309.376 111.662C308.144 111.662 307.29 112.978 307.29 114.98ZM326.414 109.758H327.464V114.63H329.494V115.512H327.464V122.036H326.414V109.758ZM318.602 118.97V110.976H324.286V111.83H319.638V118.074C321.892 118.074 323.446 118.004 325.238 117.654L325.364 118.55C323.474 118.9 321.878 118.97 319.554 118.97H318.602ZM331.314 119.782C331.72 119.782 332 120.062 332 120.468C332 120.888 331.72 121.182 331.314 121.182C330.894 121.182 330.6 120.888 330.6 120.468C330.6 120.062 330.894 119.782 331.314 119.782Z" fill="#FAFAFA"/>
<path d="M25.84 148.806C25.84 145.376 28.612 142.59 32.042 142.59C35.472 142.59 38.258 145.376 38.258 148.806C38.258 152.222 35.472 155.008 32.042 155.008C28.612 155.008 25.84 152.222 25.84 148.806ZM26.694 148.806C26.694 151.732 29.116 154.154 32.042 154.154C34.982 154.154 37.39 151.732 37.39 148.806C37.39 145.866 34.982 143.458 32.042 143.458C29.116 143.458 26.694 145.866 26.694 148.806ZM29.2 149.66L32.462 145.124H33.316V149.59H34.366V150.444H33.316V152.432H32.392V150.444H29.34L29.2 149.66ZM30.404 149.59H32.392V146.818L30.404 149.59ZM53.0969 142.772H54.1049V155.022H53.0969V148.624H51.4169V154.392H50.4229V143.052H51.4169V147.742H53.0969V142.772ZM43.5629 151.676C45.2989 150.696 46.2509 148.624 46.2509 146.118V145.11H43.8429V144.242H49.5269V145.11H47.2589V146.118C47.2589 148.372 48.1969 150.36 49.9049 151.228L49.2749 152.054C48.0709 151.382 47.2169 150.192 46.7829 148.694C46.3629 150.402 45.4949 151.718 44.2209 152.488L43.5629 151.676ZM64.3812 142.758H65.4312V146.44H67.2652V147.308H65.4312V151.634H64.3812V142.758ZM56.5272 149.464V143.822H61.9172V144.704H57.5632V148.582C60.0132 148.582 61.4132 148.512 63.0372 148.176L63.1632 149.03C61.4552 149.366 60.0132 149.464 57.4652 149.464H56.5272ZM57.8432 154.742V150.752H58.8792V153.874H65.9912V154.742H57.8432ZM74.6221 143.85H75.6721V146.076C75.6721 148.316 77.1981 150.57 78.9621 151.396L78.3321 152.236C76.9461 151.55 75.7421 150.08 75.1681 148.316C74.6081 150.178 73.3901 151.746 71.9621 152.46L71.3181 151.592C73.0961 150.738 74.6221 148.4 74.6221 146.076V143.85ZM80.3201 155.036V142.758H81.3701V155.036H80.3201ZM90.099 143.724C91.219 143.724 92.143 144.382 92.661 145.53H95.867V142.758H96.903V155.036H95.867V150.276H92.731C92.227 151.522 91.275 152.25 90.099 152.25C88.321 152.25 87.061 150.584 87.061 147.98C87.061 145.376 88.321 143.724 90.099 143.724ZM88.055 147.98C88.055 149.982 88.895 151.312 90.099 151.312C91.317 151.312 92.157 149.982 92.157 147.98C92.157 145.978 91.317 144.662 90.099 144.662C88.895 144.662 88.055 145.978 88.055 147.98ZM92.955 146.398C93.081 146.874 93.137 147.406 93.137 147.98C93.137 148.498 93.081 148.974 92.997 149.408H95.867V146.398H92.955ZM99.6473 143.556H100.641V145.516H103.385V143.556H104.365V149.24H99.6473V143.556ZM100.641 148.386H103.385V146.342H100.641V148.386ZM101.201 151.746V150.878H109.391V155.022H108.355V151.746H101.201ZM105.751 150.052V143.01H106.745V145.978H108.397V142.786H109.391V150.122H108.397V146.86H106.745V150.052H105.751ZM116.854 142.996C119.542 142.996 121.152 143.738 121.152 145.11C121.152 146.482 119.542 147.238 116.854 147.238C114.166 147.238 112.556 146.482 112.556 145.11C112.556 143.738 114.166 142.996 116.854 142.996ZM111.324 148.946V148.092H122.384V148.946H111.324ZM112.668 150.836V150.024H120.956V152.74H113.732V154.056H121.334V154.882H112.71V151.97H119.934V150.836H112.668ZM113.634 145.11C113.634 145.964 114.838 146.44 116.854 146.44C118.87 146.44 120.074 145.964 120.074 145.11C120.074 144.27 118.87 143.78 116.854 143.78C114.838 143.78 113.634 144.27 113.634 145.11ZM127.333 143.878H132.933V149.534H127.333V143.878ZM128.355 148.666H131.911V144.732H128.355V148.666ZM128.705 154.742V150.892H129.741V153.874H136.853V154.742H128.705ZM135.243 151.746V142.758H136.293V146.51H138.113V147.392H136.293V151.746H135.243ZM139.037 147.938H150.097V148.792H139.037V147.938ZM140.367 150.724V149.898H148.655V152.726H141.431V154.028H149.033V154.882H140.409V151.942H147.633V150.724H140.367ZM140.521 146.902V143.192H148.641V144.06H141.557V146.062H148.781V146.902H140.521ZM154.507 143.724C156.173 143.724 157.377 145.166 157.531 147.476H160.275V142.758H161.311V155.036H160.275V148.316H157.531C157.433 150.724 156.201 152.25 154.507 152.25C152.729 152.25 151.469 150.584 151.469 147.98C151.469 145.376 152.729 143.724 154.507 143.724ZM152.463 147.98C152.463 149.982 153.303 151.312 154.507 151.312C155.725 151.312 156.551 149.982 156.551 147.98C156.551 145.978 155.725 144.662 154.507 144.662C153.303 144.662 152.463 145.978 152.463 147.98ZM163.496 149.786H174.57V150.654H169.53V155.022H168.494V150.654H163.496V149.786ZM164.168 147.868C166.254 147.56 168.452 146.16 168.452 144.508V144.41H164.546V143.556H173.492V144.41H169.614V144.508C169.614 146.16 171.812 147.56 173.898 147.868L173.492 148.722C171.63 148.4 169.768 147.364 169.04 145.88C168.298 147.364 166.436 148.4 164.574 148.722L164.168 147.868ZM177.244 143.22H178.28V146.496H185.546V147.35H177.244V143.22ZM175.732 149.898V149.03H186.834V149.898H175.732ZM177.174 154.728V151.144H178.21V153.86H185.616V154.728H177.174ZM200.169 142.772H201.219V155.022H200.169V142.772ZM191.349 151.872C194.653 150.29 196.319 147.896 196.543 144.956H191.895V144.088H197.607C197.607 147.616 195.983 150.724 191.909 152.712L191.349 151.872ZM204.957 143.024H205.993V146.216H213.245V147.084H204.957V143.024ZM203.445 149.408V148.54H214.505V149.408H203.445ZM204.775 152.754C204.775 151.34 206.343 150.542 208.961 150.542C211.565 150.542 213.147 151.34 213.147 152.754C213.147 154.168 211.565 154.98 208.961 154.98C206.343 154.98 204.775 154.168 204.775 152.754ZM205.825 152.754C205.825 153.636 207.015 154.14 208.961 154.14C210.907 154.14 212.083 153.636 212.083 152.754C212.083 151.872 210.907 151.368 208.961 151.368C207.015 151.368 205.825 151.872 205.825 152.754ZM224.613 142.758H225.663V155.036H224.613V142.758ZM216.115 147.98C216.115 145.376 217.403 143.724 219.223 143.724C221.029 143.724 222.317 145.376 222.317 147.98C222.317 150.584 221.029 152.25 219.223 152.25C217.403 152.25 216.115 150.584 216.115 147.98ZM217.137 147.98C217.137 149.982 217.991 151.312 219.223 151.312C220.441 151.312 221.309 149.982 221.309 147.98C221.309 145.978 220.441 144.662 219.223 144.662C217.991 144.662 217.137 145.978 217.137 147.98ZM236.262 142.758H237.312V147.63H239.342V148.512H237.312V155.036H236.262V142.758ZM228.45 151.97V143.976H234.134V144.83H229.486V151.074C231.74 151.074 233.294 151.004 235.086 150.654L235.212 151.55C233.322 151.9 231.726 151.97 229.402 151.97H228.45ZM241.162 152.782C241.568 152.782 241.848 153.062 241.848 153.468C241.848 153.888 241.568 154.182 241.162 154.182C240.742 154.182 240.448 153.888 240.448 153.468C240.448 153.062 240.742 152.782 241.162 152.782Z" fill="#FAFAFA"/>
<path d="M25.84 181.806C25.84 178.376 28.612 175.59 32.042 175.59C35.472 175.59 38.258 178.376 38.258 181.806C38.258 185.222 35.472 188.008 32.042 188.008C28.612 188.008 25.84 185.222 25.84 181.806ZM26.694 181.806C26.694 184.732 29.116 187.154 32.042 187.154C34.982 187.154 37.39 184.732 37.39 181.806C37.39 178.866 34.982 176.458 32.042 176.458C29.116 176.458 26.694 178.866 26.694 181.806ZM29.662 183.626L30.558 183.416C30.684 184.172 31.3 184.704 32.056 184.704C32.938 184.704 33.568 184.046 33.568 183.122C33.568 182.212 32.938 181.568 32.056 181.568C31.65 181.568 31.174 181.806 30.894 182.156L30.012 182.002L30.194 178.194H33.988V179.048H31.104L30.978 180.924C31.286 180.784 31.734 180.686 32.056 180.686C33.498 180.686 34.506 181.694 34.506 183.122C34.506 184.578 33.498 185.6 32.056 185.6C30.852 185.6 29.858 184.788 29.662 183.626ZM45.1309 176.248L45.0049 178.544H44.2629L44.1369 176.248H45.1309ZM46.9767 176.64H53.5287V177.508H50.7847V177.984C50.7847 179.622 52.0027 181.092 53.7807 181.694L53.2767 182.548C51.8767 182.058 50.8127 181.064 50.2807 179.79C49.7627 181.19 48.6567 182.296 47.2007 182.828L46.6547 181.974C48.4887 181.344 49.7487 179.776 49.7487 177.998V177.508H46.9767V176.64ZM48.5307 187.854V183.556H56.1887V187.854H48.5307ZM49.5527 187H55.1527V184.396H49.5527V187ZM55.1387 182.982V175.772H56.1887V178.852H58.0227V179.734H56.1887V182.982H55.1387ZM59.171 177.032H65.765V177.914H63.021V179.566C63.021 181.512 64.449 183.696 66.199 184.522L65.597 185.362C64.225 184.676 63.063 183.22 62.517 181.582C61.957 183.36 60.725 184.942 59.367 185.656L58.751 184.83C60.459 183.976 61.999 181.652 61.999 179.566V177.914H59.171V177.032ZM67.277 188.022V175.772H68.327V180.756H70.357V181.638H68.327V188.022H67.277ZM80.1434 175.758H81.1934V188.036H80.1434V175.758ZM71.8554 177.788V176.934H77.4974V181.26H72.9334V184.186C74.9634 184.186 76.7694 184.102 78.9534 183.752L79.0654 184.606C76.8254 184.984 74.9774 185.054 72.8914 185.054H71.8834V180.392H76.4474V177.788H71.8554ZM84.8477 176.248L84.7217 178.544H83.9797L83.8537 176.248H84.8477ZM90.3755 176.668C92.2795 176.668 93.6375 177.844 93.6375 179.538C93.6375 181.246 92.2795 182.408 90.3755 182.408C88.4575 182.408 87.0995 181.246 87.0995 179.538C87.0995 177.844 88.4575 176.668 90.3755 176.668ZM86.4695 184.438C88.7095 184.438 91.8175 184.438 94.4915 184.018L94.5755 184.788C91.8175 185.32 88.8075 185.334 86.6095 185.334L86.4695 184.438ZM88.1215 179.538C88.1215 180.686 89.0735 181.498 90.3755 181.498C91.6635 181.498 92.6155 180.686 92.6155 179.538C92.6155 178.376 91.6635 177.578 90.3755 177.578C89.0735 177.578 88.1215 178.376 88.1215 179.538ZM95.3035 188.036V175.758H96.3535V188.036H95.3035ZM105.306 176.234C107.126 176.234 108.47 177.34 108.47 178.936C108.47 180.532 107.126 181.624 105.306 181.624C103.486 181.624 102.156 180.532 102.156 178.936C102.156 177.34 103.486 176.234 105.306 176.234ZM103.178 178.936C103.178 180.014 104.088 180.77 105.306 180.77C106.538 180.77 107.448 180.014 107.448 178.936C107.448 177.858 106.538 177.088 105.306 177.088C104.088 177.088 103.178 177.858 103.178 178.936ZM104.004 183.514V182.674H111.9V185.6H105.054V187.014H112.32V187.854H104.046V184.816H110.85V183.514H104.004ZM110.836 182.058V175.772H111.9V182.058H110.836ZM115.597 176.262H116.633V177.83H122.681V176.262H123.731V181.148H120.161V182.492H125.173V183.346H114.113V182.492H119.125V181.148H115.597V176.262ZM115.555 187.756V184.368H116.605V186.888H123.955V187.756H115.555ZM116.633 180.308H122.681V178.67H116.633V180.308ZM138.032 175.772H139.082V178.446H140.902V179.314H139.082V182.016H138.032V175.772ZM130.122 181.358V176.472H135.722V181.358H130.122ZM131.144 180.518H134.7V177.312H131.144V180.518ZM131.34 183.444V182.604H139.082V185.572H132.404V187H139.53V187.854H131.368V184.774H138.046V183.444H131.34ZM150.758 175.758H151.808V188.036H150.758V175.758ZM142.26 180.98C142.26 178.376 143.548 176.724 145.368 176.724C147.174 176.724 148.462 178.376 148.462 180.98C148.462 183.584 147.174 185.25 145.368 185.25C143.548 185.25 142.26 183.584 142.26 180.98ZM143.282 180.98C143.282 182.982 144.136 184.312 145.368 184.312C146.586 184.312 147.454 182.982 147.454 180.98C147.454 178.978 146.586 177.662 145.368 177.662C144.136 177.662 143.282 178.978 143.282 180.98ZM162.406 175.758H163.456V180.63H165.486V181.512H163.456V188.036H162.406V175.758ZM154.594 184.97V176.976H160.278V177.83H155.63V184.074C157.884 184.074 159.438 184.004 161.23 183.654L161.356 184.55C159.466 184.9 157.87 184.97 155.546 184.97H154.594ZM167.307 185.782C167.713 185.782 167.993 186.062 167.993 186.468C167.993 186.888 167.713 187.182 167.307 187.182C166.887 187.182 166.593 186.888 166.593 186.468C166.593 186.062 166.887 185.782 167.307 185.782Z" fill="#FAFAFA"/>
</svg>
