<svg width="360" height="230" viewBox="0 0 360 230" fill="none" xmlns="http://www.w3.org/2000/svg">
<rect width="360" height="230" fill="#171717"/>
<path d="M28.2804 115.806C28.2804 112.376 31.0524 109.59 34.4824 109.59C37.9124 109.59 40.6984 112.376 40.6984 115.806C40.6984 119.222 37.9124 122.008 34.4824 122.008C31.0524 122.008 28.2804 119.222 28.2804 115.806ZM29.1344 115.806C29.1344 118.732 31.5564 121.154 34.4824 121.154C37.4224 121.154 39.8304 118.732 39.8304 115.806C39.8304 112.866 37.4224 110.458 34.4824 110.458C31.5564 110.458 29.1344 112.866 29.1344 115.806ZM32.8304 113.23L34.3424 112.208H35.1544V119.502H34.2584V113.342L33.3484 113.944L32.8304 113.23ZM53.7873 110.892V111.788H50.6233V121H49.6153V111.788H46.4653V110.892H53.7873ZM62.3459 110.892V111.788H59.1819V121H58.1739V111.788H55.0239V110.892H62.3459ZM70.9504 110.892V111.788H65.2804V115.484H70.0124V116.366H65.2804V121H64.2724V110.892H70.9504Z" fill="#FAFAFA"/>
<path d="M84.9884 115.806C84.9884 112.376 87.7604 109.59 91.1904 109.59C94.6204 109.59 97.4064 112.376 97.4064 115.806C97.4064 119.222 94.6204 122.008 91.1904 122.008C87.7604 122.008 84.9884 119.222 84.9884 115.806ZM85.8424 115.806C85.8424 118.732 88.2644 121.154 91.1904 121.154C94.1304 121.154 96.5384 118.732 96.5384 115.806C96.5384 112.866 94.1304 110.458 91.1904 110.458C88.2644 110.458 85.8424 112.866 85.8424 115.806ZM88.9084 113.51C89.2724 112.558 90.2244 111.9 91.1904 111.9C92.5064 111.9 93.4304 112.852 93.4304 114.196C93.4304 115.652 91.6804 117.192 90.3224 118.438H93.5424V119.292H89.1044L88.9644 118.508C89.2164 118.256 89.4964 118.004 89.7764 117.738C91.2324 116.38 92.4924 115.218 92.4924 114.196C92.4924 113.356 91.9604 112.754 91.1904 112.754C90.6164 112.754 90.0144 113.216 89.7484 113.888L88.9084 113.51ZM108.339 120.216C110.663 120.216 112.287 118.452 112.287 115.946C112.287 113.44 110.663 111.676 108.339 111.676C106.015 111.676 104.391 113.44 104.391 115.946C104.391 118.452 106.015 120.216 108.339 120.216ZM103.369 115.946C103.369 112.908 105.427 110.78 108.339 110.78C111.251 110.78 113.309 112.908 113.309 115.946C113.309 118.984 111.251 121.112 108.339 121.112C105.427 121.112 103.369 118.984 103.369 115.946ZM121.638 110.892V111.788H118.474V121H117.466V111.788H114.316V110.892H121.638ZM130.242 110.892V111.788H124.572V115.484H129.304V116.366H124.572V121H123.564V110.892H130.242Z" fill="#FAFAFA"/>
<path d="M145.105 115.806C145.105 112.376 147.877 109.59 151.307 109.59C154.737 109.59 157.523 112.376 157.523 115.806C157.523 119.222 154.737 122.008 151.307 122.008C147.877 122.008 145.105 119.222 145.105 115.806ZM145.959 115.806C145.959 118.732 148.381 121.154 151.307 121.154C154.247 121.154 156.655 118.732 156.655 115.806C156.655 112.866 154.247 110.458 151.307 110.458C148.381 110.458 145.959 112.866 145.959 115.806ZM148.969 117.206H149.893C149.795 118.046 150.397 118.634 151.349 118.634C152.217 118.634 152.819 118.102 152.819 117.332C152.819 116.604 152.217 116.086 151.377 116.086H150.733V115.218H151.377C152.161 115.218 152.721 114.756 152.721 114.098C152.721 113.412 152.175 112.922 151.405 112.922C150.537 112.922 150.005 113.454 150.089 114.224H149.165C149.095 112.964 150.019 112.068 151.405 112.068C152.721 112.068 153.645 112.908 153.645 114.112C153.645 114.63 153.281 115.26 152.763 115.666C153.337 116.058 153.743 116.744 153.743 117.318C153.743 118.592 152.749 119.488 151.349 119.488C149.879 119.488 148.899 118.55 148.969 117.206ZM176.786 110.892L173.706 121H172.656L170.094 112.642L167.574 121H166.51L163.43 110.892H164.48L167.042 119.404L169.576 110.892H170.612L173.174 119.404L175.736 110.892H176.786ZM182.333 120.216C184.657 120.216 186.281 118.452 186.281 115.946C186.281 113.44 184.657 111.676 182.333 111.676C180.009 111.676 178.385 113.44 178.385 115.946C178.385 118.452 180.009 120.216 182.333 120.216ZM177.363 115.946C177.363 112.908 179.421 110.78 182.333 110.78C185.245 110.78 187.303 112.908 187.303 115.946C187.303 118.984 185.245 121.112 182.333 121.112C179.421 121.112 177.363 118.984 177.363 115.946ZM195.677 110.892V111.788H190.007V115.484H194.739V116.366H190.007V121H188.999V110.892H195.677ZM204.126 110.892V111.788H198.456V115.484H203.188V116.366H198.456V121H197.448V110.892H204.126Z" fill="#FAFAFA"/>
<path d="M219.017 115.806C219.017 112.376 221.789 109.59 225.219 109.59C228.649 109.59 231.435 112.376 231.435 115.806C231.435 119.222 228.649 122.008 225.219 122.008C221.789 122.008 219.017 119.222 219.017 115.806ZM219.871 115.806C219.871 118.732 222.293 121.154 225.219 121.154C228.159 121.154 230.567 118.732 230.567 115.806C230.567 112.866 228.159 110.458 225.219 110.458C222.293 110.458 219.871 112.866 219.871 115.806ZM222.377 116.66L225.639 112.124H226.493V116.59H227.543V117.444H226.493V119.432H225.569V117.444H222.517L222.377 116.66ZM223.581 116.59H225.569V113.818L223.581 116.59ZM244.146 110.892V111.788H238.476V115.484H243.208V116.366H238.476V121H237.468V110.892H244.146ZM246.925 110.892V120.104H252.161V121H245.917V110.892H246.925ZM259.052 110.892L263.21 121H262.118L260.928 118.088H256.028L254.81 121H253.718L257.932 110.892H259.052ZM256.392 117.192H260.55L258.492 112.18L256.392 117.192ZM268.631 121.112C265.705 121.112 263.647 118.984 263.647 115.946C263.647 112.908 265.705 110.78 268.631 110.78C270.017 110.78 271.263 111.368 272.159 112.292L271.473 112.852C270.759 112.11 269.723 111.676 268.631 111.676C266.307 111.676 264.669 113.44 264.669 115.946C264.669 118.452 266.307 120.216 268.631 120.216C269.723 120.216 270.731 119.782 271.445 119.04L272.159 119.6C271.263 120.524 270.017 121.112 268.631 121.112Z" fill="#FAFAFA"/>
<path d="M286.161 115.806C286.161 112.376 288.933 109.59 292.363 109.59C295.793 109.59 298.579 112.376 298.579 115.806C298.579 119.222 295.793 122.008 292.363 122.008C288.933 122.008 286.161 119.222 286.161 115.806ZM287.015 115.806C287.015 118.732 289.437 121.154 292.363 121.154C295.303 121.154 297.711 118.732 297.711 115.806C297.711 112.866 295.303 110.458 292.363 110.458C289.437 110.458 287.015 112.866 287.015 115.806ZM289.983 117.626L290.879 117.416C291.005 118.172 291.621 118.704 292.377 118.704C293.259 118.704 293.889 118.046 293.889 117.122C293.889 116.212 293.259 115.568 292.377 115.568C291.971 115.568 291.495 115.806 291.215 116.156L290.333 116.002L290.515 112.194H294.309V113.048H291.425L291.299 114.924C291.607 114.784 292.055 114.686 292.377 114.686C293.819 114.686 294.827 115.694 294.827 117.122C294.827 118.578 293.819 119.6 292.377 119.6C291.173 119.6 290.179 118.788 289.983 117.626ZM305.312 118.76C306.012 119.614 306.992 120.216 308.042 120.216C309.512 120.216 310.548 119.39 310.548 118.228C310.548 115.792 304.976 116.814 304.976 113.412C304.976 111.83 306.306 110.724 308.182 110.724C309.372 110.724 310.478 111.368 311.206 112.278L310.45 112.852C309.89 112.124 309.092 111.62 308.182 111.62C306.894 111.62 305.984 112.362 305.984 113.412C305.984 115.946 311.556 114.938 311.556 118.228C311.556 119.922 310.1 121.112 308.042 121.112C306.684 121.112 305.382 120.384 304.556 119.334L305.312 118.76ZM322.205 110.892L318.131 121H317.039L312.783 110.892H313.875L317.571 119.824L321.113 110.892H322.205ZM332.415 115.764C332.471 116.114 332.401 116.716 332.401 116.716C332.135 119.614 330.329 121.056 327.655 121.112C324.743 121.112 322.685 118.984 322.685 115.946C322.685 112.922 324.743 110.794 327.655 110.794C330.791 110.794 331.869 113.23 331.869 113.23L330.973 113.636C330.973 113.636 330.147 111.69 327.655 111.69C325.331 111.69 323.693 113.454 323.693 115.946C323.693 118.452 325.331 120.216 327.655 120.216C329.867 120.132 331.183 118.97 331.393 116.66H327.837V115.764H332.415Z" fill="#FAFAFA"/>
</svg>
