<svg width="360" height="230" viewBox="0 0 360 230" fill="none" xmlns="http://www.w3.org/2000/svg">
<rect width="360" height="230" fill="#171717"/>
<rect x="29.5" y="31.5" width="67" height="109" fill="#FE0000" stroke="#525252"/>
<rect x="30" y="107" width="66" height="29" fill="#FAFAFA"/>
<path d="M37.016 115.264C37.648 115.264 38.056 114.808 38.056 114.12C38.056 113.424 37.64 112.968 37.008 112.968H35.512V115.264H37.016ZM34.552 118.088V112.136H37.048C38.2 112.136 39.016 112.952 39.016 114.12C39.016 115.28 38.2 116.096 37.048 116.096H35.512V118.088H34.552ZM42.3049 112.136L44.7449 118.088H43.7049L43.0569 116.512H40.4089L39.7529 118.088H38.7129L41.1929 112.136H42.3049ZM40.7529 115.68H42.7209L41.7449 113.304L40.7529 115.68ZM50.6958 112.136V118.088H49.6398L46.5038 113.664V118.088H45.5438V112.136H46.5998L49.7358 116.576V112.136H50.6958ZM55.8861 112.136V112.968H54.1661V118.088H53.2061V112.968H51.4701V112.136H55.8861ZM58.8784 117.312C60.1024 117.312 60.8944 116.44 60.8944 115.112C60.8944 113.784 60.1024 112.912 58.8784 112.912C57.6624 112.912 56.8624 113.784 56.8624 115.112C56.8624 116.44 57.6624 117.312 58.8784 117.312ZM55.9024 115.112C55.9024 113.328 57.1344 112.072 58.8784 112.072C60.6304 112.072 61.8624 113.328 61.8624 115.112C61.8624 116.896 60.6304 118.152 58.8784 118.152C57.1344 118.152 55.9024 116.896 55.9024 115.112ZM67.8286 112.136V118.088H66.7726L63.6366 113.664V118.088H62.6766V112.136H63.7326L66.8686 116.576V112.136H67.8286ZM73.1413 112.136V112.968H69.8693V114.608H72.7253V115.44H69.8693V117.256H73.1413V118.088H68.9093V112.136H73.1413Z" fill="#171717"/>
<path d="M35.841 129.196C35.568 129.196 35.365 129 35.365 128.72C35.365 128.447 35.568 128.251 35.841 128.251C36.114 128.251 36.31 128.447 36.31 128.72C36.31 129 36.114 129.196 35.841 129.196ZM34.266 124.716C34.532 124.002 35.225 123.505 35.946 123.505C36.982 123.505 37.668 124.191 37.626 125.171C37.598 125.675 37.339 126.165 36.653 126.683C36.317 126.935 36.247 127.068 36.254 127.572L35.407 127.586C35.4 126.844 35.617 126.396 36.149 125.997C36.653 125.626 36.765 125.416 36.779 125.129C36.8 124.667 36.457 124.345 35.946 124.345C35.568 124.345 35.204 124.618 35.057 125.01L34.266 124.716ZM39.8264 129.196C39.5534 129.196 39.3504 129 39.3504 128.72C39.3504 128.447 39.5534 128.251 39.8264 128.251C40.0994 128.251 40.2954 128.447 40.2954 128.72C40.2954 129 40.0994 129.196 39.8264 129.196ZM38.2514 124.716C38.5174 124.002 39.2104 123.505 39.9314 123.505C40.9674 123.505 41.6534 124.191 41.6114 125.171C41.5834 125.675 41.3244 126.165 40.6384 126.683C40.3024 126.935 40.2324 127.068 40.2394 127.572L39.3924 127.586C39.3854 126.844 39.6024 126.396 40.1344 125.997C40.6384 125.626 40.7504 125.416 40.7644 125.129C40.7854 124.667 40.4424 124.345 39.9314 124.345C39.5534 124.345 39.1894 124.618 39.0424 125.01L38.2514 124.716ZM43.8117 129.196C43.5387 129.196 43.3357 129 43.3357 128.72C43.3357 128.447 43.5387 128.251 43.8117 128.251C44.0847 128.251 44.2807 128.447 44.2807 128.72C44.2807 129 44.0847 129.196 43.8117 129.196ZM42.2367 124.716C42.5027 124.002 43.1957 123.505 43.9167 123.505C44.9527 123.505 45.6387 124.191 45.5967 125.171C45.5687 125.675 45.3097 126.165 44.6237 126.683C44.2877 126.935 44.2177 127.068 44.2247 127.572L43.3777 127.586C43.3707 126.844 43.5877 126.396 44.1197 125.997C44.6237 125.626 44.7357 125.416 44.7497 125.129C44.7707 124.667 44.4277 124.345 43.9167 124.345C43.5387 124.345 43.1747 124.618 43.0277 125.01L42.2367 124.716ZM47.7971 129.196C47.5241 129.196 47.3211 129 47.3211 128.72C47.3211 128.447 47.5241 128.251 47.7971 128.251C48.0701 128.251 48.2661 128.447 48.2661 128.72C48.2661 129 48.0701 129.196 47.7971 129.196ZM46.2221 124.716C46.4881 124.002 47.1811 123.505 47.9021 123.505C48.9381 123.505 49.6241 124.191 49.5821 125.171C49.5541 125.675 49.2951 126.165 48.6091 126.683C48.2731 126.935 48.2031 127.068 48.2101 127.572L47.3631 127.586C47.3561 126.844 47.5731 126.396 48.1051 125.997C48.6091 125.626 48.7211 125.416 48.7351 125.129C48.7561 124.667 48.4131 124.345 47.9021 124.345C47.5241 124.345 47.1601 124.618 47.0131 125.01L46.2221 124.716Z" fill="#A3A3A3"/>
<rect x="213.5" y="31.5" width="67" height="109" fill="#E2211C" stroke="#525252"/>
<rect x="214" y="107" width="66" height="29" fill="#FAFAFA"/>
<path d="M221.016 115.264C221.648 115.264 222.056 114.808 222.056 114.12C222.056 113.424 221.64 112.968 221.008 112.968H219.512V115.264H221.016ZM218.552 118.088V112.136H221.048C222.2 112.136 223.016 112.952 223.016 114.12C223.016 115.28 222.2 116.096 221.048 116.096H219.512V118.088H218.552ZM226.305 112.136L228.745 118.088H227.705L227.057 116.512H224.409L223.753 118.088H222.713L225.193 112.136H226.305ZM224.753 115.68H226.721L225.745 113.304L224.753 115.68ZM234.696 112.136V118.088H233.64L230.504 113.664V118.088H229.544V112.136H230.6L233.736 116.576V112.136H234.696ZM239.886 112.136V112.968H238.166V118.088H237.206V112.968H235.47V112.136H239.886ZM242.878 117.312C244.102 117.312 244.894 116.44 244.894 115.112C244.894 113.784 244.102 112.912 242.878 112.912C241.662 112.912 240.862 113.784 240.862 115.112C240.862 116.44 241.662 117.312 242.878 117.312ZM239.902 115.112C239.902 113.328 241.134 112.072 242.878 112.072C244.63 112.072 245.862 113.328 245.862 115.112C245.862 116.896 244.63 118.152 242.878 118.152C241.134 118.152 239.902 116.896 239.902 115.112ZM251.829 112.136V118.088H250.773L247.637 113.664V118.088H246.677V112.136H247.733L250.869 116.576V112.136H251.829ZM257.141 112.136V112.968H253.869V114.608H256.725V115.44H253.869V117.256H257.141V118.088H252.909V112.136H257.141Z" fill="#171717"/>
<path d="M219.841 129.196C219.568 129.196 219.365 129 219.365 128.72C219.365 128.447 219.568 128.251 219.841 128.251C220.114 128.251 220.31 128.447 220.31 128.72C220.31 129 220.114 129.196 219.841 129.196ZM218.266 124.716C218.532 124.002 219.225 123.505 219.946 123.505C220.982 123.505 221.668 124.191 221.626 125.171C221.598 125.675 221.339 126.165 220.653 126.683C220.317 126.935 220.247 127.068 220.254 127.572L219.407 127.586C219.4 126.844 219.617 126.396 220.149 125.997C220.653 125.626 220.765 125.416 220.779 125.129C220.8 124.667 220.457 124.345 219.946 124.345C219.568 124.345 219.204 124.618 219.057 125.01L218.266 124.716ZM223.826 129.196C223.553 129.196 223.35 129 223.35 128.72C223.35 128.447 223.553 128.251 223.826 128.251C224.099 128.251 224.295 128.447 224.295 128.72C224.295 129 224.099 129.196 223.826 129.196ZM222.251 124.716C222.517 124.002 223.21 123.505 223.931 123.505C224.967 123.505 225.653 124.191 225.611 125.171C225.583 125.675 225.324 126.165 224.638 126.683C224.302 126.935 224.232 127.068 224.239 127.572L223.392 127.586C223.385 126.844 223.602 126.396 224.134 125.997C224.638 125.626 224.75 125.416 224.764 125.129C224.785 124.667 224.442 124.345 223.931 124.345C223.553 124.345 223.189 124.618 223.042 125.01L222.251 124.716ZM227.812 129.196C227.539 129.196 227.336 129 227.336 128.72C227.336 128.447 227.539 128.251 227.812 128.251C228.085 128.251 228.281 128.447 228.281 128.72C228.281 129 228.085 129.196 227.812 129.196ZM226.237 124.716C226.503 124.002 227.196 123.505 227.917 123.505C228.953 123.505 229.639 124.191 229.597 125.171C229.569 125.675 229.31 126.165 228.624 126.683C228.288 126.935 228.218 127.068 228.225 127.572L227.378 127.586C227.371 126.844 227.588 126.396 228.12 125.997C228.624 125.626 228.736 125.416 228.75 125.129C228.771 124.667 228.428 124.345 227.917 124.345C227.539 124.345 227.175 124.618 227.028 125.01L226.237 124.716ZM231.797 129.196C231.524 129.196 231.321 129 231.321 128.72C231.321 128.447 231.524 128.251 231.797 128.251C232.07 128.251 232.266 128.447 232.266 128.72C232.266 129 232.07 129.196 231.797 129.196ZM230.222 124.716C230.488 124.002 231.181 123.505 231.902 123.505C232.938 123.505 233.624 124.191 233.582 125.171C233.554 125.675 233.295 126.165 232.609 126.683C232.273 126.935 232.203 127.068 232.21 127.572L231.363 127.586C231.356 126.844 231.573 126.396 232.105 125.997C232.609 125.626 232.721 125.416 232.735 125.129C232.756 124.667 232.413 124.345 231.902 124.345C231.524 124.345 231.16 124.618 231.013 125.01L230.222 124.716Z" fill="#A3A3A3"/>
<rect x="79.5" y="16.5" width="67" height="109" fill="#FFB200" stroke="#525252"/>
<rect x="80" y="92" width="66" height="29" fill="#FAFAFA"/>
<path d="M87.016 100.264C87.648 100.264 88.056 99.808 88.056 99.12C88.056 98.424 87.64 97.968 87.008 97.968H85.512V100.264H87.016ZM84.552 103.088V97.136H87.048C88.2 97.136 89.016 97.952 89.016 99.12C89.016 100.28 88.2 101.096 87.048 101.096H85.512V103.088H84.552ZM92.3049 97.136L94.7449 103.088H93.7049L93.0569 101.512H90.4089L89.7529 103.088H88.7129L91.1929 97.136H92.3049ZM90.7529 100.68H92.7209L91.7449 98.304L90.7529 100.68ZM100.696 97.136V103.088H99.6398L96.5038 98.664V103.088H95.5438V97.136H96.5998L99.7358 101.576V97.136H100.696ZM105.886 97.136V97.968H104.166V103.088H103.206V97.968H101.47V97.136H105.886ZM108.878 102.312C110.102 102.312 110.894 101.44 110.894 100.112C110.894 98.784 110.102 97.912 108.878 97.912C107.662 97.912 106.862 98.784 106.862 100.112C106.862 101.44 107.662 102.312 108.878 102.312ZM105.902 100.112C105.902 98.328 107.134 97.072 108.878 97.072C110.63 97.072 111.862 98.328 111.862 100.112C111.862 101.896 110.63 103.152 108.878 103.152C107.134 103.152 105.902 101.896 105.902 100.112ZM117.829 97.136V103.088H116.773L113.637 98.664V103.088H112.677V97.136H113.733L116.869 101.576V97.136H117.829ZM123.141 97.136V97.968H119.869V99.608H122.725V100.44H119.869V102.256H123.141V103.088H118.909V97.136H123.141Z" fill="#171717"/>
<path d="M85.841 114.196C85.568 114.196 85.365 114 85.365 113.72C85.365 113.447 85.568 113.251 85.841 113.251C86.114 113.251 86.31 113.447 86.31 113.72C86.31 114 86.114 114.196 85.841 114.196ZM84.266 109.716C84.532 109.002 85.225 108.505 85.946 108.505C86.982 108.505 87.668 109.191 87.626 110.171C87.598 110.675 87.339 111.165 86.653 111.683C86.317 111.935 86.247 112.068 86.254 112.572L85.407 112.586C85.4 111.844 85.617 111.396 86.149 110.997C86.653 110.626 86.765 110.416 86.779 110.129C86.8 109.667 86.457 109.345 85.946 109.345C85.568 109.345 85.204 109.618 85.057 110.01L84.266 109.716ZM89.8264 114.196C89.5534 114.196 89.3504 114 89.3504 113.72C89.3504 113.447 89.5534 113.251 89.8264 113.251C90.0994 113.251 90.2954 113.447 90.2954 113.72C90.2954 114 90.0994 114.196 89.8264 114.196ZM88.2514 109.716C88.5174 109.002 89.2104 108.505 89.9314 108.505C90.9674 108.505 91.6534 109.191 91.6114 110.171C91.5834 110.675 91.3244 111.165 90.6384 111.683C90.3024 111.935 90.2324 112.068 90.2394 112.572L89.3924 112.586C89.3854 111.844 89.6024 111.396 90.1344 110.997C90.6384 110.626 90.7504 110.416 90.7644 110.129C90.7854 109.667 90.4424 109.345 89.9314 109.345C89.5534 109.345 89.1894 109.618 89.0424 110.01L88.2514 109.716ZM93.8117 114.196C93.5387 114.196 93.3357 114 93.3357 113.72C93.3357 113.447 93.5387 113.251 93.8117 113.251C94.0847 113.251 94.2807 113.447 94.2807 113.72C94.2807 114 94.0847 114.196 93.8117 114.196ZM92.2367 109.716C92.5027 109.002 93.1957 108.505 93.9167 108.505C94.9527 108.505 95.6387 109.191 95.5967 110.171C95.5687 110.675 95.3097 111.165 94.6237 111.683C94.2877 111.935 94.2177 112.068 94.2247 112.572L93.3777 112.586C93.3707 111.844 93.5877 111.396 94.1197 110.997C94.6237 110.626 94.7357 110.416 94.7497 110.129C94.7707 109.667 94.4277 109.345 93.9167 109.345C93.5387 109.345 93.1747 109.618 93.0277 110.01L92.2367 109.716ZM97.7971 114.196C97.5241 114.196 97.3211 114 97.3211 113.72C97.3211 113.447 97.5241 113.251 97.7971 113.251C98.0701 113.251 98.2661 113.447 98.2661 113.72C98.2661 114 98.0701 114.196 97.7971 114.196ZM96.2221 109.716C96.4881 109.002 97.1811 108.505 97.9021 108.505C98.9381 108.505 99.6241 109.191 99.5821 110.171C99.5541 110.675 99.2951 111.165 98.6091 111.683C98.2731 111.935 98.2031 112.068 98.2101 112.572L97.3631 112.586C97.3561 111.844 97.5731 111.396 98.1051 110.997C98.6091 110.626 98.7211 110.416 98.7351 110.129C98.7561 109.667 98.4131 109.345 97.9021 109.345C97.5241 109.345 97.1601 109.618 97.0131 110.01L96.2221 109.716Z" fill="#A3A3A3"/>
<rect x="263.5" y="16.5" width="67" height="109" fill="#FDC526" stroke="#525252"/>
<rect x="264" y="92" width="66" height="29" fill="#FAFAFA"/>
<path d="M271.016 100.264C271.648 100.264 272.056 99.808 272.056 99.12C272.056 98.424 271.64 97.968 271.008 97.968H269.512V100.264H271.016ZM268.552 103.088V97.136H271.048C272.2 97.136 273.016 97.952 273.016 99.12C273.016 100.28 272.2 101.096 271.048 101.096H269.512V103.088H268.552ZM276.305 97.136L278.745 103.088H277.705L277.057 101.512H274.409L273.753 103.088H272.713L275.193 97.136H276.305ZM274.753 100.68H276.721L275.745 98.304L274.753 100.68ZM284.696 97.136V103.088H283.64L280.504 98.664V103.088H279.544V97.136H280.6L283.736 101.576V97.136H284.696ZM289.886 97.136V97.968H288.166V103.088H287.206V97.968H285.47V97.136H289.886ZM292.878 102.312C294.102 102.312 294.894 101.44 294.894 100.112C294.894 98.784 294.102 97.912 292.878 97.912C291.662 97.912 290.862 98.784 290.862 100.112C290.862 101.44 291.662 102.312 292.878 102.312ZM289.902 100.112C289.902 98.328 291.134 97.072 292.878 97.072C294.63 97.072 295.862 98.328 295.862 100.112C295.862 101.896 294.63 103.152 292.878 103.152C291.134 103.152 289.902 101.896 289.902 100.112ZM301.829 97.136V103.088H300.773L297.637 98.664V103.088H296.677V97.136H297.733L300.869 101.576V97.136H301.829ZM307.141 97.136V97.968H303.869V99.608H306.725V100.44H303.869V102.256H307.141V103.088H302.909V97.136H307.141Z" fill="#171717"/>
<path d="M269.841 114.196C269.568 114.196 269.365 114 269.365 113.72C269.365 113.447 269.568 113.251 269.841 113.251C270.114 113.251 270.31 113.447 270.31 113.72C270.31 114 270.114 114.196 269.841 114.196ZM268.266 109.716C268.532 109.002 269.225 108.505 269.946 108.505C270.982 108.505 271.668 109.191 271.626 110.171C271.598 110.675 271.339 111.165 270.653 111.683C270.317 111.935 270.247 112.068 270.254 112.572L269.407 112.586C269.4 111.844 269.617 111.396 270.149 110.997C270.653 110.626 270.765 110.416 270.779 110.129C270.8 109.667 270.457 109.345 269.946 109.345C269.568 109.345 269.204 109.618 269.057 110.01L268.266 109.716ZM273.826 114.196C273.553 114.196 273.35 114 273.35 113.72C273.35 113.447 273.553 113.251 273.826 113.251C274.099 113.251 274.295 113.447 274.295 113.72C274.295 114 274.099 114.196 273.826 114.196ZM272.251 109.716C272.517 109.002 273.21 108.505 273.931 108.505C274.967 108.505 275.653 109.191 275.611 110.171C275.583 110.675 275.324 111.165 274.638 111.683C274.302 111.935 274.232 112.068 274.239 112.572L273.392 112.586C273.385 111.844 273.602 111.396 274.134 110.997C274.638 110.626 274.75 110.416 274.764 110.129C274.785 109.667 274.442 109.345 273.931 109.345C273.553 109.345 273.189 109.618 273.042 110.01L272.251 109.716ZM277.812 114.196C277.539 114.196 277.336 114 277.336 113.72C277.336 113.447 277.539 113.251 277.812 113.251C278.085 113.251 278.281 113.447 278.281 113.72C278.281 114 278.085 114.196 277.812 114.196ZM276.237 109.716C276.503 109.002 277.196 108.505 277.917 108.505C278.953 108.505 279.639 109.191 279.597 110.171C279.569 110.675 279.31 111.165 278.624 111.683C278.288 111.935 278.218 112.068 278.225 112.572L277.378 112.586C277.371 111.844 277.588 111.396 278.12 110.997C278.624 110.626 278.736 110.416 278.75 110.129C278.771 109.667 278.428 109.345 277.917 109.345C277.539 109.345 277.175 109.618 277.028 110.01L276.237 109.716ZM281.797 114.196C281.524 114.196 281.321 114 281.321 113.72C281.321 113.447 281.524 113.251 281.797 113.251C282.07 113.251 282.266 113.447 282.266 113.72C282.266 114 282.07 114.196 281.797 114.196ZM280.222 109.716C280.488 109.002 281.181 108.505 281.902 108.505C282.938 108.505 283.624 109.191 283.582 110.171C283.554 110.675 283.295 111.165 282.609 111.683C282.273 111.935 282.203 112.068 282.21 112.572L281.363 112.586C281.356 111.844 281.573 111.396 282.105 110.997C282.609 110.626 282.721 110.416 282.735 110.129C282.756 109.667 282.413 109.345 281.902 109.345C281.524 109.345 281.16 109.618 281.013 110.01L280.222 109.716Z" fill="#A3A3A3"/>
<path d="M180.36 75.892L176.286 86H175.194L170.938 75.892H172.03L175.726 84.824L179.268 75.892H180.36ZM182.034 83.76C182.734 84.614 183.714 85.216 184.764 85.216C186.234 85.216 187.27 84.39 187.27 83.228C187.27 80.792 181.698 81.814 181.698 78.412C181.698 76.83 183.028 75.724 184.904 75.724C186.094 75.724 187.2 76.368 187.928 77.278L187.172 77.852C186.612 77.124 185.814 76.62 184.904 76.62C183.616 76.62 182.706 77.362 182.706 78.412C182.706 80.946 188.278 79.938 188.278 83.228C188.278 84.922 186.822 86.112 184.764 86.112C183.406 86.112 182.104 85.384 181.278 84.334L182.034 83.76Z" fill="#FAFAFA"/>
<path d="M34.84 173.806C34.84 170.376 37.612 167.59 41.042 167.59C44.472 167.59 47.258 170.376 47.258 173.806C47.258 177.222 44.472 180.008 41.042 180.008C37.612 180.008 34.84 177.222 34.84 173.806ZM35.694 173.806C35.694 176.732 38.116 179.154 41.042 179.154C43.982 179.154 46.39 176.732 46.39 173.806C46.39 170.866 43.982 168.458 41.042 168.458C38.116 168.458 35.694 170.866 35.694 173.806ZM39.39 171.23L40.902 170.208H41.714V177.502H40.818V171.342L39.908 171.944L39.39 171.23ZM57.9356 168.892V178.104H63.1716V179H56.9276V168.892H57.9356ZM69.5165 175.038C69.4045 173.89 68.9005 172.742 67.3885 172.742C66.1565 172.742 65.1905 173.694 65.0225 175.052L69.5165 175.038ZM63.9865 175.444C63.9865 173.33 65.3725 171.846 67.3465 171.846C69.5585 171.846 70.1885 173.61 70.2585 173.778C70.6785 174.926 70.5105 175.92 70.5105 175.934H65.0225C65.2045 177.236 66.1705 178.146 67.3605 178.146C68.9705 178.146 69.4465 177.152 69.5445 177.012L70.3285 177.474C70.3285 177.474 69.6845 179.042 67.3465 179.042C65.3725 179.042 63.9865 177.558 63.9865 175.444ZM73.7427 179H72.7347V172.77H71.4467V171.874H72.7347V170.782C72.7347 169.564 73.6027 168.696 74.8347 168.696C75.3667 168.696 75.8567 168.906 76.2207 169.228L75.5767 169.914C75.3527 169.718 75.1427 169.592 74.8347 169.592C74.1907 169.592 73.7427 170.082 73.7427 170.782V171.874H75.8007V172.77H73.7427V179ZM80.2126 179.028C79.1206 179.028 78.3366 178.23 78.2946 177.068V172.784H77.1326V171.888H78.2946V170.04H79.3026V171.888H81.1086V172.784H79.3026V176.984C79.3026 177.586 79.6806 178.104 80.2126 178.104C80.5346 178.104 80.6606 178.062 80.8986 178.02L81.0666 178.944C80.8286 178.986 80.6186 179.028 80.2126 179.028ZM84.0313 170.936C84.3953 170.936 84.6473 171.188 84.6473 171.552C84.6473 171.916 84.3953 172.182 84.0313 172.182C83.6673 172.182 83.4013 171.916 83.4013 171.552C83.4013 171.188 83.6673 170.936 84.0313 170.936ZM83.4013 176.27C83.4013 175.906 83.6673 175.654 84.0313 175.654C84.3953 175.654 84.6473 175.906 84.6473 176.27C84.6473 176.634 84.3953 176.9 84.0313 176.9C83.6673 176.9 83.4013 176.634 83.4013 176.27ZM89.7944 174.408H94.8064V173.134H91.2364V170.25H98.4184V168.99H91.2084V168.164H99.4544V171.02H92.2584V172.308H99.7204V173.134H95.8564V174.408H100.896V175.248H89.7944V174.408ZM90.6904 179.168C92.8604 178.874 94.8064 177.74 94.8064 176.172V175.92H95.8704V176.172C95.8704 177.74 97.8164 178.874 100 179.168L99.6224 179.98C97.7744 179.7 96.0664 178.874 95.3384 177.586C94.6104 178.874 92.9024 179.7 91.0544 179.98L90.6904 179.168ZM111.411 167.772H112.419V180.022H111.411V167.772ZM102.493 177.054V169.284H107.099V170.152H103.529V176.172C105.293 176.172 106.413 176.102 107.715 175.808L107.827 176.69C106.427 176.998 105.237 177.054 103.277 177.054H102.493ZM106.259 173.344V172.462H108.947V168.066H109.941V179.378H108.947V173.344H106.259ZM123.241 167.758H124.291V180.036H123.241V167.758ZM114.953 169.788V168.934H120.595V173.26H116.031V176.186C118.061 176.186 119.867 176.102 122.051 175.752L122.163 176.606C119.923 176.984 118.075 177.054 115.989 177.054H114.981V172.392H119.545V169.788H114.953ZM129.765 168.724C131.557 168.724 132.817 170.376 132.817 172.98C132.817 175.584 131.557 177.25 129.765 177.25C127.973 177.25 126.699 175.584 126.699 172.98C126.699 170.376 127.973 168.724 129.765 168.724ZM127.707 172.98C127.707 174.982 128.547 176.312 129.765 176.312C130.983 176.312 131.823 174.982 131.823 172.98C131.823 170.978 130.983 169.662 129.765 169.662C128.547 169.662 127.707 170.978 127.707 172.98ZM134.861 180.022V167.772H135.911V172.7H137.941V173.582H135.911V180.022H134.861ZM185.319 174.198C186.551 174.198 187.419 173.274 187.419 171.972C187.419 170.684 186.551 169.788 185.319 169.788H182.323V174.198H185.319ZM181.315 179V168.892H185.291C187.139 168.892 188.427 170.18 188.427 172C188.441 173.484 187.433 174.744 185.991 175.024L188.903 179H187.629L184.773 175.094H182.323V179H181.315ZM190.609 171.874H191.617V179H190.609V171.874ZM190.469 169.424C190.469 169.06 190.735 168.794 191.113 168.794C191.477 168.794 191.743 169.06 191.743 169.424C191.743 169.802 191.477 170.068 191.113 170.068C190.735 170.068 190.469 169.802 190.469 169.424ZM196.738 178.202C198.068 178.202 199.118 176.956 199.118 175.5C199.118 174.072 198.054 172.826 196.738 172.826C195.338 172.826 194.344 173.932 194.344 175.5C194.344 177.082 195.338 178.202 196.738 178.202ZM193.336 175.5C193.336 173.4 194.736 171.93 196.724 171.93C197.788 171.93 198.698 172.49 199.118 173.4V171.874H200.126V178.65C200.098 180.736 198.754 182.206 196.654 182.206C195.52 182.206 194.512 181.702 193.784 180.61L194.61 180.106C195.128 180.918 195.842 181.31 196.654 181.31C198.166 181.31 199.104 180.204 199.118 178.636V177.572C198.628 178.454 197.634 179.098 196.724 179.098C194.736 179.098 193.336 177.614 193.336 175.5ZM207.035 174.996C207.035 173.708 206.293 172.812 205.243 172.812C204.109 172.812 203.143 173.932 203.143 175.276V179H202.135V168.892H203.143V173.218C203.493 172.49 204.291 171.916 205.243 171.916C206.881 171.916 208.043 173.162 208.043 174.94V179H207.035V174.996ZM212.297 179.028C211.205 179.028 210.421 178.23 210.379 177.068V172.784H209.217V171.888H210.379V170.04H211.387V171.888H213.193V172.784H211.387V176.984C211.387 177.586 211.765 178.104 212.297 178.104C212.619 178.104 212.745 178.062 212.983 178.02L213.151 178.944C212.913 178.986 212.703 179.028 212.297 179.028ZM219.342 170.936C219.706 170.936 219.958 171.188 219.958 171.552C219.958 171.916 219.706 172.182 219.342 172.182C218.978 172.182 218.712 171.916 218.712 171.552C218.712 171.188 218.978 170.936 219.342 170.936ZM218.712 176.27C218.712 175.906 218.978 175.654 219.342 175.654C219.706 175.654 219.958 175.906 219.958 176.27C219.958 176.634 219.706 176.9 219.342 176.9C218.978 176.9 218.712 176.634 218.712 176.27ZM249.98 177.39L246.088 170.852V179H245.08V168.892H246.088L249.98 175.542L253.872 168.892H254.894V179H253.886V170.838L249.98 177.39ZM259.968 178.118C260.626 178.118 261.41 177.796 261.872 177.334L262.6 177.978C261.956 178.622 260.892 179.07 260.024 179.07C257.896 179.07 256.398 177.572 256.398 175.458C256.398 173.344 257.896 171.86 260.024 171.86C260.892 171.86 261.956 172.308 262.6 172.952L261.872 173.596C261.41 173.134 260.626 172.812 259.968 172.812C258.47 172.812 257.406 173.904 257.406 175.458C257.406 177.026 258.47 178.118 259.968 178.118ZM267.109 178.104C269.489 178.104 271.169 176.382 271.169 173.946C271.169 171.51 269.489 169.788 267.109 169.788H265.065V178.104H267.109ZM264.057 179V168.892H267.109C270.063 168.892 272.149 170.978 272.149 173.946C272.149 176.914 270.063 179 267.109 179H264.057ZM276.8 178.16C278.2 178.16 279.194 177.04 279.194 175.444C279.194 173.848 278.2 172.728 276.8 172.728C275.4 172.728 274.42 173.848 274.42 175.444C274.42 177.04 275.4 178.16 276.8 178.16ZM273.412 175.444C273.412 173.33 274.812 171.832 276.8 171.832C278.802 171.832 280.202 173.33 280.202 175.444C280.202 177.558 278.802 179.056 276.8 179.056C274.812 179.056 273.412 177.558 273.412 175.444ZM286.674 174.8C286.674 173.61 285.918 172.77 284.854 172.77C283.594 172.77 282.712 173.75 282.712 174.8V179H281.704V171.874H282.712V173.092C283.202 172.378 284.084 171.874 284.854 171.874C286.52 171.874 287.682 173.036 287.682 174.702V179H286.674V174.8ZM292.592 178.202C293.852 178.202 294.986 177.068 295 175.5C294.986 173.946 293.852 172.812 292.592 172.812C291.192 172.812 290.198 173.918 290.198 175.5C290.198 177.082 291.192 178.202 292.592 178.202ZM289.19 175.5C289.19 173.4 290.59 171.916 292.578 171.916C293.404 171.916 294.328 172.35 294.972 173.386V171.874H295.98V179H294.972V177.6C294.3 178.692 293.418 179.098 292.578 179.098C290.59 179.098 289.19 177.614 289.19 175.5ZM297.793 168.892H298.801V179H297.793V168.892ZM303.597 179.112C301.595 179.112 300.195 177.614 300.195 175.486C300.195 173.358 301.595 171.86 303.597 171.86C304.507 171.86 305.459 172.322 306.047 173.386V168.892H307.055V179H306.047V177.586C305.445 178.65 304.507 179.112 303.597 179.112ZM301.203 175.486C301.203 177.082 302.211 178.216 303.639 178.216C304.927 178.216 306.047 176.984 306.047 175.486C306.047 174.002 304.927 172.756 303.639 172.756C302.211 172.756 301.203 173.89 301.203 175.486Z" fill="#FAFAFA"/>
<path d="M34.84 206.806C34.84 203.376 37.612 200.59 41.042 200.59C44.472 200.59 47.258 203.376 47.258 206.806C47.258 210.222 44.472 213.008 41.042 213.008C37.612 213.008 34.84 210.222 34.84 206.806ZM35.694 206.806C35.694 209.732 38.116 212.154 41.042 212.154C43.982 212.154 46.39 209.732 46.39 206.806C46.39 203.866 43.982 201.458 41.042 201.458C38.116 201.458 35.694 203.866 35.694 206.806ZM38.76 204.51C39.124 203.558 40.076 202.9 41.042 202.9C42.358 202.9 43.282 203.852 43.282 205.196C43.282 206.652 41.532 208.192 40.174 209.438H43.394V210.292H38.956L38.816 209.508C39.068 209.256 39.348 209.004 39.628 208.738C41.084 207.38 42.344 206.218 42.344 205.196C42.344 204.356 41.812 203.754 41.042 203.754C40.468 203.754 39.866 204.216 39.6 204.888L38.76 204.51ZM57.9356 201.892V211.104H63.1716V212H56.9276V201.892H57.9356ZM69.5165 208.038C69.4045 206.89 68.9005 205.742 67.3885 205.742C66.1565 205.742 65.1905 206.694 65.0225 208.052L69.5165 208.038ZM63.9865 208.444C63.9865 206.33 65.3725 204.846 67.3465 204.846C69.5585 204.846 70.1885 206.61 70.2585 206.778C70.6785 207.926 70.5105 208.92 70.5105 208.934H65.0225C65.2045 210.236 66.1705 211.146 67.3605 211.146C68.9705 211.146 69.4465 210.152 69.5445 210.012L70.3285 210.474C70.3285 210.474 69.6845 212.042 67.3465 212.042C65.3725 212.042 63.9865 210.558 63.9865 208.444ZM73.7427 212H72.7347V205.77H71.4467V204.874H72.7347V203.782C72.7347 202.564 73.6027 201.696 74.8347 201.696C75.3667 201.696 75.8567 201.906 76.2207 202.228L75.5767 202.914C75.3527 202.718 75.1427 202.592 74.8347 202.592C74.1907 202.592 73.7427 203.082 73.7427 203.782V204.874H75.8007V205.77H73.7427V212ZM80.2126 212.028C79.1206 212.028 78.3366 211.23 78.2946 210.068V205.784H77.1326V204.888H78.2946V203.04H79.3026V204.888H81.1086V205.784H79.3026V209.984C79.3026 210.586 79.6806 211.104 80.2126 211.104C80.5346 211.104 80.6606 211.062 80.8986 211.02L81.0666 211.944C80.8286 211.986 80.6186 212.028 80.2126 212.028ZM84.0313 203.936C84.3953 203.936 84.6473 204.188 84.6473 204.552C84.6473 204.916 84.3953 205.182 84.0313 205.182C83.6673 205.182 83.4013 204.916 83.4013 204.552C83.4013 204.188 83.6673 203.936 84.0313 203.936ZM83.4013 209.27C83.4013 208.906 83.6673 208.654 84.0313 208.654C84.3953 208.654 84.6473 208.906 84.6473 209.27C84.6473 209.634 84.3953 209.9 84.0313 209.9C83.6673 209.9 83.4013 209.634 83.4013 209.27ZM95.3104 210.39L91.4184 203.852V212H90.4104V201.892H91.4184L95.3104 208.542L99.2024 201.892H100.224V212H99.2164V203.838L95.3104 210.39ZM105.298 211.118C105.956 211.118 106.74 210.796 107.202 210.334L107.93 210.978C107.286 211.622 106.222 212.07 105.354 212.07C103.226 212.07 101.728 210.572 101.728 208.458C101.728 206.344 103.226 204.86 105.354 204.86C106.222 204.86 107.286 205.308 107.93 205.952L107.202 206.596C106.74 206.134 105.956 205.812 105.298 205.812C103.8 205.812 102.736 206.904 102.736 208.458C102.736 210.026 103.8 211.118 105.298 211.118ZM112.439 211.104C114.819 211.104 116.499 209.382 116.499 206.946C116.499 204.51 114.819 202.788 112.439 202.788H110.395V211.104H112.439ZM109.387 212V201.892H112.439C115.393 201.892 117.479 203.978 117.479 206.946C117.479 209.914 115.393 212 112.439 212H109.387ZM122.13 211.16C123.53 211.16 124.524 210.04 124.524 208.444C124.524 206.848 123.53 205.728 122.13 205.728C120.73 205.728 119.75 206.848 119.75 208.444C119.75 210.04 120.73 211.16 122.13 211.16ZM118.742 208.444C118.742 206.33 120.142 204.832 122.13 204.832C124.132 204.832 125.532 206.33 125.532 208.444C125.532 210.558 124.132 212.056 122.13 212.056C120.142 212.056 118.742 210.558 118.742 208.444ZM132.004 207.8C132.004 206.61 131.248 205.77 130.184 205.77C128.924 205.77 128.042 206.75 128.042 207.8V212H127.034V204.874H128.042V206.092C128.532 205.378 129.414 204.874 130.184 204.874C131.85 204.874 133.012 206.036 133.012 207.702V212H132.004V207.8ZM137.922 211.202C139.182 211.202 140.316 210.068 140.33 208.5C140.316 206.946 139.182 205.812 137.922 205.812C136.522 205.812 135.528 206.918 135.528 208.5C135.528 210.082 136.522 211.202 137.922 211.202ZM134.52 208.5C134.52 206.4 135.92 204.916 137.908 204.916C138.734 204.916 139.658 205.35 140.302 206.386V204.874H141.31V212H140.302V210.6C139.63 211.692 138.748 212.098 137.908 212.098C135.92 212.098 134.52 210.614 134.52 208.5ZM143.123 201.892H144.131V212H143.123V201.892ZM148.928 212.112C146.926 212.112 145.526 210.614 145.526 208.486C145.526 206.358 146.926 204.86 148.928 204.86C149.838 204.86 150.79 205.322 151.378 206.386V201.892H152.386V212H151.378V210.586C150.776 211.65 149.838 212.112 148.928 212.112ZM146.534 208.486C146.534 210.082 147.542 211.216 148.97 211.216C150.258 211.216 151.378 209.984 151.378 208.486C151.378 207.002 150.258 205.756 148.97 205.756C147.542 205.756 146.534 206.89 146.534 208.486ZM184.43 207.198C185.662 207.198 186.53 206.274 186.53 204.972C186.53 203.684 185.662 202.788 184.43 202.788H181.434V207.198H184.43ZM180.426 212V201.892H184.402C186.25 201.892 187.538 203.18 187.538 205C187.552 206.484 186.544 207.744 185.102 208.024L188.014 212H186.74L183.884 208.094H181.434V212H180.426ZM189.721 204.874H190.729V212H189.721V204.874ZM189.581 202.424C189.581 202.06 189.847 201.794 190.225 201.794C190.589 201.794 190.855 202.06 190.855 202.424C190.855 202.802 190.589 203.068 190.225 203.068C189.847 203.068 189.581 202.802 189.581 202.424ZM195.849 211.202C197.179 211.202 198.229 209.956 198.229 208.5C198.229 207.072 197.165 205.826 195.849 205.826C194.449 205.826 193.455 206.932 193.455 208.5C193.455 210.082 194.449 211.202 195.849 211.202ZM192.447 208.5C192.447 206.4 193.847 204.93 195.835 204.93C196.899 204.93 197.809 205.49 198.229 206.4V204.874H199.237V211.65C199.209 213.736 197.865 215.206 195.765 215.206C194.631 215.206 193.623 214.702 192.895 213.61L193.721 213.106C194.239 213.918 194.953 214.31 195.765 214.31C197.277 214.31 198.215 213.204 198.229 211.636V210.572C197.739 211.454 196.745 212.098 195.835 212.098C193.847 212.098 192.447 210.614 192.447 208.5ZM206.147 207.996C206.147 206.708 205.405 205.812 204.355 205.812C203.221 205.812 202.255 206.932 202.255 208.276V212H201.247V201.892H202.255V206.218C202.605 205.49 203.403 204.916 204.355 204.916C205.993 204.916 207.155 206.162 207.155 207.94V212H206.147V207.996ZM211.408 212.028C210.316 212.028 209.532 211.23 209.49 210.068V205.784H208.328V204.888H209.49V203.04H210.498V204.888H212.304V205.784H210.498V209.984C210.498 210.586 210.876 211.104 211.408 211.104C211.73 211.104 211.856 211.062 212.094 211.02L212.262 211.944C212.024 211.986 211.814 212.028 211.408 212.028ZM218.453 203.936C218.817 203.936 219.069 204.188 219.069 204.552C219.069 204.916 218.817 205.182 218.453 205.182C218.089 205.182 217.823 204.916 217.823 204.552C217.823 204.188 218.089 203.936 218.453 203.936ZM217.823 209.27C217.823 208.906 218.089 208.654 218.453 208.654C218.817 208.654 219.069 208.906 219.069 209.27C219.069 209.634 218.817 209.9 218.453 209.9C218.089 209.9 217.823 209.634 217.823 209.27ZM250.029 207.408H255.041V206.134H251.471V203.25H258.653V201.99H251.443V201.164H259.689V204.02H252.493V205.308H259.955V206.134H256.091V207.408H261.131V208.248H250.029V207.408ZM250.925 212.168C253.095 211.874 255.041 210.74 255.041 209.172V208.92H256.105V209.172C256.105 210.74 258.051 211.874 260.235 212.168L259.857 212.98C258.009 212.7 256.301 211.874 255.573 210.586C254.845 211.874 253.137 212.7 251.289 212.98L250.925 212.168ZM271.645 200.772H272.653V213.022H271.645V200.772ZM262.727 210.054V202.284H267.333V203.152H263.763V209.172C265.527 209.172 266.647 209.102 267.949 208.808L268.061 209.69C266.661 209.998 265.471 210.054 263.511 210.054H262.727ZM266.493 206.344V205.462H269.181V201.066H270.175V212.378H269.181V206.344H266.493ZM283.475 200.758H284.525V213.036H283.475V200.758ZM275.187 202.788V201.934H280.829V206.26H276.265V209.186C278.295 209.186 280.101 209.102 282.285 208.752L282.397 209.606C280.157 209.984 278.309 210.054 276.223 210.054H275.215V205.392H279.779V202.788H275.187ZM290 201.724C291.792 201.724 293.052 203.376 293.052 205.98C293.052 208.584 291.792 210.25 290 210.25C288.208 210.25 286.934 208.584 286.934 205.98C286.934 203.376 288.208 201.724 290 201.724ZM287.942 205.98C287.942 207.982 288.782 209.312 290 209.312C291.218 209.312 292.058 207.982 292.058 205.98C292.058 203.978 291.218 202.662 290 202.662C288.782 202.662 287.942 203.978 287.942 205.98ZM295.096 213.022V200.772H296.146V205.7H298.176V206.582H296.146V213.022H295.096Z" fill="#FAFAFA"/>
</svg>
