<svg width="360" height="230" viewBox="0 0 360 230" fill="none" xmlns="http://www.w3.org/2000/svg">
<rect width="360" height="230" fill="#171717"/>
<path opacity="0.3" d="M219.352 92.5586L228.368 99.355L226.426 100.465L224.9 101.297L223.097 103.516L221.571 109.48L226.981 119.606H219.907L207.84 103.655L219.352 92.5586Z" fill="#00FFBB"/>
<path opacity="0.3" d="M247.787 104.626L255.138 99.2163L258.329 99.6324L258.467 119.606H248.481L247.787 104.626Z" fill="#00FFBB"/>
<path opacity="0.3" fill-rule="evenodd" clip-rule="evenodd" d="M245.703 99.6328H234.33L236.826 108.787L236.906 109.62H226.008V117.387H237.381V114.615L237.659 117.526L243.623 119.606L245.703 99.6328Z" fill="#00FFBB"/>
<path opacity="0.3" d="M272.34 99.6318H281.494V119.605H272.34V99.6318Z" fill="#00FFBB"/>
<path opacity="0.3" d="M284.545 99.6318H293.699V119.605H284.545V99.6318Z" fill="#00FFBB"/>
<path opacity="0.3" d="M305.627 99.6318H321.994L318.526 105.596L317.694 112.947L321.994 119.605H305.627V99.6318Z" fill="#00FFBB"/>
<path d="M196.333 92.0221H201.899V103.172L212.351 92.0221H219.662L208.567 103.172L220.231 119.098H212.957L204.599 107.268L201.899 110.042V119.098H196.333V92.0221ZM230.904 102.86C229.691 102.86 228.748 103.239 228.075 103.999C227.413 104.758 226.997 105.786 226.826 107.084H234.963C234.877 105.701 234.455 104.654 233.696 103.943C232.949 103.221 232.018 102.86 230.904 102.86ZM230.904 98.543C232.569 98.543 234.069 98.8553 235.404 99.4798C236.739 100.104 237.841 101.09 238.71 102.437C239.494 103.625 240.002 105.003 240.235 106.57C240.37 107.489 240.425 108.811 240.4 110.538H226.697C226.771 112.546 227.401 113.954 228.589 114.763C229.312 115.265 230.181 115.516 231.197 115.516C232.275 115.516 233.151 115.21 233.824 114.597C234.192 114.267 234.516 113.807 234.798 113.22H240.143C240.008 114.407 239.39 115.614 238.288 116.838C236.573 118.785 234.173 119.759 231.087 119.759C228.54 119.759 226.293 118.938 224.346 117.298C222.399 115.657 221.425 112.987 221.425 109.289C221.425 105.823 222.301 103.166 224.052 101.317C225.815 99.4676 228.099 98.543 230.904 98.543ZM254.82 98.5981C254.918 98.5981 254.997 98.6042 255.058 98.6165C255.132 98.6165 255.285 98.6226 255.518 98.6348V103.999C255.187 103.962 254.893 103.937 254.636 103.925C254.379 103.913 254.171 103.907 254.011 103.907C251.905 103.907 250.491 104.592 249.768 105.964C249.364 106.735 249.162 107.923 249.162 109.528V119.098H243.89V99.0757H248.887V102.566C249.695 101.231 250.399 100.319 250.999 99.8288C251.979 99.0083 253.252 98.5981 254.82 98.5981ZM269.698 98.5981C271.768 98.5981 273.458 99.143 274.768 100.233C276.091 101.311 276.752 103.105 276.752 105.615V119.098H271.388V106.919C271.388 105.866 271.247 105.058 270.966 104.494C270.451 103.466 269.472 102.951 268.027 102.951C266.251 102.951 265.033 103.705 264.371 105.211C264.029 106.007 263.857 107.023 263.857 108.26V119.098H258.64V99.1124H263.692V102.033C264.365 101.004 265.002 100.264 265.602 99.8104C266.68 99.0022 268.045 98.5981 269.698 98.5981ZM286.983 96.6877H281.675V91.8568H286.983V96.6877ZM281.675 99.0757H286.983V119.098H281.675V99.0757ZM303.166 98.5981C305.236 98.5981 306.926 99.143 308.236 100.233C309.559 101.311 310.22 103.105 310.22 105.615V119.098H304.856V106.919C304.856 105.866 304.715 105.058 304.434 104.494C303.919 103.466 302.94 102.951 301.495 102.951C299.719 102.951 298.501 103.705 297.839 105.211C297.496 106.007 297.325 107.023 297.325 108.26V119.098H292.108V99.1124H297.16V102.033C297.833 101.004 298.47 100.264 299.07 99.8104C300.148 99.0022 301.513 98.5981 303.166 98.5981ZM323.666 114.799C324.89 114.799 325.925 114.34 326.77 113.422C327.615 112.491 328.038 111.015 328.038 108.995C328.038 107.097 327.633 105.652 326.825 104.66C326.029 103.668 324.958 103.172 323.611 103.172C321.774 103.172 320.506 104.035 319.808 105.762C319.441 106.68 319.257 107.813 319.257 109.16C319.257 110.324 319.453 111.358 319.845 112.264C320.555 113.954 321.829 114.799 323.666 114.799ZM322.362 98.5981C323.366 98.5981 324.241 98.7512 324.988 99.0573C326.262 99.5839 327.291 100.551 328.074 101.96V99.0757H333.163V118.069C333.163 120.653 332.728 122.6 331.858 123.91C330.364 126.164 327.499 127.29 323.262 127.29C320.702 127.29 318.614 126.788 316.998 125.784C315.382 124.78 314.488 123.28 314.316 121.284H320.01C320.157 121.896 320.396 122.337 320.727 122.606C321.29 123.084 322.239 123.322 323.574 123.322C325.46 123.322 326.721 122.692 327.358 121.43C327.774 120.622 327.983 119.263 327.983 117.353V116.067C327.48 116.924 326.942 117.567 326.366 117.996C325.325 118.792 323.972 119.19 322.307 119.19C319.735 119.19 317.678 118.289 316.135 116.489C314.604 114.677 313.839 112.228 313.839 109.142C313.839 106.166 314.579 103.668 316.061 101.647C317.543 99.6145 319.643 98.5981 322.362 98.5981Z" fill="#FAFAFA"/>
<path d="M196.333 136.924H201.899V148.074L212.351 136.924H219.662L208.567 148.074L220.231 164H212.957L204.599 152.171L201.899 154.944V164H196.333V136.924ZM230.904 147.762C229.691 147.762 228.748 148.142 228.075 148.901C227.413 149.66 226.997 150.689 226.826 151.987H234.963C234.877 150.603 234.455 149.556 233.696 148.846C232.949 148.123 232.018 147.762 230.904 147.762ZM230.904 143.445C232.569 143.445 234.069 143.758 235.404 144.382C236.739 145.007 237.841 145.992 238.71 147.34C239.494 148.527 240.002 149.905 240.235 151.472C240.37 152.391 240.425 153.713 240.4 155.44H226.697C226.771 157.448 227.401 158.857 228.589 159.665C229.312 160.167 230.181 160.418 231.197 160.418C232.275 160.418 233.151 160.112 233.824 159.5C234.192 159.169 234.516 158.71 234.798 158.122H240.143C240.008 159.31 239.39 160.516 238.288 161.741C236.573 163.688 234.173 164.661 231.087 164.661C228.54 164.661 226.293 163.841 224.346 162.2C222.399 160.559 221.425 157.889 221.425 154.191C221.425 150.725 222.301 148.068 224.052 146.219C225.815 144.37 228.099 143.445 230.904 143.445ZM254.82 143.5C254.918 143.5 254.997 143.507 255.058 143.519C255.132 143.519 255.285 143.525 255.518 143.537V148.901C255.187 148.864 254.893 148.84 254.636 148.827C254.379 148.815 254.171 148.809 254.011 148.809C251.905 148.809 250.491 149.495 249.768 150.866C249.364 151.638 249.162 152.826 249.162 154.43V164H243.89V143.978H248.887V147.468C249.695 146.133 250.399 145.221 250.999 144.731C251.979 143.911 253.252 143.5 254.82 143.5ZM269.698 143.5C271.768 143.5 273.458 144.045 274.768 145.135C276.091 146.213 276.752 148.007 276.752 150.517V164H271.388V151.821C271.388 150.768 271.247 149.96 270.966 149.397C270.451 148.368 269.472 147.854 268.027 147.854C266.251 147.854 265.033 148.607 264.371 150.113C264.029 150.909 263.857 151.926 263.857 153.162V164H258.64V144.015H263.692V146.935C264.365 145.907 265.002 145.166 265.602 144.713C266.68 143.905 268.045 143.5 269.698 143.5ZM286.983 141.59H281.675V136.759H286.983V141.59ZM281.675 143.978H286.983V164H281.675V143.978ZM303.166 143.5C305.236 143.5 306.926 144.045 308.236 145.135C309.559 146.213 310.22 148.007 310.22 150.517V164H304.856V151.821C304.856 150.768 304.715 149.96 304.434 149.397C303.919 148.368 302.94 147.854 301.495 147.854C299.719 147.854 298.501 148.607 297.839 150.113C297.496 150.909 297.325 151.926 297.325 153.162V164H292.108V144.015H297.16V146.935C297.833 145.907 298.47 145.166 299.07 144.713C300.148 143.905 301.513 143.5 303.166 143.5ZM323.666 159.702C324.89 159.702 325.925 159.242 326.77 158.324C327.615 157.393 328.038 155.918 328.038 153.897C328.038 151.999 327.633 150.554 326.825 149.562C326.029 148.57 324.958 148.074 323.611 148.074C321.774 148.074 320.506 148.938 319.808 150.664C319.441 151.583 319.257 152.715 319.257 154.062C319.257 155.226 319.453 156.261 319.845 157.167C320.555 158.857 321.829 159.702 323.666 159.702ZM322.362 143.5C323.366 143.5 324.241 143.654 324.988 143.96C326.262 144.486 327.291 145.454 328.074 146.862V143.978H333.163V162.971C333.163 165.555 332.728 167.502 331.858 168.813C330.364 171.066 327.499 172.192 323.262 172.192C320.702 172.192 318.614 171.69 316.998 170.686C315.382 169.682 314.488 168.182 314.316 166.186H320.01C320.157 166.798 320.396 167.239 320.727 167.508C321.29 167.986 322.239 168.225 323.574 168.225C325.46 168.225 326.721 167.594 327.358 166.333C327.774 165.525 327.983 164.165 327.983 162.255V160.969C327.48 161.826 326.942 162.469 326.366 162.898C325.325 163.694 323.972 164.092 322.307 164.092C319.735 164.092 317.678 163.192 316.135 161.392C314.604 159.579 313.839 157.13 313.839 154.044C313.839 151.068 314.579 148.57 316.061 146.55C317.543 144.517 319.643 143.5 322.362 143.5Z" fill="#FAFAFA"/>
<rect opacity="0.3" x="52.0586" y="91.938" width="4.5098" height="27.2392" fill="#00FFBB"/>
<rect opacity="0.3" x="75.6445" y="91.938" width="4.71871" height="27.2392" fill="#00FFBB"/>
<rect opacity="0.3" x="92.0156" y="91.938" width="4.71871" height="27.2392" fill="#00FFBB"/>
<path opacity="0.3" d="M114.934 91.938H119.433V119.177H114.934V91.938Z" fill="#00FFBB"/>
<path opacity="0.3" d="M124.789 91.938H129.647V119.177H124.789V91.938Z" fill="#00FFBB"/>
<rect opacity="0.3" x="147.408" y="91.938" width="4.99628" height="27.2392" fill="#00FFBB"/>
<path d="M28.2828 91.9083H33.8518V103.065L44.3099 91.9083H51.625L40.5237 103.065L52.1948 119H44.9164L36.5537 107.163L33.8518 109.939V119H28.2828V91.9083ZM66.2612 102.752C65.0481 102.752 64.1046 103.132 63.4307 103.892C62.769 104.652 62.3524 105.681 62.1809 106.98H70.3231C70.2373 105.595 69.8146 104.547 69.0549 103.837C68.3074 103.114 67.3762 102.752 66.2612 102.752ZM66.2612 98.4331C67.9276 98.4331 69.4286 98.7456 70.7642 99.3705C72.0998 99.9954 73.2026 100.982 74.0725 102.33C74.8567 103.518 75.3652 104.897 75.5981 106.465C75.7328 107.384 75.788 108.707 75.7635 110.435H62.0522C62.1257 112.445 62.7568 113.854 63.9453 114.662C64.6683 115.165 65.5382 115.416 66.5552 115.416C67.6335 115.416 68.5096 115.11 69.1835 114.497C69.5511 114.166 69.8758 113.707 70.1577 113.118H75.5062C75.3714 114.307 74.7526 115.514 73.6498 116.739C71.9344 118.688 69.5328 119.662 66.445 119.662C63.8963 119.662 61.6479 118.841 59.6996 117.199C57.7514 115.557 56.7772 112.886 56.7772 109.185C56.7772 105.718 57.6533 103.059 59.4055 101.208C61.17 99.3582 63.4552 98.4331 66.2612 98.4331ZM91.4149 98.4882C91.5129 98.4882 91.5926 98.4944 91.6538 98.5066C91.7274 98.5066 91.8805 98.5127 92.1133 98.525V103.892C91.7825 103.855 91.4884 103.831 91.2311 103.818C90.9738 103.806 90.7655 103.8 90.6062 103.8C88.4987 103.8 87.0834 104.486 86.3605 105.859C85.9561 106.63 85.754 107.819 85.754 109.424V119H80.479V98.9661H85.4783V102.458C86.287 101.123 86.9915 100.21 87.5919 99.7197C88.5722 98.8987 89.8465 98.4882 91.4149 98.4882ZM107.996 98.4882C110.067 98.4882 111.758 99.0335 113.069 100.124C114.392 101.202 115.054 102.997 115.054 105.509V119H109.687V106.814C109.687 105.76 109.546 104.952 109.265 104.388C108.75 103.359 107.77 102.844 106.324 102.844C104.547 102.844 103.328 103.598 102.666 105.105C102.323 105.901 102.152 106.918 102.152 108.156V119H96.9318V99.0029H101.986V101.925C102.66 100.896 103.297 100.155 103.898 99.7013C104.976 98.8926 106.342 98.4882 107.996 98.4882ZM124.878 96.5767H119.566V91.7429H124.878V96.5767ZM119.566 98.9661H124.878V119H119.566V98.9661ZM140.694 98.4882C142.765 98.4882 144.455 99.0335 145.767 100.124C147.09 101.202 147.752 102.997 147.752 105.509V119H142.385V106.814C142.385 105.76 142.244 104.952 141.962 104.388C141.447 103.359 140.467 102.844 139.021 102.844C137.244 102.844 136.025 103.598 135.364 105.105C135.021 105.901 134.849 106.918 134.849 108.156V119H129.629V99.0029H134.684V101.925C135.357 100.896 135.995 100.155 136.595 99.7013C137.673 98.8926 139.04 98.4882 140.694 98.4882ZM162.711 114.699C163.936 114.699 164.972 114.24 165.817 113.321C166.663 112.389 167.086 110.913 167.086 108.891C167.086 106.992 166.681 105.546 165.872 104.554C165.076 103.561 164.004 103.065 162.656 103.065C160.818 103.065 159.55 103.929 158.851 105.656C158.484 106.575 158.3 107.709 158.3 109.057C158.3 110.221 158.496 111.256 158.888 112.163C159.599 113.854 160.873 114.699 162.711 114.699ZM161.406 98.4882C162.411 98.4882 163.287 98.6414 164.034 98.9477C165.309 99.4746 166.338 100.443 167.122 101.852V98.9661H172.213V117.971C172.213 120.556 171.778 122.504 170.909 123.815C169.414 126.07 166.546 127.197 162.307 127.197C159.746 127.197 157.657 126.695 156.039 125.69C154.422 124.685 153.527 123.184 153.356 121.187H159.054C159.201 121.8 159.44 122.241 159.77 122.511C160.334 122.988 161.284 123.227 162.619 123.227C164.506 123.227 165.768 122.596 166.405 121.334C166.822 120.526 167.03 119.165 167.03 117.254V115.967C166.528 116.825 165.989 117.468 165.413 117.897C164.371 118.694 163.017 119.092 161.351 119.092C158.778 119.092 156.719 118.191 155.175 116.39C153.644 114.577 152.878 112.126 152.878 109.038C152.878 106.061 153.619 103.561 155.102 101.539C156.585 99.5052 158.686 98.4882 161.406 98.4882Z" fill="#FAFAFA"/>
<path d="M28.2828 136.908H33.8518V148.065L44.3099 136.908H51.625L40.5237 148.065L52.1948 164H44.9164L36.5537 152.163L33.8518 154.939V164H28.2828V136.908ZM66.2612 147.752C65.0481 147.752 64.1046 148.132 63.4307 148.892C62.769 149.652 62.3524 150.681 62.1809 151.98H70.3231C70.2373 150.595 69.8146 149.547 69.0549 148.837C68.3074 148.114 67.3762 147.752 66.2612 147.752ZM66.2612 143.433C67.9276 143.433 69.4286 143.746 70.7642 144.37C72.0998 144.995 73.2026 145.982 74.0725 147.33C74.8567 148.518 75.3652 149.897 75.5981 151.465C75.7328 152.384 75.788 153.707 75.7635 155.435H62.0522C62.1257 157.445 62.7568 158.854 63.9453 159.662C64.6683 160.165 65.5382 160.416 66.5552 160.416C67.6335 160.416 68.5096 160.11 69.1835 159.497C69.5511 159.166 69.8758 158.707 70.1577 158.118H75.5062C75.3714 159.307 74.7526 160.514 73.6498 161.739C71.9344 163.688 69.5328 164.662 66.445 164.662C63.8963 164.662 61.6479 163.841 59.6996 162.199C57.7514 160.557 56.7772 157.886 56.7772 154.185C56.7772 150.718 57.6533 148.059 59.4055 146.208C61.17 144.358 63.4552 143.433 66.2612 143.433ZM91.4149 143.488C91.5129 143.488 91.5926 143.494 91.6538 143.507C91.7274 143.507 91.8805 143.513 92.1133 143.525V148.892C91.7825 148.855 91.4884 148.831 91.2311 148.818C90.9738 148.806 90.7655 148.8 90.6062 148.8C88.4987 148.8 87.0834 149.486 86.3605 150.859C85.9561 151.63 85.754 152.819 85.754 154.424V164H80.479V143.966H85.4783V147.458C86.287 146.123 86.9915 145.21 87.5919 144.72C88.5722 143.899 89.8465 143.488 91.4149 143.488ZM107.996 143.488C110.067 143.488 111.758 144.033 113.069 145.124C114.392 146.202 115.054 147.997 115.054 150.509V164H109.687V151.814C109.687 150.76 109.546 149.952 109.265 149.388C108.75 148.359 107.77 147.844 106.324 147.844C104.547 147.844 103.328 148.598 102.666 150.105C102.323 150.901 102.152 151.918 102.152 153.156V164H96.9318V144.003H101.986V146.925C102.66 145.896 103.297 145.155 103.898 144.701C104.976 143.893 106.342 143.488 107.996 143.488ZM124.878 141.577H119.566V136.743H124.878V141.577ZM119.566 143.966H124.878V164H119.566V143.966ZM140.694 143.488C142.765 143.488 144.455 144.033 145.767 145.124C147.09 146.202 147.752 147.997 147.752 150.509V164H142.385V151.814C142.385 150.76 142.244 149.952 141.962 149.388C141.447 148.359 140.467 147.844 139.021 147.844C137.244 147.844 136.025 148.598 135.364 150.105C135.021 150.901 134.849 151.918 134.849 153.156V164H129.629V144.003H134.684V146.925C135.357 145.896 135.995 145.155 136.595 144.701C137.673 143.893 139.04 143.488 140.694 143.488ZM162.711 159.699C163.936 159.699 164.972 159.24 165.817 158.321C166.663 157.389 167.086 155.913 167.086 153.891C167.086 151.992 166.681 150.546 165.872 149.554C165.076 148.561 164.004 148.065 162.656 148.065C160.818 148.065 159.55 148.929 158.851 150.656C158.484 151.575 158.3 152.709 158.3 154.057C158.3 155.221 158.496 156.256 158.888 157.163C159.599 158.854 160.873 159.699 162.711 159.699ZM161.406 143.488C162.411 143.488 163.287 143.641 164.034 143.948C165.309 144.475 166.338 145.443 167.122 146.852V143.966H172.213V162.971C172.213 165.556 171.778 167.504 170.909 168.815C169.414 171.07 166.546 172.197 162.307 172.197C159.746 172.197 157.657 171.695 156.039 170.69C154.422 169.685 153.527 168.184 153.356 166.187H159.054C159.201 166.8 159.44 167.241 159.77 167.511C160.334 167.988 161.284 168.227 162.619 168.227C164.506 168.227 165.768 167.596 166.405 166.334C166.822 165.526 167.03 164.165 167.03 162.254V160.967C166.528 161.825 165.989 162.468 165.413 162.897C164.371 163.694 163.017 164.092 161.351 164.092C158.778 164.092 156.719 163.191 155.175 161.39C153.644 159.577 152.878 157.126 152.878 154.038C152.878 151.061 153.619 148.561 155.102 146.539C156.585 144.505 158.686 143.488 161.406 143.488Z" fill="#FAFAFA"/>
<path d="M93.8888 66.806C93.8888 63.376 96.6608 60.59 100.091 60.59C103.521 60.59 106.307 63.376 106.307 66.806C106.307 70.222 103.521 73.008 100.091 73.008C96.6608 73.008 93.8888 70.222 93.8888 66.806ZM94.9668 66.806C94.9668 69.62 97.2768 71.93 100.091 71.93C102.919 71.93 105.215 69.62 105.215 66.806C105.215 63.978 102.919 61.682 100.091 61.682C97.2768 61.682 94.9668 63.978 94.9668 66.806ZM98.2988 64.286L99.8808 63.418H100.875V70.278L99.8248 70.264V64.608L98.7748 65.154L98.2988 64.286Z" fill="#FAFAFA"/>
<path d="M257.889 65.806C257.889 62.376 260.661 59.59 264.091 59.59C267.521 59.59 270.307 62.376 270.307 65.806C270.307 69.222 267.521 72.008 264.091 72.008C260.661 72.008 257.889 69.222 257.889 65.806ZM258.967 65.806C258.967 68.62 261.277 70.93 264.091 70.93C266.919 70.93 269.215 68.62 269.215 65.806C269.215 62.978 266.919 60.682 264.091 60.682C261.277 60.682 258.967 62.978 258.967 65.806ZM261.837 63.65C262.201 62.754 263.125 62.124 264.049 62.124C265.351 62.124 266.247 63.062 266.247 64.364C266.247 65.736 264.763 67.024 263.559 68.102H266.359V69.054H262.103L261.963 68.144C262.201 67.906 262.453 67.682 262.705 67.458C264.007 66.282 265.169 65.302 265.169 64.364C265.169 63.636 264.721 63.118 264.049 63.118C263.545 63.118 262.999 63.51 262.775 64.084L261.837 63.65Z" fill="#FAFAFA"/>
</svg>
