<svg width="360" height="230" viewBox="0 0 360 230" fill="none" xmlns="http://www.w3.org/2000/svg">
<rect width="360" height="230" fill="#171717"/>
<line y1="143.5" x2="360" y2="143.5" stroke="#00FFBB"/>
<line y1="123.5" x2="360" y2="123.5" stroke="#00FFBB"/>
<path d="M31.1426 143.439L31.1719 142.795C31.8359 142.424 32.6074 142.189 33.4863 142.092C34.873 141.916 35.752 141.74 36.123 141.564C36.4941 141.369 36.7578 141.105 36.9141 140.773C37.1875 140.129 37.3242 139.475 37.3242 138.811L37.2656 136.584L37.2949 134.533L37.2363 132.131C37.2363 131.135 37.2656 129.895 37.3242 128.41C37.3828 126.906 37.4121 126.105 37.4121 126.008V118.01C37.4121 116.74 37.4414 115.373 37.5 113.908C37.5586 112.424 37.5879 111.398 37.5879 110.832C37.5879 109.152 37.5488 108.176 37.4707 107.902C37.3926 107.629 37.2461 107.434 37.0312 107.316C36.8164 107.199 36.1133 107.092 34.9219 106.994C34.0039 106.916 33.3691 106.848 33.0176 106.789C32.9199 106.574 32.8711 106.398 32.8711 106.262C32.8711 106.105 32.8809 105.92 32.9004 105.705C33.3691 105.666 33.7305 105.646 33.9844 105.646L36.7383 105.676C38.6914 105.676 40.7617 105.598 42.9492 105.441C44.0234 105.363 45.6445 105.295 47.8125 105.236C47.8516 105.412 47.8711 105.578 47.8711 105.734C47.8711 105.93 47.8223 106.086 47.7246 106.203C47.6465 106.301 47.5 106.369 47.2852 106.408C44.7266 106.623 43.2129 106.945 42.7441 107.375C42.2949 107.785 42.0703 108.85 42.0703 110.568C42.0703 113.732 42.1191 116.994 42.2168 120.354L42.334 123.107C42.4316 123.186 43.7012 123.283 46.1426 123.4C46.8066 123.439 47.1973 123.459 47.3145 123.459L51.6211 123.4L54.4629 123.488L61.9043 123.254C62.8223 123.234 63.3789 123.195 63.5742 123.137C63.6914 119.738 63.75 116.447 63.75 113.264C63.75 110.197 63.6816 108.391 63.5449 107.844C63.4668 107.512 63.3301 107.287 63.1348 107.17C63.0176 107.111 62.002 106.955 60.0879 106.701C59.7559 106.662 59.4434 106.613 59.1504 106.555C59.0527 106.262 59.0039 105.93 59.0039 105.559C59.668 105.461 60.0879 105.412 60.2637 105.412L62.1973 105.529C63.9746 105.627 65.7617 105.676 67.5586 105.676C68.7109 105.676 70.625 105.578 73.3008 105.383C73.2812 105.773 73.2324 106.125 73.1543 106.438C72.4121 106.73 71.5234 106.916 70.4883 106.994C69.8242 107.033 69.2676 107.141 68.8184 107.316C68.4473 107.59 68.2617 108.146 68.2617 108.986C68.2617 109.182 68.2715 109.396 68.291 109.631C68.3105 110.334 68.3203 110.793 68.3203 111.008V114.377L68.3496 116.486L68.291 119.211L68.3203 124.309L68.2617 129.113C68.2617 130.07 68.291 131.564 68.3496 133.596L68.3203 137.551C68.3203 138.879 68.4375 139.826 68.6719 140.393C68.7891 140.666 68.9844 140.861 69.2578 140.979L71.6309 141.506C72.8027 141.799 73.4961 142.043 73.7109 142.238C73.9453 142.414 74.0625 142.629 74.0625 142.883L73.9746 143.234L73.8281 143.264C73.7305 143.264 73.6035 143.244 73.4473 143.205C71.3184 142.814 69.082 142.619 66.7383 142.619C64.9023 142.619 63.5938 142.648 62.8125 142.707C62.0508 142.766 60.4492 142.98 58.0078 143.352C57.9688 143.098 57.9492 142.912 57.9492 142.795C57.9492 142.658 57.9688 142.473 58.0078 142.238C58.6133 141.887 59.5703 141.643 60.8789 141.506C61.8555 141.408 62.627 141.096 63.1934 140.568C63.5645 140.217 63.75 139.699 63.75 139.016L63.7207 134.797C63.7793 133.527 63.8086 132.834 63.8086 132.717C63.8086 131.057 63.7793 128.635 63.7207 125.451C63.6621 125.178 63.5547 125.012 63.3984 124.953C62.8711 124.777 60.2734 124.816 55.6055 125.07C54.668 125.129 53.9648 125.158 53.4961 125.158C53.0273 125.158 52.041 125.139 50.5371 125.1C49.0527 125.041 47.6758 125.012 46.4062 125.012C45.7227 125.012 45.1465 125.021 44.6777 125.041C43.7793 125.061 43.2812 125.07 43.1836 125.07C42.7344 125.07 42.4219 125.158 42.2461 125.334C42.0898 125.51 42.0117 125.832 42.0117 126.301L42.041 128.352C42.041 128.684 41.9922 130.529 41.8945 133.889C41.875 134.572 41.8652 135.139 41.8652 135.588C41.8652 138.264 41.9629 140.041 42.1582 140.92C42.2559 141.33 42.4316 141.613 42.6855 141.77C42.8613 141.887 43.623 142.092 44.9707 142.385C45.8691 142.58 46.5527 142.766 47.0215 142.941L47.1973 143.234C47.1973 143.332 47.1582 143.41 47.0801 143.469C46.9629 143.566 46.7969 143.615 46.582 143.615C46.4258 143.615 46.2402 143.605 46.0254 143.586C45.8105 143.586 45.3906 143.576 44.7656 143.557C43.7695 143.537 42.5293 143.469 41.0449 143.352C40.0879 143.273 39.2383 143.234 38.4961 143.234C37.2461 143.234 35.2441 143.293 32.4902 143.41C31.9629 143.43 31.5137 143.439 31.1426 143.439ZM76.5234 121.057C76.4844 120.803 76.4648 120.588 76.4648 120.412V120.031C76.7773 119.953 77.1191 119.914 77.4902 119.914H78.5742C80.2539 119.973 81.3086 120.002 81.7383 120.002C83.0859 120.002 84.4531 119.982 85.8398 119.943C86.6992 119.924 87.2266 119.914 87.4219 119.914H88.125C88.2617 120.188 88.3301 120.393 88.3301 120.529C88.3301 120.627 88.291 120.764 88.2129 120.939L87.7734 120.998C86.3477 121.135 85.4492 121.311 85.0781 121.525C84.9219 121.623 84.8438 121.75 84.8438 121.906C84.8438 122.219 85.0781 122.678 85.5469 123.283C87.832 126.252 89.3848 128.166 90.2051 129.025C92.041 126.564 93.1348 124.992 93.4863 124.309C93.8574 123.605 94.043 123.059 94.043 122.668C94.043 122.219 93.8672 121.848 93.5156 121.555C93.1641 121.242 92.3047 120.988 90.9375 120.793C90.7812 120.559 90.7031 120.363 90.7031 120.207L90.791 119.914L91.5527 119.885C91.748 119.885 92.0898 119.895 92.5781 119.914C93.418 119.973 94.2578 120.002 95.0977 120.002C95.5273 120.002 96.2695 119.992 97.3242 119.973C98.3789 119.934 99.1797 119.914 99.7266 119.914H101.074C101.328 120.031 101.455 120.188 101.455 120.383C101.455 120.48 101.436 120.607 101.396 120.764C101.084 120.842 100.703 120.92 100.254 120.998C99.1992 121.154 98.1738 121.535 97.1777 122.141C96.4355 122.59 95.7031 123.303 94.9805 124.279L90.8203 129.904L95.0684 135.236C97.0215 137.873 98.2129 139.426 98.6426 139.895C99.0918 140.363 99.5703 140.744 100.078 141.037C100.586 141.33 101.328 141.604 102.305 141.857C102.324 142.092 102.334 142.297 102.334 142.473C102.334 142.609 102.295 142.795 102.217 143.029C101.865 143.029 100.088 142.98 96.8848 142.883C96.6895 142.883 95.752 142.902 94.0723 142.941C93.5449 142.961 93.0371 142.971 92.5488 142.971C92.0996 142.971 91.543 142.951 90.8789 142.912L90.9668 142.033C91.2598 141.975 91.582 141.906 91.9336 141.828C92.9297 141.633 93.6426 141.369 94.0723 141.037C94.3262 140.822 94.4531 140.588 94.4531 140.334C94.4531 139.904 93.125 138.107 90.4688 134.943L88.7402 132.863C87.9199 133.684 87.0117 134.846 86.0156 136.35C85.4492 137.229 84.9902 137.883 84.6387 138.312C83.9746 139.094 83.6426 139.748 83.6426 140.275C83.6426 140.451 83.7598 140.637 83.9941 140.832C84.2285 141.008 84.9121 141.223 86.0449 141.477C86.8066 141.633 87.3438 141.76 87.6562 141.857C87.7148 142.111 87.7441 142.307 87.7441 142.443C87.7441 142.561 87.7246 142.746 87.6855 143C86.1816 142.922 84.7168 142.883 83.291 142.883C81.4941 142.883 80.1855 142.912 79.3652 142.971C78.5645 143.01 78.0664 143.029 77.8711 143.029C77.6367 143.029 77.2656 143.01 76.7578 142.971C76.6797 142.697 76.6406 142.492 76.6406 142.355L76.6992 141.975C76.9727 141.838 77.3145 141.75 77.7246 141.711C79.0332 141.574 80.1953 141.086 81.2109 140.246C82.2266 139.406 84.4824 136.604 87.9785 131.838L84.082 127.15L79.9219 122.17C79.8047 122.053 79.6582 121.936 79.4824 121.818C79.1699 121.643 78.75 121.506 78.2227 121.408C77.4219 121.252 76.8555 121.135 76.5234 121.057ZM113.965 120.178C118.828 120.295 121.416 120.354 121.729 120.354C121.768 120.783 121.787 121.105 121.787 121.32C121.787 121.574 121.758 121.955 121.699 122.463C121.211 122.541 120.713 122.58 120.205 122.58H119.092C116.67 122.58 114.99 122.668 114.053 122.844C114.014 123.293 113.994 123.635 113.994 123.869C113.994 123.967 114.004 124.113 114.023 124.309C114.121 127.375 114.17 129.23 114.17 129.875L114.111 137.404C114.111 138.518 114.297 139.445 114.668 140.188C114.883 140.617 115.283 140.959 115.869 141.213C116.24 141.389 117.139 141.564 118.564 141.74C119.639 141.896 120.361 142.004 120.732 142.062C120.732 142.473 120.703 142.785 120.645 143L120.234 143.029C119.297 142.971 118.076 142.922 116.572 142.883L114.404 142.795L107.021 143.029H106.055L106.025 142.121C106.318 142.062 106.533 142.014 106.67 141.975C108.35 141.662 109.434 141.311 109.922 140.92C110.117 140.764 110.254 140.48 110.332 140.07C110.371 139.836 110.391 138.742 110.391 136.789C110.391 131.223 110.342 126.779 110.244 123.459C109.736 123.303 108.955 123.205 107.9 123.166C107.51 123.166 106.895 123.127 106.055 123.049L105.996 122.727C105.996 122.492 106.094 122.297 106.289 122.141C106.367 122.062 107.188 121.652 108.75 120.91C109.355 120.637 109.785 120.295 110.039 119.885C110.176 119.67 110.254 119.221 110.273 118.537C110.293 118.225 110.352 117.688 110.449 116.926C110.684 114.914 110.869 113.674 111.006 113.205C111.357 111.896 111.943 110.598 112.764 109.309C113.604 108 114.609 106.857 115.781 105.881C116.641 105.178 117.607 104.65 118.682 104.299C119.775 103.947 121.016 103.771 122.402 103.771C124.258 103.771 125.615 104.074 126.475 104.68C127.061 105.09 127.354 105.617 127.354 106.262C127.354 106.809 127.148 107.277 126.738 107.668C126.328 108.059 125.82 108.254 125.215 108.254C124.473 108.254 123.672 108.068 122.812 107.697C121.191 107.053 120.273 106.701 120.059 106.643C119.688 106.545 119.307 106.496 118.916 106.496C117.842 106.496 116.855 106.838 115.957 107.521C115.078 108.205 114.521 109.045 114.287 110.041C114.053 111.037 113.936 113.273 113.936 116.75C113.936 118 113.945 119.143 113.965 120.178ZM123.311 158.293C123.291 158.078 123.281 157.883 123.281 157.707C123.281 157.57 123.301 157.404 123.34 157.209L126.27 156.623C126.738 156.389 127.119 156.105 127.412 155.773C127.51 155.422 127.559 155.07 127.559 154.719C127.559 151.711 127.48 145.979 127.324 137.521L127.236 126.799C127.197 125.1 127.09 124.025 126.914 123.576C126.816 123.342 126.67 123.156 126.475 123.02C125.986 122.648 125.01 122.336 123.545 122.082L123.721 121.203C125.83 120.305 127.236 119.611 127.939 119.123C128.662 118.615 129.346 117.912 129.99 117.014L130.342 116.926C130.479 116.926 130.674 116.984 130.928 117.102C130.908 118.332 130.898 119.143 130.898 119.533L130.928 122.756C132.373 121.662 133.877 120.852 135.439 120.324C137.002 119.777 138.623 119.504 140.303 119.504C143.311 119.504 145.85 120.568 147.92 122.697C149.99 124.807 151.025 127.531 151.025 130.871C151.025 133.352 150.439 135.578 149.268 137.551C148.115 139.523 146.514 140.998 144.463 141.975C142.432 142.951 140.381 143.439 138.311 143.439C136.553 143.439 134.541 142.961 132.275 142.004C131.904 141.848 131.572 141.711 131.279 141.594C131.24 143.156 131.221 144.543 131.221 145.754C131.221 151.789 131.387 155.168 131.719 155.891C131.895 156.281 132.441 156.516 133.359 156.594C134.922 156.711 135.957 156.936 136.465 157.268C136.758 157.443 136.953 157.795 137.051 158.322L134.15 158.381L131.514 158.322L127.119 158.352L123.311 158.293ZM130.957 124.777C130.918 125.051 130.898 125.305 130.898 125.539C130.898 132.512 130.967 136.418 131.104 137.258C131.377 138.801 131.924 139.885 132.744 140.51C134.014 141.506 135.83 142.004 138.193 142.004C140.635 142.004 142.695 141.164 144.375 139.484C146.055 137.785 146.895 135.588 146.895 132.893C146.895 129.65 146.006 127.082 144.229 125.188C142.451 123.293 140.107 122.346 137.197 122.346C135.967 122.346 134.834 122.551 133.799 122.961C132.764 123.352 131.816 123.957 130.957 124.777Z" fill="#FAFAFA"/>
<path d="M85.8888 79.806C85.8888 76.376 88.6608 73.59 92.0908 73.59C95.5208 73.59 98.3068 76.376 98.3068 79.806C98.3068 83.222 95.5208 86.008 92.0908 86.008C88.6608 86.008 85.8888 83.222 85.8888 79.806ZM86.9668 79.806C86.9668 82.62 89.2768 84.93 92.0908 84.93C94.9188 84.93 97.2148 82.62 97.2148 79.806C97.2148 76.978 94.9188 74.682 92.0908 74.682C89.2768 74.682 86.9668 76.978 86.9668 79.806ZM90.2988 77.286L91.8808 76.418H92.8748V83.278L91.8248 83.264V77.608L90.7748 78.154L90.2988 77.286Z" fill="#FAFAFA"/>
<path d="M218.334 121.701H236.791V110.334C236.791 108.303 236.664 106.965 236.41 106.32C236.215 105.832 235.805 105.412 235.18 105.061C234.34 104.592 233.451 104.357 232.514 104.357H231.107V103.273H248.1V104.357H246.693C245.756 104.357 244.867 104.582 244.027 105.031C243.402 105.344 242.973 105.822 242.738 106.467C242.523 107.092 242.416 108.381 242.416 110.334V135.969C242.416 137.98 242.543 139.309 242.797 139.953C242.992 140.441 243.393 140.861 243.998 141.213C244.857 141.682 245.756 141.916 246.693 141.916H248.1V143H231.107V141.916H232.514C234.135 141.916 235.316 141.438 236.059 140.48C236.547 139.855 236.791 138.352 236.791 135.969V123.869H218.334V135.969C218.334 137.98 218.461 139.309 218.715 139.953C218.91 140.441 219.32 140.861 219.945 141.213C220.785 141.682 221.674 141.916 222.611 141.916H224.047V143H207.025V141.916H208.432C210.072 141.916 211.264 141.438 212.006 140.48C212.475 139.855 212.709 138.352 212.709 135.969V110.334C212.709 108.303 212.582 106.965 212.328 106.32C212.133 105.832 211.732 105.412 211.127 105.061C210.268 104.592 209.369 104.357 208.432 104.357H207.025V103.273H224.047V104.357H222.611C221.674 104.357 220.785 104.582 219.945 105.031C219.34 105.344 218.92 105.822 218.686 106.467C218.451 107.092 218.334 108.381 218.334 110.334V121.701ZM250.15 116.164H262.777V117.248C261.977 117.248 261.41 117.385 261.078 117.658C260.766 117.932 260.609 118.293 260.609 118.742C260.609 119.211 260.951 119.934 261.635 120.91C261.85 121.223 262.172 121.711 262.602 122.375L264.506 125.422L266.703 122.375C268.109 120.441 268.812 119.221 268.812 118.713C268.812 118.303 268.646 117.961 268.314 117.688C267.982 117.395 267.445 117.248 266.703 117.248V116.164H275.785V117.248C274.828 117.307 273.998 117.57 273.295 118.039C272.338 118.703 271.029 120.148 269.369 122.375L265.707 127.268L272.387 136.877C274.027 139.24 275.199 140.666 275.902 141.154C276.605 141.623 277.514 141.887 278.627 141.945V143H265.971V141.945C266.85 141.945 267.533 141.75 268.021 141.359C268.393 141.086 268.578 140.725 268.578 140.275C268.578 139.826 267.953 138.693 266.703 136.877L262.777 131.135L258.471 136.877C257.143 138.654 256.479 139.709 256.479 140.041C256.479 140.51 256.693 140.939 257.123 141.33C257.572 141.701 258.236 141.906 259.115 141.945V143H250.355V141.945C251.059 141.848 251.674 141.604 252.201 141.213C252.943 140.646 254.193 139.201 255.951 136.877L261.576 129.406L256.479 122.023C255.033 119.914 253.91 118.596 253.109 118.068C252.328 117.521 251.342 117.248 250.15 117.248V116.164ZM291.723 118.273V135.91C291.723 138.41 291.996 139.992 292.543 140.656C293.266 141.516 294.232 141.945 295.443 141.945H297.875V143H281.85V141.945H283.051C283.832 141.945 284.545 141.75 285.189 141.359C285.834 140.969 286.273 140.441 286.508 139.777C286.762 139.113 286.889 137.824 286.889 135.91V118.273H281.674V116.164H286.889V114.406C286.889 111.73 287.318 109.465 288.178 107.609C289.037 105.754 290.346 104.26 292.104 103.127C293.881 101.975 295.873 101.398 298.08 101.398C300.131 101.398 302.016 102.062 303.734 103.391C304.867 104.27 305.434 105.256 305.434 106.35C305.434 106.936 305.18 107.492 304.672 108.02C304.164 108.527 303.617 108.781 303.031 108.781C302.582 108.781 302.104 108.625 301.596 108.312C301.107 107.98 300.502 107.287 299.779 106.232C299.057 105.158 298.393 104.436 297.787 104.064C297.182 103.693 296.508 103.508 295.766 103.508C294.867 103.508 294.105 103.752 293.48 104.24C292.855 104.709 292.406 105.451 292.133 106.467C291.859 107.463 291.723 110.051 291.723 114.23V116.164H298.637V118.273H291.723ZM299.281 118.83L307.543 115.49H308.656V121.76C310.043 119.396 311.43 117.746 312.816 116.809C314.223 115.852 315.697 115.373 317.24 115.373C319.936 115.373 322.182 116.428 323.979 118.537C326.186 121.115 327.289 124.475 327.289 128.615C327.289 133.244 325.961 137.072 323.305 140.1C321.117 142.58 318.363 143.82 315.043 143.82C313.598 143.82 312.348 143.615 311.293 143.205C310.512 142.912 309.633 142.326 308.656 141.447V149.621C308.656 151.457 308.764 152.619 308.979 153.107C309.213 153.615 309.604 154.016 310.15 154.309C310.717 154.602 311.732 154.748 313.197 154.748V155.832H299.135V154.748H299.867C300.941 154.768 301.859 154.562 302.621 154.133C302.992 153.918 303.275 153.566 303.471 153.078C303.686 152.609 303.793 151.398 303.793 149.445V124.074C303.793 122.336 303.715 121.232 303.559 120.764C303.402 120.295 303.148 119.943 302.797 119.709C302.465 119.475 302.006 119.357 301.42 119.357C300.951 119.357 300.355 119.494 299.633 119.768L299.281 118.83ZM308.656 123.488V133.508C308.656 135.676 308.744 137.102 308.92 137.785C309.193 138.918 309.857 139.914 310.912 140.773C311.986 141.633 313.334 142.062 314.955 142.062C316.908 142.062 318.49 141.301 319.701 139.777C321.283 137.785 322.074 134.982 322.074 131.369C322.074 127.268 321.176 124.113 319.379 121.906C318.129 120.383 316.645 119.621 314.926 119.621C313.988 119.621 313.061 119.855 312.143 120.324C311.439 120.676 310.277 121.73 308.656 123.488Z" fill="#FAFAFA"/>
<path d="M261.889 78.806C261.889 75.376 264.661 72.59 268.091 72.59C271.521 72.59 274.307 75.376 274.307 78.806C274.307 82.222 271.521 85.008 268.091 85.008C264.661 85.008 261.889 82.222 261.889 78.806ZM262.967 78.806C262.967 81.62 265.277 83.93 268.091 83.93C270.919 83.93 273.215 81.62 273.215 78.806C273.215 75.978 270.919 73.682 268.091 73.682C265.277 73.682 262.967 75.978 262.967 78.806ZM265.837 76.65C266.201 75.754 267.125 75.124 268.049 75.124C269.351 75.124 270.247 76.062 270.247 77.364C270.247 78.736 268.763 80.024 267.559 81.102H270.359V82.054H266.103L265.963 81.144C266.201 80.906 266.453 80.682 266.705 80.458C268.007 79.282 269.169 78.302 269.169 77.364C269.169 76.636 268.721 76.118 268.049 76.118C267.545 76.118 266.999 76.51 266.775 77.084L265.837 76.65Z" fill="#FAFAFA"/>
</svg>
