<svg width="360" height="181" viewBox="0 0 360 181" fill="none" xmlns="http://www.w3.org/2000/svg">
<rect width="360" height="181" fill="#171717"/>
<path d="M30.825 73.65V53H33.325V62.4L36.15 61.425V53H38.65V73.65H36.15V63.5L33.325 64.475V73.65H30.825ZM20.25 53.5V71.35H29.225V73.4H17.75V53.5H20.25ZM51.4682 73.4V55.55H41.9932V53.5H53.9682V73.4H51.4682ZM60.2932 61.2H63.2182V63.25H60.2932V73.65H57.7932V53H60.2932V61.2ZM70.9348 57.7C70.9348 56.9333 71.0931 56.2583 71.4098 55.675C71.7431 55.0917 72.2098 54.6083 72.8098 54.225C73.4264 53.825 74.1598 53.525 75.0098 53.325C75.8764 53.125 76.8514 53.025 77.9348 53.025C79.8014 53.025 81.3348 53.325 82.5348 53.925C83.7348 54.5083 84.4931 55.375 84.8098 56.525L88.0598 55.8V53H90.5598V69.4H88.0598V57.825L84.8848 58.55C84.6514 59.8167 83.9181 60.775 82.6848 61.425C81.4514 62.0583 79.8681 62.375 77.9348 62.375C76.8514 62.375 75.8764 62.275 75.0098 62.075C74.1598 61.875 73.4264 61.5833 72.8098 61.2C72.2098 60.8 71.7431 60.3083 71.4098 59.725C71.0931 59.1417 70.9348 58.4667 70.9348 57.7ZM74.2348 67.775V72.1H90.8098V74.15H71.7348V67.775H74.2348ZM76.7348 69.7V66.15H70.5598V64.1H86.4098V66.15H79.2348V69.7H76.7348ZM73.4598 57.7C73.4598 58.1667 73.5764 58.5667 73.8098 58.9C74.0431 59.2333 74.3598 59.5083 74.7598 59.725C75.1764 59.9417 75.6514 60.1 76.1848 60.2C76.7348 60.3 77.3181 60.35 77.9348 60.35C78.5514 60.35 79.1348 60.3 79.6848 60.2C80.2348 60.0833 80.7181 59.9167 81.1348 59.7C81.5514 59.4833 81.8764 59.2083 82.1098 58.875C82.3431 58.5417 82.4598 58.15 82.4598 57.7C82.4598 57.25 82.3431 56.8583 82.1098 56.525C81.8764 56.1917 81.5514 55.9167 81.1348 55.7C80.7181 55.4833 80.2348 55.325 79.6848 55.225C79.1348 55.1083 78.5514 55.05 77.9348 55.05C77.3181 55.05 76.7348 55.1 76.1848 55.2C75.6514 55.3 75.1764 55.4583 74.7598 55.675C74.3598 55.8917 74.0431 56.1667 73.8098 56.5C73.5764 56.8333 73.4598 57.2333 73.4598 57.7ZM106.714 66.4C106.714 67.7167 106.539 68.8417 106.189 69.775C105.839 70.6917 105.372 71.4333 104.789 72C104.205 72.5833 103.53 73 102.764 73.25C101.997 73.5167 101.197 73.65 100.364 73.65C99.5137 73.65 98.7053 73.5167 97.9387 73.25C97.1887 73 96.522 72.5833 95.9387 72C95.372 71.4333 94.9137 70.6917 94.5637 69.775C94.2303 68.8417 94.0637 67.7167 94.0637 66.4C94.0637 65.0833 94.2303 63.9667 94.5637 63.05C94.9137 62.1333 95.372 61.3917 95.9387 60.825C96.522 60.2417 97.1887 59.8167 97.9387 59.55C98.7053 59.2833 99.5137 59.15 100.364 59.15C101.197 59.15 101.997 59.2833 102.764 59.55C103.53 59.8167 104.205 60.2417 104.789 60.825C105.372 61.3917 105.839 62.1333 106.189 63.05C106.539 63.9667 106.714 65.0833 106.714 66.4ZM96.5637 66.4C96.5637 68.1167 96.9053 69.4167 97.5887 70.3C98.272 71.1667 99.197 71.6 100.364 71.6C101.48 71.6 102.397 71.1667 103.114 70.3C103.83 69.4333 104.189 68.125 104.189 66.375C104.189 64.6583 103.83 63.3667 103.114 62.5C102.397 61.6333 101.48 61.2 100.364 61.2C99.197 61.2 98.272 61.6417 97.5887 62.525C96.9053 63.3917 96.5637 64.6833 96.5637 66.4ZM112.564 61.2H115.489V63.25H112.564V73.65H110.064V53H112.564V61.2ZM93.4387 55H99.1137V52.3H101.614V55H107.314V57.05H93.4387V55ZM121.424 53.25V58.8H136.099V60.85H118.924V53.25H121.424ZM117.449 63.375H137.574V65.425H117.449V63.375ZM121.174 67.275V72.1H136.599V74.15H118.674V67.275H121.174ZM165.853 55.575H157.903V56.525C157.903 57.9917 157.72 59.3083 157.353 60.475L166.478 65.6L165.303 67.375L156.428 62.45C155.695 63.5833 154.628 64.5833 153.228 65.45C151.828 66.3167 149.978 67.0333 147.678 67.6L146.728 65.65C148.378 65.25 149.753 64.775 150.853 64.225C151.97 63.6583 152.862 63.0083 153.528 62.275C154.212 61.5417 154.695 60.7 154.978 59.75C155.262 58.7833 155.403 57.7 155.403 56.5V55.575H147.178V53.525H165.853V55.575ZM146.453 71.6H155.253V66.25H157.753V71.6H166.578V73.65H146.453V71.6ZM179.251 65.275V55.3H169.776V53.25H181.751V65.275H179.251ZM173.326 67.275V72.1H189.076V74.15H170.826V67.275H173.326ZM188.826 53V67.675H186.326V59.75L182.751 60.575V58.525L186.326 57.7V53H188.826ZM199.155 65.2C199.822 65.2 200.43 65.075 200.98 64.825C201.547 64.5583 202.03 64.1917 202.43 63.725C202.847 63.2583 203.172 62.7167 203.405 62.1C203.639 61.4667 203.755 60.775 203.755 60.025C203.755 59.2583 203.639 58.5583 203.405 57.925C203.172 57.275 202.847 56.725 202.43 56.275C202.03 55.8083 201.547 55.45 200.98 55.2C200.43 54.95 199.822 54.825 199.155 54.825C198.455 54.825 197.822 54.9583 197.255 55.225C196.689 55.475 196.205 55.8333 195.805 56.3C195.405 56.75 195.097 57.2917 194.88 57.925C194.664 58.5583 194.555 59.2583 194.555 60.025C194.555 60.7917 194.664 61.4917 194.88 62.125C195.114 62.7583 195.43 63.3083 195.83 63.775C196.23 64.225 196.714 64.575 197.28 64.825C197.847 65.075 198.472 65.2 199.155 65.2ZM192.03 60.025C192.03 58.8583 192.214 57.825 192.58 56.925C192.947 56.025 193.447 55.2667 194.08 54.65C194.73 54.0333 195.489 53.5667 196.355 53.25C197.222 52.9333 198.155 52.775 199.155 52.775C200.139 52.775 201.064 52.9333 201.93 53.25C202.797 53.5667 203.547 54.0333 204.18 54.65C204.83 55.2667 205.339 56.025 205.705 56.925C206.089 57.825 206.28 58.8583 206.28 60.025C206.28 61.175 206.089 62.2 205.705 63.1C205.339 63.9833 204.83 64.7333 204.18 65.35C203.547 65.95 202.797 66.4167 201.93 66.75C201.064 67.0667 200.139 67.225 199.155 67.225C198.155 67.225 197.222 67.0667 196.355 66.75C195.489 66.4167 194.73 65.95 194.08 65.35C193.447 64.7333 192.947 63.9833 192.58 63.1C192.214 62.2 192.03 61.175 192.03 60.025ZM207.43 71.075V73.125H191.58V71.075H207.43ZM211.58 73.65H209.08V53H211.58V73.65ZM25.375 97.225C25.375 98.5583 25.2333 99.8167 24.95 101L31.7 106.25L30.425 108.15L24.1 103.225C23.5333 104.292 22.75 105.242 21.75 106.075C20.7667 106.925 19.5167 107.675 18 108.325L16.85 106.325C17.9333 105.825 18.8583 105.317 19.625 104.8C20.3917 104.267 21.0083 103.658 21.475 102.975C21.9583 102.275 22.3083 101.467 22.525 100.55C22.7417 99.6167 22.85 98.5 22.85 97.2V88.2H25.375V97.225ZM36.05 96.2H38.975V98.25H36.05V108.65H33.55V88H36.05V96.2ZM59.5607 101.025V109.15H42.3107V101.025H59.5607ZM41.2607 90.3V88.25H53.2357V94.925H43.7607V97.475H53.7357V99.525H41.2607V92.875H50.7357V90.3H41.2607ZM44.8107 103.075V107.1H57.0607V103.075H44.8107ZM59.5607 94.35V99.65H57.0607V88H59.5607V92.3H62.4857V94.35H59.5607ZM83.3465 93.2V95.25H65.9215V88.25H83.0965V90.3H68.4215V93.2H83.3465ZM64.4465 96.9H84.5715V98.95H64.4465V96.9ZM80.8465 103.8V102.525H65.6715V100.475H83.3465V105.85H68.1715V107.1H83.5965V109.15H65.6715V103.8H80.8465ZM106.32 96.2H109.245V98.25H106.32V108.65H103.82V88H106.32V96.2ZM91.9695 106.075V96H94.4695V106.075H102.17V108.125H86.8195V106.075H91.9695ZM98.2195 102.475V90.55H88.1945V88.5H100.72V102.475H98.2195ZM135.586 101.775V109.15H118.336V101.775H135.586ZM123.386 92.175C124.336 92.175 125.203 92.275 125.986 92.475C126.769 92.675 127.436 92.9583 127.986 93.325C128.553 93.675 128.986 94.1083 129.286 94.625C129.586 95.1417 129.736 95.725 129.736 96.375C129.736 97.025 129.586 97.6083 129.286 98.125C128.986 98.6417 128.553 99.0833 127.986 99.45C127.436 99.8 126.769 100.075 125.986 100.275C125.203 100.458 124.336 100.55 123.386 100.55C122.436 100.55 121.569 100.458 120.786 100.275C120.019 100.075 119.361 99.8 118.811 99.45C118.261 99.0833 117.836 98.6417 117.536 98.125C117.236 97.6083 117.086 97.025 117.086 96.375C117.086 95.725 117.236 95.1417 117.536 94.625C117.836 94.1083 118.261 93.675 118.811 93.325C119.361 92.9583 120.019 92.675 120.786 92.475C121.569 92.275 122.436 92.175 123.386 92.175ZM120.836 103.825V107.1H133.086V103.825H120.836ZM135.586 94.85V100.4H133.086V88H135.586V92.8H138.511V94.85H135.586ZM116.461 88.75H122.136V86.8H124.636V88.75H130.336V90.8H116.461V88.75ZM123.386 94.225C122.253 94.225 121.336 94.4167 120.636 94.8C119.936 95.1667 119.586 95.6917 119.586 96.375C119.586 97.0417 119.936 97.5667 120.636 97.95C121.336 98.3167 122.253 98.5 123.386 98.5C124.503 98.5 125.419 98.3167 126.136 97.95C126.869 97.5667 127.236 97.0417 127.236 96.375C127.236 96.0417 127.136 95.7417 126.936 95.475C126.736 95.2083 126.461 94.9833 126.111 94.8C125.761 94.6167 125.353 94.475 124.886 94.375C124.419 94.275 123.919 94.225 123.386 94.225ZM143.572 108.4V91.8H139.822V89.75H145.322V88.5H152.172V97.675L155.122 96.625V88H157.622V108.65H155.122V98.6L152.172 99.625V108.4H149.672V90.55H146.072V108.4H143.572ZM162.697 108.65H160.197V88H162.697V108.65ZM178.247 101.4C178.247 102.717 178.072 103.842 177.722 104.775C177.372 105.692 176.905 106.433 176.322 107C175.739 107.583 175.064 108 174.297 108.25C173.53 108.517 172.73 108.65 171.897 108.65C171.047 108.65 170.239 108.517 169.472 108.25C168.722 108 168.055 107.583 167.472 107C166.905 106.433 166.447 105.692 166.097 104.775C165.764 103.842 165.597 102.717 165.597 101.4C165.597 100.083 165.764 98.9667 166.097 98.05C166.447 97.1333 166.905 96.3917 167.472 95.825C168.055 95.2417 168.722 94.8167 169.472 94.55C170.239 94.2833 171.047 94.15 171.897 94.15C172.73 94.15 173.53 94.2833 174.297 94.55C175.064 94.8167 175.739 95.2417 176.322 95.825C176.905 96.3917 177.372 97.1333 177.722 98.05C178.072 98.9667 178.247 100.083 178.247 101.4ZM168.097 101.4C168.097 103.117 168.439 104.417 169.122 105.3C169.805 106.167 170.73 106.6 171.897 106.6C173.014 106.6 173.93 106.167 174.647 105.3C175.364 104.433 175.722 103.125 175.722 101.375C175.722 99.6583 175.364 98.3667 174.647 97.5C173.93 96.6333 173.014 96.2 171.897 96.2C170.73 96.2 169.805 96.6417 169.122 97.525C168.439 98.3917 168.097 99.6833 168.097 101.4ZM184.097 96.2H187.022V98.25H184.097V108.65H181.597V88H184.097V96.2ZM164.972 90H170.647V87.3H173.147V90H178.847V92.05H164.972V90ZM192.958 88.25V93.8H207.633V95.85H190.458V88.25H192.958ZM188.983 98.375H209.108V100.425H188.983V98.375ZM192.708 102.275V107.1H208.133V109.15H190.208V102.275H192.708ZM25.375 132.225C25.375 133.558 25.2333 134.817 24.95 136L31.7 141.25L30.425 143.15L24.1 138.225C23.5333 139.292 22.75 140.242 21.75 141.075C20.7667 141.925 19.5167 142.675 18 143.325L16.85 141.325C17.9333 140.825 18.8583 140.317 19.625 139.8C20.3917 139.267 21.0083 138.658 21.475 137.975C21.9583 137.275 22.3083 136.467 22.525 135.55C22.7417 134.617 22.85 133.5 22.85 132.2V123.2H25.375V132.225ZM36.05 131.2H38.975V133.25H36.05V143.65H33.55V123H36.05V131.2ZM54.5107 133.45C54.5107 135.25 54.3191 136.8 53.9357 138.1C53.5691 139.383 53.0607 140.433 52.4107 141.25C51.7774 142.083 51.0357 142.692 50.1857 143.075C49.3357 143.458 48.4441 143.65 47.5107 143.65C46.5607 143.65 45.6607 143.458 44.8107 143.075C43.9607 142.692 43.2107 142.083 42.5607 141.25C41.9274 140.433 41.4274 139.383 41.0607 138.1C40.6941 136.8 40.5107 135.25 40.5107 133.45C40.5107 131.65 40.6941 130.108 41.0607 128.825C41.4274 127.542 41.9274 126.492 42.5607 125.675C43.2107 124.842 43.9607 124.233 44.8107 123.85C45.6607 123.45 46.5607 123.25 47.5107 123.25C48.4441 123.25 49.3357 123.45 50.1857 123.85C51.0357 124.233 51.7774 124.842 52.4107 125.675C53.0607 126.492 53.5691 127.542 53.9357 128.825C54.3191 130.108 54.5107 131.65 54.5107 133.45ZM43.0107 133.45C43.0107 134.967 43.1191 136.25 43.3357 137.3C43.5691 138.333 43.8857 139.167 44.2857 139.8C44.6857 140.433 45.1607 140.892 45.7107 141.175C46.2607 141.458 46.8607 141.6 47.5107 141.6C48.1441 141.6 48.7357 141.458 49.2857 141.175C49.8357 140.908 50.3107 140.458 50.7107 139.825C51.1107 139.175 51.4191 138.333 51.6357 137.3C51.8691 136.25 51.9857 134.958 51.9857 133.425C51.9857 131.908 51.8691 130.633 51.6357 129.6C51.4191 128.567 51.1107 127.733 50.7107 127.1C50.3107 126.467 49.8357 126.008 49.2857 125.725C48.7357 125.442 48.1441 125.3 47.5107 125.3C46.8607 125.3 46.2607 125.442 45.7107 125.725C45.1607 126.008 44.6857 126.467 44.2857 127.1C43.8857 127.733 43.5691 128.575 43.3357 129.625C43.1191 130.658 43.0107 131.933 43.0107 133.45ZM60.3107 143.65H57.8107V123H60.3107V143.65ZM82.8396 135.175V137.225H64.9146V123.5H82.5896V125.55H67.4146V135.175H82.8396ZM63.6896 141.6H83.8146V143.65H63.6896V141.6ZM93.6686 123.475H111.844V125.525H108.244V135.175H111.844V137.225H93.6686V135.175H97.2436V125.525H93.6686V123.475ZM99.7436 135.175H105.744V125.525H99.7436V135.175ZM92.6936 141.6H112.819V143.65H92.6936V141.6ZM132.592 129.35V125.55H116.917V123.5H135.092V131.4H119.417V135.175H135.342V137.225H126.992V141.6H135.817V143.65H115.692V141.6H124.492V137.225H116.917V129.35H132.592ZM138.69 123.25H150.065V125.3H145.565V127.375C145.565 128.142 145.465 128.833 145.265 129.45L150.865 133.45L149.54 135.15L144.315 131.425C143.781 132.158 143.09 132.825 142.24 133.425C141.39 134.008 140.39 134.55 139.24 135.05L138.09 133.075C139.756 132.442 140.998 131.675 141.815 130.775C142.631 129.875 143.04 128.733 143.04 127.35V125.3H138.69V123.25ZM157.14 144.15V138.8H140.065V136.775H159.915V144.15H157.14ZM152.34 135.4V129.25L148.84 130.075V128.125L152.34 127.275V123H154.84V135.4H152.34ZM159.915 135.4H157.415V123H159.915V135.4ZM182.083 135.175V137.225H164.158V123.5H181.833V125.55H166.658V129.35H181.833V131.4H166.658V135.175H182.083ZM162.933 141.6H183.058V143.65H162.933V141.6ZM211.312 143.65H208.812V133.225L204.987 134.575C204.903 136.175 204.662 137.55 204.262 138.7C203.862 139.833 203.353 140.767 202.737 141.5C202.12 142.25 201.42 142.792 200.637 143.125C199.87 143.475 199.078 143.65 198.262 143.65C197.362 143.65 196.503 143.458 195.687 143.075C194.887 142.692 194.17 142.083 193.537 141.25C192.92 140.433 192.428 139.383 192.062 138.1C191.695 136.8 191.512 135.25 191.512 133.45C191.512 131.65 191.695 130.108 192.062 128.825C192.428 127.542 192.92 126.492 193.537 125.675C194.17 124.842 194.887 124.233 195.687 123.85C196.503 123.45 197.362 123.25 198.262 123.25C199.095 123.25 199.903 123.433 200.687 123.8C201.47 124.15 202.17 124.708 202.787 125.475C203.403 126.225 203.903 127.192 204.287 128.375C204.687 129.542 204.92 130.95 204.987 132.6L208.812 131.25V123H211.312V143.65ZM194.012 133.45C194.012 134.967 194.12 136.25 194.337 137.3C194.57 138.333 194.878 139.167 195.262 139.8C195.645 140.433 196.095 140.892 196.612 141.175C197.128 141.458 197.678 141.6 198.262 141.6C198.828 141.6 199.37 141.458 199.887 141.175C200.403 140.908 200.853 140.458 201.237 139.825C201.62 139.175 201.92 138.333 202.137 137.3C202.37 136.25 202.487 134.958 202.487 133.425C202.487 131.908 202.37 130.633 202.137 129.6C201.92 128.567 201.62 127.733 201.237 127.1C200.853 126.467 200.403 126.008 199.887 125.725C199.37 125.442 198.828 125.3 198.262 125.3C197.678 125.3 197.128 125.442 196.612 125.725C196.095 126.008 195.645 126.467 195.262 127.1C194.878 127.733 194.57 128.575 194.337 129.625C194.12 130.658 194.012 131.933 194.012 133.45ZM229.341 143.65V123H231.841V132.325L234.416 131.425V123H236.916V143.65H234.416V133.5L231.841 134.375V143.65H229.341ZM227.866 143.4H221.516V123.5H227.616V125.55H224.016V141.35H227.866V143.4ZM220.491 143.4H214.266V124.75H220.491V126.8H216.766V141.35H220.491V143.4ZM239.691 141.6H243.741V135.925C242.741 135.292 241.974 134.5 241.441 133.55C240.924 132.583 240.666 131.517 240.666 130.35C240.666 129.317 240.874 128.367 241.291 127.5C241.724 126.633 242.332 125.883 243.116 125.25C243.899 124.617 244.849 124.125 245.966 123.775C247.082 123.408 248.341 123.225 249.741 123.225C251.074 123.225 252.299 123.408 253.416 123.775C254.532 124.125 255.491 124.617 256.291 125.25C257.091 125.883 257.716 126.633 258.166 127.5C258.616 128.367 258.841 129.317 258.841 130.35C258.841 131.517 258.574 132.583 258.041 133.55C257.507 134.5 256.741 135.292 255.741 135.925V141.6H259.816V143.65H239.691V141.6ZM249.741 135.425C250.807 135.425 251.749 135.292 252.566 135.025C253.382 134.742 254.066 134.375 254.616 133.925C255.182 133.458 255.607 132.917 255.891 132.3C256.191 131.683 256.341 131.033 256.341 130.35C256.341 129.667 256.191 129.017 255.891 128.4C255.607 127.783 255.182 127.25 254.616 126.8C254.066 126.333 253.382 125.967 252.566 125.7C251.749 125.417 250.807 125.275 249.741 125.275C248.674 125.275 247.732 125.417 246.916 125.7C246.099 125.967 245.407 126.333 244.841 126.8C244.291 127.25 243.874 127.783 243.591 128.4C243.307 129.017 243.166 129.667 243.166 130.35C243.166 131.033 243.307 131.683 243.591 132.3C243.874 132.917 244.291 133.458 244.841 133.925C245.407 134.375 246.099 134.742 246.916 135.025C247.732 135.292 248.674 135.425 249.741 135.425ZM249.741 137.475C248.424 137.475 247.257 137.325 246.241 137.025V141.6H253.241V137.025C252.191 137.325 251.024 137.475 249.741 137.475ZM267.314 138.875V132.85C268.014 132.817 268.697 132.7 269.364 132.5C270.03 132.3 270.622 132.025 271.139 131.675C271.655 131.308 272.072 130.858 272.389 130.325C272.705 129.792 272.864 129.167 272.864 128.45C272.864 127.8 272.739 127.242 272.489 126.775C272.255 126.292 271.93 125.9 271.514 125.6C271.114 125.3 270.647 125.083 270.114 124.95C269.597 124.817 269.055 124.75 268.489 124.75C267.905 124.75 267.38 124.858 266.914 125.075C266.447 125.275 266.03 125.542 265.664 125.875C265.314 126.208 265.014 126.6 264.764 127.05C264.514 127.5 264.314 127.975 264.164 128.475L262.039 127.575C262.305 126.708 262.655 125.967 263.089 125.35C263.539 124.717 264.055 124.208 264.639 123.825C265.222 123.425 265.864 123.133 266.564 122.95C267.264 122.767 268.005 122.675 268.789 122.675C269.905 122.675 270.872 122.817 271.689 123.1C272.522 123.383 273.205 123.775 273.739 124.275C274.289 124.758 274.697 125.333 274.964 126C275.23 126.667 275.364 127.383 275.364 128.15C275.364 129.867 274.88 131.233 273.914 132.25C272.947 133.267 271.58 133.992 269.814 134.425V138.875H267.314ZM267.314 141.5H269.814V144.15H267.314V141.5Z" fill="#FAFAFA"/>
<path d="M27.648 22.92V29.864H26.248V26.294L24.078 26.798C24.022 27.2087 23.896 27.5913 23.7 27.946C23.5133 28.2913 23.2613 28.59 22.944 28.842C22.6267 29.094 22.2487 29.2947 21.81 29.444C21.3713 29.584 20.8813 29.654 20.34 29.654C19.7427 29.654 19.206 29.57 18.73 29.402C18.2633 29.2247 17.8667 28.9867 17.54 28.688C17.2227 28.38 16.98 28.0253 16.812 27.624C16.644 27.2133 16.56 26.77 16.56 26.294C16.56 25.818 16.644 25.3747 16.812 24.964C16.98 24.544 17.2227 24.1847 17.54 23.886C17.8667 23.5873 18.2633 23.354 18.73 23.186C19.206 23.0087 19.7427 22.92 20.34 22.92C20.872 22.92 21.348 22.99 21.768 23.13C22.1973 23.2607 22.5707 23.4473 22.888 23.69C23.2053 23.9327 23.462 24.222 23.658 24.558C23.854 24.894 23.9893 25.2627 24.064 25.664L26.248 25.16V22.92H27.648ZM20.34 28.506C20.704 28.506 21.0307 28.45 21.32 28.338C21.6187 28.226 21.8707 28.072 22.076 27.876C22.2813 27.6707 22.44 27.4327 22.552 27.162C22.664 26.8913 22.72 26.602 22.72 26.294C22.72 25.9767 22.664 25.6827 22.552 25.412C22.44 25.1413 22.2813 24.908 22.076 24.712C21.8707 24.5067 21.6187 24.348 21.32 24.236C21.0307 24.124 20.704 24.068 20.34 24.068C19.976 24.068 19.6447 24.124 19.346 24.236C19.0567 24.348 18.8093 24.5067 18.604 24.712C18.3987 24.908 18.24 25.1413 18.128 25.412C18.016 25.6827 17.96 25.9767 17.96 26.294C17.96 26.602 18.016 26.8913 18.128 27.162C18.24 27.4327 18.3987 27.6707 18.604 27.876C18.8093 28.072 19.0567 28.226 19.346 28.338C19.6447 28.45 19.976 28.506 20.34 28.506ZM26.248 34.764V31.782H17.568V30.634H27.648V34.764H26.248ZM29.5402 23.2H37.4502V24.348H34.1322V28.086C34.1322 28.478 34.1135 28.8467 34.0762 29.192C34.0389 29.5373 33.9782 29.8687 33.8942 30.186L37.8142 33.14L37.1002 34.204L33.4042 31.432C33.0775 32.0387 32.6295 32.5753 32.0602 33.042C31.4909 33.518 30.7582 33.938 29.8622 34.302L29.2182 33.182C29.8622 32.902 30.4035 32.6173 30.8422 32.328C31.2902 32.0293 31.6542 31.6887 31.9342 31.306C32.2142 30.914 32.4149 30.4613 32.5362 29.948C32.6575 29.4253 32.7182 28.8 32.7182 28.072V24.348H29.5402V23.2ZM40.3902 34.484H38.9902V22.92H40.3902V34.484ZM51.7464 26.476V24.348H42.9684V23.2H53.1464V27.624H44.3684V29.738H53.2864V30.886H48.6104V33.336H53.5524V34.484H42.2824V33.336H47.2104V30.886H42.9684V26.476H51.7464ZM60.5686 34.344V25.048H58.1606V23.9H61.5486V23.2H65.9726V34.344H64.5726V24.348H61.9686V34.344H60.5686ZM69.3746 34.484H67.9746V22.92H69.3746V34.484ZM71.2948 25.664C71.2948 25.1507 71.3928 24.7167 71.5888 24.362C71.7848 23.998 72.0554 23.6993 72.4008 23.466C72.7554 23.2327 73.1661 23.0647 73.6328 22.962C74.1088 22.85 74.6268 22.794 75.1868 22.794C75.7374 22.794 76.2508 22.85 76.7268 22.962C77.2121 23.0647 77.6274 23.2327 77.9728 23.466C78.3274 23.6993 78.6028 23.998 78.7988 24.362C79.0041 24.7167 79.1068 25.1507 79.1068 25.664C79.1068 26.168 79.0041 26.5973 78.7988 26.952C78.6028 27.3067 78.3274 27.6007 77.9728 27.834C77.6274 28.0673 77.2121 28.24 76.7268 28.352C76.2508 28.4547 75.7374 28.506 75.1868 28.506C74.6268 28.506 74.1088 28.4547 73.6328 28.352C73.1661 28.24 72.7554 28.0673 72.4008 27.834C72.0554 27.6007 71.7848 27.3067 71.5888 26.952C71.3928 26.5973 71.2948 26.168 71.2948 25.664ZM77.2308 31.964H80.7168V22.92H82.1168V34.484H80.7168V33.112H77.2308V31.964ZM74.3748 34.484V30.83H70.9168V29.682H79.7928V30.83H75.7748V34.484H74.3748ZM75.1868 27.372C75.5601 27.372 75.9008 27.3347 76.2088 27.26C76.5168 27.1853 76.7781 27.078 76.9928 26.938C77.2168 26.7887 77.3894 26.6113 77.5108 26.406C77.6321 26.1913 77.6928 25.944 77.6928 25.664C77.6928 25.076 77.4594 24.642 76.9928 24.362C76.5354 24.082 75.9334 23.942 75.1868 23.942C74.4028 23.942 73.7914 24.0867 73.3528 24.376C72.9234 24.656 72.7088 25.0853 72.7088 25.664C72.7088 26.252 72.9281 26.686 73.3668 26.966C73.8148 27.2367 74.4214 27.372 75.1868 27.372ZM94.2602 23.06V28.828H87.5542V23.06H94.2602ZM97.8022 30.998H93.7562C93.7469 31.5113 93.6396 31.9687 93.4342 32.37L98.0262 33.728L97.5642 34.82L92.6222 33.308C92.1742 33.6533 91.5909 33.9473 90.8722 34.19C90.1629 34.4327 89.2856 34.652 88.2402 34.848L87.8202 33.7C88.6229 33.56 89.3042 33.4153 89.8642 33.266C90.4336 33.1167 90.8956 32.944 91.2502 32.748C91.6142 32.5427 91.8802 32.3 92.0482 32.02C92.2256 31.74 92.3236 31.3993 92.3422 30.998H88.1142V29.85H97.8022V30.998ZM92.8602 27.68V24.208H88.9542V27.68H92.8602ZM97.8022 26.336V29.08H96.4022V22.92H97.8022V25.188H99.4402V26.336H97.8022ZM106.88 22.276V23.522H111.472V24.67H106.88V25.314C106.88 25.9393 106.773 26.5087 106.558 27.022L111.752 28.996L111.094 29.99L105.914 28.016C105.494 28.4733 104.911 28.884 104.164 29.248C103.418 29.6027 102.438 29.892 101.224 30.116L100.692 29.024C101.616 28.8653 102.386 28.6693 103.002 28.436C103.618 28.2027 104.108 27.932 104.472 27.624C104.836 27.316 105.093 26.9707 105.242 26.588C105.401 26.196 105.48 25.7667 105.48 25.3V24.67H100.944V23.522H105.48V22.276H106.88ZM105.466 34.918V32.552H100.538V31.404H111.808V32.552H106.866V34.918H105.466ZM115.643 23.06V26.168H123.861V27.316H114.243V23.06H115.643ZM113.417 28.73H124.687V29.878H113.417V28.73ZM115.503 30.914V33.616H124.141V34.764H114.103V30.914H115.503ZM130.205 23.186H140.383V24.334H138.367V29.738H140.383V30.886H130.205V29.738H132.207V24.334H130.205V23.186ZM133.607 29.738H136.967V24.334H133.607V29.738ZM129.659 33.336H140.929V34.484H129.659V33.336ZM152.002 26.476V24.348H143.224V23.2H153.402V27.624H144.624V29.738H153.542V30.886H148.866V33.336H153.808V34.484H142.538V33.336H147.466V30.886H143.224V26.476H152.002ZM155.417 23.06H161.787V24.208H159.267V25.37C159.267 25.7993 159.211 26.1867 159.099 26.532L162.235 28.772L161.493 29.724L158.567 27.638C158.268 28.0487 157.881 28.422 157.405 28.758C156.929 29.0847 156.369 29.388 155.725 29.668L155.081 28.562C156.014 28.2073 156.71 27.778 157.167 27.274C157.624 26.77 157.853 26.1307 157.853 25.356V24.208H155.417V23.06ZM165.749 34.764V31.768H156.187V30.634H167.303V34.764H165.749ZM163.061 29.864V26.42L161.101 26.882V25.79L163.061 25.314V22.92H164.461V29.864H163.061ZM167.303 29.864H165.903V22.92H167.303V29.864ZM179.717 29.738V30.886H169.679V23.2H179.577V24.348H171.079V26.476H179.577V27.624H171.079V29.738H179.717ZM168.993 33.336H180.263V34.484H168.993V33.336ZM184.098 23.06V26.168H192.316V27.316H182.698V23.06H184.098ZM181.872 28.73H193.142V29.878H181.872V28.73ZM183.958 30.914V33.616H192.596V34.764H182.558V30.914H183.958ZM205.716 28.772C205.716 29.78 205.609 30.648 205.394 31.376C205.189 32.0947 204.904 32.6827 204.54 33.14C204.186 33.6067 203.77 33.9473 203.294 34.162C202.818 34.3767 202.319 34.484 201.796 34.484C201.264 34.484 200.76 34.3767 200.284 34.162C199.808 33.9473 199.388 33.6067 199.024 33.14C198.67 32.6827 198.39 32.0947 198.184 31.376C197.979 30.648 197.876 29.78 197.876 28.772C197.876 27.764 197.979 26.9007 198.184 26.182C198.39 25.4633 198.67 24.8753 199.024 24.418C199.388 23.9513 199.808 23.6107 200.284 23.396C200.76 23.172 201.264 23.06 201.796 23.06C202.319 23.06 202.818 23.172 203.294 23.396C203.77 23.6107 204.186 23.9513 204.54 24.418C204.904 24.8753 205.189 25.4633 205.394 26.182C205.609 26.9007 205.716 27.764 205.716 28.772ZM199.276 28.772C199.276 29.6213 199.337 30.34 199.458 30.928C199.589 31.5067 199.766 31.9733 199.99 32.328C200.214 32.6827 200.48 32.9393 200.788 33.098C201.096 33.2567 201.432 33.336 201.796 33.336C202.151 33.336 202.482 33.2567 202.79 33.098C203.098 32.9487 203.364 32.6967 203.588 32.342C203.812 31.978 203.985 31.5067 204.106 30.928C204.237 30.34 204.302 29.6167 204.302 28.758C204.302 27.9087 204.237 27.1947 204.106 26.616C203.985 26.0373 203.812 25.5707 203.588 25.216C203.364 24.8613 203.098 24.6047 202.79 24.446C202.482 24.2873 202.151 24.208 201.796 24.208C201.432 24.208 201.096 24.2873 200.788 24.446C200.48 24.6047 200.214 24.8613 199.99 25.216C199.766 25.5707 199.589 26.042 199.458 26.63C199.337 27.2087 199.276 27.9227 199.276 28.772ZM208.964 34.484H207.564V22.92H208.964V34.484ZM210.857 23.2H217.227V24.348H214.707V28.086C214.707 28.9073 214.632 29.6353 214.483 30.27L217.675 33.182L216.863 34.204L214.021 31.6C213.75 32.16 213.381 32.6593 212.915 33.098C212.457 33.546 211.879 33.9473 211.179 34.302L210.535 33.182C211.039 32.902 211.463 32.6173 211.809 32.328C212.163 32.0293 212.448 31.6887 212.663 31.306C212.887 30.914 213.045 30.4613 213.139 29.948C213.241 29.4253 213.293 28.8 213.293 28.072V24.348H210.857V23.2ZM218.501 34.484V28.114L216.261 28.884V27.792L218.501 27.008V22.92H219.901V34.484H218.501ZM222.743 34.484H221.343V22.92H222.743V34.484ZM236.98 31.306V24.348H228.482V23.2H238.38V31.306H236.98ZM227.796 33.336H239.066V34.484H227.796V33.336ZM247.563 23.06V29.794H240.857V23.06H247.563ZM246.163 28.646V24.208H242.257V28.646H246.163ZM242.845 30.914V33.616H251.245V34.764H241.445V30.914H242.845ZM251.105 26.616V31.138H249.705V22.92H251.105V25.468H252.743V26.616H251.105ZM254.023 31.81V23.032H255.423V31.81H254.023ZM254.023 33.28H255.423V34.764H254.023V33.28Z" fill="#A3A3A3"/>
<circle cx="307.498" cy="75.499" r="37.5" fill="#525252"/>
<rect x="295.802" y="83.1455" width="23.7194" height="5.9229" transform="rotate(-45 295.802 83.1455)" fill="#00FFBB"/>
<rect x="295.452" y="65.7783" width="21.6686" height="5.9229" fill="#00FFBB"/>
<rect width="21.6686" height="5.9229" transform="matrix(0 -1 -1 0 317.195 87.5215)" fill="#00FFBB"/>
<path d="M284.172 60.8417C284.125 60.8158 284.075 60.8008 284.02 60.7967C283.963 60.791 283.905 60.7987 283.848 60.8197C283.789 60.8362 283.733 60.8691 283.679 60.9185C283.621 60.9662 283.569 61.0319 283.522 61.1158L282.411 63.0967C282.355 63.1979 282.331 63.3006 282.341 63.4049C282.35 63.5047 282.405 63.583 282.506 63.6397C282.578 63.6802 282.653 63.6785 282.731 63.6348C282.806 63.5894 282.878 63.5045 282.948 63.3803L284.173 61.1956C284.25 61.0568 284.343 60.9396 284.45 60.8438C284.557 60.748 284.674 60.6772 284.802 60.6314C284.928 60.5839 285.061 60.5672 285.201 60.5813C285.343 60.5925 285.486 60.6386 285.63 60.7196C285.763 60.7941 285.874 60.8906 285.964 61.0091C286.055 61.1246 286.12 61.2523 286.159 61.3922C286.197 61.5275 286.209 61.6689 286.195 61.8166C286.179 61.9597 286.133 62.0992 286.057 62.235L284.786 64.5021C284.701 64.6524 284.593 64.7718 284.459 64.8604C284.325 64.9446 284.18 65.0022 284.026 65.0335C283.872 65.0647 283.716 65.0684 283.558 65.0447C283.401 65.0209 283.257 64.9725 283.127 64.8996L283.528 64.1843C283.571 64.2087 283.621 64.2251 283.677 64.2337C283.732 64.2378 283.788 64.2316 283.847 64.2151C283.904 64.194 283.962 64.1597 284.019 64.112C284.078 64.0613 284.131 63.9927 284.18 63.906L285.266 61.9684C285.297 61.9135 285.319 61.8574 285.332 61.8002C285.342 61.7413 285.344 61.6872 285.338 61.638C285.333 61.5858 285.319 61.5399 285.295 61.5002C285.271 61.4561 285.238 61.4226 285.198 61.3999C285.108 61.3497 285.03 61.3534 284.963 61.4111C284.897 61.4687 284.829 61.5597 284.759 61.684L283.561 63.821C283.486 63.9539 283.394 64.0712 283.284 64.1728C283.172 64.2698 283.052 64.3427 282.922 64.3914C282.794 64.4373 282.656 64.4552 282.51 64.4453C282.364 64.4354 282.217 64.3891 282.069 64.3065C281.933 64.2303 281.822 64.1353 281.733 64.0213C281.644 63.9029 281.58 63.776 281.542 63.6407C281.503 63.5009 281.492 63.3579 281.509 63.2119C281.524 63.0643 281.568 62.924 281.643 62.791L282.914 60.524C282.998 60.3737 283.109 60.2551 283.245 60.1681C283.378 60.0795 283.521 60.021 283.674 59.9926C283.828 59.9614 283.984 59.9576 284.141 59.9814C284.299 60.0052 284.443 60.0536 284.573 60.1265L284.172 60.8417Z" fill="#00FFBB"/>
<path d="M284.831 57.8338L285.35 57.1985L288.122 59.4607L287.604 60.0961L284.831 57.8338Z" fill="#00FFBB"/>
<path d="M291.73 55.933L289.016 58.2949L286.667 55.5955L289.381 53.2336C289.499 53.1314 289.627 53.0593 289.766 53.0173C289.906 52.9706 290.047 52.9534 290.189 52.9656C290.332 52.9732 290.469 53.0097 290.601 53.0753C290.733 53.1361 290.85 53.2252 290.952 53.3427L291.839 54.3625C291.939 54.4774 292.011 54.6057 292.056 54.7474C292.102 54.8868 292.121 55.029 292.11 55.1739C292.101 55.3141 292.064 55.4513 292.001 55.5855C291.938 55.715 291.848 55.8308 291.73 55.933ZM291.031 54.6833L290.529 54.1059C290.472 54.0409 290.409 53.9907 290.339 53.9553C290.268 53.9199 290.197 53.9009 290.124 53.8982C290.049 53.893 289.975 53.903 289.9 53.9284C289.828 53.9516 289.761 53.9904 289.698 54.0447L287.824 55.6758L289.096 57.138L290.971 55.5069C291.033 55.4525 291.082 55.3925 291.117 55.3268C291.152 55.2565 291.173 55.1839 291.178 55.1091C291.183 55.0343 291.174 54.9609 291.151 54.8889C291.126 54.8143 291.086 54.7458 291.031 54.6833Z" fill="#00FFBB"/>
<path d="M292.082 51.2387L296.08 49.1785L296.456 49.9075L293.187 51.592L293.444 52.0912L296.607 50.4613L296.98 51.1858L293.817 52.8157L294.074 53.3149L297.344 51.6304L297.719 52.3593L293.721 54.4194L292.082 51.2387Z" fill="#00FFBB"/>
<path d="M302.402 50.2873L299.701 50.9356L299.869 51.6363L299.072 51.8277L298.237 48.3482L301.735 47.5086C301.887 47.4723 302.034 47.4676 302.177 47.4947C302.322 47.5178 302.455 47.5676 302.575 47.6443C302.698 47.717 302.803 47.8128 302.89 47.9317C302.979 48.0467 303.041 48.1799 303.078 48.3313L303.225 48.945C303.26 49.0932 303.265 49.2403 303.239 49.3863C303.216 49.5316 303.166 49.6661 303.09 49.79C303.017 49.9098 302.921 50.0146 302.803 50.1043C302.687 50.1899 302.554 50.251 302.402 50.2873ZM302.372 48.9044L302.338 48.7643C302.299 48.6 302.224 48.4816 302.115 48.409C302.006 48.3364 301.844 48.3257 301.632 48.3767L299.225 48.9543L299.509 50.1382L301.916 49.5607C302.122 49.5112 302.26 49.4321 302.329 49.3235C302.398 49.2117 302.412 49.072 302.372 48.9044Z" fill="#00FFBB"/>
<path d="M309.688 50.5956L308.689 50.5878L307.986 49.5486L305.864 49.5321L305.856 50.5658L305.036 50.5594L305.064 46.9813L308.662 47.0093C308.818 47.0105 308.962 47.0398 309.094 47.0972C309.229 47.1545 309.346 47.23 309.445 47.3235C309.547 47.4171 309.625 47.5254 309.681 47.6484C309.74 47.7681 309.768 47.891 309.767 48.0169L309.763 48.5387C309.763 48.6447 309.739 48.7522 309.691 48.8611C309.647 48.9701 309.587 49.0707 309.51 49.1629C309.436 49.2551 309.35 49.3339 309.25 49.3994C309.153 49.4616 309.053 49.5023 308.951 49.5213L309.688 50.5956ZM308.945 48.3335L308.946 48.2142C308.947 48.1082 308.904 48.0184 308.819 47.9449C308.733 47.868 308.619 47.829 308.477 47.8279L305.878 47.8077L305.871 48.7121L308.47 48.7324C308.635 48.7337 308.755 48.6932 308.828 48.6109C308.905 48.5254 308.944 48.4329 308.945 48.3335Z" fill="#00FFBB"/>
<path d="M314.62 51.6606L312.203 51.0408C312.056 51.0029 311.923 50.9398 311.805 50.8515C311.692 50.7608 311.598 50.6546 311.523 50.5328C311.452 50.4086 311.404 50.2749 311.379 50.1317C311.359 49.9861 311.367 49.8395 311.405 49.6919L311.743 48.3729C311.781 48.2253 311.844 48.0943 311.931 47.9799C312.023 47.8631 312.129 47.769 312.25 47.6974C312.375 47.6234 312.509 47.5756 312.651 47.554C312.798 47.53 312.945 47.5369 313.092 47.5748L315.509 48.1946C315.656 48.2325 315.787 48.2968 315.901 48.3874C316.018 48.4758 316.112 48.582 316.183 48.7062C316.258 48.828 316.306 48.9617 316.326 49.1072C316.351 49.2504 316.345 49.3958 316.307 49.5435L315.969 50.8625C315.931 51.0101 315.866 51.1423 315.775 51.2591C315.687 51.3734 315.581 51.4676 315.456 51.5416C315.335 51.6132 315.201 51.661 315.055 51.685C314.912 51.7066 314.767 51.6985 314.62 51.6606ZM315.248 50.3699L315.437 49.6334C315.457 49.5563 315.461 49.4804 315.45 49.4056C315.442 49.3284 315.419 49.2576 315.381 49.1931C315.347 49.1262 315.3 49.0696 315.24 49.0235C315.181 48.9741 315.109 48.9387 315.026 48.9173L313.187 48.4456C313.107 48.425 313.028 48.4201 312.95 48.4309C312.872 48.4417 312.799 48.4657 312.731 48.5031C312.667 48.5381 312.612 48.5871 312.565 48.6503C312.519 48.7103 312.485 48.782 312.464 48.8655L312.272 49.6116C312.252 49.6886 312.246 49.7658 312.254 49.8429C312.265 49.9177 312.29 49.9874 312.329 50.0519C312.368 50.1132 312.417 50.1686 312.476 50.218C312.539 50.265 312.612 50.2992 312.696 50.3206L314.53 50.791C314.617 50.8132 314.697 50.8185 314.772 50.8069C314.851 50.793 314.923 50.7669 314.987 50.7287C315.052 50.6905 315.105 50.641 315.148 50.5802C315.195 50.517 315.229 50.4469 315.248 50.3699Z" fill="#00FFBB"/>
<path d="M320.208 50.098L322.977 51.6126L321.809 53.7725C321.737 53.9064 321.642 54.0188 321.525 54.1098C321.41 54.2023 321.283 54.2691 321.144 54.3104C321.009 54.3503 320.868 54.3641 320.72 54.3516C320.577 54.3379 320.437 54.2939 320.3 54.2196L318.016 52.9793C317.864 52.8971 317.744 52.7885 317.655 52.6536C317.569 52.5202 317.511 52.3752 317.479 52.2184C317.449 52.0588 317.447 51.8956 317.473 51.729C317.5 51.5624 317.552 51.4062 317.631 51.2607L317.707 51.1209L318.428 51.5122C318.388 51.585 318.359 51.6633 318.34 51.7472C318.325 51.8297 318.323 51.9097 318.334 51.9871C318.349 52.0633 318.378 52.1354 318.42 52.2035C318.464 52.2688 318.525 52.3227 318.604 52.3654L320.434 53.359C320.512 53.4017 320.589 53.4266 320.665 53.4336C320.744 53.4392 320.819 53.4306 320.888 53.4077C320.961 53.3835 321.027 53.3457 321.085 53.2943C321.148 53.2416 321.199 53.1788 321.238 53.106L321.874 51.9356L319.817 50.8186L320.208 50.098Z" fill="#00FFBB"/>
<path d="M324.816 52.9213L328.135 55.9565L327.581 56.5616L324.867 54.0798L324.489 54.4943L327.114 56.8956L326.564 57.497L323.938 55.0957L323.56 55.5102L326.273 57.992L325.72 58.5971L322.401 55.5619L324.816 52.9213Z" fill="#00FFBB"/>
<path d="M330.791 61.8186C330.849 61.7801 330.897 61.7324 330.935 61.6754C330.977 61.6194 331.004 61.5579 331.015 61.4908C331.031 61.4247 331.032 61.3544 331.018 61.28C331.006 61.2083 330.975 61.1352 330.926 61.0607L329.776 59.3308C329.682 59.1901 329.558 59.1017 329.403 59.0657C329.249 59.0324 329.097 59.0662 328.945 59.1671L328.32 59.5826C328.248 59.6302 328.19 59.6867 328.146 59.7519C328.106 59.818 328.079 59.8878 328.064 59.9613C328.05 60.0348 328.05 60.1101 328.066 60.1873C328.084 60.2627 328.116 60.3349 328.162 60.4039L329.312 62.1338C329.35 62.1917 329.399 62.2409 329.458 62.2814C329.519 62.3201 329.585 62.3478 329.656 62.3644C329.727 62.381 329.798 62.3834 329.87 62.3715C329.946 62.3606 330.017 62.3331 330.084 62.2891L330.538 62.972L330.455 63.027C330.325 63.1132 330.181 63.1751 330.023 63.2125C329.865 63.25 329.707 63.2599 329.548 63.2423C329.393 63.2255 329.245 63.1789 329.103 63.1025C328.963 63.0242 328.846 62.9133 328.75 62.7699L327.311 60.6054C327.227 60.4785 327.17 60.3429 327.142 60.1986C327.117 60.0524 327.117 59.9091 327.143 59.7685C327.173 59.6289 327.228 59.4966 327.309 59.3718C327.39 59.2497 327.495 59.1464 327.622 59.062L328.747 58.3136C328.877 58.2274 329.013 58.1711 329.154 58.1446C329.3 58.1191 329.442 58.1201 329.58 58.1479C329.723 58.1766 329.855 58.2319 329.977 58.3138C330.102 58.3939 330.206 58.4974 330.291 58.6243L331.73 60.7888C331.825 60.9323 331.881 61.0844 331.896 61.2452C331.914 61.4042 331.901 61.5581 331.857 61.7069C331.814 61.8585 331.747 61.999 331.654 62.1285C331.561 62.2579 331.452 62.3639 331.328 62.4464L331.245 62.5015L330.791 61.8186Z" fill="#00FFBB"/>
<path d="M334.977 68.2756L334.204 68.5493L333.54 66.6755L330.94 67.5963L330.667 66.8234L333.267 65.9025L332.611 64.0521L333.384 63.7784L334.977 68.2756Z" fill="#00FFBB"/>
<path d="M332.631 79.9017L332.969 77.1442L332.253 77.0566L332.353 76.2427L335.905 76.6778L335.467 80.2492C335.448 80.4037 335.401 80.5432 335.326 80.6675C335.253 80.7954 335.16 80.9025 335.046 80.9887C334.935 81.0785 334.809 81.1432 334.667 81.1826C334.528 81.2256 334.381 81.2377 334.227 81.2188L333.6 81.142C333.449 81.1235 333.31 81.0764 333.182 81.0007C333.054 80.9282 332.945 80.8348 332.856 80.7204C332.769 80.6096 332.705 80.4832 332.662 80.3411C332.622 80.2027 332.612 80.0563 332.631 79.9017ZM333.937 80.3571L334.08 80.3746C334.248 80.3952 334.385 80.3669 334.491 80.2898C334.597 80.2127 334.663 80.0656 334.69 79.8486L334.991 77.392L333.782 77.2439L333.482 79.7005C333.456 79.911 333.482 80.0677 333.559 80.1706C333.64 80.274 333.766 80.3362 333.937 80.3571Z" fill="#00FFBB"/>
<path d="M331.456 82.2784L334.794 83.538L334.504 84.3048L331.925 83.3276L330.609 86.7992L329.842 86.5086L331.456 82.2784Z" fill="#00FFBB"/>
<path d="M326.128 92.1892L326.673 91.4177L327.47 91.4513L329.032 89.2385L328.727 88.5065L329.272 87.735L330.929 91.593L330.321 92.4538L326.128 92.1892ZM329.984 91.5099L329.424 90.1052L328.409 91.5425L329.923 91.5952L329.984 91.5099Z" fill="#00FFBB"/>
<path d="M323.859 98.9628L323.33 98.336L324.849 97.0543L323.071 94.946L323.698 94.4173L325.476 96.5256L326.977 95.2599L327.505 95.8866L323.859 98.9628Z" fill="#00FFBB"/>
<path d="M322.031 100.148L318.115 102.105L317.748 101.372L320.931 99.781L320.68 99.2787L317.604 100.816L317.239 100.087L320.315 98.5496L319.698 97.3138L320.431 96.9472L322.031 100.148Z" fill="#00FFBB"/>
<path d="M311.678 100.223L314.11 99.6632C314.258 99.629 314.405 99.6241 314.55 99.6485C314.692 99.6769 314.825 99.728 314.947 99.8018C315.067 99.8796 315.171 99.9764 315.259 100.092C315.344 100.212 315.404 100.346 315.438 100.495L315.744 101.822C315.778 101.97 315.782 102.115 315.757 102.257C315.73 102.403 315.678 102.535 315.604 102.654C315.527 102.778 315.43 102.881 315.314 102.966C315.195 103.055 315.061 103.116 314.912 103.15L312.481 103.71C312.333 103.744 312.187 103.747 312.045 103.719C311.9 103.694 311.767 103.643 311.647 103.565C311.525 103.491 311.421 103.395 311.336 103.275C311.248 103.159 311.187 103.027 311.152 102.879L310.847 101.552C310.813 101.403 310.81 101.256 310.837 101.11C310.862 100.968 310.913 100.836 310.99 100.713C311.065 100.594 311.162 100.49 311.281 100.401C311.397 100.316 311.53 100.257 311.678 100.223ZM311.713 101.658L311.884 102.399C311.901 102.477 311.933 102.546 311.977 102.607C312.02 102.672 312.072 102.725 312.136 102.764C312.197 102.808 312.265 102.837 312.339 102.85C312.414 102.867 312.494 102.865 312.578 102.846L314.428 102.42C314.509 102.402 314.581 102.37 314.646 102.324C314.71 102.279 314.764 102.224 314.807 102.16C314.847 102.099 314.874 102.03 314.887 101.953C314.9 101.878 314.897 101.799 314.878 101.715L314.705 100.964C314.687 100.887 314.657 100.815 314.615 100.75C314.57 100.689 314.516 100.639 314.453 100.599C314.39 100.563 314.321 100.536 314.245 100.519C314.168 100.507 314.087 100.51 314.003 100.529L312.158 100.954C312.071 100.974 311.996 101.006 311.935 101.051C311.872 101.1 311.82 101.156 311.78 101.219C311.74 101.283 311.715 101.352 311.705 101.425C311.693 101.503 311.695 101.581 311.713 101.658Z" fill="#00FFBB"/>
<path d="M304.563 100.549L305.562 100.566L306.254 101.612L308.376 101.648L308.394 100.614L309.214 100.628L309.153 104.206L305.555 104.145C305.4 104.142 305.256 104.111 305.124 104.053C304.989 103.994 304.873 103.918 304.775 103.823C304.674 103.729 304.597 103.62 304.542 103.496C304.485 103.376 304.457 103.253 304.459 103.127L304.468 102.605C304.47 102.499 304.495 102.392 304.543 102.283C304.588 102.175 304.649 102.075 304.727 101.983C304.802 101.892 304.889 101.814 304.99 101.749C305.087 101.688 305.187 101.648 305.29 101.63L304.563 100.549ZM305.285 102.818L305.283 102.937C305.281 103.043 305.322 103.133 305.407 103.208C305.492 103.285 305.606 103.325 305.748 103.328L308.347 103.372L308.362 102.468L305.763 102.423C305.598 102.421 305.478 102.46 305.404 102.542C305.326 102.626 305.286 102.718 305.285 102.818Z" fill="#00FFBB"/>
<path d="M297.199 102.465L298.152 99.0161L298.942 99.2344L298.322 101.481L300.576 99.6856L300.614 99.6962L301.624 102.388L302.243 100.146L303.033 100.364L302.081 103.813L301.152 103.557L300.212 101.06L298.119 102.719L297.199 102.465Z" fill="#00FFBB"/>
<path d="M285.911 94.78L288.35 92.1619L288.95 92.7209L287.361 94.4263L290.19 93.876L290.219 93.9031L289.87 96.7567L291.455 95.0549L292.055 95.6139L289.616 98.232L288.911 97.5748L289.232 94.9262L286.609 95.4305L285.911 94.78Z" fill="#00FFBB"/>
<path d="M285.518 88.0287L286.861 90.1313C286.943 90.2597 286.996 90.3964 287.022 90.5412C287.043 90.685 287.039 90.8269 287.011 90.9669C286.978 91.106 286.922 91.2363 286.842 91.3579C286.758 91.4785 286.652 91.5798 286.523 91.6618L285.375 92.3948C285.247 92.4768 285.112 92.5298 284.97 92.5536C284.823 92.5765 284.681 92.5728 284.544 92.5425C284.402 92.5112 284.272 92.4549 284.153 92.3735C284.03 92.2911 283.927 92.1857 283.845 92.0573L282.502 89.9547C282.42 89.8262 282.369 89.6901 282.347 89.5463C282.322 89.4015 282.326 89.2596 282.359 89.1205C282.387 88.9805 282.443 88.8502 282.528 88.7296C282.607 88.608 282.711 88.5062 282.84 88.4241L283.987 87.6912C284.116 87.6092 284.253 87.5567 284.4 87.5339C284.542 87.51 284.684 87.5137 284.826 87.545C284.963 87.5753 285.093 87.6316 285.217 87.714C285.335 87.7954 285.436 87.9003 285.518 88.0287ZM284.177 88.5428L283.536 88.9521C283.469 88.9949 283.415 89.0475 283.372 89.1101C283.325 89.1717 283.293 89.2391 283.277 89.3123C283.256 89.3845 283.252 89.4579 283.265 89.5326C283.274 89.6091 283.302 89.6836 283.348 89.7562L284.37 91.3562C284.415 91.426 284.469 91.4836 284.534 91.529C284.598 91.5744 284.668 91.6065 284.743 91.6255C284.813 91.6434 284.887 91.6453 284.964 91.6312C285.039 91.6189 285.113 91.5895 285.185 91.5432L285.835 91.1286C285.902 91.0858 285.959 91.0336 286.006 90.972C286.048 90.9094 286.078 90.8415 286.094 90.7683C286.107 90.6969 286.109 90.623 286.1 90.5465C286.086 90.469 286.055 90.394 286.009 90.3214L284.99 88.7256C284.942 88.6502 284.886 88.5912 284.824 88.5486C284.757 88.505 284.686 88.4751 284.613 88.459C284.54 88.4428 284.467 88.4423 284.394 88.4574C284.317 88.4715 284.244 88.5 284.177 88.5428Z" fill="#00FFBB"/>
<path d="M280.919 86.9863L279.391 82.451L280.154 82.1939L283.036 84.6313L282.004 81.5702L282.781 81.3083L284.31 85.8436L283.542 86.1022L280.666 83.6679L281.696 86.7244L280.919 86.9863Z" fill="#00FFBB"/>
<path d="M279.061 80.3995L278.935 79.5893L282.47 79.0378L282.597 79.848L279.061 80.3995Z" fill="#00FFBB"/>
<path d="M281.535 73.9843L281.492 76.762L282.212 76.7733L282.2 77.5932L278.622 77.5374L278.678 73.9398C278.68 73.7841 278.712 73.6404 278.774 73.5088C278.833 73.3739 278.914 73.2575 279.018 73.1597C279.119 73.0586 279.238 72.9809 279.375 72.9267C279.508 72.8692 279.653 72.8416 279.808 72.844L280.439 72.8539C280.592 72.8562 280.736 72.8883 280.87 72.95C281.005 73.0085 281.123 73.0898 281.224 73.1941C281.322 73.2951 281.4 73.4139 281.457 73.5507C281.512 73.684 281.538 73.8286 281.535 73.9843ZM280.188 73.67L280.044 73.6678C279.875 73.6652 279.742 73.7078 279.644 73.7958C279.547 73.8837 279.497 74.037 279.493 74.2557L279.455 76.7303L280.672 76.7493L280.711 74.2746C280.714 74.0626 280.672 73.9095 280.584 73.8154C280.492 73.7212 280.36 73.6727 280.188 73.67Z" fill="#00FFBB"/>
<path d="M344 66.999C334 81.999 314 112.099 314 112.499C319 111.499 331.5 108.499 339.5 94.999C346.5 83.999 345.334 71.999 344 66.999Z" fill="#171717"/>
<path d="M344.273 66.928C334.377 81.9966 314.492 112.173 314.124 112.329C313.09 107.336 310.964 94.6583 320.261 82.017C327.649 71.2735 339.15 67.6556 344.273 66.928Z" fill="#A3A3A3"/>
</svg>
