<svg width="108" height="108" viewBox="0 0 108 108" fill="none" xmlns="http://www.w3.org/2000/svg">
<rect x="2" y="2" width="104" height="104" rx="19.6667" stroke="#737373" stroke-width="4" stroke-dasharray="4.33 4.33"/>
<rect x="47.8184" y="58.8945" width="3.27269" height="3.26314" fill="black"/>
<rect x="57.6348" y="58.8945" width="3.27269" height="3.26314" fill="black"/>
<rect x="57.6348" y="55.6309" width="3.27269" height="3.26314" fill="black"/>
<rect x="60.9082" y="55.6309" width="3.27269" height="3.26314" fill="black"/>
<rect x="64.1816" y="55.6309" width="3.27269" height="3.26314" fill="black"/>
<rect x="67.4551" y="55.6309" width="3.27269" height="3.26314" fill="black"/>
<rect x="70.7266" y="55.6309" width="3.27269" height="3.26314" fill="black"/>
<rect x="67.4551" y="52.3691" width="3.27269" height="3.26314" fill="black"/>
<rect x="64.1816" y="49.1055" width="3.27269" height="3.26314" fill="black"/>
<rect x="60.9082" y="45.8418" width="3.27269" height="3.26314" fill="black"/>
<rect x="57.6348" y="42.5781" width="3.27269" height="3.26314" fill="black"/>
<rect x="54.3633" y="39.3145" width="3.27269" height="3.26314" fill="black"/>
<rect x="51.0918" y="36.0527" width="3.27269" height="3.26314" fill="black"/>
<rect x="47.8184" y="32.791" width="3.27269" height="3.26314" fill="black"/>
<rect x="44.5449" y="29.5273" width="3.27269" height="3.26314" fill="black"/>
<rect x="41.2734" y="26.2637" width="3.27269" height="3.26314" fill="black"/>
<rect x="38" y="23" width="3.27269" height="3.26314" fill="black"/>
<rect x="38" y="26.2637" width="3.27269" height="3.26314" fill="black"/>
<rect x="38" y="29.5273" width="3.27269" height="3.26314" fill="black"/>
<rect x="38" y="32.791" width="3.27269" height="3.26314" fill="black"/>
<rect x="38" y="36.0527" width="3.27269" height="3.26314" fill="black"/>
<rect x="38" y="39.3145" width="3.27269" height="3.26314" fill="black"/>
<rect x="38" y="42.5781" width="3.27269" height="3.26314" fill="black"/>
<rect x="38" y="45.8418" width="3.27269" height="3.26314" fill="black"/>
<rect x="38" y="49.1055" width="3.27269" height="3.26314" fill="black"/>
<rect x="38" y="52.3691" width="3.27269" height="3.26314" fill="black"/>
<rect x="38" y="55.6309" width="3.27269" height="3.26314" fill="black"/>
<rect x="38" y="58.8945" width="3.27269" height="3.26314" fill="black"/>
<rect x="38" y="62.1582" width="3.27269" height="3.26314" fill="black"/>
<rect x="38" y="65.4199" width="3.27269" height="3.26314" fill="black"/>
<rect x="51.0918" y="62.1582" width="3.27269" height="3.26314" fill="black"/>
<rect x="60.9082" y="62.1582" width="3.27269" height="3.26314" fill="black"/>
<rect x="51.0918" y="65.4199" width="3.27269" height="3.26314" fill="black"/>
<rect x="60.9082" y="65.4199" width="3.27269" height="3.26314" fill="black"/>
<rect x="54.3633" y="68.6836" width="3.27269" height="3.26314" fill="black"/>
<rect x="64.1816" y="68.6836" width="3.27269" height="3.26314" fill="black"/>
<rect x="54.3633" y="71.9473" width="3.27269" height="3.26314" fill="black"/>
<rect x="64.1816" y="71.9473" width="3.27269" height="3.26314" fill="black"/>
<rect x="57.6348" y="75.2109" width="3.27269" height="3.26314" fill="black"/>
<rect x="67.4551" y="75.2109" width="3.27269" height="3.26314" fill="black"/>
<rect x="57.6348" y="78.4727" width="3.27269" height="3.26314" fill="black"/>
<rect x="67.4551" y="78.4727" width="3.27269" height="3.26314" fill="black"/>
<rect x="60.9082" y="81.7363" width="3.27269" height="3.26314" fill="black"/>
<rect x="64.1816" y="81.7363" width="3.27269" height="3.26314" fill="black"/>
<rect x="44.5449" y="62.1582" width="3.27269" height="3.26314" fill="black"/>
<rect x="41.2734" y="65.4199" width="3.27269" height="3.26314" fill="black"/>
<rect x="38" y="68.6836" width="3.27269" height="3.26314" fill="black"/>
<path fill-rule="evenodd" clip-rule="evenodd" d="M41.2734 29.5254H44.5461V65.4199H41.2734V29.5254ZM44.5464 32.7891H47.8191V62.1573H44.5464V32.7891ZM51.092 36.0527H47.8193V58.8947H51.092V36.0527ZM51.0922 39.3164H54.3649V62.1584H51.0922V39.3164ZM57.6378 42.5781H54.3651V68.6833H57.6361V75.2088H60.9088V62.1562H57.6378V55.6293H60.9088V45.8398H57.6378V42.5781ZM64.1817 49.1035H60.909V55.6298H64.1817V49.1035ZM64.1817 68.6836H60.909V81.7362H64.1817V68.6836ZM64.182 75.209H67.4547V81.7353H64.182V75.209ZM67.4547 52.3672H64.182V55.6303H67.4547V52.3672Z" fill="#FAFAFA"/>
</svg>
