<svg width="360" height="696" viewBox="0 0 360 696" fill="none" xmlns="http://www.w3.org/2000/svg">
<path d="M23.148 492.632H64.154V524.242H46.522V534.392H66.996V539.148H20.306V534.392H40.722V524.242H23.148V492.632ZM28.948 519.486H58.354V497.388H28.948V519.486ZM82.6515 519.95V525.344H112.811V519.95H118.611V540.308H76.8515V519.95H82.6515ZM73.6615 491.82H106.431V496.576H92.6855V500.23C92.6855 501.003 92.6081 501.757 92.4535 502.492C92.3375 503.188 92.1635 503.865 91.9315 504.522L107.069 512.932L103.995 516.934L89.4955 508.756C87.9101 510.612 85.8801 512.197 83.4055 513.512C80.9695 514.788 78.1855 515.871 75.0535 516.76L72.5015 512.526C74.4735 512.023 76.3101 511.424 78.0115 510.728C79.7515 509.993 81.2788 509.143 82.5935 508.176C83.9081 507.209 84.9328 506.069 85.6675 504.754C86.4408 503.439 86.8275 501.912 86.8275 500.172V496.576H73.6615V491.82ZM112.811 535.552V530.1H82.6515V535.552H112.811ZM118.611 491.24V516.76H112.811V491.24H118.611ZM142.575 519.544C144.121 519.544 145.533 519.254 146.809 518.674C148.123 518.055 149.245 517.205 150.173 516.122C151.139 515.039 151.893 513.783 152.435 512.352C152.976 510.883 153.247 509.278 153.247 507.538C153.247 505.759 152.976 504.135 152.435 502.666C151.893 501.158 151.139 499.882 150.173 498.838C149.245 497.755 148.123 496.924 146.809 496.344C145.533 495.764 144.121 495.474 142.575 495.474C140.951 495.474 139.481 495.783 138.167 496.402C136.852 496.982 135.731 497.813 134.803 498.896C133.875 499.94 133.159 501.197 132.657 502.666C132.154 504.135 131.903 505.759 131.903 507.538C131.903 509.317 132.154 510.941 132.657 512.41C133.198 513.879 133.933 515.155 134.861 516.238C135.789 517.282 136.91 518.094 138.225 518.674C139.539 519.254 140.989 519.544 142.575 519.544ZM126.045 507.538C126.045 504.831 126.47 502.434 127.321 500.346C128.171 498.258 129.331 496.499 130.801 495.068C132.309 493.637 134.068 492.555 136.079 491.82C138.089 491.085 140.255 490.718 142.575 490.718C144.856 490.718 147.002 491.085 149.013 491.82C151.023 492.555 152.763 493.637 154.233 495.068C155.741 496.499 156.92 498.258 157.771 500.346C158.66 502.434 159.105 504.831 159.105 507.538C159.105 510.206 158.66 512.584 157.771 514.672C156.92 516.721 155.741 518.461 154.233 519.892C152.763 521.284 151.023 522.367 149.013 523.14C147.002 523.875 144.856 524.242 142.575 524.242C140.255 524.242 138.089 523.875 136.079 523.14C134.068 522.367 132.309 521.284 130.801 519.892C129.331 518.461 128.171 516.721 127.321 514.672C126.47 512.584 126.045 510.206 126.045 507.538ZM161.773 533.174V537.93H125.001V533.174H161.773ZM171.401 539.148H165.601V491.24H171.401V539.148ZM228.482 521.458V540.308H182.43V521.458H228.482ZM204.296 491.82V517.398H179.994V491.82H204.296ZM210.328 518.268V491.24H216.128V502.782L222.682 500.52V491.24H228.482V518.268H222.682V505.334L216.128 507.596V518.268H210.328ZM188.23 526.214V535.552H222.682V526.214H188.23ZM185.794 512.642H198.496V496.576H185.794V512.642ZM242.038 510.38H258.22V492.4H264.02V538.568H236.238V492.4H242.038V510.38ZM280.434 539.148H274.634V515.426L266.34 518.326V513.802L274.634 510.902V491.24H280.434V539.148ZM258.22 515.136H242.038V533.812H258.22V515.136ZM311.009 538.568V497.156H289.027V492.4H316.809V538.568H311.009ZM331.483 510.264H338.269V515.02H331.483V539.148H325.683V491.24H331.483V510.264Z" fill="#00FFBB"/>
<path d="M32.762 587.572V582.062H19.886V561.82H51.264V566.576H25.686V577.306H51.844V582.062H38.562V587.572H54.628V592.328H17.856V587.572H32.762ZM26.382 596.098V605.552H64.836V610.308H20.582V596.098H26.382ZM64.256 599.288H58.456V561.24H64.256V599.288ZM111.245 596.678V592.56H75.2851V587.804H117.045V601.434H81.0851V605.552H117.625V610.308H75.2851V596.678H111.245ZM94.8311 583.918V566.576H72.8491V561.82H100.631V583.918H94.8311ZM117.045 561.24V584.614H111.245V574L102.951 575.914V571.158L111.245 569.244V561.24H117.045Z" fill="#00FFBB"/>
<path d="M32.182 659.602V655.426C30.326 655.349 28.6247 655.155 27.078 654.846C25.5313 654.498 24.1973 654.015 23.076 653.396C21.9933 652.739 21.1427 651.927 20.524 650.96C19.9053 649.955 19.596 648.756 19.596 647.364C19.596 645.817 19.9633 644.522 20.698 643.478C21.4713 642.395 22.5347 641.545 23.888 640.926C25.2413 640.307 26.846 639.863 28.702 639.592C30.558 639.321 32.588 639.186 34.792 639.186C36.996 639.186 39.026 639.321 40.882 639.592C42.7767 639.863 44.4007 640.307 45.754 640.926C47.146 641.545 48.2093 642.395 48.944 643.478C49.7173 644.522 50.104 645.817 50.104 647.364C50.104 648.756 49.814 649.935 49.234 650.902C48.654 651.869 47.8227 652.681 46.74 653.338C45.6573 653.957 44.362 654.44 42.854 654.788C41.3847 655.097 39.7607 655.31 37.982 655.426V659.602H53.468V664.358H17.856V659.602H32.182ZM63.096 649.452V669.868H57.296V631.24H63.096V644.696H69.882V649.452H63.096ZM26.382 667.838V675.552H63.676V680.308H20.582V667.838H26.382ZM18.146 631.936H31.892V628.456H37.692V631.936H51.496V636.692H18.146V631.936ZM34.792 643.942C31.892 643.942 29.5913 644.174 27.89 644.638C26.2273 645.102 25.396 646.011 25.396 647.364C25.396 648.679 26.2273 649.568 27.89 650.032C29.5913 650.496 31.892 650.728 34.792 650.728C37.692 650.728 39.9927 650.496 41.694 650.032C43.434 649.568 44.304 648.679 44.304 647.364C44.304 646.707 44.072 646.165 43.608 645.74C43.144 645.276 42.4867 644.928 41.636 644.696C40.7853 644.425 39.78 644.232 38.62 644.116C37.46 644 36.184 643.942 34.792 643.942ZM72.8649 644.638C72.8649 642.743 73.2129 640.984 73.9089 639.36C74.6049 637.697 75.6103 636.267 76.9249 635.068C78.2783 633.869 79.9216 632.941 81.8549 632.284C83.8269 631.588 86.0503 631.24 88.5249 631.24C91.8503 631.24 94.6729 631.839 96.9929 633.038C99.3129 634.198 101.092 635.783 102.329 637.794L113.001 635.706V631.24H118.801V660.008H113.001V649.858L101.865 652.12C100.589 653.937 98.8296 655.368 96.5869 656.412C94.3443 657.456 91.6569 657.978 88.5249 657.978C86.0503 657.978 83.8269 657.649 81.8549 656.992C79.9216 656.296 78.2783 655.349 76.9249 654.15C75.6103 652.951 74.6049 651.54 73.9089 649.916C73.2129 648.292 72.8649 646.533 72.8649 644.638ZM97.9789 681.468C94.6149 681.468 91.5603 681.255 88.8149 680.83C86.1083 680.405 83.8076 679.767 81.9129 678.916C80.0183 678.065 78.5489 676.983 77.5049 675.668C76.4996 674.392 75.9969 672.884 75.9969 671.144C75.9969 669.404 76.4996 667.896 77.5049 666.62C78.5489 665.305 80.0183 664.242 81.9129 663.43C83.8076 662.579 86.1083 661.941 88.8149 661.516C91.5603 661.091 94.6149 660.878 97.9789 660.878C101.343 660.878 104.378 661.091 107.085 661.516C109.83 661.941 112.15 662.579 114.045 663.43C115.94 664.242 117.39 665.305 118.395 666.62C119.439 667.896 119.961 669.404 119.961 671.144C119.961 672.884 119.439 674.392 118.395 675.668C117.39 676.983 115.94 678.065 114.045 678.916C112.15 679.767 109.83 680.405 107.085 680.83C104.378 681.255 101.343 681.468 97.9789 681.468ZM97.9789 676.712C100.454 676.712 102.677 676.596 104.649 676.364C106.66 676.132 108.361 675.784 109.753 675.32C111.184 674.856 112.266 674.276 113.001 673.58C113.774 672.884 114.161 672.072 114.161 671.144C114.161 670.216 113.774 669.423 113.001 668.766C112.266 668.07 111.184 667.49 109.753 667.026C108.361 666.562 106.66 666.214 104.649 665.982C102.677 665.75 100.454 665.634 97.9789 665.634C95.5043 665.634 93.2616 665.75 91.2509 665.982C89.2789 666.214 87.5776 666.562 86.1469 667.026C84.7549 667.49 83.6723 668.07 82.8989 668.766C82.1643 669.423 81.7969 670.216 81.7969 671.144C81.7969 672.072 82.1643 672.884 82.8989 673.58C83.6723 674.276 84.7549 674.856 86.1469 675.32C87.5776 675.784 89.2789 676.132 91.2509 676.364C93.2616 676.596 95.5043 676.712 97.9789 676.712ZM88.5249 653.222C90.0329 653.222 91.3863 653.009 92.5849 652.584C93.8223 652.12 94.8663 651.521 95.7169 650.786C96.5676 650.013 97.2249 649.104 97.6889 648.06C98.1529 647.016 98.3849 645.875 98.3849 644.638C98.3849 643.401 98.1529 642.26 97.6889 641.216C97.2249 640.133 96.5676 639.205 95.7169 638.432C94.8663 637.659 93.8223 637.059 92.5849 636.634C91.3863 636.209 90.0329 635.996 88.5249 635.996C87.0169 635.996 85.6443 636.209 84.4069 636.634C83.2083 637.059 82.1836 637.659 81.3329 638.432C80.4823 639.205 79.8249 640.133 79.3609 641.216C78.8969 642.26 78.6649 643.401 78.6649 644.638C78.6649 645.875 78.8969 647.016 79.3609 648.06C79.8249 649.104 80.4823 650.013 81.3329 650.786C82.1836 651.521 83.2083 652.12 84.4069 652.584C85.6443 653.009 87.0169 653.222 88.5249 653.222ZM104.185 644.638C104.185 645.45 104.127 646.223 104.011 646.958L113.001 645.16V640.404L103.953 642.202C104.108 642.937 104.185 643.749 104.185 644.638ZM154.538 662.328C154.538 665.383 154.151 667.993 153.378 670.158C152.605 672.285 151.561 674.005 150.246 675.32C148.97 676.673 147.501 677.64 145.838 678.22C144.175 678.839 142.455 679.148 140.676 679.148C138.859 679.148 137.119 678.839 135.456 678.22C133.793 677.64 132.324 676.673 131.048 675.32C129.811 674.005 128.805 672.285 128.032 670.158C127.297 667.993 126.93 665.383 126.93 662.328C126.93 659.273 127.297 656.683 128.032 654.556C128.805 652.429 129.811 650.709 131.048 649.394C132.324 648.041 133.793 647.055 135.456 646.436C137.119 645.817 138.859 645.508 140.676 645.508C142.455 645.508 144.175 645.817 145.838 646.436C147.501 647.055 148.97 648.041 150.246 649.394C151.561 650.709 152.605 652.429 153.378 654.556C154.151 656.683 154.538 659.273 154.538 662.328ZM160.048 679.148V631.24H165.848V653.048L172.402 650.786V631.24H178.202V679.148H172.402V655.6L165.848 657.862V679.148H160.048ZM132.73 662.328C132.73 666.311 133.445 669.327 134.876 671.376C136.307 673.387 138.24 674.392 140.676 674.392C142.957 674.392 144.852 673.387 146.36 671.376C147.907 669.327 148.68 666.291 148.68 662.27C148.68 660.298 148.467 658.577 148.042 657.108C147.655 655.6 147.095 654.343 146.36 653.338C145.664 652.294 144.833 651.521 143.866 651.018C142.899 650.515 141.836 650.264 140.676 650.264C138.24 650.264 136.307 651.289 134.876 653.338C133.445 655.349 132.73 658.345 132.73 662.328ZM125.48 635.88H137.776V629.616H143.576V635.88H155.93V640.636H125.48V635.88ZM182.884 674.392H192.28V661.226C189.96 659.757 188.181 657.92 186.944 655.716C185.745 653.473 185.146 650.999 185.146 648.292C185.146 645.895 185.629 643.691 186.596 641.68C187.601 639.669 189.013 637.929 190.83 636.46C192.647 634.991 194.851 633.85 197.442 633.038C200.033 632.187 202.952 631.762 206.2 631.762C209.293 631.762 212.135 632.187 214.726 633.038C217.317 633.85 219.54 634.991 221.396 636.46C223.252 637.929 224.702 639.669 225.746 641.68C226.79 643.691 227.312 645.895 227.312 648.292C227.312 650.999 226.693 653.473 225.456 655.716C224.219 657.92 222.44 659.757 220.12 661.226V674.392H229.574V679.148H182.884V674.392ZM206.2 660.066C208.675 660.066 210.859 659.757 212.754 659.138C214.649 658.481 216.234 657.63 217.51 656.586C218.825 655.503 219.811 654.247 220.468 652.816C221.164 651.385 221.512 649.877 221.512 648.292C221.512 646.707 221.164 645.199 220.468 643.768C219.811 642.337 218.825 641.1 217.51 640.056C216.234 638.973 214.649 638.123 212.754 637.504C210.859 636.847 208.675 636.518 206.2 636.518C203.725 636.518 201.541 636.847 199.646 637.504C197.751 638.123 196.147 638.973 194.832 640.056C193.556 641.1 192.589 642.337 191.932 643.768C191.275 645.199 190.946 646.707 190.946 648.292C190.946 649.877 191.275 651.385 191.932 652.816C192.589 654.247 193.556 655.503 194.832 656.586C196.147 657.63 197.751 658.481 199.646 659.138C201.541 659.757 203.725 660.066 206.2 660.066ZM206.2 664.822C203.145 664.822 200.439 664.474 198.08 663.778V674.392H214.32V663.778C211.884 664.474 209.177 664.822 206.2 664.822ZM244.534 679.496H238.154V673.29H244.534V679.496Z" fill="#00FFBB"/>
<rect width="360" height="433" fill="#171717"/>
<mask id="mask0_1091_2295" style="mask-type:alpha" maskUnits="userSpaceOnUse" x="0" y="0" width="360" height="433">
<rect width="360" height="433" fill="#171717"/>
</mask>
<g mask="url(#mask0_1091_2295)">
<rect x="16.5" y="16.5" width="327" height="399" stroke="#00FFBB"/>
<rect x="45.5" y="52.5" width="269" height="327" stroke="#00FFBB"/>
<circle cx="180" cy="216" r="2" fill="#171717"/>
<line x1="0.384612" y1="-0.319489" x2="180.045" y2="215.962" stroke="#00FFBB"/>
<line x1="177.617" y1="216.241" x2="359.617" y2="-0.322666" stroke="#00FFBB"/>
<path d="M177.617 216.242L363.5 68.5005" stroke="#00FFBB"/>
<path d="M177.617 216.242L378 137" stroke="#00FFBB"/>
<path d="M-17 137L183.383 216.242" stroke="#00FFBB"/>
<path d="M177.617 214.895L378 294.136" stroke="#00FFBB"/>
<path d="M-17 294.137L183.383 214.895" stroke="#00FFBB"/>
<path d="M-4 68.5L181.883 216.242" stroke="#00FFBB"/>
<path d="M177.617 214.398L363.5 362.14" stroke="#00FFBB"/>
<path d="M-4 362.141L181.883 214.399" stroke="#00FFBB"/>
<line x1="361.615" y1="436.319" x2="180.615" y2="218.319" stroke="#00FFBB"/>
<line x1="180.172" y1="218.427" x2="-2.61547" y2="436.322" stroke="#00FFBB"/>
<line x1="359" y1="216.5" x2="4.37114e-08" y2="216.5" stroke="#00FFBB"/>
<line x1="178.5" y1="436" x2="178.5" y2="-2.18557e-08" stroke="#00FFBB"/>
<line x1="56.5654" y1="433.753" x2="180.565" y2="215.753" stroke="#00FFBB"/>
<line x1="115.52" y1="433.86" x2="179.52" y2="213.86" stroke="#00FFBB"/>
<line y1="-0.5" x2="250.799" y2="-0.5" transform="matrix(-0.49442 -0.869223 -0.869223 0.49442 303 434)" stroke="#00FFBB"/>
<line y1="-0.5" x2="229.12" y2="-0.5" transform="matrix(-0.27933 -0.960195 -0.960195 0.27933 244 434)" stroke="#00FFBB"/>
<line y1="-0.5" x2="250.799" y2="-0.5" transform="matrix(0.49442 0.869223 0.869223 -0.49442 57 -3)" stroke="#00FFBB"/>
<line y1="-0.5" x2="229.12" y2="-0.5" transform="matrix(0.27933 0.960195 0.960195 -0.27933 116 -3)" stroke="#00FFBB"/>
<line x1="303.435" y1="-2.75279" x2="179.435" y2="215.247" stroke="#00FFBB"/>
<line x1="244.48" y1="-2.86034" x2="180.48" y2="217.14" stroke="#00FFBB"/>
<rect x="75.5" y="88.5" width="209" height="255" fill="#171717" stroke="#00FFBB"/>
<g clip-path="url(#clip0_1091_2295)">
<path d="M111 156.197C125.863 163.134 140.724 170.069 155.587 177.006C140.724 184.002 125.863 190.998 111 197.994V156.197Z" fill="#00B283"/>
<path d="M111 197.994L202.911 241.503V294L111 250.589V197.994Z" fill="#00B283"/>
<path d="M202.91 241.503C217.939 234.515 232.971 227.531 247.999 220.543V271.99L202.91 293.997V241.503Z" fill="#00805D"/>
<path d="M248.001 220.543C232.286 213.168 216.567 205.796 200.852 198.421C216.567 191.111 232.286 183.801 248.001 176.49V220.543Z" fill="#00805D"/>
<path d="M111 156.198C126.752 148.8 142.504 141.4 158.256 134C188.171 148.163 218.085 162.327 248 176.49C232.284 183.8 216.566 191.111 200.85 198.421C216.566 205.796 232.284 213.168 248 220.543C232.971 227.53 217.94 234.515 202.911 241.503C172.273 227 141.638 212.497 111 197.994C125.863 190.998 140.724 184.005 155.587 177.009C140.724 170.072 125.863 163.135 111 156.198Z" fill="#00FFBB"/>
</g>
<rect x="16.5" y="16.5" width="233" height="26" fill="#171717" stroke="#00FFBB"/>
<rect x="16.5" y="41.5" width="167" height="26" fill="#171717" stroke="#00FFBB"/>
<rect x="232.5" y="389.5" width="111" height="26" fill="#171717" stroke="#00FFBB"/>
<path d="M44.76 26.64C44.76 26.32 44.6867 25.9733 44.54 25.6C44.4067 25.2267 44.2 24.88 43.92 24.56C43.64 24.24 43.2867 23.9733 42.86 23.76C42.4467 23.5467 41.96 23.44 41.4 23.44H31.84C31.4267 23.44 31.0333 23.5 30.66 23.62C30.3 23.74 29.98 23.92 29.7 24.16C29.42 24.3867 29.2 24.6733 29.04 25.02C28.88 25.3533 28.8 25.7467 28.8 26.2C28.8 26.7867 29.0533 27.2333 29.56 27.54C30.0667 27.8333 30.8867 27.98 32.02 27.98H42.06C42.7 27.98 43.2933 28.04 43.84 28.16C44.3867 28.28 44.8667 28.48 45.28 28.76C45.6933 29.0267 46.0133 29.3867 46.24 29.84C46.48 30.2933 46.6 30.8533 46.6 31.52C46.6 32.1333 46.48 32.7133 46.24 33.26C46.0133 33.8067 45.6933 34.2867 45.28 34.7C44.88 35.1 44.4067 35.42 43.86 35.66C43.3267 35.8867 42.7467 36 42.12 36H31.66C30.9667 36 30.3333 35.8533 29.76 35.56C29.2 35.2533 28.7133 34.86 28.3 34.38C27.8867 33.9 27.5667 33.36 27.34 32.76C27.1133 32.16 27 31.56 27 30.96H28.84C28.84 31.2533 28.9 31.5867 29.02 31.96C29.14 32.3333 29.3333 32.6867 29.6 33.02C29.8667 33.34 30.2133 33.6133 30.64 33.84C31.08 34.0533 31.6133 34.16 32.24 34.16H41.7C42.18 34.16 42.6067 34.08 42.98 33.92C43.3667 33.76 43.6933 33.5533 43.96 33.3C44.2267 33.0333 44.4267 32.74 44.56 32.42C44.7067 32.0867 44.78 31.7533 44.78 31.42C44.78 31.0467 44.7133 30.7467 44.58 30.52C44.46 30.2933 44.2667 30.12 44 30C43.7467 29.88 43.4267 29.8 43.04 29.76C42.6533 29.72 42.2067 29.7 41.7 29.7H31.86C31.2467 29.7 30.6467 29.64 30.06 29.52C29.4733 29.4 28.9533 29.2 28.5 28.92C28.0467 28.6267 27.68 28.2533 27.4 27.8C27.1333 27.3333 27 26.76 27 26.08C27 25.4533 27.1133 24.8733 27.34 24.34C27.58 23.7933 27.9 23.32 28.3 22.92C28.7133 22.5067 29.1933 22.1867 29.74 21.96C30.2867 21.72 30.8667 21.6 31.48 21.6H41.94C42.6333 21.6 43.2667 21.7533 43.84 22.06C44.4133 22.3533 44.9 22.74 45.3 23.22C45.7133 23.7 46.0333 24.24 46.26 24.84C46.4867 25.44 46.6 26.04 46.6 26.64H44.76ZM49.8063 21.6H51.6463V36H49.8063V21.6ZM69.5464 36H55.0664V21.6H69.5464C70.1731 21.6 70.7531 21.72 71.2864 21.96C71.8331 22.1867 72.3064 22.5067 72.7064 22.92C73.1197 23.32 73.4397 23.7933 73.6664 24.34C73.9064 24.8733 74.0264 25.4533 74.0264 26.08V31.52C74.0264 32.1333 73.9064 32.7133 73.6664 33.26C73.4397 33.8067 73.1197 34.2867 72.7064 34.7C72.3064 35.1 71.8331 35.42 71.2864 35.66C70.7531 35.8867 70.1731 36 69.5464 36ZM72.1864 30.86V26.84C72.1864 26.3333 72.0997 25.8733 71.9264 25.46C71.7664 25.0467 71.5331 24.6933 71.2264 24.4C70.9331 24.0933 70.5797 23.86 70.1664 23.7C69.7664 23.5267 69.3331 23.44 68.8664 23.44H56.9064V34.16H68.8264C69.2931 34.16 69.7264 34.08 70.1264 33.92C70.5397 33.76 70.8997 33.5333 71.2064 33.24C71.5131 32.9467 71.7531 32.6 71.9264 32.2C72.0997 31.8 72.1864 31.3533 72.1864 30.86ZM76.0234 21.6H94.1234V23.44H77.8634V27.88H93.6434V29.72H77.8634V34.16H94.1234V36H76.0234V21.6ZM110.406 33.1H97.7658V36H95.9258V21.6H110.406C111.032 21.6 111.612 21.72 112.146 21.96C112.692 22.1867 113.166 22.5067 113.566 22.92C113.979 23.32 114.299 23.7933 114.526 24.34C114.766 24.8733 114.886 25.4533 114.886 26.08V28.62C114.886 29.2333 114.766 29.8133 114.526 30.36C114.299 30.9067 113.979 31.3867 113.566 31.8C113.166 32.2 112.692 32.52 112.146 32.76C111.612 32.9867 111.032 33.1 110.406 33.1ZM113.046 28.04V26.68C113.046 26.2667 112.986 25.8667 112.866 25.48C112.746 25.08 112.546 24.7333 112.266 24.44C111.999 24.1333 111.646 23.8933 111.206 23.72C110.766 23.5333 110.226 23.44 109.586 23.44H97.7658V31.26H109.586C110.212 31.26 110.746 31.1733 111.186 31C111.626 30.8267 111.979 30.5933 112.246 30.3C112.526 29.9933 112.726 29.6467 112.846 29.26C112.979 28.8733 113.046 28.4667 113.046 28.04ZM135.408 36H133.128L130.268 31.84H118.528V36H116.688V21.6H131.168C131.794 21.6 132.374 21.7133 132.908 21.94C133.454 22.1667 133.928 22.4667 134.328 22.84C134.741 23.2133 135.061 23.6467 135.288 24.14C135.528 24.62 135.648 25.1133 135.648 25.62V27.72C135.648 28.1467 135.554 28.58 135.368 29.02C135.194 29.46 134.954 29.8667 134.648 30.24C134.354 30.6133 134.008 30.9333 133.608 31.2C133.221 31.4533 132.821 31.62 132.408 31.7L135.408 36ZM133.808 27.24V26.1C133.808 25.74 133.728 25.4 133.568 25.08C133.408 24.76 133.188 24.48 132.908 24.24C132.628 23.9867 132.294 23.7933 131.908 23.66C131.534 23.5133 131.121 23.44 130.668 23.44H118.528V30H130.668C131.241 30 131.728 29.9133 132.128 29.74C132.528 29.5667 132.848 29.3467 133.088 29.08C133.341 28.8133 133.521 28.52 133.628 28.2C133.748 27.8667 133.808 27.5467 133.808 27.24ZM151.539 36H141.499C140.886 36 140.306 35.8867 139.759 35.66C139.226 35.42 138.752 35.1 138.339 34.7C137.939 34.2867 137.619 33.8133 137.379 33.28C137.152 32.7333 137.039 32.1533 137.039 31.54V26.06C137.039 25.4467 137.152 24.8733 137.379 24.34C137.619 23.7933 137.939 23.32 138.339 22.92C138.752 22.5067 139.226 22.1867 139.759 21.96C140.306 21.72 140.886 21.6 141.499 21.6H151.539C152.152 21.6 152.726 21.72 153.259 21.96C153.806 22.1867 154.279 22.5067 154.679 22.92C155.092 23.32 155.412 23.7933 155.639 24.34C155.879 24.8733 155.999 25.4467 155.999 26.06V31.54C155.999 32.1533 155.879 32.7333 155.639 33.28C155.412 33.8133 155.092 34.2867 154.679 34.7C154.279 35.1 153.806 35.42 153.259 35.66C152.726 35.8867 152.152 36 151.539 36ZM154.159 30.8V26.82C154.159 26.38 154.079 25.96 153.919 25.56C153.772 25.1467 153.552 24.7867 153.259 24.48C152.979 24.16 152.639 23.9067 152.239 23.72C151.839 23.5333 151.392 23.44 150.899 23.44H142.339C141.846 23.44 141.386 23.5267 140.959 23.7C140.532 23.86 140.166 24.0867 139.859 24.38C139.552 24.6733 139.312 25.0267 139.139 25.44C138.966 25.84 138.879 26.2867 138.879 26.78V30.86C138.879 31.3 138.959 31.72 139.119 32.12C139.279 32.52 139.499 32.8733 139.779 33.18C140.072 33.4733 140.426 33.7133 140.839 33.9C141.252 34.0733 141.712 34.16 142.219 34.16H150.759C151.279 34.16 151.746 34.0733 152.159 33.9C152.586 33.7133 152.946 33.4667 153.239 33.16C153.532 32.8533 153.759 32.5 153.919 32.1C154.079 31.6867 154.159 31.2533 154.159 30.8ZM164.485 21.6L177.185 21.64L177.205 31.52C177.205 32.1333 177.085 32.7133 176.845 33.26C176.619 33.8067 176.299 34.2867 175.885 34.7C175.485 35.1 175.012 35.42 174.465 35.66C173.932 35.8867 173.352 36 172.725 36H162.265C161.572 36 160.939 35.8467 160.365 35.54C159.805 35.22 159.319 34.8 158.905 34.28C158.492 33.7467 158.172 33.1467 157.945 32.48C157.719 31.8 157.605 31.1 157.605 30.38V30.02H159.445C159.445 30.5267 159.512 31.0267 159.645 31.52C159.792 32.0133 160.005 32.46 160.285 32.86C160.565 33.2467 160.919 33.56 161.345 33.8C161.772 34.04 162.272 34.16 162.845 34.16H172.025C172.559 34.16 173.032 34.0667 173.445 33.88C173.859 33.6933 174.205 33.44 174.485 33.12C174.779 32.8 174.999 32.4267 175.145 32C175.292 31.56 175.365 31.1 175.365 30.62V23.46H164.485V21.6ZM179.012 21.6H197.112V23.44H180.852V27.88H196.632V29.72H180.852V34.16H197.112V36H179.012V21.6ZM216.479 27.04C216.479 26.56 216.392 26.1 216.219 25.66C216.059 25.22 215.832 24.84 215.539 24.52C215.245 24.1867 214.892 23.9267 214.479 23.74C214.065 23.54 213.612 23.44 213.119 23.44H203.979C203.499 23.44 203.052 23.52 202.639 23.68C202.225 23.84 201.859 24.0733 201.539 24.38C201.232 24.6733 200.992 25.0333 200.819 25.46C200.645 25.8867 200.559 26.3733 200.559 26.92V30.84C200.559 31.3467 200.645 31.8067 200.819 32.22C201.005 32.62 201.252 32.9667 201.559 33.26C201.865 33.5533 202.225 33.78 202.639 33.94C203.065 34.0867 203.525 34.16 204.019 34.16H213.139C213.512 34.16 213.892 34.08 214.279 33.92C214.679 33.7467 215.039 33.5 215.359 33.18C215.692 32.86 215.959 32.4733 216.159 32.02C216.372 31.5533 216.479 31.0333 216.479 30.46H218.319V30.86C218.319 31.4867 218.205 32.1067 217.979 32.72C217.752 33.3333 217.432 33.8867 217.019 34.38C216.619 34.86 216.132 35.2533 215.559 35.56C214.985 35.8533 214.352 36 213.659 36H203.199C202.585 36 202.005 35.8867 201.459 35.66C200.912 35.42 200.432 35.1 200.019 34.7C199.619 34.2867 199.299 33.8067 199.059 33.26C198.832 32.7133 198.719 32.1333 198.719 31.52V26.08C198.719 25.4533 198.832 24.8733 199.059 24.34C199.299 23.7933 199.619 23.32 200.019 22.92C200.432 22.5067 200.912 22.1867 201.459 21.96C202.005 21.72 202.585 21.6 203.199 21.6H213.659C214.352 21.6 214.985 21.7533 215.559 22.06C216.132 22.3533 216.619 22.74 217.019 23.22C217.432 23.7 217.752 24.24 217.979 24.84C218.205 25.44 218.319 26.04 218.319 26.64V27.04H216.479ZM238.915 21.6V23.44H230.195V36H228.355V23.44H219.715V21.6H238.915Z" fill="#00FFBB"/>
<path d="M41.48 58.1H28.84V61H27V46.6H41.48C42.1067 46.6 42.6867 46.72 43.22 46.96C43.7667 47.1867 44.24 47.5067 44.64 47.92C45.0533 48.32 45.3733 48.7933 45.6 49.34C45.84 49.8733 45.96 50.4533 45.96 51.08V53.62C45.96 54.2333 45.84 54.8133 45.6 55.36C45.3733 55.9067 45.0533 56.3867 44.64 56.8C44.24 57.2 43.7667 57.52 43.22 57.76C42.6867 57.9867 42.1067 58.1 41.48 58.1ZM44.12 53.04V51.68C44.12 51.2667 44.06 50.8667 43.94 50.48C43.82 50.08 43.62 49.7333 43.34 49.44C43.0733 49.1333 42.72 48.8933 42.28 48.72C41.84 48.5333 41.3 48.44 40.66 48.44H28.84V56.26H40.66C41.2867 56.26 41.82 56.1733 42.26 56C42.7 55.8267 43.0533 55.5933 43.32 55.3C43.6 54.9933 43.8 54.6467 43.92 54.26C44.0533 53.8733 44.12 53.4667 44.12 53.04ZM48.7817 61V45H50.6217V61H48.7817ZM75.1211 61H72.9811L70.5611 57.58H57.7411L55.3011 61H53.1811L62.9811 46.6H65.3011L75.1211 61ZM64.0411 48.44L58.8611 55.74H69.4611L64.2411 48.44H64.0411ZM90.7703 46.6V48.44H82.0503V61H80.2103V48.44H71.5703V46.6H90.7703ZM92.5664 46.6H110.186V48.44H94.4064V52.88H109.706V54.72H94.4064V61H92.5664V46.6ZM125.895 61H115.855C115.241 61 114.661 60.8867 114.115 60.66C113.581 60.42 113.108 60.1 112.695 59.7C112.295 59.2867 111.975 58.8133 111.735 58.28C111.508 57.7333 111.395 57.1533 111.395 56.54V51.06C111.395 50.4467 111.508 49.8733 111.735 49.34C111.975 48.7933 112.295 48.32 112.695 47.92C113.108 47.5067 113.581 47.1867 114.115 46.96C114.661 46.72 115.241 46.6 115.855 46.6H125.895C126.508 46.6 127.081 46.72 127.615 46.96C128.161 47.1867 128.635 47.5067 129.035 47.92C129.448 48.32 129.768 48.7933 129.995 49.34C130.235 49.8733 130.355 50.4467 130.355 51.06V56.54C130.355 57.1533 130.235 57.7333 129.995 58.28C129.768 58.8133 129.448 59.2867 129.035 59.7C128.635 60.1 128.161 60.42 127.615 60.66C127.081 60.8867 126.508 61 125.895 61ZM128.515 55.8V51.82C128.515 51.38 128.435 50.96 128.275 50.56C128.128 50.1467 127.908 49.7867 127.615 49.48C127.335 49.16 126.995 48.9067 126.595 48.72C126.195 48.5333 125.748 48.44 125.255 48.44H116.695C116.201 48.44 115.741 48.5267 115.315 48.7C114.888 48.86 114.521 49.0867 114.215 49.38C113.908 49.6733 113.668 50.0267 113.495 50.44C113.321 50.84 113.235 51.2867 113.235 51.78V55.86C113.235 56.3 113.315 56.72 113.475 57.12C113.635 57.52 113.855 57.8733 114.135 58.18C114.428 58.4733 114.781 58.7133 115.195 58.9C115.608 59.0733 116.068 59.16 116.575 59.16H125.115C125.635 59.16 126.101 59.0733 126.515 58.9C126.941 58.7133 127.301 58.4667 127.595 58.16C127.888 57.8533 128.115 57.5 128.275 57.1C128.435 56.6867 128.515 56.2533 128.515 55.8ZM150.876 61H148.596L145.736 56.84H133.996V61H132.156V46.6H146.636C147.263 46.6 147.843 46.7133 148.376 46.94C148.923 47.1667 149.396 47.4667 149.796 47.84C150.21 48.2133 150.53 48.6467 150.756 49.14C150.996 49.62 151.116 50.1133 151.116 50.62V52.72C151.116 53.1467 151.023 53.58 150.836 54.02C150.663 54.46 150.423 54.8667 150.116 55.24C149.823 55.6133 149.476 55.9333 149.076 56.2C148.69 56.4533 148.29 56.62 147.876 56.7L150.876 61ZM149.276 52.24V51.1C149.276 50.74 149.196 50.4 149.036 50.08C148.876 49.76 148.656 49.48 148.376 49.24C148.096 48.9867 147.763 48.7933 147.376 48.66C147.003 48.5133 146.59 48.44 146.136 48.44H133.996V55H146.136C146.71 55 147.196 54.9133 147.596 54.74C147.996 54.5667 148.316 54.3467 148.556 54.08C148.81 53.8133 148.99 53.52 149.096 53.2C149.216 52.8667 149.276 52.5467 149.276 52.24ZM173.638 46.6V61H171.798V49.28L163.558 61H163.338L155.098 49.3V61H153.258V46.6H155.518L163.458 57.88L171.398 46.6H173.638Z" fill="#00FFBB"/>
<path d="M263.72 394.6V409H261.88V397.28L253.64 409H253.42L245.18 397.3V409H243.34V394.6H245.6L253.54 405.88L261.48 394.6H263.72ZM280.234 409H270.194C269.581 409 269.001 408.887 268.454 408.66C267.921 408.42 267.448 408.1 267.034 407.7C266.634 407.287 266.314 406.813 266.074 406.28C265.848 405.733 265.734 405.153 265.734 404.54V399.06C265.734 398.447 265.848 397.873 266.074 397.34C266.314 396.793 266.634 396.32 267.034 395.92C267.448 395.507 267.921 395.187 268.454 394.96C269.001 394.72 269.581 394.6 270.194 394.6H280.234C280.848 394.6 281.421 394.72 281.954 394.96C282.501 395.187 282.974 395.507 283.374 395.92C283.788 396.32 284.108 396.793 284.334 397.34C284.574 397.873 284.694 398.447 284.694 399.06V404.54C284.694 405.153 284.574 405.733 284.334 406.28C284.108 406.813 283.788 407.287 283.374 407.7C282.974 408.1 282.501 408.42 281.954 408.66C281.421 408.887 280.848 409 280.234 409ZM282.854 403.8V399.82C282.854 399.38 282.774 398.96 282.614 398.56C282.468 398.147 282.248 397.787 281.954 397.48C281.674 397.16 281.334 396.907 280.934 396.72C280.534 396.533 280.088 396.44 279.594 396.44H271.034C270.541 396.44 270.081 396.527 269.654 396.7C269.228 396.86 268.861 397.087 268.554 397.38C268.248 397.673 268.008 398.027 267.834 398.44C267.661 398.84 267.574 399.287 267.574 399.78V403.86C267.574 404.3 267.654 404.72 267.814 405.12C267.974 405.52 268.194 405.873 268.474 406.18C268.768 406.473 269.121 406.713 269.534 406.9C269.948 407.073 270.408 407.16 270.914 407.16H279.454C279.974 407.16 280.441 407.073 280.854 406.9C281.281 406.713 281.641 406.467 281.934 406.16C282.228 405.853 282.454 405.5 282.614 405.1C282.774 404.687 282.854 404.253 282.854 403.8ZM286.086 394.6H305.346V396.42L289.566 407.16H305.346V409H286.086V407.18L301.866 396.44H286.086V394.6ZM308.56 394.6H310.4V409H308.56V394.6ZM328.3 406.1H315.66V409H313.82V394.6H328.3C328.927 394.6 329.507 394.72 330.04 394.96C330.587 395.187 331.06 395.507 331.46 395.92C331.874 396.32 332.194 396.793 332.42 397.34C332.66 397.873 332.78 398.453 332.78 399.08V401.62C332.78 402.233 332.66 402.813 332.42 403.36C332.194 403.907 331.874 404.387 331.46 404.8C331.06 405.2 330.587 405.52 330.04 405.76C329.507 405.987 328.927 406.1 328.3 406.1ZM330.94 401.04V399.68C330.94 399.267 330.88 398.867 330.76 398.48C330.64 398.08 330.44 397.733 330.16 397.44C329.894 397.133 329.54 396.893 329.1 396.72C328.66 396.533 328.12 396.44 327.48 396.44H315.66V404.26H327.48C328.107 404.26 328.64 404.173 329.08 404C329.52 403.827 329.874 403.593 330.14 403.3C330.42 402.993 330.62 402.647 330.74 402.26C330.874 401.873 330.94 401.467 330.94 401.04Z" fill="#00FFBB"/>
</g>
<defs>
<clipPath id="clip0_1091_2295">
<rect width="137" height="160" fill="white" transform="translate(111 134)"/>
</clipPath>
</defs>
</svg>
