<svg width="267" height="180" viewBox="0 0 267 180" fill="none" xmlns="http://www.w3.org/2000/svg">
<rect x="81" width="15" height="15" fill="#00FFBB"/>
<rect x="171" width="15" height="15" fill="#00FFBB"/>
<rect x="96" y="15" width="15" height="15" fill="#00FFBB"/>
<rect x="96" y="30" width="15" height="15" fill="#00FFBB"/>
<rect x="96" y="60" width="15" height="15" fill="#00FFBB"/>
<rect x="96" y="75" width="15" height="15" fill="#00FFBB"/>
<rect x="96" y="105" width="15" height="15" fill="#00FFBB"/>
<rect x="81" y="30" width="15" height="15" fill="#00FFBB"/>
<rect x="81" y="45" width="15" height="15" fill="#00FFBB"/>
<rect x="81" y="60" width="15" height="15" fill="#00FFBB"/>
<rect x="51" y="60" width="15" height="15" fill="#00FFBB"/>
<rect x="201" y="60" width="15" height="15" fill="#00FFBB"/>
<rect x="81" y="75" width="15" height="15" fill="#00FFBB"/>
<rect x="51" y="75" width="15" height="15" fill="#00FFBB"/>
<rect x="201" y="75" width="15" height="15" fill="#00FFBB"/>
<rect x="81" y="90" width="15" height="15" fill="#00FFBB"/>
<rect x="51" y="90" width="15" height="15" fill="#00FFBB"/>
<rect x="201" y="90" width="15" height="15" fill="#00FFBB"/>
<rect x="66" y="45" width="15" height="15" fill="#00FFBB"/>
<rect x="66" y="60" width="15" height="15" fill="#00FFBB"/>
<rect x="111" y="30" width="15" height="15" fill="#00FFBB"/>
<rect x="111" y="45" width="15" height="15" fill="#00FFBB"/>
<rect x="111" y="60" width="15" height="15" fill="#00FFBB"/>
<rect x="111" y="75" width="15" height="15" fill="#00FFBB"/>
<rect x="111" y="105" width="15" height="15" fill="#00FFBB"/>
<rect x="141" y="30" width="15" height="15" fill="#00FFBB"/>
<rect x="141" y="45" width="15" height="15" fill="#00FFBB"/>
<rect x="141" y="60" width="15" height="15" fill="#00FFBB"/>
<rect x="141" y="75" width="15" height="15" fill="#00FFBB"/>
<rect x="141" y="105" width="15" height="15" fill="#00FFBB"/>
<rect x="156" y="30" width="15" height="15" fill="#00FFBB"/>
<rect x="156" y="60" width="15" height="15" fill="#00FFBB"/>
<rect x="156" y="75" width="15" height="15" fill="#00FFBB"/>
<rect x="156" y="105" width="15" height="15" fill="#00FFBB"/>
<rect x="156" y="15" width="15" height="15" fill="#00FFBB"/>
<rect x="126" y="30" width="15" height="15" fill="#00FFBB"/>
<rect x="126" y="45" width="15" height="15" fill="#00FFBB"/>
<rect x="126" y="60" width="15" height="15" fill="#00FFBB"/>
<rect x="126" y="75" width="15" height="15" fill="#00FFBB"/>
<rect x="171" y="30" width="15" height="15" fill="#00FFBB"/>
<rect x="171" y="45" width="15" height="15" fill="#00FFBB"/>
<rect x="171" y="60" width="15" height="15" fill="#00FFBB"/>
<rect x="171" y="75" width="15" height="15" fill="#00FFBB"/>
<rect x="171" y="90" width="15" height="15" fill="#00FFBB"/>
<rect x="186" y="45" width="15" height="15" fill="#00FFBB"/>
<rect x="186" y="60" width="15" height="15" fill="#00FFBB"/>
<path d="M19.35 167.375H5.375V171H1.25V153H19.35C20.1333 153 20.8583 153.15 21.525 153.45C22.2083 153.733 22.8 154.133 23.3 154.65C23.8167 155.15 24.2167 155.742 24.5 156.425C24.8 157.092 24.95 157.817 24.95 158.6V161.775C24.95 162.542 24.8 163.267 24.5 163.95C24.2167 164.633 23.8167 165.233 23.3 165.75C22.8 166.25 22.2083 166.65 21.525 166.95C20.8583 167.233 20.1333 167.375 19.35 167.375ZM20.825 160.575V159.85C20.825 159.433 20.7667 159.058 20.65 158.725C20.55 158.392 20.375 158.108 20.125 157.875C19.8917 157.625 19.5833 157.442 19.2 157.325C18.8333 157.192 18.375 157.125 17.825 157.125H5.375V163.25H17.825C18.3583 163.25 18.8167 163.192 19.2 163.075C19.5833 162.958 19.8917 162.792 20.125 162.575C20.375 162.342 20.55 162.058 20.65 161.725C20.7667 161.392 20.825 161.008 20.825 160.575ZM50.6021 171H45.5771L42.0021 165.8H31.3271V171H27.2021V153H45.3021C46.0855 153 46.8105 153.142 47.4771 153.425C48.1605 153.708 48.7521 154.083 49.2521 154.55C49.7688 155.017 50.1688 155.558 50.4521 156.175C50.7521 156.775 50.9021 157.392 50.9021 158.025V160.65C50.9021 161.183 50.7855 161.725 50.5521 162.275C50.3355 162.825 50.0355 163.333 49.6522 163.8C49.2855 164.267 48.8521 164.667 48.3521 165C47.8688 165.317 47.3688 165.525 46.8521 165.625L50.6021 171ZM46.7772 159.65V159.05C46.7772 158.783 46.7188 158.533 46.6021 158.3C46.5021 158.067 46.3438 157.867 46.1271 157.7C45.9271 157.517 45.6771 157.375 45.3771 157.275C45.0938 157.175 44.7688 157.125 44.4021 157.125H31.3271V161.675H44.4021C44.8188 161.675 45.1771 161.617 45.4771 161.5C45.7771 161.383 46.0188 161.233 46.2021 161.05C46.4021 160.85 46.5438 160.633 46.6271 160.4C46.7271 160.15 46.7772 159.9 46.7772 159.65ZM53.1543 171H75.7793V166.875H57.2793V164.05H75.1793V159.95H57.2793V157.125H75.7793V153H53.1543V171ZM102.288 159.3C102.288 158.55 102.146 157.8 101.863 157.05C101.58 156.3 101.18 155.625 100.663 155.025C100.163 154.425 99.5548 153.942 98.8381 153.575C98.1214 153.192 97.3298 153 96.4631 153H83.3881C82.6214 153 81.8964 153.15 81.2131 153.45C80.5298 153.733 79.9298 154.133 79.4131 154.65C78.9131 155.15 78.5131 155.742 78.2131 156.425C77.9298 157.092 77.7881 157.817 77.7881 158.6C77.7881 159.45 77.9464 160.208 78.2631 160.875C78.5798 161.525 78.9964 162.083 79.5131 162.55C80.0464 163 80.6631 163.35 81.3631 163.6C82.0798 163.833 82.8214 163.95 83.5881 163.95H95.9131C96.2631 163.95 96.5798 163.967 96.8631 164C97.1631 164.017 97.4131 164.075 97.6131 164.175C97.8131 164.275 97.9631 164.4 98.0631 164.55C98.1798 164.7 98.2381 164.908 98.2381 165.175C98.2381 165.408 98.1714 165.633 98.0381 165.85C97.9214 166.067 97.7548 166.25 97.5381 166.4C97.3381 166.533 97.0964 166.65 96.8131 166.75C96.5298 166.833 96.2298 166.875 95.9131 166.875H84.7381C84.2381 166.875 83.8048 166.817 83.4381 166.7C83.0881 166.567 82.7964 166.392 82.5631 166.175C82.3298 165.958 82.1631 165.725 82.0631 165.475C81.9631 165.208 81.9131 164.95 81.9131 164.7H77.7881C77.7881 165.45 77.9298 166.2 78.2131 166.95C78.4964 167.7 78.8964 168.375 79.4131 168.975C79.9298 169.575 80.5381 170.067 81.2381 170.45C81.9548 170.817 82.7464 171 83.6131 171H96.6881C97.4714 171 98.1964 170.858 98.8631 170.575C99.5464 170.275 100.138 169.875 100.638 169.375C101.155 168.858 101.555 168.258 101.838 167.575C102.138 166.892 102.288 166.167 102.288 165.4C102.288 164.567 102.138 163.825 101.838 163.175C101.555 162.525 101.155 161.975 100.638 161.525C100.121 161.075 99.5214 160.742 98.8381 160.525C98.1548 160.292 97.4131 160.175 96.6131 160.175H84.0131C83.2964 160.175 82.7464 160.067 82.3631 159.85C81.9798 159.617 81.7881 159.292 81.7881 158.875C81.7881 158.592 81.8464 158.342 81.9631 158.125C82.0798 157.892 82.2298 157.708 82.4131 157.575C82.6131 157.425 82.8464 157.317 83.1131 157.25C83.3798 157.167 83.6548 157.125 83.9381 157.125H95.3631C95.8464 157.125 96.2631 157.192 96.6131 157.325C96.9631 157.442 97.2548 157.608 97.4881 157.825C97.7214 158.025 97.8881 158.258 97.9881 158.525C98.1048 158.775 98.1631 159.033 98.1631 159.3H102.288ZM128.533 159.3C128.533 158.55 128.392 157.8 128.108 157.05C127.825 156.3 127.425 155.625 126.908 155.025C126.408 154.425 125.8 153.942 125.083 153.575C124.367 153.192 123.575 153 122.708 153H109.633C108.867 153 108.142 153.15 107.458 153.45C106.775 153.733 106.175 154.133 105.658 154.65C105.158 155.15 104.758 155.742 104.458 156.425C104.175 157.092 104.033 157.817 104.033 158.6C104.033 159.45 104.192 160.208 104.508 160.875C104.825 161.525 105.242 162.083 105.758 162.55C106.292 163 106.908 163.35 107.608 163.6C108.325 163.833 109.067 163.95 109.833 163.95H122.158C122.508 163.95 122.825 163.967 123.108 164C123.408 164.017 123.658 164.075 123.858 164.175C124.058 164.275 124.208 164.4 124.308 164.55C124.425 164.7 124.483 164.908 124.483 165.175C124.483 165.408 124.417 165.633 124.283 165.85C124.167 166.067 124 166.25 123.783 166.4C123.583 166.533 123.342 166.65 123.058 166.75C122.775 166.833 122.475 166.875 122.158 166.875H110.983C110.483 166.875 110.05 166.817 109.683 166.7C109.333 166.567 109.042 166.392 108.808 166.175C108.575 165.958 108.408 165.725 108.308 165.475C108.208 165.208 108.158 164.95 108.158 164.7H104.033C104.033 165.45 104.175 166.2 104.458 166.95C104.742 167.7 105.142 168.375 105.658 168.975C106.175 169.575 106.783 170.067 107.483 170.45C108.2 170.817 108.992 171 109.858 171H122.933C123.717 171 124.442 170.858 125.108 170.575C125.792 170.275 126.383 169.875 126.883 169.375C127.4 168.858 127.8 168.258 128.083 167.575C128.383 166.892 128.533 166.167 128.533 165.4C128.533 164.567 128.383 163.825 128.083 163.175C127.8 162.525 127.4 161.975 126.883 161.525C126.367 161.075 125.767 160.742 125.083 160.525C124.4 160.292 123.658 160.175 122.858 160.175H110.258C109.542 160.175 108.992 160.067 108.608 159.85C108.225 159.617 108.033 159.292 108.033 158.875C108.033 158.592 108.092 158.342 108.208 158.125C108.325 157.892 108.475 157.708 108.658 157.575C108.858 157.425 109.092 157.317 109.358 157.25C109.625 157.167 109.9 157.125 110.183 157.125H121.608C122.092 157.125 122.508 157.192 122.858 157.325C123.208 157.442 123.5 157.608 123.733 157.825C123.967 158.025 124.133 158.258 124.233 158.525C124.35 158.775 124.408 159.033 124.408 159.3H128.533ZM165.276 159.3C165.276 158.55 165.135 157.8 164.851 157.05C164.568 156.3 164.168 155.625 163.651 155.025C163.151 154.425 162.543 153.942 161.826 153.575C161.11 153.192 160.318 153 159.451 153H146.376C145.61 153 144.885 153.15 144.201 153.45C143.518 153.733 142.918 154.133 142.401 154.65C141.901 155.15 141.501 155.742 141.201 156.425C140.918 157.092 140.776 157.817 140.776 158.6C140.776 159.45 140.935 160.208 141.251 160.875C141.568 161.525 141.985 162.083 142.501 162.55C143.035 163 143.651 163.35 144.351 163.6C145.068 163.833 145.81 163.95 146.576 163.95H158.901C159.251 163.95 159.568 163.967 159.851 164C160.151 164.017 160.401 164.075 160.601 164.175C160.801 164.275 160.951 164.4 161.051 164.55C161.168 164.7 161.226 164.908 161.226 165.175C161.226 165.408 161.16 165.633 161.026 165.85C160.91 166.067 160.743 166.25 160.526 166.4C160.326 166.533 160.085 166.65 159.801 166.75C159.518 166.833 159.218 166.875 158.901 166.875H147.726C147.226 166.875 146.793 166.817 146.426 166.7C146.076 166.567 145.785 166.392 145.551 166.175C145.318 165.958 145.151 165.725 145.051 165.475C144.951 165.208 144.901 164.95 144.901 164.7H140.776C140.776 165.45 140.918 166.2 141.201 166.95C141.485 167.7 141.885 168.375 142.401 168.975C142.918 169.575 143.526 170.067 144.226 170.45C144.943 170.817 145.735 171 146.601 171H159.676C160.46 171 161.185 170.858 161.851 170.575C162.535 170.275 163.126 169.875 163.626 169.375C164.143 168.858 164.543 168.258 164.826 167.575C165.126 166.892 165.276 166.167 165.276 165.4C165.276 164.567 165.126 163.825 164.826 163.175C164.543 162.525 164.143 161.975 163.626 161.525C163.11 161.075 162.51 160.742 161.826 160.525C161.143 160.292 160.401 160.175 159.601 160.175H147.001C146.285 160.175 145.735 160.067 145.351 159.85C144.968 159.617 144.776 159.292 144.776 158.875C144.776 158.592 144.835 158.342 144.951 158.125C145.068 157.892 145.218 157.708 145.401 157.575C145.601 157.425 145.835 157.317 146.101 157.25C146.368 157.167 146.643 157.125 146.926 157.125H158.351C158.835 157.125 159.251 157.192 159.601 157.325C159.951 157.442 160.243 157.608 160.476 157.825C160.71 158.025 160.876 158.258 160.976 158.525C161.093 158.775 161.151 159.033 161.151 159.3H165.276ZM190.533 153V157.125H180.533V171H176.408V157.125H166.533V153H190.533ZM214.164 171H209.414L207.239 167.625H193.614L191.489 171H186.739L197.789 153H203.089L214.164 171ZM200.189 157.125L196.039 163.5H204.889L200.714 157.125H200.189ZM238.932 171H233.907L230.332 165.8H219.657V171H215.532V153H233.632C234.416 153 235.141 153.142 235.807 153.425C236.491 153.708 237.082 154.083 237.582 154.55C238.099 155.017 238.499 155.558 238.782 156.175C239.082 156.775 239.232 157.392 239.232 158.025V160.65C239.232 161.183 239.116 161.725 238.882 162.275C238.666 162.825 238.366 163.333 237.982 163.8C237.616 164.267 237.182 164.667 236.682 165C236.199 165.317 235.699 165.525 235.182 165.625L238.932 171ZM235.107 159.65V159.05C235.107 158.783 235.049 158.533 234.932 158.3C234.832 158.067 234.674 157.867 234.457 157.7C234.257 157.517 234.007 157.375 233.707 157.275C233.424 157.175 233.099 157.125 232.732 157.125H219.657V161.675H232.732C233.149 161.675 233.507 161.617 233.807 161.5C234.107 161.383 234.349 161.233 234.532 161.05C234.732 160.85 234.874 160.633 234.957 160.4C235.057 160.15 235.107 159.9 235.107 159.65ZM264.972 153V157.125H254.972V171H250.847V157.125H240.972V153H264.972Z" fill="#00FFBB"/>
</svg>
