<svg width="360" height="230" viewBox="0 0 360 230" fill="none" xmlns="http://www.w3.org/2000/svg">
<rect width="360" height="230" fill="#171717"/>
<path d="M27.84 49.806C27.84 46.376 30.612 43.59 34.042 43.59C37.472 43.59 40.258 46.376 40.258 49.806C40.258 53.222 37.472 56.008 34.042 56.008C30.612 56.008 27.84 53.222 27.84 49.806ZM28.694 49.806C28.694 52.732 31.116 55.154 34.042 55.154C36.982 55.154 39.39 52.732 39.39 49.806C39.39 46.866 36.982 44.458 34.042 44.458C31.116 44.458 28.694 46.866 28.694 49.806ZM32.39 47.23L33.902 46.208H34.714V53.502H33.818V47.342L32.908 47.944L32.39 47.23ZM50.5049 48.182H52.5769V44.052H53.5569V55.392H52.5769V49.064H50.5049V48.182ZM45.5489 52.578C47.2149 51.598 48.2649 49.4 48.2649 47.3V44.948H49.2729V47.272C49.2729 49.218 50.2389 51.318 51.8489 52.284L51.2329 53.096C50.0569 52.396 49.2169 51.066 48.7829 49.582C48.3349 51.206 47.4249 52.62 46.2069 53.362L45.5489 52.578ZM55.0689 56.022V43.772H56.0769V56.022H55.0689ZM66.8992 43.758H67.9492V56.036H66.8992V43.758ZM58.6112 45.788V44.934H64.2532V49.26H59.6892V52.186C61.7192 52.186 63.5252 52.102 65.7092 51.752L65.8212 52.606C63.5812 52.984 61.7332 53.054 59.6472 53.054H58.6392V48.392H63.2032V45.788H58.6112ZM70.1616 53.544H81.2636V54.426H70.1616V53.544ZM71.1556 45.872V45.004H80.2136V45.872H78.2816V50.184H80.1996V51.052H71.1836V50.184H73.0736V45.872H71.1556ZM74.1376 50.184H77.2456V45.872H74.1376V50.184ZM83.9099 44.22H84.9459V47.496H92.2119V48.35H83.9099V44.22ZM82.3979 50.898V50.03H93.4999V50.898H82.3979ZM83.8399 55.728V52.144H84.8759V54.86H92.2819V55.728H83.8399ZM98.3228 44.906H101.361V43.688H102.425V44.906H105.463V45.704H98.3228V44.906ZM97.9168 50.73C98.9388 50.73 100.129 50.73 101.361 50.688V49.806C99.9188 49.68 99.0088 49.008 99.0088 48.014C99.0088 46.894 100.157 46.194 101.907 46.194C103.643 46.194 104.805 46.894 104.805 48.014C104.805 49.022 103.867 49.68 102.425 49.806V50.646C103.559 50.576 104.721 50.492 105.785 50.338L105.855 51.08C103.195 51.528 100.255 51.57 98.0568 51.57L97.9168 50.73ZM99.6668 53.39V52.55H107.843V56.022H106.793V53.39H99.6668ZM100.003 48.014C100.003 48.658 100.759 49.092 101.907 49.092C103.055 49.092 103.797 48.658 103.797 48.014C103.797 47.342 103.055 46.936 101.907 46.936C100.759 46.936 100.003 47.342 100.003 48.014ZM106.793 51.976V43.786H107.843V51.976H106.793ZM114.059 44.668C115.963 44.668 117.321 45.844 117.321 47.538C117.321 49.246 115.963 50.408 114.059 50.408C112.141 50.408 110.783 49.246 110.783 47.538C110.783 45.844 112.141 44.668 114.059 44.668ZM110.153 52.438C112.393 52.438 115.501 52.438 118.175 52.018L118.259 52.788C115.501 53.32 112.491 53.334 110.293 53.334L110.153 52.438ZM111.805 47.538C111.805 48.686 112.757 49.498 114.059 49.498C115.347 49.498 116.299 48.686 116.299 47.538C116.299 46.376 115.347 45.578 114.059 45.578C112.757 45.578 111.805 46.376 111.805 47.538ZM118.987 56.036V43.758H120.037V56.036H118.987ZM128.794 44.85H129.844V47.076C129.844 49.316 131.37 51.57 133.134 52.396L132.504 53.236C131.118 52.55 129.914 51.08 129.34 49.316C128.78 51.178 127.562 52.746 126.134 53.46L125.49 52.592C127.268 51.738 128.794 49.4 128.794 47.076V44.85ZM134.492 56.036V43.758H135.542V56.036H134.492ZM138.09 44.64H144.642V45.508H141.898V46.04C141.898 47.692 143.116 49.176 144.894 49.792L144.348 50.632C142.976 50.142 141.912 49.12 141.394 47.846C140.876 49.246 139.756 50.338 138.328 50.87L137.754 50.044C139.588 49.4 140.862 47.818 140.862 46.054V45.508H138.09V44.64ZM139.364 52.676V51.822H147.288V56.022H146.238V52.676H139.364ZM146.238 51.136V43.772H147.288V47.034H149.122V47.916H147.288V51.136H146.238ZM159.097 44.92H163.353V45.788H160.133V49.484H163.493V50.338H159.097V44.92ZM153.259 54.44V53.558H158.271V50.954H159.307V53.558H164.361V54.44H153.259ZM154.239 50.338V44.934H158.341V45.816H155.275V49.456C156.311 49.442 157.333 49.386 158.467 49.106L158.565 50.002C157.235 50.296 156.101 50.338 154.897 50.338H154.239ZM167.008 44.22H168.044V47.496H175.31V48.35H167.008V44.22ZM165.496 50.898V50.03H176.598V50.898H165.496ZM166.938 55.728V52.144H167.974V54.86H175.38V55.728H166.938ZM180.958 48.518H184.402C184.808 46.992 184.892 45.858 184.92 45.116H181.98V44.262H185.942V44.57C185.942 45.2 185.942 46.6 185.466 48.518H189.218C189.582 46.992 189.638 45.872 189.652 45.116H186.782V44.262H190.66V44.752C190.66 45.48 190.66 46.754 190.254 48.518H192.06V49.372H180.958V48.518ZM182.358 55.868V50.716H190.702V51.528H183.408V52.858H190.394V53.656H183.408V55.028H190.786V55.868H182.358ZM202.575 43.772H203.583V56.022H202.575V43.772ZM193.349 49.05C193.349 46.446 194.371 44.808 195.939 44.808C197.437 44.808 198.417 46.236 198.543 48.56H200.153V44.052H201.147V55.392H200.153V49.428H198.543C198.459 51.822 197.451 53.306 195.939 53.306C194.371 53.306 193.349 51.668 193.349 49.05ZM194.315 49.05C194.315 51.052 194.945 52.326 195.939 52.326C196.961 52.326 197.591 51.052 197.591 49.05C197.591 47.048 196.961 45.788 195.939 45.788C194.945 45.788 194.315 47.048 194.315 49.05ZM208.952 44.682H215.504V45.55H212.76V46.082C212.76 47.706 213.964 49.148 215.742 49.75L215.238 50.562C213.852 50.086 212.788 49.12 212.27 47.874C211.752 49.288 210.618 50.408 209.162 50.926L208.63 50.1C210.45 49.456 211.724 47.874 211.724 46.096V45.55H208.952V44.682ZM210.254 53.74C210.254 52.326 211.78 51.514 214.258 51.514C216.75 51.514 218.276 52.326 218.276 53.74C218.276 55.168 216.75 55.994 214.258 55.994C211.78 55.994 210.254 55.168 210.254 53.74ZM211.276 53.74C211.276 54.636 212.424 55.168 214.258 55.168C216.106 55.168 217.24 54.636 217.24 53.74C217.24 52.872 216.106 52.354 214.258 52.354C212.424 52.354 211.276 52.872 211.276 53.74ZM217.1 51.164V43.772H218.15V46.922H219.984V47.79H218.15V51.164H217.1ZM224.1 44.36H225.15V45.55C225.15 47.342 226.466 48.938 228.244 49.582L227.726 50.408C226.326 49.876 225.192 48.812 224.66 47.44C224.128 48.91 222.994 50.072 221.552 50.632L221.006 49.792C222.826 49.12 224.1 47.412 224.1 45.55V44.36ZM222.742 52.648V51.78H230.904V56.022H229.854V52.648H222.742ZM229.854 51.15V43.772H230.904V51.15H229.854ZM242.076 43.758H243.126V56.036H242.076V43.758ZM233.578 48.98C233.578 46.376 234.866 44.724 236.686 44.724C238.492 44.724 239.78 46.376 239.78 48.98C239.78 51.584 238.492 53.25 236.686 53.25C234.866 53.25 233.578 51.584 233.578 48.98ZM234.6 48.98C234.6 50.982 235.454 52.312 236.686 52.312C237.904 52.312 238.772 50.982 238.772 48.98C238.772 46.978 237.904 45.662 236.686 45.662C235.454 45.662 234.6 46.978 234.6 48.98ZM249.979 51.332H253.591V50.03H248.593V49.176H259.653V50.03H254.641V51.332H258.351V52.116H251.029V53.194H258.071V53.95H251.029V55.084H258.491V55.882H249.979V51.332ZM250.077 48.112V43.996H251.113V45.214H257.161V43.996H258.211V48.112H250.077ZM251.113 47.286H257.161V46.04H251.113V47.286ZM264.078 44.724C265.744 44.724 266.948 46.166 267.102 48.476H269.846V43.758H270.882V56.036H269.846V49.316H267.102C267.004 51.724 265.772 53.25 264.078 53.25C262.3 53.25 261.04 51.584 261.04 48.98C261.04 46.376 262.3 44.724 264.078 44.724ZM262.034 48.98C262.034 50.982 262.874 52.312 264.078 52.312C265.296 52.312 266.122 50.982 266.122 48.98C266.122 46.978 265.296 45.662 264.078 45.662C262.874 45.662 262.034 46.978 262.034 48.98ZM276.16 51.332H277.168V52.004C277.168 53.11 277.756 54.272 278.904 54.944C280.094 54.202 280.696 52.956 280.696 52.004V51.332H281.718V52.004C281.718 53.278 282.656 54.538 284.196 55.07L283.678 55.854C282.474 55.42 281.62 54.552 281.186 53.53C280.822 54.524 280.08 55.476 278.946 55.966C277.77 55.504 277.014 54.608 276.65 53.572C276.216 54.552 275.376 55.406 274.214 55.854L273.682 55.07C275.222 54.51 276.16 53.18 276.16 52.004V51.332ZM273.36 47.356C273.36 45.662 274.69 44.5 276.538 44.5C278.386 44.5 279.716 45.662 279.716 47.356C279.716 49.036 278.386 50.184 276.538 50.184C274.69 50.184 273.36 49.036 273.36 47.356ZM274.382 47.356C274.382 48.518 275.292 49.316 276.538 49.316C277.798 49.316 278.694 48.518 278.694 47.356C278.694 46.194 277.798 45.382 276.538 45.382C275.292 45.382 274.382 46.194 274.382 47.356ZM282.04 50.786V43.786H283.104V50.786H282.04ZM293.66 43.758H294.71V48.63H296.74V49.512H294.71V56.036H293.66V43.758ZM285.848 52.97V44.976H291.532V45.83H286.884V52.074C289.138 52.074 290.692 52.004 292.484 51.654L292.61 52.55C290.72 52.9 289.124 52.97 286.8 52.97H285.848ZM298.561 53.782C298.967 53.782 299.247 54.062 299.247 54.468C299.247 54.888 298.967 55.182 298.561 55.182C298.141 55.182 297.847 54.888 297.847 54.468C297.847 54.062 298.141 53.782 298.561 53.782Z" fill="#FAFAFA"/>
<path d="M27.84 82.806C27.84 79.376 30.612 76.59 34.042 76.59C37.472 76.59 40.258 79.376 40.258 82.806C40.258 86.222 37.472 89.008 34.042 89.008C30.612 89.008 27.84 86.222 27.84 82.806ZM28.694 82.806C28.694 85.732 31.116 88.154 34.042 88.154C36.982 88.154 39.39 85.732 39.39 82.806C39.39 79.866 36.982 77.458 34.042 77.458C31.116 77.458 28.694 79.866 28.694 82.806ZM31.76 80.51C32.124 79.558 33.076 78.9 34.042 78.9C35.358 78.9 36.282 79.852 36.282 81.196C36.282 82.652 34.532 84.192 33.174 85.438H36.394V86.292H31.956L31.816 85.508C32.068 85.256 32.348 85.004 32.628 84.738C34.084 83.38 35.344 82.218 35.344 81.196C35.344 80.356 34.812 79.754 34.042 79.754C33.468 79.754 32.866 80.216 32.6 80.888L31.76 80.51ZM54.1309 76.786H55.1809V80.832H57.0149V81.714H55.1809V85.97H54.1309V76.786ZM45.7309 79.138V78.284H48.8249V76.786H49.8749V78.284H52.9689V79.138H45.7309ZM46.4309 82.12C46.4309 80.734 47.6069 79.838 49.3429 79.838C51.0789 79.838 52.2689 80.734 52.2689 82.12C52.2689 83.492 51.0789 84.388 49.3429 84.388C47.6069 84.388 46.4309 83.492 46.4309 82.12ZM47.4249 82.12C47.4249 82.988 48.1949 83.562 49.3429 83.562C50.4909 83.562 51.2609 82.988 51.2609 82.12C51.2609 81.238 50.4909 80.664 49.3429 80.664C48.1949 80.664 47.4249 81.238 47.4249 82.12ZM47.5929 88.742V85.228H48.6289V87.874H55.7549V88.742H47.5929ZM59.3532 77.29H67.5712V78.088C67.5712 78.9 67.5712 79.964 67.3052 81.364H69.0272V82.218H57.9252V81.364H66.2552C66.5352 79.992 66.5492 78.97 66.5492 78.158H59.3532V77.29ZM59.2412 84.318V83.478H67.6272V86.544H60.3192V88.028H67.9352V88.882H59.2832V85.732H66.5912V84.318H59.2412ZM82.3901 76.772H83.4401V84.024H82.3901V82.064H79.5201V83.128H73.9621V77.696H79.5201V78.774H82.3901V76.772ZM74.9841 82.288H78.4981V78.55H74.9841V82.288ZM75.3481 86.698C75.3481 85.242 76.9021 84.388 79.4221 84.388C81.9421 84.388 83.4961 85.242 83.4961 86.698C83.4961 88.168 81.9421 88.994 79.4221 88.994C76.9021 88.994 75.3481 88.168 75.3481 86.698ZM76.3981 86.698C76.3981 87.608 77.5461 88.168 79.4221 88.168C81.2981 88.168 82.4461 87.608 82.4461 86.698C82.4461 85.774 81.2981 85.228 79.4221 85.228C77.5461 85.228 76.3981 85.774 76.3981 86.698ZM79.5201 81.21H82.3901V79.642H79.5201V81.21ZM85.6245 86.544H90.6505V83.562H91.7005V86.544H96.7265V87.426H85.6245V86.544ZM86.1845 83.142C88.2145 82.792 90.6225 81.07 90.6225 79.096V78.774H86.5485V77.906H95.7885V78.774H91.7145V79.096C91.7145 81.07 94.1505 82.764 96.2085 83.1L95.7745 83.926C93.9405 83.562 91.9665 82.358 91.1825 80.678C90.3845 82.372 88.4245 83.59 86.6185 83.968L86.1845 83.142ZM102.845 81.63H104.777V77.066H105.757V88.378H104.777V82.498H102.845V81.63ZM97.7628 85.69C99.4148 84.724 100.395 82.568 100.395 80.552V79.922H98.0848V79.054H100.395V77.206H101.403V79.054H103.685V79.922H101.403V80.552C101.403 82.512 102.411 84.542 104.049 85.438L103.447 86.222C102.243 85.55 101.361 84.276 100.913 82.792C100.479 84.374 99.5968 85.76 98.3788 86.502L97.7628 85.69ZM107.227 89.022V76.772H108.235V89.022H107.227ZM111.609 77.22H112.645V80.496H119.911V81.35H111.609V77.22ZM110.097 83.898V83.03H121.199V83.898H110.097ZM111.539 88.728V85.144H112.575V87.86H119.981V88.728H111.539ZM128.612 77.5H129.634V79.068C129.634 80.776 130.908 82.344 132.686 82.974L132.154 83.8C130.768 83.296 129.69 82.246 129.158 80.944C128.654 82.414 127.548 83.548 126.106 84.122L125.532 83.282C127.38 82.61 128.612 80.958 128.612 79.04V77.5ZM127.492 88.742V84.948H128.542V87.874H135.612V88.742H127.492ZM134.002 85.816V76.758H135.052V80.538H136.886V81.42H135.052V85.816H134.002ZM145.839 81.182H147.911V77.052H148.891V88.392H147.911V82.064H145.839V81.182ZM140.883 85.578C142.549 84.598 143.599 82.4 143.599 80.3V77.948H144.607V80.272C144.607 82.218 145.573 84.318 147.183 85.284L146.567 86.096C145.391 85.396 144.551 84.066 144.117 82.582C143.669 84.206 142.759 85.62 141.541 86.362L140.883 85.578ZM150.403 89.022V76.772H151.411V89.022H150.403ZM162.233 76.758H163.283V89.036H162.233V76.758ZM153.945 78.788V77.934H159.587V82.26H155.023V85.186C157.053 85.186 158.859 85.102 161.043 84.752L161.155 85.606C158.915 85.984 157.067 86.054 154.981 86.054H153.973V81.392H158.537V78.788H153.945ZM165.496 86.544H176.598V87.426H165.496V86.544ZM166.49 78.872V78.004H175.548V78.872H173.616V83.184H175.534V84.052H166.518V83.184H168.408V78.872H166.49ZM169.472 83.184H172.58V78.872H169.472V83.184ZM187.112 76.772H188.12V89.022H187.112V76.772ZM177.886 82.05C177.886 79.446 178.908 77.808 180.476 77.808C181.974 77.808 182.954 79.236 183.08 81.56H184.69V77.052H185.684V88.392H184.69V82.428H183.08C182.996 84.822 181.988 86.306 180.476 86.306C178.908 86.306 177.886 84.668 177.886 82.05ZM178.852 82.05C178.852 84.052 179.482 85.326 180.476 85.326C181.498 85.326 182.128 84.052 182.128 82.05C182.128 80.048 181.498 78.788 180.476 78.788C179.482 78.788 178.852 80.048 178.852 82.05ZM193.167 78.9H195.701V77.122H196.737V78.9H199.257V79.754H193.167V78.9ZM193.601 83.38C193.601 81.756 194.693 80.608 196.219 80.608C197.745 80.608 198.851 81.756 198.851 83.38C198.851 85.032 197.745 86.166 196.219 86.166C194.693 86.166 193.601 85.032 193.601 83.38ZM194.539 83.38C194.539 84.486 195.239 85.27 196.219 85.27C197.199 85.27 197.913 84.486 197.913 83.38C197.913 82.288 197.199 81.49 196.219 81.49C195.239 81.49 194.539 82.288 194.539 83.38ZM199.901 88.406V77.066H200.895V81.952H202.533V76.772H203.527V89.022H202.533V82.82H200.895V88.406H199.901ZM213.887 76.772H214.951V79.992H216.757V80.874H214.951V84.08H213.887V76.772ZM206.005 83.072V77.71H211.409V78.592H207.055V82.204C209.519 82.204 210.919 82.134 212.557 81.798L212.683 82.652C210.975 82.988 209.505 83.072 206.957 83.072H206.005ZM207.027 86.67C207.027 85.2 208.567 84.332 211.045 84.332C213.523 84.332 215.063 85.2 215.063 86.67C215.063 88.14 213.523 88.994 211.045 88.994C208.567 88.994 207.027 88.14 207.027 86.67ZM208.049 86.67C208.049 87.58 209.197 88.14 211.045 88.14C212.879 88.14 214.027 87.58 214.027 86.67C214.027 85.732 212.879 85.186 211.045 85.186C209.197 85.186 208.049 85.732 208.049 86.67ZM226.109 76.786H227.159V80.832H228.993V81.714H227.159V85.97H226.109V76.786ZM217.709 79.138V78.284H220.803V76.786H221.853V78.284H224.947V79.138H217.709ZM218.409 82.12C218.409 80.734 219.585 79.838 221.321 79.838C223.057 79.838 224.247 80.734 224.247 82.12C224.247 83.492 223.057 84.388 221.321 84.388C219.585 84.388 218.409 83.492 218.409 82.12ZM219.403 82.12C219.403 82.988 220.173 83.562 221.321 83.562C222.469 83.562 223.239 82.988 223.239 82.12C223.239 81.238 222.469 80.664 221.321 80.664C220.173 80.664 219.403 81.238 219.403 82.12ZM219.571 88.742V85.228H220.607V87.874H227.733V88.742H219.571ZM238.262 76.758H239.312V81.63H241.342V82.512H239.312V89.036H238.262V76.758ZM230.45 85.97V77.976H236.134V78.83H231.486V85.074C233.74 85.074 235.294 85.004 237.086 84.654L237.212 85.55C235.322 85.9 233.726 85.97 231.402 85.97H230.45ZM243.162 86.782C243.568 86.782 243.848 87.062 243.848 87.468C243.848 87.888 243.568 88.182 243.162 88.182C242.742 88.182 242.448 87.888 242.448 87.468C242.448 87.062 242.742 86.782 243.162 86.782Z" fill="#FAFAFA"/>
<path d="M27.84 115.806C27.84 112.376 30.612 109.59 34.042 109.59C37.472 109.59 40.258 112.376 40.258 115.806C40.258 119.222 37.472 122.008 34.042 122.008C30.612 122.008 27.84 119.222 27.84 115.806ZM28.694 115.806C28.694 118.732 31.116 121.154 34.042 121.154C36.982 121.154 39.39 118.732 39.39 115.806C39.39 112.866 36.982 110.458 34.042 110.458C31.116 110.458 28.694 112.866 28.694 115.806ZM31.704 117.206H32.628C32.53 118.046 33.132 118.634 34.084 118.634C34.952 118.634 35.554 118.102 35.554 117.332C35.554 116.604 34.952 116.086 34.112 116.086H33.468V115.218H34.112C34.896 115.218 35.456 114.756 35.456 114.098C35.456 113.412 34.91 112.922 34.14 112.922C33.272 112.922 32.74 113.454 32.824 114.224H31.9C31.83 112.964 32.754 112.068 34.14 112.068C35.456 112.068 36.38 112.908 36.38 114.112C36.38 114.63 36.016 115.26 35.498 115.666C36.072 116.058 36.478 116.744 36.478 117.318C36.478 118.592 35.484 119.488 34.084 119.488C32.614 119.488 31.634 118.55 31.704 117.206ZM48.7409 110.5H49.7629V112.068C49.7629 113.776 51.0369 115.344 52.8149 115.974L52.2829 116.8C50.8969 116.296 49.8189 115.246 49.2869 113.944C48.7829 115.414 47.6769 116.548 46.2349 117.122L45.6609 116.282C47.5089 115.61 48.7409 113.958 48.7409 112.04V110.5ZM47.6209 121.742V117.948H48.6709V120.874H55.7409V121.742H47.6209ZM54.1309 118.816V109.758H55.1809V113.538H57.0149V114.42H55.1809V118.816H54.1309ZM65.9678 114.182H68.0398V110.052H69.0198V121.392H68.0398V115.064H65.9678V114.182ZM61.0118 118.578C62.6778 117.598 63.7278 115.4 63.7278 113.3V110.948H64.7358V113.272C64.7358 115.218 65.7018 117.318 67.3118 118.284L66.6958 119.096C65.5198 118.396 64.6798 117.066 64.2458 115.582C63.7978 117.206 62.8878 118.62 61.6698 119.362L61.0118 118.578ZM70.5318 122.022V109.772H71.5398V122.022H70.5318ZM82.3621 109.758H83.4121V122.036H82.3621V109.758ZM74.0741 111.788V110.934H79.7161V115.26H75.1521V118.186C77.1821 118.186 78.9881 118.102 81.1721 117.752L81.2841 118.606C79.0441 118.984 77.1961 119.054 75.1101 119.054H74.1021V114.392H78.6661V111.788H74.0741ZM85.6245 119.544H96.7265V120.426H85.6245V119.544ZM86.6185 111.872V111.004H95.6765V111.872H93.7445V116.184H95.6625V117.052H86.6465V116.184H88.5365V111.872H86.6185ZM89.6005 116.184H92.7085V111.872H89.6005V116.184ZM99.3728 110.22H100.409V113.496H107.675V114.35H99.3728V110.22ZM97.8608 116.898V116.03H108.963V116.898H97.8608ZM99.3028 121.728V118.144H100.339V120.86H107.745V121.728H99.3028ZM113.786 110.906H116.824V109.688H117.888V110.906H120.926V111.704H113.786V110.906ZM113.38 116.73C114.402 116.73 115.592 116.73 116.824 116.688V115.806C115.382 115.68 114.472 115.008 114.472 114.014C114.472 112.894 115.62 112.194 117.37 112.194C119.106 112.194 120.268 112.894 120.268 114.014C120.268 115.022 119.33 115.68 117.888 115.806V116.646C119.022 116.576 120.184 116.492 121.248 116.338L121.318 117.08C118.658 117.528 115.718 117.57 113.52 117.57L113.38 116.73ZM115.13 119.39V118.55H123.306V122.022H122.256V119.39H115.13ZM115.466 114.014C115.466 114.658 116.222 115.092 117.37 115.092C118.518 115.092 119.26 114.658 119.26 114.014C119.26 113.342 118.518 112.936 117.37 112.936C116.222 112.936 115.466 113.342 115.466 114.014ZM122.256 117.976V109.786H123.306V117.976H122.256ZM129.522 110.668C131.426 110.668 132.784 111.844 132.784 113.538C132.784 115.246 131.426 116.408 129.522 116.408C127.604 116.408 126.246 115.246 126.246 113.538C126.246 111.844 127.604 110.668 129.522 110.668ZM125.616 118.438C127.856 118.438 130.964 118.438 133.638 118.018L133.722 118.788C130.964 119.32 127.954 119.334 125.756 119.334L125.616 118.438ZM127.268 113.538C127.268 114.686 128.22 115.498 129.522 115.498C130.81 115.498 131.762 114.686 131.762 113.538C131.762 112.376 130.81 111.578 129.522 111.578C128.22 111.578 127.268 112.376 127.268 113.538ZM134.45 122.036V109.758H135.5V122.036H134.45ZM144.257 110.85H145.307V113.076C145.307 115.316 146.833 117.57 148.597 118.396L147.967 119.236C146.581 118.55 145.377 117.08 144.803 115.316C144.243 117.178 143.025 118.746 141.597 119.46L140.953 118.592C142.731 117.738 144.257 115.4 144.257 113.076V110.85ZM149.955 122.036V109.758H151.005V122.036H149.955ZM153.553 110.64H160.105V111.508H157.361V112.04C157.361 113.692 158.579 115.176 160.357 115.792L159.811 116.632C158.439 116.142 157.375 115.12 156.857 113.846C156.339 115.246 155.219 116.338 153.791 116.87L153.217 116.044C155.051 115.4 156.325 113.818 156.325 112.054V111.508H153.553V110.64ZM154.827 118.676V117.822H162.751V122.022H161.701V118.676H154.827ZM161.701 117.136V109.772H162.751V113.034H164.585V113.916H162.751V117.136H161.701ZM165.496 117.066H176.598V117.92H171.53V122.022H170.494V117.92H165.496V117.066ZM166.91 115.568V110.29H167.946V111.984H174.12V110.29H175.156V115.568H166.91ZM167.946 114.7H174.12V112.838H167.946V114.7ZM186.748 109.758H187.784V122.036H186.748V115.288H184.158V114.434H186.748V109.758ZM178.292 119.082V110.906H183.948V111.774H179.328V114.336H183.402V115.19H179.328V118.2C181.596 118.2 183.038 118.144 184.718 117.822L184.83 118.69C183.066 118.998 181.582 119.082 179.216 119.082H178.292ZM193.195 114.518H196.639C197.045 112.992 197.129 111.858 197.157 111.116H194.217V110.262H198.179V110.57C198.179 111.2 198.179 112.6 197.703 114.518H201.455C201.819 112.992 201.875 111.872 201.889 111.116H199.019V110.262H202.897V110.752C202.897 111.48 202.897 112.754 202.491 114.518H204.297V115.372H193.195V114.518ZM194.595 121.868V116.716H202.939V117.528H195.645V118.858H202.631V119.656H195.645V121.028H203.023V121.868H194.595ZM213.999 109.772H215.035V114.84H216.897V115.722H215.035V122.022H213.999V109.772ZM205.403 118.648C207.251 116.744 208.007 114.42 208.133 111.97H205.781V111.102H209.113C209.113 114 208.455 116.884 206.243 119.25L205.403 118.648ZM208.903 119.474C210.807 117.29 211.381 114.518 211.465 111.97H209.505V111.102H212.459C212.459 113.986 212.025 117.388 209.757 120.062L208.903 119.474ZM218.045 111.032H224.891V111.914H221.979V113.566C221.979 115.652 223.519 117.752 225.283 118.522L224.681 119.362C223.281 118.704 222.035 117.276 221.461 115.582C220.901 117.388 219.669 118.956 218.269 119.656L217.667 118.83C219.389 117.99 220.929 115.68 220.929 113.566V111.914H218.045V111.032ZM226.599 122.022V109.772H227.649V122.022H226.599ZM233.866 110.668C235.77 110.668 237.128 111.844 237.128 113.538C237.128 115.246 235.77 116.408 233.866 116.408C231.948 116.408 230.59 115.246 230.59 113.538C230.59 111.844 231.948 110.668 233.866 110.668ZM229.96 118.438C232.2 118.438 235.308 118.438 237.982 118.018L238.066 118.788C235.308 119.32 232.298 119.334 230.1 119.334L229.96 118.438ZM231.612 113.538C231.612 114.686 232.564 115.498 233.866 115.498C235.154 115.498 236.106 114.686 236.106 113.538C236.106 112.376 235.154 111.578 233.866 111.578C232.564 111.578 231.612 112.376 231.612 113.538ZM238.794 122.036V109.758H239.844V122.036H238.794ZM246.795 110.262H255.013V111.046C255.013 111.858 255.013 112.922 254.747 114.28H256.469V115.148H251.415V116.968H250.379V115.148H245.367V114.28H253.697C253.977 112.922 253.991 111.942 253.991 111.13H246.795V110.262ZM246.557 117.85V117.038H250.617V119.768H247.607V121.07C249.427 121.07 250.379 121.014 251.541 120.748L251.653 121.56C250.393 121.84 249.385 121.896 247.341 121.896H246.599V118.984H249.595V117.85H246.557ZM251.275 117.892V117.038H255.153V121.952H254.131V117.892H251.275ZM266.577 109.772H267.627V122.022H266.577V109.772ZM257.757 118.872C261.061 117.29 262.727 114.896 262.951 111.956H258.303V111.088H264.015C264.015 114.616 262.391 117.724 258.317 119.712L257.757 118.872ZM278.183 109.758H279.247V114.77H281.221V115.652H279.247V122.022H278.183V109.758ZM269.937 118.858C273.087 117.276 274.795 114.868 275.033 111.956H270.497V111.088H276.097C276.097 114.546 274.473 117.696 270.525 119.67L269.937 118.858ZM288.732 110.234C290.552 110.234 291.896 111.34 291.896 112.936C291.896 114.532 290.552 115.624 288.732 115.624C286.912 115.624 285.582 114.532 285.582 112.936C285.582 111.34 286.912 110.234 288.732 110.234ZM286.604 112.936C286.604 114.014 287.514 114.77 288.732 114.77C289.964 114.77 290.874 114.014 290.874 112.936C290.874 111.858 289.964 111.088 288.732 111.088C287.514 111.088 286.604 111.858 286.604 112.936ZM287.43 117.514V116.674H295.326V119.6H288.48V121.014H295.746V121.854H287.472V118.816H294.276V117.514H287.43ZM294.262 116.058V109.772H295.326V116.058H294.262ZM304.049 112.978H306.541V109.772H307.591V117.066H306.541V113.846H304.049V112.978ZM297.595 116.114C299.387 115.456 300.689 113.804 300.689 112.026V111.55H297.917V110.682H304.455V111.55H301.739V112.026C301.739 113.622 302.971 115.148 304.735 115.764L304.189 116.604C302.817 116.1 301.753 115.064 301.235 113.79C300.717 115.246 299.569 116.394 298.127 116.954L297.595 116.114ZM299.499 119.74C299.499 118.312 301.039 117.458 303.573 117.458C306.093 117.458 307.633 118.312 307.633 119.74C307.633 121.182 306.093 122.008 303.573 122.008C301.039 122.008 299.499 121.182 299.499 119.74ZM300.549 119.74C300.549 120.636 301.697 121.182 303.573 121.182C305.435 121.182 306.597 120.636 306.597 119.74C306.597 118.83 305.435 118.284 303.573 118.284C301.697 118.284 300.549 118.83 300.549 119.74ZM318.133 109.772H319.183V114.84H321.213V115.722H319.183V122.022H318.133V109.772ZM309.705 112.614V111.746H312.841V109.912H313.905V111.746H316.957V112.614H309.705ZM310.419 116.464C310.419 114.812 311.679 113.664 313.387 113.664C315.109 113.664 316.355 114.812 316.355 116.464C316.355 118.116 315.109 119.264 313.387 119.264C311.679 119.264 310.419 118.116 310.419 116.464ZM311.427 116.464C311.427 117.584 312.239 118.382 313.387 118.382C314.521 118.382 315.347 117.584 315.347 116.464C315.347 115.344 314.521 114.532 313.387 114.532C312.239 114.532 311.427 115.344 311.427 116.464ZM330.369 109.758H331.419V114.63H333.449V115.512H331.419V122.036H330.369V109.758ZM322.557 118.97V110.976H328.241V111.83H323.593V118.074C325.847 118.074 327.401 118.004 329.193 117.654L329.319 118.55C327.429 118.9 325.833 118.97 323.509 118.97H322.557Z" fill="#FAFAFA"/>
<path d="M27.84 148.806C27.84 145.376 30.612 142.59 34.042 142.59C37.472 142.59 40.258 145.376 40.258 148.806C40.258 152.222 37.472 155.008 34.042 155.008C30.612 155.008 27.84 152.222 27.84 148.806ZM28.694 148.806C28.694 151.732 31.116 154.154 34.042 154.154C36.982 154.154 39.39 151.732 39.39 148.806C39.39 145.866 36.982 143.458 34.042 143.458C31.116 143.458 28.694 145.866 28.694 148.806ZM31.2 149.66L34.462 145.124H35.316V149.59H36.366V150.444H35.316V152.432H34.392V150.444H31.34L31.2 149.66ZM32.404 149.59H34.392V146.818L32.404 149.59ZM50.5049 147.182H52.5769V143.052H53.5569V154.392H52.5769V148.064H50.5049V147.182ZM45.5489 151.578C47.2149 150.598 48.2649 148.4 48.2649 146.3V143.948H49.2729V146.272C49.2729 148.218 50.2389 150.318 51.8489 151.284L51.2329 152.096C50.0569 151.396 49.2169 150.066 48.7829 148.582C48.3349 150.206 47.4249 151.62 46.2069 152.362L45.5489 151.578ZM55.0689 155.022V142.772H56.0769V155.022H55.0689ZM66.8992 142.758H67.9492V155.036H66.8992V142.758ZM58.6112 144.788V143.934H64.2532V148.26H59.6892V151.186C61.7192 151.186 63.5252 151.102 65.7092 150.752L65.8212 151.606C63.5812 151.984 61.7332 152.054 59.6472 152.054H58.6392V147.392H63.2032V144.788H58.6112ZM70.1616 152.544H81.2636V153.426H70.1616V152.544ZM71.1556 144.872V144.004H80.2136V144.872H78.2816V149.184H80.1996V150.052H71.1836V149.184H73.0736V144.872H71.1556ZM74.1376 149.184H77.2456V144.872H74.1376V149.184ZM91.7285 146.972H94.6265V142.758H95.6625V155.036H94.6265V147.826H91.7285V146.972ZM85.6245 151.578C87.3745 150.696 88.8165 148.344 88.8165 146.076V143.836H89.8665V146.076C89.8665 148.288 91.2945 150.528 93.0445 151.354L92.4285 152.208C91.0425 151.494 89.8945 150.01 89.3485 148.26C88.8165 150.108 87.6545 151.676 86.2825 152.418L85.6245 151.578ZM102.845 147.63H104.777V143.066H105.757V154.378H104.777V148.498H102.845V147.63ZM97.7628 151.69C99.4148 150.724 100.395 148.568 100.395 146.552V145.922H98.0848V145.054H100.395V143.206H101.403V145.054H103.685V145.922H101.403V146.552C101.403 148.512 102.411 150.542 104.049 151.438L103.447 152.222C102.243 151.55 101.361 150.276 100.913 148.792C100.479 150.374 99.5968 151.76 98.3788 152.502L97.7628 151.69ZM107.227 155.022V142.772H108.235V155.022H107.227ZM119.477 142.772H120.485V155.022H119.477V142.772ZM110.251 148.05C110.251 145.446 111.273 143.808 112.841 143.808C114.339 143.808 115.319 145.236 115.445 147.56H117.055V143.052H118.049V154.392H117.055V148.428H115.445C115.361 150.822 114.353 152.306 112.841 152.306C111.273 152.306 110.251 150.668 110.251 148.05ZM111.217 148.05C111.217 150.052 111.847 151.326 112.841 151.326C113.863 151.326 114.493 150.052 114.493 148.05C114.493 146.048 113.863 144.788 112.841 144.788C111.847 144.788 111.217 146.048 111.217 148.05ZM123.845 143.22H124.881V146.496H132.147V147.35H123.845V143.22ZM122.333 149.898V149.03H133.435V149.898H122.333ZM123.775 154.728V151.144H124.811V153.86H132.217V154.728H123.775ZM139.098 151.76C139.798 152.614 140.778 153.216 141.828 153.216C143.298 153.216 144.334 152.39 144.334 151.228C144.334 148.792 138.762 149.814 138.762 146.412C138.762 144.83 140.092 143.724 141.968 143.724C143.158 143.724 144.264 144.368 144.992 145.278L144.236 145.852C143.676 145.124 142.878 144.62 141.968 144.62C140.68 144.62 139.77 145.362 139.77 146.412C139.77 148.946 145.342 147.938 145.342 151.228C145.342 152.922 143.886 154.112 141.828 154.112C140.47 154.112 139.168 153.384 138.342 152.334L139.098 151.76ZM150.349 153.202C151.609 153.202 152.743 152.068 152.757 150.5C152.743 148.946 151.609 147.812 150.349 147.812C148.949 147.812 147.955 148.918 147.955 150.5C147.955 152.082 148.949 153.202 150.349 153.202ZM146.947 150.5C146.947 148.4 148.347 146.916 150.335 146.916C151.161 146.916 152.085 147.35 152.729 148.386V146.874H153.737V154H152.729V152.6C152.057 153.692 151.175 154.098 150.335 154.098C148.347 154.098 146.947 152.614 146.947 150.5ZM160.346 149.8C160.346 148.61 159.59 147.77 158.526 147.77C157.266 147.77 156.384 148.75 156.384 149.8V154H155.376V146.874H156.384V148.092C156.874 147.378 157.756 146.874 158.526 146.874C160.192 146.874 161.354 148.036 161.354 149.702V154H160.346V149.8ZM166.263 154.112C164.261 154.112 162.861 152.614 162.861 150.486C162.861 148.358 164.261 146.86 166.263 146.86C167.173 146.86 168.125 147.322 168.713 148.386V143.892H169.721V154H168.713V152.586C168.111 153.65 167.173 154.112 166.263 154.112ZM163.869 150.486C163.869 152.082 164.877 153.216 166.305 153.216C167.593 153.216 168.713 151.984 168.713 150.486C168.713 149.002 167.593 147.756 166.305 147.756C164.877 147.756 163.869 148.89 163.869 150.486ZM174.63 153.16C176.03 153.16 177.024 152.04 177.024 150.444C177.024 148.848 176.03 147.728 174.63 147.728C173.23 147.728 172.25 148.848 172.25 150.444C172.25 152.04 173.23 153.16 174.63 153.16ZM171.242 150.444C171.242 148.33 172.642 146.832 174.63 146.832C176.632 146.832 178.032 148.33 178.032 150.444C178.032 152.558 176.632 154.056 174.63 154.056C172.642 154.056 171.242 152.558 171.242 150.444ZM179.422 143.892H180.43V154H179.422V143.892ZM182.252 143.892H183.26V154H182.252V143.892ZM197.324 142.772H198.332V155.022H197.324V142.772ZM187.818 151.774C189.498 150.752 190.492 148.512 190.492 146.258V145.096H188.126V144.228H193.74V145.096H191.514V146.258C191.514 148.386 192.466 150.528 194.132 151.494L193.488 152.264C192.298 151.536 191.444 150.206 191.01 148.638C190.59 150.332 189.694 151.788 188.462 152.558L187.818 151.774ZM192.802 148.064V147.196H194.874V143.066H195.854V154.378H194.874V148.064H192.802ZM209.141 142.758H210.191V155.036H209.141V142.758ZM200.895 152.068V143.822H201.945V147.07H205.599V143.822H206.635V152.068H200.895ZM201.945 151.2H205.599V147.91H201.945V151.2ZM213.999 152.936L213.229 155.526H212.487L212.907 152.936H213.999ZM227.844 142.758H228.894V147.686H230.868V148.568H228.894V155.022H227.844V142.758ZM220.004 151.9V143.976H221.04V151.032C222.818 151.032 224.666 150.892 226.668 150.472L226.794 151.354C224.694 151.774 222.832 151.9 220.97 151.9H220.004ZM233.248 143.01H234.284V146.146H241.536V147H233.248V143.01ZM231.736 149.198V148.33H242.796V149.198H237.756V150.738H241.396V154.84H233.164V150.738H236.72V149.198H231.736ZM234.186 153.986H240.374V151.578H234.186V153.986ZM252.96 142.772H254.01V150.024H252.96V148.064H250.09V149.128H244.532V143.696H250.09V144.774H252.96V142.772ZM245.554 148.288H249.068V144.55H245.554V148.288ZM245.918 152.698C245.918 151.242 247.472 150.388 249.992 150.388C252.512 150.388 254.066 151.242 254.066 152.698C254.066 154.168 252.512 154.994 249.992 154.994C247.472 154.994 245.918 154.168 245.918 152.698ZM246.968 152.698C246.968 153.608 248.116 154.168 249.992 154.168C251.868 154.168 253.016 153.608 253.016 152.698C253.016 151.774 251.868 151.228 249.992 151.228C248.116 151.228 246.968 151.774 246.968 152.698ZM250.09 147.21H252.96V145.642H250.09V147.21ZM256.195 152.544H261.221V149.562H262.271V152.544H267.297V153.426H256.195V152.544ZM256.755 149.142C258.785 148.792 261.193 147.07 261.193 145.096V144.774H257.119V143.906H266.359V144.774H262.285V145.096C262.285 147.07 264.721 148.764 266.779 149.1L266.345 149.926C264.511 149.562 262.537 148.358 261.753 146.678C260.955 148.372 258.995 149.59 257.189 149.968L256.755 149.142ZM271.672 148.638H282.732V149.506H271.672V148.638ZM273.002 152.796C273.002 151.396 274.57 150.598 277.188 150.598C279.792 150.598 281.374 151.396 281.374 152.796C281.374 154.21 279.792 155.008 277.188 155.008C274.57 155.008 273.002 154.21 273.002 152.796ZM273.072 147.434V143.276H281.346V144.158H274.108V146.58H281.43V147.434H273.072ZM274.052 152.796C274.052 153.678 275.242 154.168 277.188 154.168C279.134 154.168 280.31 153.678 280.31 152.796C280.31 151.942 279.134 151.424 277.188 151.424C275.242 151.424 274.052 151.942 274.052 152.796ZM292.84 142.758H293.89V155.036H292.84V142.758ZM284.342 147.98C284.342 145.376 285.63 143.724 287.45 143.724C289.256 143.724 290.544 145.376 290.544 147.98C290.544 150.584 289.256 152.25 287.45 152.25C285.63 152.25 284.342 150.584 284.342 147.98ZM285.364 147.98C285.364 149.982 286.218 151.312 287.45 151.312C288.668 151.312 289.536 149.982 289.536 147.98C289.536 145.978 288.668 144.662 287.45 144.662C286.218 144.662 285.364 145.978 285.364 147.98ZM302.451 150.332H303.459V151.004C303.459 152.11 304.047 153.272 305.195 153.944C306.385 153.202 306.987 151.956 306.987 151.004V150.332H308.009V151.004C308.009 152.278 308.947 153.538 310.487 154.07L309.969 154.854C308.765 154.42 307.911 153.552 307.477 152.53C307.113 153.524 306.371 154.476 305.237 154.966C304.061 154.504 303.305 153.608 302.941 152.572C302.507 153.552 301.667 154.406 300.505 154.854L299.973 154.07C301.513 153.51 302.451 152.18 302.451 151.004V150.332ZM299.651 146.356C299.651 144.662 300.981 143.5 302.829 143.5C304.677 143.5 306.007 144.662 306.007 146.356C306.007 148.036 304.677 149.184 302.829 149.184C300.981 149.184 299.651 148.036 299.651 146.356ZM300.673 146.356C300.673 147.518 301.583 148.316 302.829 148.316C304.089 148.316 304.985 147.518 304.985 146.356C304.985 145.194 304.089 144.382 302.829 144.382C301.583 144.382 300.673 145.194 300.673 146.356ZM308.331 149.786V142.786H309.395V149.786H308.331ZM319.951 142.758H321.001V147.63H323.031V148.512H321.001V155.036H319.951V142.758ZM312.139 151.97V143.976H317.823V144.83H313.175V151.074C315.429 151.074 316.983 151.004 318.775 150.654L318.901 151.55C317.011 151.9 315.415 151.97 313.091 151.97H312.139ZM324.852 152.782C325.258 152.782 325.538 153.062 325.538 153.468C325.538 153.888 325.258 154.182 324.852 154.182C324.432 154.182 324.138 153.888 324.138 153.468C324.138 153.062 324.432 152.782 324.852 152.782Z" fill="#FAFAFA"/>
<path d="M27.84 181.806C27.84 178.376 30.612 175.59 34.042 175.59C37.472 175.59 40.258 178.376 40.258 181.806C40.258 185.222 37.472 188.008 34.042 188.008C30.612 188.008 27.84 185.222 27.84 181.806ZM28.694 181.806C28.694 184.732 31.116 187.154 34.042 187.154C36.982 187.154 39.39 184.732 39.39 181.806C39.39 178.866 36.982 176.458 34.042 176.458C31.116 176.458 28.694 178.866 28.694 181.806ZM31.662 183.626L32.558 183.416C32.684 184.172 33.3 184.704 34.056 184.704C34.938 184.704 35.568 184.046 35.568 183.122C35.568 182.212 34.938 181.568 34.056 181.568C33.65 181.568 33.174 181.806 32.894 182.156L32.012 182.002L32.194 178.194H35.988V179.048H33.104L32.978 180.924C33.286 180.784 33.734 180.686 34.056 180.686C35.498 180.686 36.506 181.694 36.506 183.122C36.506 184.578 35.498 185.6 34.056 185.6C32.852 185.6 31.858 184.788 31.662 183.626ZM48.7409 176.5H49.7629V178.068C49.7629 179.776 51.0369 181.344 52.8149 181.974L52.2829 182.8C50.8969 182.296 49.8189 181.246 49.2869 179.944C48.7829 181.414 47.6769 182.548 46.2349 183.122L45.6609 182.282C47.5089 181.61 48.7409 179.958 48.7409 178.04V176.5ZM47.6209 187.742V183.948H48.6709V186.874H55.7409V187.742H47.6209ZM54.1309 184.816V175.758H55.1809V179.538H57.0149V180.42H55.1809V184.816H54.1309ZM65.9678 180.182H68.0398V176.052H69.0198V187.392H68.0398V181.064H65.9678V180.182ZM61.0118 184.578C62.6778 183.598 63.7278 181.4 63.7278 179.3V176.948H64.7358V179.272C64.7358 181.218 65.7018 183.318 67.3118 184.284L66.6958 185.096C65.5198 184.396 64.6798 183.066 64.2458 181.582C63.7978 183.206 62.8878 184.62 61.6698 185.362L61.0118 184.578ZM70.5318 188.022V175.772H71.5398V188.022H70.5318ZM82.3621 175.758H83.4121V188.036H82.3621V175.758ZM74.0741 177.788V176.934H79.7161V181.26H75.1521V184.186C77.1821 184.186 78.9881 184.102 81.1721 183.752L81.2841 184.606C79.0441 184.984 77.1961 185.054 75.1101 185.054H74.1021V180.392H78.6661V177.788H74.0741ZM85.6245 185.544H96.7265V186.426H85.6245V185.544ZM86.6185 177.872V177.004H95.6765V177.872H93.7445V182.184H95.6625V183.052H86.6465V182.184H88.5365V177.872H86.6185ZM89.6005 182.184H92.7085V177.872H89.6005V182.184ZM107.191 179.972H110.089V175.758H111.125V188.036H110.089V180.826H107.191V179.972ZM101.087 184.578C102.837 183.696 104.279 181.344 104.279 179.076V176.836H105.329V179.076C105.329 181.288 106.757 183.528 108.507 184.354L107.891 185.208C106.505 184.494 105.357 183.01 104.811 181.26C104.279 183.108 103.117 184.676 101.745 185.418L101.087 184.578ZM118.308 180.63H120.24V176.066H121.22V187.378H120.24V181.498H118.308V180.63ZM113.226 184.69C114.878 183.724 115.858 181.568 115.858 179.552V178.922H113.548V178.054H115.858V176.206H116.866V178.054H119.148V178.922H116.866V179.552C116.866 181.512 117.874 183.542 119.512 184.438L118.91 185.222C117.706 184.55 116.824 183.276 116.376 181.792C115.942 183.374 115.06 184.76 113.842 185.502L113.226 184.69ZM122.69 188.022V175.772H123.698V188.022H122.69ZM134.94 175.772H135.948V188.022H134.94V175.772ZM125.714 181.05C125.714 178.446 126.736 176.808 128.304 176.808C129.802 176.808 130.782 178.236 130.908 180.56H132.518V176.052H133.512V187.392H132.518V181.428H130.908C130.824 183.822 129.816 185.306 128.304 185.306C126.736 185.306 125.714 183.668 125.714 181.05ZM126.68 181.05C126.68 183.052 127.31 184.326 128.304 184.326C129.326 184.326 129.956 183.052 129.956 181.05C129.956 179.048 129.326 177.788 128.304 177.788C127.31 177.788 126.68 179.048 126.68 181.05ZM139.308 176.22H140.344V179.496H147.61V180.35H139.308V176.22ZM137.796 182.898V182.03H148.898V182.898H137.796ZM139.238 187.728V184.144H140.274V186.86H147.68V187.728H139.238ZM154.519 182.898H158.495V185.684H155.555V187.028C157.249 187.028 158.187 186.986 159.307 186.762L159.419 187.56C158.187 187.826 157.207 187.854 155.261 187.854H154.547V184.914H157.487V183.71H154.519V182.898ZM153.805 181.498V176.486H159.405V181.498H153.805ZM154.827 180.644H158.383V177.34H154.827V180.644ZM159.013 183.738V182.898H162.765V187.924H161.729V183.738H159.013ZM161.715 182.254V175.772H162.765V178.53H164.585V179.398H162.765V182.254H161.715ZM165.496 182.24H176.556V183.094H165.496V182.24ZM166.728 178.628C166.728 177.102 168.408 176.192 171.026 176.192C173.644 176.192 175.324 177.102 175.324 178.628C175.324 180.154 173.644 181.064 171.026 181.064C168.408 181.064 166.728 180.154 166.728 178.628ZM166.938 187.756V184.2H167.988V186.888H175.338V187.756H166.938ZM167.806 178.628C167.806 179.608 169.08 180.21 171.026 180.21C172.986 180.21 174.246 179.608 174.246 178.628C174.246 177.648 172.986 177.06 171.026 177.06C169.08 177.06 167.806 177.648 167.806 178.628ZM182.134 177.018H190.674V178.236C190.674 179.748 190.674 181.414 190.24 183.878L189.176 183.752C189.624 181.414 189.624 179.706 189.624 178.236V177.886H182.134V177.018ZM180.958 186.272V185.39H185.312V180.994H186.348V185.39H192.032V186.272H180.958ZM193.951 176.766H199.691V177.62H194.987V181.372C197.647 181.372 199.173 181.288 200.923 180.952L201.035 181.806C199.229 182.156 197.675 182.24 194.945 182.24H193.951V176.766ZM195.057 184.606V183.738H203.219V188.022H202.155V184.606H195.057ZM202.155 183.066V175.786H203.219V183.066H202.155ZM206.999 185.936L206.229 188.526H205.487L205.907 185.936H206.999ZM213.914 176.276H222.132V177.06C222.132 177.858 222.132 178.908 221.88 180.224H223.588V181.078H218.534V182.674H222.188V185.628H214.88V187.028H222.496V187.882H213.844V184.858H221.152V183.528H213.802V182.674H217.498V181.078H212.486V180.224H220.83C221.096 178.894 221.11 177.928 221.11 177.13H213.914V176.276ZM233.682 175.772H234.746V183.024H233.682V175.772ZM225.324 177.368V176.5H230.868V179.818H226.374V181.568C228.558 181.568 230.196 181.498 232.156 181.176L232.282 182.044C230.252 182.366 228.586 182.436 226.332 182.436H225.352V178.992H229.846V177.368H225.324ZM226.864 187.854V183.724H234.746V187.854H226.864ZM227.886 187H233.71V184.564H227.886V187ZM238.526 185.936L237.756 188.526H237.014L237.434 185.936H238.526ZM244.027 181.722H249.025V180.266H245.469V176.276H253.659V177.144H246.505V179.398H253.799V180.266H250.075V181.722H255.087V182.576H244.027V181.722ZM245.413 187.868V183.85H253.743V184.718H246.463V187H253.855V187.868H245.413ZM261.779 176.01C264.425 176.01 266.077 176.864 266.077 178.306C266.077 179.748 264.425 180.588 261.779 180.588C259.133 180.588 257.481 179.748 257.481 178.306C257.481 176.864 259.133 176.01 261.779 176.01ZM256.249 182.422V181.554H267.309V182.422H262.297V183.85H265.951V187.854H257.621V183.85H261.261V182.422H256.249ZM258.559 178.306C258.559 179.216 259.805 179.762 261.779 179.762C263.753 179.762 264.999 179.216 264.999 178.306C264.999 177.382 263.753 176.836 261.779 176.836C259.805 176.836 258.559 177.382 258.559 178.306ZM258.643 187H264.929V184.69H258.643V187ZM271.726 181.638H282.786V182.506H271.726V181.638ZM273.056 185.796C273.056 184.396 274.624 183.598 277.242 183.598C279.846 183.598 281.428 184.396 281.428 185.796C281.428 187.21 279.846 188.008 277.242 188.008C274.624 188.008 273.056 187.21 273.056 185.796ZM273.126 180.434V176.276H281.4V177.158H274.162V179.58H281.484V180.434H273.126ZM274.106 185.796C274.106 186.678 275.296 187.168 277.242 187.168C279.188 187.168 280.364 186.678 280.364 185.796C280.364 184.942 279.188 184.424 277.242 184.424C275.296 184.424 274.106 184.942 274.106 185.796ZM292.895 175.758H293.945V188.036H292.895V175.758ZM284.397 180.98C284.397 178.376 285.685 176.724 287.505 176.724C289.311 176.724 290.599 178.376 290.599 180.98C290.599 183.584 289.311 185.25 287.505 185.25C285.685 185.25 284.397 183.584 284.397 180.98ZM285.419 180.98C285.419 182.982 286.273 184.312 287.505 184.312C288.723 184.312 289.591 182.982 289.591 180.98C289.591 178.978 288.723 177.662 287.505 177.662C286.273 177.662 285.419 178.978 285.419 180.98ZM302.506 183.332H303.514V184.004C303.514 185.11 304.102 186.272 305.25 186.944C306.44 186.202 307.042 184.956 307.042 184.004V183.332H308.064V184.004C308.064 185.278 309.002 186.538 310.542 187.07L310.024 187.854C308.82 187.42 307.966 186.552 307.532 185.53C307.168 186.524 306.426 187.476 305.292 187.966C304.116 187.504 303.36 186.608 302.996 185.572C302.562 186.552 301.722 187.406 300.56 187.854L300.028 187.07C301.568 186.51 302.506 185.18 302.506 184.004V183.332ZM299.706 179.356C299.706 177.662 301.036 176.5 302.884 176.5C304.732 176.5 306.062 177.662 306.062 179.356C306.062 181.036 304.732 182.184 302.884 182.184C301.036 182.184 299.706 181.036 299.706 179.356ZM300.728 179.356C300.728 180.518 301.638 181.316 302.884 181.316C304.144 181.316 305.04 180.518 305.04 179.356C305.04 178.194 304.144 177.382 302.884 177.382C301.638 177.382 300.728 178.194 300.728 179.356ZM308.386 182.786V175.786H309.45V182.786H308.386ZM320.006 175.758H321.056V180.63H323.086V181.512H321.056V188.036H320.006V175.758ZM312.194 184.97V176.976H317.878V177.83H313.23V184.074C315.484 184.074 317.038 184.004 318.83 183.654L318.956 184.55C317.066 184.9 315.47 184.97 313.146 184.97H312.194ZM324.906 185.782C325.312 185.782 325.592 186.062 325.592 186.468C325.592 186.888 325.312 187.182 324.906 187.182C324.486 187.182 324.192 186.888 324.192 186.468C324.192 186.062 324.486 185.782 324.906 185.782Z" fill="#FAFAFA"/>
</svg>
