<svg width="360" height="230" viewBox="0 0 360 230" fill="none" xmlns="http://www.w3.org/2000/svg">
<rect width="360" height="230" fill="#171717"/>
<line y1="144.5" x2="360" y2="144.5" stroke="#00FFBB"/>
<line y1="157.5" x2="360" y2="157.5" stroke="#00FFBB"/>
<path d="M65.612 104.574V145H60.334V126.672H39.744V145H34.466V104.574H39.744V122.322H60.334V104.574H65.612ZM91.2122 145L83.6722 133.168L76.4222 145H70.9122L81.1782 129.224L70.9122 113.216H76.8862L84.4262 124.99L91.6182 113.216H97.1282L86.9202 128.934L97.1862 145H91.2122ZM115.312 117.566H108.642V145H103.364V117.566H99.2461V113.216H103.364V110.954C103.364 107.397 104.273 104.806 106.09 103.182C107.946 101.519 110.904 100.688 114.964 100.688V105.096C112.644 105.096 111.001 105.56 110.034 106.488C109.106 107.377 108.642 108.866 108.642 110.954V113.216H115.312V117.566ZM126.744 119.074C127.788 117.257 129.335 115.749 131.384 114.55C133.472 113.313 135.889 112.694 138.634 112.694C141.457 112.694 144.009 113.371 146.29 114.724C148.61 116.077 150.427 117.991 151.742 120.466C153.057 122.902 153.714 125.744 153.714 128.992C153.714 132.201 153.057 135.063 151.742 137.576C150.427 140.089 148.61 142.042 146.29 143.434C144.009 144.826 141.457 145.522 138.634 145.522C135.927 145.522 133.53 144.923 131.442 143.724C129.393 142.487 127.827 140.959 126.744 139.142V160.08H121.466V113.216H126.744V119.074ZM148.32 128.992C148.32 126.595 147.837 124.507 146.87 122.728C145.903 120.949 144.589 119.596 142.926 118.668C141.302 117.74 139.504 117.276 137.532 117.276C135.599 117.276 133.801 117.759 132.138 118.726C130.514 119.654 129.199 121.027 128.194 122.844C127.227 124.623 126.744 126.691 126.744 129.05C126.744 131.447 127.227 133.555 128.194 135.372C129.199 137.151 130.514 138.523 132.138 139.49C133.801 140.418 135.599 140.882 137.532 140.882C139.504 140.882 141.302 140.418 142.926 139.49C144.589 138.523 145.903 137.151 146.87 135.372C147.837 133.555 148.32 131.428 148.32 128.992Z" fill="#FAFAFA"/>
<path d="M86.8888 80.806C86.8888 77.376 89.6608 74.59 93.0908 74.59C96.5208 74.59 99.3068 77.376 99.3068 80.806C99.3068 84.222 96.5208 87.008 93.0908 87.008C89.6608 87.008 86.8888 84.222 86.8888 80.806ZM87.9668 80.806C87.9668 83.62 90.2768 85.93 93.0908 85.93C95.9188 85.93 98.2148 83.62 98.2148 80.806C98.2148 77.978 95.9188 75.682 93.0908 75.682C90.2768 75.682 87.9668 77.978 87.9668 80.806ZM91.2988 78.286L92.8808 77.418H93.8748V84.278L92.8248 84.264V78.608L91.7748 79.154L91.2988 78.286Z" fill="#FAFAFA"/>
<path d="M210.717 101.963H216.605V119.746H238.988V101.963H244.877V145H238.988V124.873H216.605V145H210.717V101.963ZM250.238 113.623H257.064L264.271 124.668L271.566 113.623L277.982 113.77L267.406 128.916L278.451 145H271.713L263.92 133.223L256.361 145H249.682L260.727 128.916L250.238 113.623ZM284.545 108.848C284.623 106.66 285.004 105.059 285.688 104.043C286.918 102.246 289.291 101.348 292.807 101.348C293.139 101.348 293.48 101.357 293.832 101.377C294.184 101.396 294.584 101.426 295.033 101.465V106.27C294.486 106.23 294.086 106.211 293.832 106.211C293.598 106.191 293.373 106.182 293.158 106.182C291.557 106.182 290.6 106.602 290.287 107.441C289.975 108.262 289.818 110.371 289.818 113.77H295.033V117.93H289.76V145H284.545V117.93H280.18V113.77H284.545V108.848ZM313.168 141.455C315.629 141.455 317.67 140.43 319.291 138.379C320.932 136.309 321.752 133.223 321.752 129.121C321.752 126.621 321.391 124.473 320.668 122.676C319.301 119.219 316.801 117.49 313.168 117.49C309.516 117.49 307.016 119.316 305.668 122.969C304.945 124.922 304.584 127.402 304.584 130.41C304.584 132.832 304.945 134.893 305.668 136.592C307.035 139.834 309.535 141.455 313.168 141.455ZM299.516 113.77H304.643V117.93C305.697 116.504 306.85 115.4 308.1 114.619C309.877 113.447 311.967 112.861 314.369 112.861C317.924 112.861 320.941 114.229 323.422 116.963C325.902 119.678 327.143 123.564 327.143 128.623C327.143 135.459 325.355 140.342 321.781 143.271C319.516 145.127 316.879 146.055 313.871 146.055C311.508 146.055 309.525 145.537 307.924 144.502C306.986 143.916 305.941 142.91 304.789 141.484V157.51H299.516V113.77Z" fill="#FAFAFA"/>
<path d="M261.889 79.806C261.889 76.376 264.661 73.59 268.091 73.59C271.521 73.59 274.307 76.376 274.307 79.806C274.307 83.222 271.521 86.008 268.091 86.008C264.661 86.008 261.889 83.222 261.889 79.806ZM262.967 79.806C262.967 82.62 265.277 84.93 268.091 84.93C270.919 84.93 273.215 82.62 273.215 79.806C273.215 76.978 270.919 74.682 268.091 74.682C265.277 74.682 262.967 76.978 262.967 79.806ZM265.837 77.65C266.201 76.754 267.125 76.124 268.049 76.124C269.351 76.124 270.247 77.062 270.247 78.364C270.247 79.736 268.763 81.024 267.559 82.102H270.359V83.054H266.103L265.963 82.144C266.201 81.906 266.453 81.682 266.705 81.458C268.007 80.282 269.169 79.302 269.169 78.364C269.169 77.636 268.721 77.118 268.049 77.118C267.545 77.118 266.999 77.51 266.775 78.084L265.837 77.65Z" fill="#FAFAFA"/>
</svg>
