<svg width="225" height="225" viewBox="0 0 225 225" fill="none" xmlns="http://www.w3.org/2000/svg">
<path d="M25.75 203.85C25.3333 203.483 24.8583 203.192 24.325 202.975C23.7917 202.742 23.2167 202.567 22.6 202.45C21.9833 202.317 21.325 202.233 20.625 202.2C19.9417 202.15 19.2417 202.125 18.525 202.125H8.375C7.94167 202.125 7.54167 202.2 7.175 202.35C6.80833 202.5 6.49167 202.708 6.225 202.975C5.95833 203.242 5.75 203.558 5.6 203.925C5.45 204.275 5.375 204.658 5.375 205.075V208.95C5.375 209.35 5.45 209.725 5.6 210.075C5.75 210.425 5.95833 210.742 6.225 211.025C6.49167 211.292 6.80833 211.5 7.175 211.65C7.54167 211.8 7.93333 211.875 8.35 211.875H19.075C19.3917 211.875 19.675 211.817 19.925 211.7C20.175 211.583 20.3917 211.425 20.575 211.225C20.775 211.025 20.9333 210.808 21.05 210.575C21.1667 210.325 21.2417 210.075 21.275 209.825C21.3083 209.492 21.2667 209.267 21.15 209.15C21.05 209.017 20.8917 208.95 20.675 208.95H14.05V204.825H21.2C21.9667 204.825 22.625 204.917 23.175 205.1C23.725 205.267 24.175 205.5 24.525 205.8C24.8917 206.1 25.1583 206.467 25.325 206.9C25.4917 207.333 25.5833 207.8 25.6 208.3L25.75 216.05L21.725 216L22.05 211.5H21.55C21.55 212.15 21.3833 212.75 21.05 213.3C20.7333 213.85 20.325 214.325 19.825 214.725C19.3417 215.125 18.8167 215.442 18.25 215.675C17.6833 215.892 17.15 216 16.65 216H6.85C6.08333 216 5.35833 215.858 4.675 215.575C3.99167 215.275 3.39167 214.875 2.875 214.375C2.375 213.858 1.975 213.258 1.675 212.575C1.39167 211.892 1.25 211.167 1.25 210.4V203.6C1.25 202.817 1.39167 202.092 1.675 201.425C1.975 200.742 2.375 200.15 2.875 199.65C3.39167 199.133 3.99167 198.733 4.675 198.45C5.35833 198.15 6.08333 198 6.85 198H19.925C21.0083 198 22.0583 198.133 23.075 198.4C24.1083 198.65 25 199.067 25.75 199.65V203.85ZM54.301 216H49.551L47.376 212.625H33.751L31.626 216H26.876L37.926 198H43.226L54.301 216ZM40.326 202.125L36.176 208.5H45.026L40.851 202.125H40.326ZM76.7689 198L68.7939 208.925H68.9189L60.9439 198H56.0939V216H60.2189V204.3L68.7189 216H68.9189L77.4439 204.275V216H81.5689V198H76.7689ZM84.3311 216H106.956V211.875H88.4561V209.05H106.356V204.95H88.4561V202.125H106.956V198H84.3311V216ZM137.319 216H124.769C124.003 216 123.278 215.858 122.594 215.575C121.928 215.275 121.336 214.875 120.819 214.375C120.319 213.858 119.919 213.267 119.619 212.6C119.336 211.917 119.194 211.192 119.194 210.425V203.575C119.194 202.808 119.336 202.092 119.619 201.425C119.919 200.742 120.319 200.15 120.819 199.65C121.336 199.133 121.928 198.733 122.594 198.45C123.278 198.15 124.003 198 124.769 198H137.319C138.086 198 138.803 198.15 139.469 198.45C140.153 198.733 140.744 199.133 141.244 199.65C141.761 200.15 142.161 200.742 142.444 201.425C142.744 202.092 142.894 202.808 142.894 203.575V210.425C142.894 211.192 142.744 211.917 142.444 212.6C142.161 213.267 141.761 213.858 141.244 214.375C140.744 214.875 140.153 215.275 139.469 215.575C138.803 215.858 138.086 216 137.319 216ZM138.769 208.925V205.1C138.769 204.7 138.694 204.325 138.544 203.975C138.411 203.608 138.211 203.292 137.944 203.025C137.694 202.742 137.386 202.525 137.019 202.375C136.669 202.208 136.286 202.125 135.869 202.125H126.319C125.903 202.125 125.511 202.2 125.144 202.35C124.778 202.483 124.453 202.683 124.169 202.95C123.903 203.217 123.694 203.533 123.544 203.9C123.394 204.25 123.319 204.642 123.319 205.075V208.95C123.319 209.35 123.386 209.725 123.519 210.075C123.669 210.425 123.878 210.742 124.144 211.025C124.411 211.292 124.719 211.5 125.069 211.65C125.436 211.8 125.836 211.875 126.269 211.875H135.794C136.244 211.875 136.644 211.8 136.994 211.65C137.361 211.5 137.678 211.292 137.944 211.025C138.211 210.742 138.411 210.425 138.544 210.075C138.694 209.708 138.769 209.325 138.769 208.925ZM157.057 212.4H157.807L167.682 198H172.507L160.432 216H154.457L142.382 198H147.232L157.057 212.4ZM174.004 216H196.629V211.875H178.129V209.05H196.029V204.95H178.129V202.125H196.629V198H174.004V216ZM222.282 216H217.257L213.682 210.8H203.007V216H198.882V198H216.982C217.765 198 218.49 198.142 219.157 198.425C219.84 198.708 220.432 199.083 220.932 199.55C221.449 200.017 221.849 200.558 222.132 201.175C222.432 201.775 222.582 202.392 222.582 203.025V205.65C222.582 206.183 222.465 206.725 222.232 207.275C222.015 207.825 221.715 208.333 221.332 208.8C220.965 209.267 220.532 209.667 220.032 210C219.549 210.317 219.049 210.525 218.532 210.625L222.282 216ZM218.457 204.65V204.05C218.457 203.783 218.399 203.533 218.282 203.3C218.182 203.067 218.024 202.867 217.807 202.7C217.607 202.517 217.357 202.375 217.057 202.275C216.774 202.175 216.449 202.125 216.082 202.125H203.007V206.675H216.082C216.499 206.675 216.857 206.617 217.157 206.5C217.457 206.383 217.699 206.233 217.882 206.05C218.082 205.85 218.224 205.633 218.307 205.4C218.407 205.15 218.457 204.9 218.457 204.65Z" fill="#00FFBB"/>
<rect x="75" y="135" width="15" height="15" fill="#00FFBB"/>
<rect x="75" y="120" width="15" height="15" fill="#00FFBB"/>
<rect x="135" y="135" width="15" height="15" fill="#00FFBB"/>
<rect x="135" y="120" width="15" height="15" fill="#00FFBB"/>
<rect x="120" y="120" width="15" height="15" fill="#00FFBB"/>
<rect x="105" y="120" width="15" height="15" fill="#00FFBB"/>
<rect x="105" y="135" width="15" height="15" fill="#00FFBB"/>
<rect x="90" y="120" width="15" height="15" fill="#00FFBB"/>
<rect x="90" y="105" width="15" height="15" fill="#00FFBB"/>
<rect x="90" y="90" width="15" height="15" fill="#00FFBB"/>
<rect x="120" y="105" width="15" height="15" fill="#00FFBB"/>
<rect x="120" y="90" width="15" height="15" fill="#00FFBB"/>
<rect x="105" y="90" width="15" height="15" fill="#00FFBB"/>
<rect x="135" y="105" width="15" height="15" fill="#00FFBB"/>
<rect x="135" y="90" width="15" height="15" fill="#00FFBB"/>
<rect x="150" y="105" width="15" height="15" fill="#00FFBB"/>
<rect x="150" y="90" width="15" height="15" fill="#00FFBB"/>
<rect x="165" y="105" width="15" height="15" fill="#00FFBB"/>
<rect x="165" y="90" width="15" height="15" fill="#00FFBB"/>
<rect x="165" y="75" width="15" height="15" fill="#00FFBB"/>
<rect x="165" y="60" width="15" height="15" fill="#00FFBB"/>
<rect x="150" y="60" width="15" height="15" fill="#00FFBB"/>
<rect x="105" y="60" width="15" height="15" fill="#00FFBB"/>
<rect x="105" y="75" width="15" height="15" fill="#00FFBB"/>
<rect x="75" y="105" width="15" height="15" fill="#00FFBB"/>
<rect x="75" y="90" width="15" height="15" fill="#00FFBB"/>
<rect x="60" y="105" width="15" height="15" fill="#00FFBB"/>
<rect x="60" y="90" width="15" height="15" fill="#00FFBB"/>
<rect x="45" y="105" width="15" height="15" fill="#00FFBB"/>
<rect x="30" y="120" width="15" height="15" fill="#00FFBB"/>
<rect width="15" height="15" transform="matrix(-1 0 0 1 195 120)" fill="#00FFBB"/>
<rect x="15" y="135" width="15" height="15" fill="#00FFBB"/>
<rect width="15" height="15" transform="matrix(-1 0 0 1 210 135)" fill="#00FFBB"/>
<rect y="150" width="15" height="15" fill="#00FFBB"/>
<rect width="15" height="15" transform="matrix(-1 0 0 1 225 150)" fill="#00FFBB"/>
<rect x="30" y="150" width="15" height="15" fill="#00FFBB"/>
<rect width="15" height="15" transform="matrix(-1 0 0 1 195 150)" fill="#00FFBB"/>
<rect x="45" y="90" width="15" height="15" fill="#00FFBB"/>
<rect x="45" y="75" width="15" height="15" fill="#00FFBB"/>
<rect x="45" y="60" width="15" height="15" fill="#00FFBB"/>
<rect x="45" y="45" width="15" height="15" fill="#00FFBB"/>
<rect x="30" y="30" width="15" height="15" fill="#00FFBB"/>
<rect x="15" y="15" width="15" height="15" fill="#00FFBB"/>
<rect y="15" width="15" height="15" fill="#00FFBB"/>
<rect x="15" width="15" height="15" fill="#00FFBB"/>
<rect width="15" height="15" transform="matrix(-1 0 0 1 180 30)" fill="#00FFBB"/>
<rect width="15" height="15" transform="matrix(-1 0 0 1 195 15)" fill="#00FFBB"/>
<rect width="15" height="15" transform="matrix(-1 0 0 1 210 15)" fill="#00FFBB"/>
<rect width="15" height="15" transform="matrix(-1 0 0 1 195 0)" fill="#00FFBB"/>
<rect width="15" height="15" transform="matrix(-1 0 0 1 180 0)" fill="#00FFBB"/>
<rect x="60" y="45" width="15" height="15" fill="#00FFBB"/>
<rect x="75" y="45" width="15" height="15" fill="#00FFBB"/>
<rect x="75" y="30" width="15" height="15" fill="#00FFBB"/>
<rect x="75" y="15" width="15" height="15" fill="#00FFBB"/>
<rect x="90" y="15" width="15" height="15" fill="#00FFBB"/>
<rect x="105" y="15" width="15" height="15" fill="#00FFBB"/>
<rect x="120" y="15" width="15" height="15" fill="#00FFBB"/>
<rect x="90" y="45" width="15" height="15" fill="#00FFBB"/>
<rect x="105" y="45" width="15" height="15" fill="#00FFBB"/>
<rect x="120" y="45" width="15" height="15" fill="#00FFBB"/>
<rect x="135" y="45" width="15" height="15" fill="#00FFBB"/>
<rect x="135" y="30" width="15" height="15" fill="#00FFBB"/>
<rect x="120" y="30" width="15" height="15" fill="#00FFBB"/>
<rect x="105" y="30" width="15" height="15" fill="#00FFBB"/>
<rect x="90" y="30" width="15" height="15" fill="#00FFBB"/>
<rect x="60" y="30" width="15" height="15" fill="#00FFBB"/>
<rect x="150" y="45" width="15" height="15" fill="#00FFBB"/>
</svg>
