<svg width="360" height="181" viewBox="0 0 360 181" fill="none" xmlns="http://www.w3.org/2000/svg">
<rect width="360" height="181" fill="#171717"/>
<path d="M14.825 73.65V53H17.325V62.4L20.15 61.425V53H22.65V73.65H20.15V63.5L17.325 64.475V73.65H14.825ZM4.25 53.5V71.35H13.225V73.4H1.75V53.5H4.25ZM35.4682 73.4V55.55H25.9932V53.5H37.9682V73.4H35.4682ZM44.2932 61.2H47.2182V63.25H44.2932V73.65H41.7932V53H44.2932V61.2ZM54.9348 57.7C54.9348 56.9333 55.0931 56.2583 55.4098 55.675C55.7431 55.0917 56.2098 54.6083 56.8098 54.225C57.4264 53.825 58.1598 53.525 59.0098 53.325C59.8764 53.125 60.8514 53.025 61.9348 53.025C63.8014 53.025 65.3348 53.325 66.5348 53.925C67.7348 54.5083 68.4931 55.375 68.8098 56.525L72.0598 55.8V53H74.5598V69.4H72.0598V57.825L68.8848 58.55C68.6514 59.8167 67.9181 60.775 66.6848 61.425C65.4514 62.0583 63.8681 62.375 61.9348 62.375C60.8514 62.375 59.8764 62.275 59.0098 62.075C58.1598 61.875 57.4264 61.5833 56.8098 61.2C56.2098 60.8 55.7431 60.3083 55.4098 59.725C55.0931 59.1417 54.9348 58.4667 54.9348 57.7ZM58.2348 67.775V72.1H74.8098V74.15H55.7348V67.775H58.2348ZM60.7348 69.7V66.15H54.5598V64.1H70.4098V66.15H63.2348V69.7H60.7348ZM57.4598 57.7C57.4598 58.1667 57.5764 58.5667 57.8098 58.9C58.0431 59.2333 58.3598 59.5083 58.7598 59.725C59.1764 59.9417 59.6514 60.1 60.1848 60.2C60.7348 60.3 61.3181 60.35 61.9348 60.35C62.5514 60.35 63.1348 60.3 63.6848 60.2C64.2348 60.0833 64.7181 59.9167 65.1348 59.7C65.5514 59.4833 65.8764 59.2083 66.1098 58.875C66.3431 58.5417 66.4598 58.15 66.4598 57.7C66.4598 57.25 66.3431 56.8583 66.1098 56.525C65.8764 56.1917 65.5514 55.9167 65.1348 55.7C64.7181 55.4833 64.2348 55.325 63.6848 55.225C63.1348 55.1083 62.5514 55.05 61.9348 55.05C61.3181 55.05 60.7348 55.1 60.1848 55.2C59.6514 55.3 59.1764 55.4583 58.7598 55.675C58.3598 55.8917 58.0431 56.1667 57.8098 56.5C57.5764 56.8333 57.4598 57.2333 57.4598 57.7ZM90.7137 66.4C90.7137 67.7167 90.5387 68.8417 90.1887 69.775C89.8387 70.6917 89.372 71.4333 88.7887 72C88.2053 72.5833 87.5303 73 86.7637 73.25C85.997 73.5167 85.197 73.65 84.3637 73.65C83.5137 73.65 82.7053 73.5167 81.9387 73.25C81.1887 73 80.522 72.5833 79.9387 72C79.372 71.4333 78.9137 70.6917 78.5637 69.775C78.2303 68.8417 78.0637 67.7167 78.0637 66.4C78.0637 65.0833 78.2303 63.9667 78.5637 63.05C78.9137 62.1333 79.372 61.3917 79.9387 60.825C80.522 60.2417 81.1887 59.8167 81.9387 59.55C82.7053 59.2833 83.5137 59.15 84.3637 59.15C85.197 59.15 85.997 59.2833 86.7637 59.55C87.5303 59.8167 88.2053 60.2417 88.7887 60.825C89.372 61.3917 89.8387 62.1333 90.1887 63.05C90.5387 63.9667 90.7137 65.0833 90.7137 66.4ZM80.5637 66.4C80.5637 68.1167 80.9053 69.4167 81.5887 70.3C82.272 71.1667 83.197 71.6 84.3637 71.6C85.4803 71.6 86.397 71.1667 87.1137 70.3C87.8303 69.4333 88.1887 68.125 88.1887 66.375C88.1887 64.6583 87.8303 63.3667 87.1137 62.5C86.397 61.6333 85.4803 61.2 84.3637 61.2C83.197 61.2 82.272 61.6417 81.5887 62.525C80.9053 63.3917 80.5637 64.6833 80.5637 66.4ZM96.5637 61.2H99.4887V63.25H96.5637V73.65H94.0637V53H96.5637V61.2ZM77.4387 55H83.1137V52.3H85.6137V55H91.3137V57.05H77.4387V55ZM105.424 53.25V58.8H120.099V60.85H102.924V53.25H105.424ZM101.449 63.375H121.574V65.425H101.449V63.375ZM105.174 67.275V72.1H120.599V74.15H102.674V67.275H105.174ZM149.853 55.575H141.903V56.525C141.903 57.9917 141.72 59.3083 141.353 60.475L150.478 65.6L149.303 67.375L140.428 62.45C139.695 63.5833 138.628 64.5833 137.228 65.45C135.828 66.3167 133.978 67.0333 131.678 67.6L130.728 65.65C132.378 65.25 133.753 64.775 134.853 64.225C135.97 63.6583 136.862 63.0083 137.528 62.275C138.212 61.5417 138.695 60.7 138.978 59.75C139.262 58.7833 139.403 57.7 139.403 56.5V55.575H131.178V53.525H149.853V55.575ZM130.453 71.6H139.253V66.25H141.753V71.6H150.578V73.65H130.453V71.6ZM163.251 65.275V55.3H153.776V53.25H165.751V65.275H163.251ZM157.326 67.275V72.1H173.076V74.15H154.826V67.275H157.326ZM172.826 53V67.675H170.326V59.75L166.751 60.575V58.525L170.326 57.7V53H172.826ZM183.155 65.2C183.822 65.2 184.43 65.075 184.98 64.825C185.547 64.5583 186.03 64.1917 186.43 63.725C186.847 63.2583 187.172 62.7167 187.405 62.1C187.639 61.4667 187.755 60.775 187.755 60.025C187.755 59.2583 187.639 58.5583 187.405 57.925C187.172 57.275 186.847 56.725 186.43 56.275C186.03 55.8083 185.547 55.45 184.98 55.2C184.43 54.95 183.822 54.825 183.155 54.825C182.455 54.825 181.822 54.9583 181.255 55.225C180.689 55.475 180.205 55.8333 179.805 56.3C179.405 56.75 179.097 57.2917 178.88 57.925C178.664 58.5583 178.555 59.2583 178.555 60.025C178.555 60.7917 178.664 61.4917 178.88 62.125C179.114 62.7583 179.43 63.3083 179.83 63.775C180.23 64.225 180.714 64.575 181.28 64.825C181.847 65.075 182.472 65.2 183.155 65.2ZM176.03 60.025C176.03 58.8583 176.214 57.825 176.58 56.925C176.947 56.025 177.447 55.2667 178.08 54.65C178.73 54.0333 179.489 53.5667 180.355 53.25C181.222 52.9333 182.155 52.775 183.155 52.775C184.139 52.775 185.064 52.9333 185.93 53.25C186.797 53.5667 187.547 54.0333 188.18 54.65C188.83 55.2667 189.339 56.025 189.705 56.925C190.089 57.825 190.28 58.8583 190.28 60.025C190.28 61.175 190.089 62.2 189.705 63.1C189.339 63.9833 188.83 64.7333 188.18 65.35C187.547 65.95 186.797 66.4167 185.93 66.75C185.064 67.0667 184.139 67.225 183.155 67.225C182.155 67.225 181.222 67.0667 180.355 66.75C179.489 66.4167 178.73 65.95 178.08 65.35C177.447 64.7333 176.947 63.9833 176.58 63.1C176.214 62.2 176.03 61.175 176.03 60.025ZM191.43 71.075V73.125H175.58V71.075H191.43ZM195.58 73.65H193.08V53H195.58V73.65ZM9.375 97.225C9.375 98.5583 9.23333 99.8167 8.95 101L15.7 106.25L14.425 108.15L8.1 103.225C7.53333 104.292 6.75 105.242 5.75 106.075C4.76667 106.925 3.51667 107.675 2 108.325L0.85 106.325C1.93333 105.825 2.85833 105.317 3.625 104.8C4.39167 104.267 5.00833 103.658 5.475 102.975C5.95833 102.275 6.30833 101.467 6.525 100.55C6.74167 99.6167 6.85 98.5 6.85 97.2V88.2H9.375V97.225ZM20.05 96.2H22.975V98.25H20.05V108.65H17.55V88H20.05V96.2ZM43.5607 101.025V109.15H26.3107V101.025H43.5607ZM25.2607 90.3V88.25H37.2357V94.925H27.7607V97.475H37.7357V99.525H25.2607V92.875H34.7357V90.3H25.2607ZM28.8107 103.075V107.1H41.0607V103.075H28.8107ZM43.5607 94.35V99.65H41.0607V88H43.5607V92.3H46.4857V94.35H43.5607ZM67.3465 93.2V95.25H49.9215V88.25H67.0965V90.3H52.4215V93.2H67.3465ZM48.4465 96.9H68.5715V98.95H48.4465V96.9ZM64.8465 103.8V102.525H49.6715V100.475H67.3465V105.85H52.1715V107.1H67.5965V109.15H49.6715V103.8H64.8465ZM90.3195 96.2H93.2445V98.25H90.3195V108.65H87.8195V88H90.3195V96.2ZM75.9695 106.075V96H78.4695V106.075H86.1695V108.125H70.8195V106.075H75.9695ZM82.2195 102.475V90.55H72.1945V88.5H84.7195V102.475H82.2195ZM119.586 101.775V109.15H102.336V101.775H119.586ZM107.386 92.175C108.336 92.175 109.203 92.275 109.986 92.475C110.769 92.675 111.436 92.9583 111.986 93.325C112.553 93.675 112.986 94.1083 113.286 94.625C113.586 95.1417 113.736 95.725 113.736 96.375C113.736 97.025 113.586 97.6083 113.286 98.125C112.986 98.6417 112.553 99.0833 111.986 99.45C111.436 99.8 110.769 100.075 109.986 100.275C109.203 100.458 108.336 100.55 107.386 100.55C106.436 100.55 105.569 100.458 104.786 100.275C104.019 100.075 103.361 99.8 102.811 99.45C102.261 99.0833 101.836 98.6417 101.536 98.125C101.236 97.6083 101.086 97.025 101.086 96.375C101.086 95.725 101.236 95.1417 101.536 94.625C101.836 94.1083 102.261 93.675 102.811 93.325C103.361 92.9583 104.019 92.675 104.786 92.475C105.569 92.275 106.436 92.175 107.386 92.175ZM104.836 103.825V107.1H117.086V103.825H104.836ZM119.586 94.85V100.4H117.086V88H119.586V92.8H122.511V94.85H119.586ZM100.461 88.75H106.136V86.8H108.636V88.75H114.336V90.8H100.461V88.75ZM107.386 94.225C106.253 94.225 105.336 94.4167 104.636 94.8C103.936 95.1667 103.586 95.6917 103.586 96.375C103.586 97.0417 103.936 97.5667 104.636 97.95C105.336 98.3167 106.253 98.5 107.386 98.5C108.503 98.5 109.419 98.3167 110.136 97.95C110.869 97.5667 111.236 97.0417 111.236 96.375C111.236 96.0417 111.136 95.7417 110.936 95.475C110.736 95.2083 110.461 94.9833 110.111 94.8C109.761 94.6167 109.353 94.475 108.886 94.375C108.419 94.275 107.919 94.225 107.386 94.225ZM127.572 108.4V91.8H123.822V89.75H129.322V88.5H136.172V97.675L139.122 96.625V88H141.622V108.65H139.122V98.6L136.172 99.625V108.4H133.672V90.55H130.072V108.4H127.572ZM146.697 108.65H144.197V88H146.697V108.65ZM162.247 101.4C162.247 102.717 162.072 103.842 161.722 104.775C161.372 105.692 160.905 106.433 160.322 107C159.739 107.583 159.064 108 158.297 108.25C157.53 108.517 156.73 108.65 155.897 108.65C155.047 108.65 154.239 108.517 153.472 108.25C152.722 108 152.055 107.583 151.472 107C150.905 106.433 150.447 105.692 150.097 104.775C149.764 103.842 149.597 102.717 149.597 101.4C149.597 100.083 149.764 98.9667 150.097 98.05C150.447 97.1333 150.905 96.3917 151.472 95.825C152.055 95.2417 152.722 94.8167 153.472 94.55C154.239 94.2833 155.047 94.15 155.897 94.15C156.73 94.15 157.53 94.2833 158.297 94.55C159.064 94.8167 159.739 95.2417 160.322 95.825C160.905 96.3917 161.372 97.1333 161.722 98.05C162.072 98.9667 162.247 100.083 162.247 101.4ZM152.097 101.4C152.097 103.117 152.439 104.417 153.122 105.3C153.805 106.167 154.73 106.6 155.897 106.6C157.014 106.6 157.93 106.167 158.647 105.3C159.364 104.433 159.722 103.125 159.722 101.375C159.722 99.6583 159.364 98.3667 158.647 97.5C157.93 96.6333 157.014 96.2 155.897 96.2C154.73 96.2 153.805 96.6417 153.122 97.525C152.439 98.3917 152.097 99.6833 152.097 101.4ZM168.097 96.2H171.022V98.25H168.097V108.65H165.597V88H168.097V96.2ZM148.972 90H154.647V87.3H157.147V90H162.847V92.05H148.972V90ZM176.958 88.25V93.8H191.633V95.85H174.458V88.25H176.958ZM172.983 98.375H193.108V100.425H172.983V98.375ZM176.708 102.275V107.1H192.133V109.15H174.208V102.275H176.708ZM9.375 132.225C9.375 133.558 9.23333 134.817 8.95 136L15.7 141.25L14.425 143.15L8.1 138.225C7.53333 139.292 6.75 140.242 5.75 141.075C4.76667 141.925 3.51667 142.675 2 143.325L0.85 141.325C1.93333 140.825 2.85833 140.317 3.625 139.8C4.39167 139.267 5.00833 138.658 5.475 137.975C5.95833 137.275 6.30833 136.467 6.525 135.55C6.74167 134.617 6.85 133.5 6.85 132.2V123.2H9.375V132.225ZM20.05 131.2H22.975V133.25H20.05V143.65H17.55V123H20.05V131.2ZM38.5107 133.45C38.5107 135.25 38.3191 136.8 37.9357 138.1C37.5691 139.383 37.0607 140.433 36.4107 141.25C35.7774 142.083 35.0357 142.692 34.1857 143.075C33.3357 143.458 32.4441 143.65 31.5107 143.65C30.5607 143.65 29.6607 143.458 28.8107 143.075C27.9607 142.692 27.2107 142.083 26.5607 141.25C25.9274 140.433 25.4274 139.383 25.0607 138.1C24.6941 136.8 24.5107 135.25 24.5107 133.45C24.5107 131.65 24.6941 130.108 25.0607 128.825C25.4274 127.542 25.9274 126.492 26.5607 125.675C27.2107 124.842 27.9607 124.233 28.8107 123.85C29.6607 123.45 30.5607 123.25 31.5107 123.25C32.4441 123.25 33.3357 123.45 34.1857 123.85C35.0357 124.233 35.7774 124.842 36.4107 125.675C37.0607 126.492 37.5691 127.542 37.9357 128.825C38.3191 130.108 38.5107 131.65 38.5107 133.45ZM27.0107 133.45C27.0107 134.967 27.1191 136.25 27.3357 137.3C27.5691 138.333 27.8857 139.167 28.2857 139.8C28.6857 140.433 29.1607 140.892 29.7107 141.175C30.2607 141.458 30.8607 141.6 31.5107 141.6C32.1441 141.6 32.7357 141.458 33.2857 141.175C33.8357 140.908 34.3107 140.458 34.7107 139.825C35.1107 139.175 35.4191 138.333 35.6357 137.3C35.8691 136.25 35.9857 134.958 35.9857 133.425C35.9857 131.908 35.8691 130.633 35.6357 129.6C35.4191 128.567 35.1107 127.733 34.7107 127.1C34.3107 126.467 33.8357 126.008 33.2857 125.725C32.7357 125.442 32.1441 125.3 31.5107 125.3C30.8607 125.3 30.2607 125.442 29.7107 125.725C29.1607 126.008 28.6857 126.467 28.2857 127.1C27.8857 127.733 27.5691 128.575 27.3357 129.625C27.1191 130.658 27.0107 131.933 27.0107 133.45ZM44.3107 143.65H41.8107V123H44.3107V143.65ZM66.8396 135.175V137.225H48.9146V123.5H66.5896V125.55H51.4146V135.175H66.8396ZM47.6896 141.6H67.8146V143.65H47.6896V141.6ZM77.6686 123.475H95.8436V125.525H92.2436V135.175H95.8436V137.225H77.6686V135.175H81.2436V125.525H77.6686V123.475ZM83.7436 135.175H89.7436V125.525H83.7436V135.175ZM76.6936 141.6H96.8186V143.65H76.6936V141.6ZM116.592 129.35V125.55H100.917V123.5H119.092V131.4H103.417V135.175H119.342V137.225H110.992V141.6H119.817V143.65H99.6916V141.6H108.492V137.225H100.917V129.35H116.592ZM122.69 123.25H134.065V125.3H129.565V127.375C129.565 128.142 129.465 128.833 129.265 129.45L134.865 133.45L133.54 135.15L128.315 131.425C127.781 132.158 127.09 132.825 126.24 133.425C125.39 134.008 124.39 134.55 123.24 135.05L122.09 133.075C123.756 132.442 124.998 131.675 125.815 130.775C126.631 129.875 127.04 128.733 127.04 127.35V125.3H122.69V123.25ZM141.14 144.15V138.8H124.065V136.775H143.915V144.15H141.14ZM136.34 135.4V129.25L132.84 130.075V128.125L136.34 127.275V123H138.84V135.4H136.34ZM143.915 135.4H141.415V123H143.915V135.4ZM166.083 135.175V137.225H148.158V123.5H165.833V125.55H150.658V129.35H165.833V131.4H150.658V135.175H166.083ZM146.933 141.6H167.058V143.65H146.933V141.6ZM195.312 143.65H192.812V133.225L188.987 134.575C188.903 136.175 188.662 137.55 188.262 138.7C187.862 139.833 187.353 140.767 186.737 141.5C186.12 142.25 185.42 142.792 184.637 143.125C183.87 143.475 183.078 143.65 182.262 143.65C181.362 143.65 180.503 143.458 179.687 143.075C178.887 142.692 178.17 142.083 177.537 141.25C176.92 140.433 176.428 139.383 176.062 138.1C175.695 136.8 175.512 135.25 175.512 133.45C175.512 131.65 175.695 130.108 176.062 128.825C176.428 127.542 176.92 126.492 177.537 125.675C178.17 124.842 178.887 124.233 179.687 123.85C180.503 123.45 181.362 123.25 182.262 123.25C183.095 123.25 183.903 123.433 184.687 123.8C185.47 124.15 186.17 124.708 186.787 125.475C187.403 126.225 187.903 127.192 188.287 128.375C188.687 129.542 188.92 130.95 188.987 132.6L192.812 131.25V123H195.312V143.65ZM178.012 133.45C178.012 134.967 178.12 136.25 178.337 137.3C178.57 138.333 178.878 139.167 179.262 139.8C179.645 140.433 180.095 140.892 180.612 141.175C181.128 141.458 181.678 141.6 182.262 141.6C182.828 141.6 183.37 141.458 183.887 141.175C184.403 140.908 184.853 140.458 185.237 139.825C185.62 139.175 185.92 138.333 186.137 137.3C186.37 136.25 186.487 134.958 186.487 133.425C186.487 131.908 186.37 130.633 186.137 129.6C185.92 128.567 185.62 127.733 185.237 127.1C184.853 126.467 184.403 126.008 183.887 125.725C183.37 125.442 182.828 125.3 182.262 125.3C181.678 125.3 181.128 125.442 180.612 125.725C180.095 126.008 179.645 126.467 179.262 127.1C178.878 127.733 178.57 128.575 178.337 129.625C178.12 130.658 178.012 131.933 178.012 133.45ZM213.341 143.65V123H215.841V132.325L218.416 131.425V123H220.916V143.65H218.416V133.5L215.841 134.375V143.65H213.341ZM211.866 143.4H205.516V123.5H211.616V125.55H208.016V141.35H211.866V143.4ZM204.491 143.4H198.266V124.75H204.491V126.8H200.766V141.35H204.491V143.4ZM223.691 141.6H227.741V135.925C226.741 135.292 225.974 134.5 225.441 133.55C224.924 132.583 224.666 131.517 224.666 130.35C224.666 129.317 224.874 128.367 225.291 127.5C225.724 126.633 226.332 125.883 227.116 125.25C227.899 124.617 228.849 124.125 229.966 123.775C231.082 123.408 232.341 123.225 233.741 123.225C235.074 123.225 236.299 123.408 237.416 123.775C238.532 124.125 239.491 124.617 240.291 125.25C241.091 125.883 241.716 126.633 242.166 127.5C242.616 128.367 242.841 129.317 242.841 130.35C242.841 131.517 242.574 132.583 242.041 133.55C241.507 134.5 240.741 135.292 239.741 135.925V141.6H243.816V143.65H223.691V141.6ZM233.741 135.425C234.807 135.425 235.749 135.292 236.566 135.025C237.382 134.742 238.066 134.375 238.616 133.925C239.182 133.458 239.607 132.917 239.891 132.3C240.191 131.683 240.341 131.033 240.341 130.35C240.341 129.667 240.191 129.017 239.891 128.4C239.607 127.783 239.182 127.25 238.616 126.8C238.066 126.333 237.382 125.967 236.566 125.7C235.749 125.417 234.807 125.275 233.741 125.275C232.674 125.275 231.732 125.417 230.916 125.7C230.099 125.967 229.407 126.333 228.841 126.8C228.291 127.25 227.874 127.783 227.591 128.4C227.307 129.017 227.166 129.667 227.166 130.35C227.166 131.033 227.307 131.683 227.591 132.3C227.874 132.917 228.291 133.458 228.841 133.925C229.407 134.375 230.099 134.742 230.916 135.025C231.732 135.292 232.674 135.425 233.741 135.425ZM233.741 137.475C232.424 137.475 231.257 137.325 230.241 137.025V141.6H237.241V137.025C236.191 137.325 235.024 137.475 233.741 137.475ZM251.314 138.875V132.85C252.014 132.817 252.697 132.7 253.364 132.5C254.03 132.3 254.622 132.025 255.139 131.675C255.655 131.308 256.072 130.858 256.389 130.325C256.705 129.792 256.864 129.167 256.864 128.45C256.864 127.8 256.739 127.242 256.489 126.775C256.255 126.292 255.93 125.9 255.514 125.6C255.114 125.3 254.647 125.083 254.114 124.95C253.597 124.817 253.055 124.75 252.489 124.75C251.905 124.75 251.38 124.858 250.914 125.075C250.447 125.275 250.03 125.542 249.664 125.875C249.314 126.208 249.014 126.6 248.764 127.05C248.514 127.5 248.314 127.975 248.164 128.475L246.039 127.575C246.305 126.708 246.655 125.967 247.089 125.35C247.539 124.717 248.055 124.208 248.639 123.825C249.222 123.425 249.864 123.133 250.564 122.95C251.264 122.767 252.005 122.675 252.789 122.675C253.905 122.675 254.872 122.817 255.689 123.1C256.522 123.383 257.205 123.775 257.739 124.275C258.289 124.758 258.697 125.333 258.964 126C259.23 126.667 259.364 127.383 259.364 128.15C259.364 129.867 258.88 131.233 257.914 132.25C256.947 133.267 255.58 133.992 253.814 134.425V138.875H251.314ZM251.314 141.5H253.814V144.15H251.314V141.5Z" fill="#FAFAFA"/>
<path d="M11.648 22.92V29.864H10.248V26.294L8.078 26.798C8.022 27.2087 7.896 27.5913 7.7 27.946C7.51333 28.2913 7.26133 28.59 6.944 28.842C6.62667 29.094 6.24867 29.2947 5.81 29.444C5.37133 29.584 4.88133 29.654 4.34 29.654C3.74267 29.654 3.206 29.57 2.73 29.402C2.26333 29.2247 1.86667 28.9867 1.54 28.688C1.22267 28.38 0.98 28.0253 0.812 27.624C0.644 27.2133 0.56 26.77 0.56 26.294C0.56 25.818 0.644 25.3747 0.812 24.964C0.98 24.544 1.22267 24.1847 1.54 23.886C1.86667 23.5873 2.26333 23.354 2.73 23.186C3.206 23.0087 3.74267 22.92 4.34 22.92C4.872 22.92 5.348 22.99 5.768 23.13C6.19733 23.2607 6.57067 23.4473 6.888 23.69C7.20533 23.9327 7.462 24.222 7.658 24.558C7.854 24.894 7.98933 25.2627 8.064 25.664L10.248 25.16V22.92H11.648ZM4.34 28.506C4.704 28.506 5.03067 28.45 5.32 28.338C5.61867 28.226 5.87067 28.072 6.076 27.876C6.28133 27.6707 6.44 27.4327 6.552 27.162C6.664 26.8913 6.72 26.602 6.72 26.294C6.72 25.9767 6.664 25.6827 6.552 25.412C6.44 25.1413 6.28133 24.908 6.076 24.712C5.87067 24.5067 5.61867 24.348 5.32 24.236C5.03067 24.124 4.704 24.068 4.34 24.068C3.976 24.068 3.64467 24.124 3.346 24.236C3.05667 24.348 2.80933 24.5067 2.604 24.712C2.39867 24.908 2.24 25.1413 2.128 25.412C2.016 25.6827 1.96 25.9767 1.96 26.294C1.96 26.602 2.016 26.8913 2.128 27.162C2.24 27.4327 2.39867 27.6707 2.604 27.876C2.80933 28.072 3.05667 28.226 3.346 28.338C3.64467 28.45 3.976 28.506 4.34 28.506ZM10.248 34.764V31.782H1.568V30.634H11.648V34.764H10.248ZM13.5402 23.2H21.4502V24.348H18.1322V28.086C18.1322 28.478 18.1135 28.8467 18.0762 29.192C18.0389 29.5373 17.9782 29.8687 17.8942 30.186L21.8142 33.14L21.1002 34.204L17.4042 31.432C17.0775 32.0387 16.6295 32.5753 16.0602 33.042C15.4909 33.518 14.7582 33.938 13.8622 34.302L13.2182 33.182C13.8622 32.902 14.4035 32.6173 14.8422 32.328C15.2902 32.0293 15.6542 31.6887 15.9342 31.306C16.2142 30.914 16.4149 30.4613 16.5362 29.948C16.6575 29.4253 16.7182 28.8 16.7182 28.072V24.348H13.5402V23.2ZM24.3902 34.484H22.9902V22.92H24.3902V34.484ZM35.7464 26.476V24.348H26.9684V23.2H37.1464V27.624H28.3684V29.738H37.2864V30.886H32.6104V33.336H37.5524V34.484H26.2824V33.336H31.2104V30.886H26.9684V26.476H35.7464ZM44.5686 34.344V25.048H42.1606V23.9H45.5486V23.2H49.9726V34.344H48.5726V24.348H45.9686V34.344H44.5686ZM53.3746 34.484H51.9746V22.92H53.3746V34.484ZM55.2948 25.664C55.2948 25.1507 55.3928 24.7167 55.5888 24.362C55.7848 23.998 56.0554 23.6993 56.4008 23.466C56.7554 23.2327 57.1661 23.0647 57.6328 22.962C58.1088 22.85 58.6268 22.794 59.1868 22.794C59.7374 22.794 60.2508 22.85 60.7268 22.962C61.2121 23.0647 61.6274 23.2327 61.9728 23.466C62.3274 23.6993 62.6028 23.998 62.7988 24.362C63.0041 24.7167 63.1068 25.1507 63.1068 25.664C63.1068 26.168 63.0041 26.5973 62.7988 26.952C62.6028 27.3067 62.3274 27.6007 61.9728 27.834C61.6274 28.0673 61.2121 28.24 60.7268 28.352C60.2508 28.4547 59.7374 28.506 59.1868 28.506C58.6268 28.506 58.1088 28.4547 57.6328 28.352C57.1661 28.24 56.7554 28.0673 56.4008 27.834C56.0554 27.6007 55.7848 27.3067 55.5888 26.952C55.3928 26.5973 55.2948 26.168 55.2948 25.664ZM61.2308 31.964H64.7168V22.92H66.1168V34.484H64.7168V33.112H61.2308V31.964ZM58.3748 34.484V30.83H54.9168V29.682H63.7928V30.83H59.7748V34.484H58.3748ZM59.1868 27.372C59.5601 27.372 59.9008 27.3347 60.2088 27.26C60.5168 27.1853 60.7781 27.078 60.9928 26.938C61.2168 26.7887 61.3894 26.6113 61.5108 26.406C61.6321 26.1913 61.6928 25.944 61.6928 25.664C61.6928 25.076 61.4594 24.642 60.9928 24.362C60.5354 24.082 59.9334 23.942 59.1868 23.942C58.4028 23.942 57.7914 24.0867 57.3528 24.376C56.9234 24.656 56.7088 25.0853 56.7088 25.664C56.7088 26.252 56.9281 26.686 57.3668 26.966C57.8148 27.2367 58.4214 27.372 59.1868 27.372ZM78.2602 23.06V28.828H71.5542V23.06H78.2602ZM81.8022 30.998H77.7562C77.7469 31.5113 77.6396 31.9687 77.4342 32.37L82.0262 33.728L81.5642 34.82L76.6222 33.308C76.1742 33.6533 75.5909 33.9473 74.8722 34.19C74.1629 34.4327 73.2856 34.652 72.2402 34.848L71.8202 33.7C72.6229 33.56 73.3042 33.4153 73.8642 33.266C74.4336 33.1167 74.8956 32.944 75.2502 32.748C75.6142 32.5427 75.8802 32.3 76.0482 32.02C76.2256 31.74 76.3236 31.3993 76.3422 30.998H72.1142V29.85H81.8022V30.998ZM76.8602 27.68V24.208H72.9542V27.68H76.8602ZM81.8022 26.336V29.08H80.4022V22.92H81.8022V25.188H83.4402V26.336H81.8022ZM90.8802 22.276V23.522H95.4722V24.67H90.8802V25.314C90.8802 25.9393 90.7729 26.5087 90.5582 27.022L95.7522 28.996L95.0942 29.99L89.9142 28.016C89.4942 28.4733 88.9109 28.884 88.1642 29.248C87.4176 29.6027 86.4376 29.892 85.2242 30.116L84.6922 29.024C85.6162 28.8653 86.3862 28.6693 87.0022 28.436C87.6182 28.2027 88.1082 27.932 88.4722 27.624C88.8362 27.316 89.0929 26.9707 89.2422 26.588C89.4009 26.196 89.4802 25.7667 89.4802 25.3V24.67H84.9442V23.522H89.4802V22.276H90.8802ZM89.4662 34.918V32.552H84.5382V31.404H95.8082V32.552H90.8662V34.918H89.4662ZM99.6431 23.06V26.168H107.861V27.316H98.2431V23.06H99.6431ZM97.4171 28.73H108.687V29.878H97.4171V28.73ZM99.5031 30.914V33.616H108.141V34.764H98.1031V30.914H99.5031ZM114.205 23.186H124.383V24.334H122.367V29.738H124.383V30.886H114.205V29.738H116.207V24.334H114.205V23.186ZM117.607 29.738H120.967V24.334H117.607V29.738ZM113.659 33.336H124.929V34.484H113.659V33.336ZM136.002 26.476V24.348H127.224V23.2H137.402V27.624H128.624V29.738H137.542V30.886H132.866V33.336H137.808V34.484H126.538V33.336H131.466V30.886H127.224V26.476H136.002ZM139.417 23.06H145.787V24.208H143.267V25.37C143.267 25.7993 143.211 26.1867 143.099 26.532L146.235 28.772L145.493 29.724L142.567 27.638C142.268 28.0487 141.881 28.422 141.405 28.758C140.929 29.0847 140.369 29.388 139.725 29.668L139.081 28.562C140.014 28.2073 140.71 27.778 141.167 27.274C141.624 26.77 141.853 26.1307 141.853 25.356V24.208H139.417V23.06ZM149.749 34.764V31.768H140.187V30.634H151.303V34.764H149.749ZM147.061 29.864V26.42L145.101 26.882V25.79L147.061 25.314V22.92H148.461V29.864H147.061ZM151.303 29.864H149.903V22.92H151.303V29.864ZM163.717 29.738V30.886H153.679V23.2H163.577V24.348H155.079V26.476H163.577V27.624H155.079V29.738H163.717ZM152.993 33.336H164.263V34.484H152.993V33.336ZM168.098 23.06V26.168H176.316V27.316H166.698V23.06H168.098ZM165.872 28.73H177.142V29.878H165.872V28.73ZM167.958 30.914V33.616H176.596V34.764H166.558V30.914H167.958ZM189.716 28.772C189.716 29.78 189.609 30.648 189.394 31.376C189.189 32.0947 188.904 32.6827 188.54 33.14C188.186 33.6067 187.77 33.9473 187.294 34.162C186.818 34.3767 186.319 34.484 185.796 34.484C185.264 34.484 184.76 34.3767 184.284 34.162C183.808 33.9473 183.388 33.6067 183.024 33.14C182.67 32.6827 182.39 32.0947 182.184 31.376C181.979 30.648 181.876 29.78 181.876 28.772C181.876 27.764 181.979 26.9007 182.184 26.182C182.39 25.4633 182.67 24.8753 183.024 24.418C183.388 23.9513 183.808 23.6107 184.284 23.396C184.76 23.172 185.264 23.06 185.796 23.06C186.319 23.06 186.818 23.172 187.294 23.396C187.77 23.6107 188.186 23.9513 188.54 24.418C188.904 24.8753 189.189 25.4633 189.394 26.182C189.609 26.9007 189.716 27.764 189.716 28.772ZM183.276 28.772C183.276 29.6213 183.337 30.34 183.458 30.928C183.589 31.5067 183.766 31.9733 183.99 32.328C184.214 32.6827 184.48 32.9393 184.788 33.098C185.096 33.2567 185.432 33.336 185.796 33.336C186.151 33.336 186.482 33.2567 186.79 33.098C187.098 32.9487 187.364 32.6967 187.588 32.342C187.812 31.978 187.985 31.5067 188.106 30.928C188.237 30.34 188.302 29.6167 188.302 28.758C188.302 27.9087 188.237 27.1947 188.106 26.616C187.985 26.0373 187.812 25.5707 187.588 25.216C187.364 24.8613 187.098 24.6047 186.79 24.446C186.482 24.2873 186.151 24.208 185.796 24.208C185.432 24.208 185.096 24.2873 184.788 24.446C184.48 24.6047 184.214 24.8613 183.99 25.216C183.766 25.5707 183.589 26.042 183.458 26.63C183.337 27.2087 183.276 27.9227 183.276 28.772ZM192.964 34.484H191.564V22.92H192.964V34.484ZM194.857 23.2H201.227V24.348H198.707V28.086C198.707 28.9073 198.632 29.6353 198.483 30.27L201.675 33.182L200.863 34.204L198.021 31.6C197.75 32.16 197.381 32.6593 196.915 33.098C196.457 33.546 195.879 33.9473 195.179 34.302L194.535 33.182C195.039 32.902 195.463 32.6173 195.809 32.328C196.163 32.0293 196.448 31.6887 196.663 31.306C196.887 30.914 197.045 30.4613 197.139 29.948C197.241 29.4253 197.293 28.8 197.293 28.072V24.348H194.857V23.2ZM202.501 34.484V28.114L200.261 28.884V27.792L202.501 27.008V22.92H203.901V34.484H202.501ZM206.743 34.484H205.343V22.92H206.743V34.484ZM220.98 31.306V24.348H212.482V23.2H222.38V31.306H220.98ZM211.796 33.336H223.066V34.484H211.796V33.336ZM231.563 23.06V29.794H224.857V23.06H231.563ZM230.163 28.646V24.208H226.257V28.646H230.163ZM226.845 30.914V33.616H235.245V34.764H225.445V30.914H226.845ZM235.105 26.616V31.138H233.705V22.92H235.105V25.468H236.743V26.616H235.105ZM238.023 31.81V23.032H239.423V31.81H238.023ZM238.023 33.28H239.423V34.764H238.023V33.28Z" fill="#A3A3A3"/>
<circle cx="307.498" cy="75.499" r="37.5" fill="#525252"/>
<rect x="295.803" y="83.1455" width="23.7194" height="5.9229" transform="rotate(-45 295.803 83.1455)" fill="#00FFBB"/>
<rect x="295.453" y="65.7783" width="21.6686" height="5.9229" fill="#00FFBB"/>
<rect width="21.6686" height="5.9229" transform="matrix(0 -1 -1 0 317.195 87.5215)" fill="#00FFBB"/>
<path d="M284.172 60.8417C284.126 60.8158 284.075 60.8008 284.021 60.7967C283.963 60.791 283.906 60.7987 283.848 60.8197C283.79 60.8362 283.733 60.8691 283.679 60.9185C283.622 60.9662 283.57 61.0319 283.523 61.1158L282.412 63.0967C282.355 63.1979 282.332 63.3006 282.342 63.4049C282.35 63.5047 282.405 63.583 282.506 63.6397C282.579 63.6802 282.654 63.6785 282.731 63.6348C282.806 63.5894 282.878 63.5045 282.948 63.3803L284.173 61.1956C284.251 61.0568 284.343 60.9396 284.45 60.8438C284.557 60.748 284.675 60.6772 284.803 60.6314C284.928 60.5839 285.061 60.5672 285.201 60.5813C285.343 60.5925 285.486 60.6386 285.631 60.7196C285.764 60.7941 285.875 60.8906 285.964 61.0091C286.055 61.1246 286.12 61.2523 286.16 61.3922C286.198 61.5275 286.21 61.6689 286.195 61.8166C286.18 61.9597 286.134 62.0992 286.057 62.235L284.786 64.5021C284.702 64.6524 284.593 64.7718 284.46 64.8604C284.325 64.9445 284.181 65.0022 284.027 65.0335C283.872 65.0647 283.717 65.0684 283.559 65.0447C283.401 65.0209 283.258 64.9725 283.127 64.8996L283.529 64.1843C283.572 64.2087 283.622 64.2251 283.677 64.2337C283.732 64.2378 283.789 64.2316 283.847 64.2151C283.905 64.194 283.962 64.1597 284.019 64.112C284.078 64.0613 284.132 63.9927 284.18 63.906L285.267 61.9684C285.298 61.9135 285.32 61.8574 285.333 61.8002C285.343 61.7413 285.345 61.6872 285.338 61.638C285.333 61.5858 285.319 61.5399 285.296 61.5002C285.271 61.4561 285.239 61.4226 285.198 61.3999C285.109 61.3497 285.03 61.3534 284.964 61.4111C284.897 61.4687 284.829 61.5597 284.76 61.684L283.561 63.821C283.487 63.9539 283.394 64.0712 283.284 64.1728C283.173 64.2698 283.052 64.3427 282.922 64.3914C282.794 64.4373 282.657 64.4552 282.51 64.4453C282.364 64.4354 282.217 64.3891 282.07 64.3065C281.934 64.2303 281.822 64.1353 281.734 64.0213C281.645 63.9029 281.581 63.776 281.543 63.6407C281.504 63.5009 281.493 63.3579 281.51 63.2119C281.524 63.0643 281.569 62.924 281.643 62.791L282.915 60.524C282.999 60.3737 283.109 60.2551 283.245 60.1681C283.378 60.0795 283.521 60.021 283.674 59.9926C283.828 59.9614 283.984 59.9576 284.142 59.9814C284.299 60.0052 284.443 60.0536 284.573 60.1265L284.172 60.8417Z" fill="#00FFBB"/>
<path d="M284.831 57.8338L285.349 57.1985L288.122 59.4607L287.603 60.0961L284.831 57.8338Z" fill="#00FFBB"/>
<path d="M291.731 55.933L289.016 58.2949L286.667 55.5955L289.382 53.2336C289.499 53.1314 289.628 53.0593 289.767 53.0173C289.906 52.9706 290.047 52.9534 290.19 52.9656C290.332 52.9732 290.469 53.0097 290.601 53.0753C290.733 53.1361 290.85 53.2252 290.952 53.3427L291.84 54.3625C291.94 54.4774 292.012 54.6057 292.056 54.7474C292.103 54.8868 292.121 55.029 292.111 55.1739C292.101 55.3141 292.065 55.4513 292.001 55.5855C291.938 55.715 291.848 55.8308 291.731 55.933ZM291.032 54.6833L290.53 54.1059C290.473 54.0409 290.41 53.9907 290.339 53.9553C290.269 53.9199 290.197 53.9009 290.125 53.8982C290.05 53.893 289.975 53.903 289.901 53.9284C289.829 53.9516 289.761 53.9904 289.699 54.0447L287.824 55.6758L289.097 57.138L290.971 55.5069C291.034 55.4525 291.082 55.3925 291.118 55.3268C291.153 55.2565 291.173 55.1839 291.178 55.1091C291.184 55.0343 291.175 54.9609 291.151 54.8889C291.126 54.8143 291.086 54.7458 291.032 54.6833Z" fill="#00FFBB"/>
<path d="M292.082 51.2387L296.08 49.1785L296.456 49.9075L293.187 51.592L293.444 52.0912L296.607 50.4613L296.98 51.1858L293.817 52.8157L294.074 53.3149L297.344 51.6304L297.719 52.3593L293.721 54.4194L292.082 51.2387Z" fill="#00FFBB"/>
<path d="M302.402 50.2873L299.701 50.9356L299.869 51.6363L299.072 51.8277L298.237 48.3482L301.735 47.5086C301.887 47.4723 302.034 47.4676 302.177 47.4947C302.322 47.5178 302.455 47.5676 302.575 47.6443C302.698 47.717 302.803 47.8128 302.89 47.9317C302.979 48.0467 303.041 48.1799 303.078 48.3313L303.225 48.945C303.26 49.0932 303.265 49.2403 303.239 49.3863C303.216 49.5316 303.166 49.6661 303.09 49.79C303.017 49.9098 302.921 50.0146 302.803 50.1043C302.687 50.1899 302.554 50.251 302.402 50.2873ZM302.372 48.9044L302.338 48.7643C302.299 48.6 302.224 48.4816 302.115 48.409C302.006 48.3364 301.844 48.3257 301.632 48.3767L299.225 48.9543L299.509 50.1382L301.916 49.5607C302.122 49.5112 302.26 49.4321 302.329 49.3235C302.398 49.2117 302.412 49.072 302.372 48.9044Z" fill="#00FFBB"/>
<path d="M309.687 50.5956L308.688 50.5878L307.986 49.5486L305.864 49.5321L305.856 50.5658L305.036 50.5594L305.064 46.9813L308.662 47.0093C308.817 47.0105 308.961 47.0398 309.093 47.0972C309.229 47.1545 309.346 47.23 309.444 47.3235C309.546 47.4171 309.625 47.5254 309.68 47.6484C309.739 47.7681 309.768 47.891 309.767 48.0169L309.763 48.5387C309.762 48.6447 309.738 48.7522 309.691 48.8611C309.647 48.9701 309.586 49.0707 309.51 49.1629C309.436 49.2551 309.349 49.3339 309.249 49.3994C309.153 49.4616 309.053 49.5023 308.95 49.5213L309.687 50.5956ZM308.944 48.3335L308.945 48.2142C308.946 48.1082 308.904 48.0184 308.818 47.9449C308.733 47.868 308.619 47.829 308.476 47.8279L305.877 47.8077L305.87 48.7121L308.469 48.7324C308.635 48.7337 308.754 48.6932 308.828 48.6109C308.905 48.5254 308.944 48.4329 308.944 48.3335Z" fill="#00FFBB"/>
<path d="M314.62 51.6606L312.203 51.0408C312.056 51.0029 311.923 50.9398 311.805 50.8515C311.692 50.7608 311.598 50.6546 311.523 50.5328C311.452 50.4086 311.404 50.2749 311.379 50.1317C311.359 49.9861 311.367 49.8395 311.405 49.6919L311.743 48.3729C311.781 48.2253 311.844 48.0943 311.931 47.9799C312.023 47.8631 312.129 47.769 312.25 47.6974C312.375 47.6234 312.509 47.5756 312.651 47.554C312.798 47.53 312.945 47.5369 313.092 47.5748L315.509 48.1946C315.656 48.2325 315.787 48.2968 315.901 48.3874C316.018 48.4758 316.112 48.582 316.183 48.7062C316.258 48.828 316.306 48.9617 316.326 49.1072C316.351 49.2504 316.345 49.3958 316.307 49.5435L315.969 50.8625C315.931 51.0101 315.866 51.1423 315.775 51.2591C315.687 51.3734 315.581 51.4676 315.456 51.5416C315.335 51.6132 315.201 51.661 315.055 51.685C314.912 51.7066 314.767 51.6985 314.62 51.6606ZM315.248 50.3699L315.437 49.6334C315.457 49.5563 315.461 49.4804 315.45 49.4056C315.442 49.3284 315.419 49.2576 315.381 49.1931C315.347 49.1262 315.3 49.0696 315.24 49.0235C315.181 48.9741 315.109 48.9387 315.026 48.9173L313.187 48.4456C313.107 48.425 313.028 48.4201 312.95 48.4309C312.872 48.4417 312.799 48.4657 312.731 48.5031C312.667 48.5381 312.612 48.5871 312.565 48.6503C312.519 48.7103 312.485 48.782 312.464 48.8655L312.272 49.6116C312.252 49.6886 312.246 49.7658 312.254 49.8429C312.265 49.9177 312.29 49.9874 312.329 50.0519C312.368 50.1132 312.417 50.1686 312.476 50.218C312.539 50.265 312.612 50.2992 312.696 50.3206L314.53 50.791C314.617 50.8132 314.697 50.8185 314.772 50.8069C314.851 50.793 314.923 50.7669 314.987 50.7287C315.052 50.6905 315.105 50.641 315.148 50.5802C315.195 50.517 315.229 50.4469 315.248 50.3699Z" fill="#00FFBB"/>
<path d="M320.209 50.098L322.978 51.6126L321.81 53.7725C321.738 53.9064 321.643 54.0188 321.526 54.1098C321.411 54.2023 321.284 54.2691 321.145 54.3104C321.01 54.3503 320.869 54.3641 320.721 54.3516C320.578 54.3379 320.438 54.2939 320.301 54.2196L318.017 52.9793C317.865 52.8971 317.745 52.7885 317.656 52.6536C317.57 52.5202 317.512 52.3752 317.48 52.2184C317.45 52.0588 317.448 51.8956 317.474 51.729C317.501 51.5624 317.553 51.4062 317.632 51.2607L317.708 51.1209L318.429 51.5122C318.389 51.585 318.36 51.6633 318.341 51.7472C318.326 51.8297 318.324 51.9097 318.335 51.9871C318.35 52.0633 318.379 52.1354 318.421 52.2035C318.465 52.2688 318.526 52.3227 318.605 52.3654L320.435 53.359C320.513 53.4017 320.59 53.4266 320.666 53.4336C320.745 53.4392 320.82 53.4306 320.889 53.4077C320.962 53.3835 321.028 53.3457 321.086 53.2943C321.149 53.2416 321.2 53.1788 321.239 53.106L321.875 51.9356L319.818 50.8186L320.209 50.098Z" fill="#00FFBB"/>
<path d="M324.817 52.9213L328.136 55.9565L327.582 56.5616L324.868 54.0798L324.489 54.4943L327.115 56.8956L326.565 57.497L323.939 55.0957L323.56 55.5102L326.274 57.992L325.721 58.5971L322.402 55.5619L324.817 52.9213Z" fill="#00FFBB"/>
<path d="M330.792 61.8186C330.85 61.7801 330.898 61.7324 330.935 61.6754C330.978 61.6194 331.004 61.5579 331.015 61.4908C331.031 61.4247 331.032 61.3544 331.019 61.28C331.007 61.2083 330.976 61.1352 330.926 61.0607L329.776 59.3308C329.683 59.1901 329.558 59.1017 329.403 59.0657C329.25 59.0324 329.097 59.0662 328.945 59.1671L328.32 59.5826C328.249 59.6302 328.191 59.6867 328.147 59.7519C328.107 59.818 328.08 59.8878 328.065 59.9613C328.05 60.0348 328.051 60.1101 328.066 60.1873C328.084 60.2627 328.116 60.3349 328.162 60.4039L329.312 62.1338C329.351 62.1917 329.4 62.2409 329.458 62.2814C329.52 62.3201 329.586 62.3478 329.657 62.3644C329.727 62.381 329.799 62.3834 329.87 62.3715C329.947 62.3606 330.018 62.3331 330.084 62.2891L330.538 62.972L330.455 63.027C330.326 63.1132 330.182 63.1751 330.024 63.2125C329.866 63.25 329.707 63.2599 329.548 63.2423C329.394 63.2255 329.245 63.1789 329.103 63.1025C328.963 63.0242 328.846 62.9133 328.751 62.7699L327.312 60.6054C327.227 60.4785 327.171 60.3429 327.143 60.1986C327.117 60.0524 327.117 59.9091 327.143 59.7685C327.174 59.6289 327.229 59.4966 327.309 59.3718C327.391 59.2497 327.495 59.1464 327.622 59.062L328.748 58.3136C328.878 58.2274 329.013 58.1711 329.155 58.1446C329.301 58.1191 329.443 58.1201 329.581 58.1479C329.723 58.1766 329.855 58.2319 329.977 58.3138C330.102 58.3939 330.207 58.4974 330.291 58.6243L331.73 60.7888C331.826 60.9323 331.881 61.0844 331.897 61.2452C331.915 61.4042 331.902 61.5581 331.857 61.7069C331.815 61.8585 331.747 61.999 331.654 62.1285C331.561 62.2579 331.453 62.3639 331.329 62.4464L331.246 62.5015L330.792 61.8186Z" fill="#00FFBB"/>
<path d="M334.977 68.2756L334.204 68.5493L333.541 66.6755L330.941 67.5963L330.667 66.8234L333.267 65.9025L332.612 64.0521L333.385 63.7784L334.977 68.2756Z" fill="#00FFBB"/>
<path d="M332.631 79.9017L332.969 77.1442L332.253 77.0566L332.353 76.2427L335.905 76.6778L335.467 80.2492C335.448 80.4037 335.401 80.5432 335.326 80.6675C335.253 80.7954 335.16 80.9025 335.046 80.9887C334.935 81.0785 334.809 81.1432 334.667 81.1826C334.528 81.2256 334.381 81.2377 334.227 81.2188L333.6 81.142C333.449 81.1235 333.31 81.0764 333.182 81.0007C333.054 80.9282 332.945 80.8348 332.856 80.7204C332.769 80.6096 332.705 80.4832 332.662 80.3411C332.622 80.2027 332.612 80.0563 332.631 79.9017ZM333.937 80.3571L334.08 80.3746C334.248 80.3952 334.385 80.3669 334.491 80.2898C334.597 80.2127 334.663 80.0656 334.69 79.8486L334.991 77.392L333.782 77.2439L333.482 79.7005C333.456 79.911 333.482 80.0677 333.559 80.1706C333.64 80.274 333.766 80.3362 333.937 80.3571Z" fill="#00FFBB"/>
<path d="M331.456 82.2784L334.795 83.538L334.504 84.3048L331.925 83.3276L330.61 86.7992L329.843 86.5086L331.456 82.2784Z" fill="#00FFBB"/>
<path d="M326.129 92.1892L326.673 91.4177L327.471 91.4513L329.032 89.2385L328.728 88.5065L329.272 87.735L330.929 91.593L330.322 92.4538L326.129 92.1892ZM329.984 91.5099L329.424 90.1052L328.41 91.5425L329.924 91.5952L329.984 91.5099Z" fill="#00FFBB"/>
<path d="M323.858 98.9628L323.329 98.336L324.849 97.0543L323.07 94.946L323.697 94.4173L325.476 96.5256L326.976 95.2599L327.505 95.8866L323.858 98.9628Z" fill="#00FFBB"/>
<path d="M322.033 100.148L318.116 102.105L317.75 101.372L320.932 99.781L320.681 99.2787L317.605 100.816L317.241 100.087L320.317 98.5496L319.699 97.3138L320.433 96.9472L322.033 100.148Z" fill="#00FFBB"/>
<path d="M311.679 100.223L314.111 99.6632C314.259 99.629 314.406 99.6241 314.551 99.6485C314.693 99.6769 314.826 99.728 314.948 99.8018C315.068 99.8796 315.172 99.9764 315.26 100.092C315.345 100.212 315.405 100.346 315.439 100.495L315.745 101.822C315.779 101.97 315.783 102.115 315.758 102.257C315.731 102.403 315.679 102.535 315.605 102.654C315.528 102.778 315.431 102.881 315.315 102.966C315.196 103.055 315.062 103.116 314.913 103.15L312.482 103.71C312.334 103.744 312.188 103.747 312.046 103.719C311.9 103.694 311.768 103.643 311.648 103.565C311.526 103.491 311.422 103.395 311.337 103.275C311.249 103.159 311.188 103.027 311.153 102.879L310.848 101.552C310.814 101.403 310.81 101.256 310.838 101.11C310.863 100.968 310.914 100.836 310.991 100.713C311.066 100.594 311.163 100.49 311.282 100.401C311.398 100.316 311.531 100.257 311.679 100.223ZM311.714 101.658L311.885 102.399C311.902 102.477 311.934 102.546 311.978 102.607C312.02 102.672 312.073 102.725 312.137 102.764C312.198 102.808 312.266 102.837 312.34 102.85C312.415 102.867 312.495 102.865 312.579 102.846L314.429 102.42C314.51 102.402 314.582 102.37 314.647 102.324C314.711 102.279 314.765 102.224 314.808 102.16C314.848 102.099 314.875 102.03 314.887 101.953C314.901 101.878 314.898 101.799 314.879 101.715L314.706 100.964C314.688 100.887 314.658 100.815 314.616 100.75C314.571 100.689 314.517 100.639 314.453 100.599C314.391 100.563 314.322 100.536 314.246 100.519C314.169 100.507 314.088 100.51 314.004 100.529L312.159 100.954C312.072 100.974 311.997 101.006 311.936 101.051C311.873 101.1 311.821 101.156 311.781 101.219C311.741 101.283 311.716 101.352 311.706 101.425C311.694 101.503 311.696 101.581 311.714 101.658Z" fill="#00FFBB"/>
<path d="M304.563 100.549L305.562 100.566L306.255 101.612L308.377 101.648L308.394 100.614L309.214 100.628L309.153 104.206L305.556 104.145C305.4 104.142 305.256 104.111 305.125 104.053C304.99 103.994 304.874 103.918 304.776 103.823C304.675 103.729 304.597 103.62 304.543 103.496C304.485 103.376 304.458 103.253 304.46 103.127L304.469 102.605C304.47 102.499 304.495 102.392 304.544 102.283C304.589 102.175 304.65 102.075 304.728 101.983C304.802 101.892 304.89 101.814 304.99 101.749C305.087 101.688 305.187 101.648 305.29 101.63L304.563 100.549ZM305.285 102.818L305.283 102.937C305.281 103.043 305.323 103.133 305.408 103.208C305.492 103.285 305.606 103.325 305.749 103.328L308.347 103.372L308.363 102.468L305.764 102.423C305.598 102.421 305.478 102.46 305.404 102.542C305.326 102.626 305.287 102.718 305.285 102.818Z" fill="#00FFBB"/>
<path d="M297.199 102.465L298.152 99.0161L298.942 99.2344L298.321 101.481L300.576 99.6856L300.614 99.6962L301.623 102.388L302.243 100.146L303.033 100.364L302.08 103.813L301.151 103.557L300.211 101.06L298.119 102.719L297.199 102.465Z" fill="#00FFBB"/>
<path d="M285.911 94.78L288.35 92.1619L288.95 92.7209L287.361 94.4263L290.19 93.876L290.219 93.9031L289.87 96.7567L291.455 95.0549L292.055 95.6139L289.616 98.232L288.911 97.5748L289.232 94.9262L286.609 95.4305L285.911 94.78Z" fill="#00FFBB"/>
<path d="M285.519 88.0287L286.862 90.1313C286.944 90.2597 286.997 90.3964 287.023 90.5412C287.044 90.685 287.04 90.8269 287.012 90.9669C286.979 91.106 286.923 91.2363 286.843 91.3579C286.759 91.4785 286.653 91.5798 286.524 91.6618L285.376 92.3948C285.248 92.4768 285.113 92.5298 284.971 92.5536C284.824 92.5765 284.682 92.5728 284.545 92.5425C284.403 92.5112 284.273 92.4549 284.154 92.3735C284.031 92.2911 283.928 92.1857 283.846 92.0573L282.503 89.9547C282.421 89.8262 282.37 89.6901 282.348 89.5463C282.323 89.4015 282.326 89.2596 282.36 89.1205C282.388 88.9805 282.444 88.8502 282.529 88.7296C282.608 88.608 282.712 88.5062 282.841 88.4241L283.988 87.6912C284.117 87.6092 284.254 87.5567 284.401 87.5339C284.543 87.51 284.685 87.5137 284.827 87.545C284.964 87.5753 285.094 87.6316 285.218 87.714C285.336 87.7954 285.437 87.9003 285.519 88.0287ZM284.178 88.5428L283.537 88.9521C283.47 88.9949 283.416 89.0475 283.373 89.1101C283.326 89.1717 283.294 89.2391 283.278 89.3123C283.257 89.3845 283.253 89.4579 283.265 89.5326C283.275 89.6091 283.303 89.6836 283.349 89.7562L284.371 91.3562C284.416 91.426 284.47 91.4836 284.535 91.529C284.599 91.5744 284.669 91.6065 284.744 91.6255C284.814 91.6434 284.888 91.6453 284.965 91.6312C285.04 91.6189 285.114 91.5895 285.186 91.5432L285.836 91.1286C285.903 91.0858 285.96 91.0336 286.007 90.972C286.049 90.9094 286.079 90.8415 286.095 90.7683C286.108 90.6969 286.11 90.623 286.101 90.5465C286.087 90.469 286.056 90.394 286.01 90.3214L284.991 88.7256C284.943 88.6502 284.887 88.5912 284.825 88.5486C284.758 88.505 284.687 88.4751 284.614 88.459C284.541 88.4428 284.468 88.4423 284.395 88.4574C284.318 88.4715 284.245 88.5 284.178 88.5428Z" fill="#00FFBB"/>
<path d="M280.92 86.9863L279.392 82.451L280.155 82.1939L283.037 84.6313L282.005 81.5702L282.782 81.3083L284.311 85.8436L283.543 86.1022L280.667 83.6679L281.697 86.7244L280.92 86.9863Z" fill="#00FFBB"/>
<path d="M279.061 80.3995L278.935 79.5893L282.47 79.0378L282.597 79.848L279.061 80.3995Z" fill="#00FFBB"/>
<path d="M281.536 73.9843L281.493 76.762L282.213 76.7733L282.201 77.5932L278.623 77.5374L278.679 73.9398C278.681 73.7841 278.713 73.6404 278.775 73.5088C278.834 73.3739 278.915 73.2575 279.019 73.1597C279.12 73.0586 279.239 72.9809 279.376 72.9267C279.509 72.8692 279.654 72.8416 279.809 72.844L280.44 72.8539C280.593 72.8562 280.736 72.8883 280.871 72.95C281.006 73.0085 281.124 73.0898 281.225 73.1941C281.323 73.2951 281.401 73.4139 281.458 73.5507C281.513 73.684 281.539 73.8286 281.536 73.9843ZM280.189 73.67L280.045 73.6678C279.876 73.6652 279.743 73.7078 279.645 73.7958C279.548 73.8837 279.498 74.037 279.494 74.2557L279.456 76.7303L280.673 76.7493L280.712 74.2746C280.715 74.0626 280.673 73.9095 280.585 73.8154C280.493 73.7212 280.361 73.6727 280.189 73.67Z" fill="#00FFBB"/>
<path d="M344 66.999C334 81.999 314 112.099 314 112.499C319 111.499 331.5 108.499 339.5 94.999C346.5 83.999 345.333 71.999 344 66.999Z" fill="#171717"/>
<path d="M344.273 66.928C334.376 81.9966 314.492 112.173 314.124 112.329C313.089 107.336 310.963 94.6583 320.261 82.017C327.649 71.2735 339.149 67.6556 344.273 66.928Z" fill="#A3A3A3"/>
</svg>
