<svg width="24" height="35" viewBox="0 0 24 35" fill="none" xmlns="http://www.w3.org/2000/svg">
<g clip-path="url(#clip0_483_7558)">
<mask id="mask0_483_7558" style="mask-type:alpha" maskUnits="userSpaceOnUse" x="0" y="0" width="24" height="24">
<rect width="24" height="24" fill="#D9D9D9"/>
</mask>
<g mask="url(#mask0_483_7558)">
<path d="M4 21V11.625L2.2 13L1 11.4L12 3L23 11.4L21.8 12.975L20 11.625V21H4ZM8 15C7.71667 15 7.47917 14.9042 7.2875 14.7125C7.09583 14.5208 7 14.2833 7 14C7 13.7167 7.09583 13.4792 7.2875 13.2875C7.47917 13.0958 7.71667 13 8 13C8.28333 13 8.52083 13.0958 8.7125 13.2875C8.90417 13.4792 9 13.7167 9 14C9 14.2833 8.90417 14.5208 8.7125 14.7125C8.52083 14.9042 8.28333 15 8 15ZM12 15C11.7167 15 11.4792 14.9042 11.2875 14.7125C11.0958 14.5208 11 14.2833 11 14C11 13.7167 11.0958 13.4792 11.2875 13.2875C11.4792 13.0958 11.7167 13 12 13C12.2833 13 12.5208 13.0958 12.7125 13.2875C12.9042 13.4792 13 13.7167 13 14C13 14.2833 12.9042 14.5208 12.7125 14.7125C12.5208 14.9042 12.2833 15 12 15ZM16 15C15.7167 15 15.4792 14.9042 15.2875 14.7125C15.0958 14.5208 15 14.2833 15 14C15 13.7167 15.0958 13.4792 15.2875 13.2875C15.4792 13.0958 15.7167 13 16 13C16.2833 13 16.5208 13.0958 16.7125 13.2875C16.9042 13.4792 17 13.7167 17 14C17 14.2833 16.9042 14.5208 16.7125 14.7125C16.5208 14.9042 16.2833 15 16 15Z" fill="#FAFAFA"/>
</g>
</g>
<path d="M15.063 31.932V34.671H8.518V31.932H15.063ZM7.44 30.513H11.378V29.743C10.5127 29.7137 9.849 29.5853 9.387 29.358C8.925 29.1233 8.694 28.8007 8.694 28.39C8.694 27.95 8.958 27.6127 9.486 27.378C10.0213 27.1433 10.7877 27.026 11.785 27.026C12.7823 27.026 13.545 27.1433 14.073 27.378C14.6083 27.6127 14.876 27.95 14.876 28.39C14.876 28.8007 14.645 29.1233 14.183 29.358C13.721 29.5853 13.061 29.7137 12.203 29.743V30.513H16.13V31.173H7.44V30.513ZM7.902 25.981H11.378V25.024H12.203V25.981H15.624V26.63H7.902V25.981ZM14.26 34.033V32.559H9.321V34.033H14.26ZM9.563 28.39C9.563 28.6393 9.75367 28.8337 10.135 28.973C10.5237 29.105 11.0737 29.171 11.785 29.171C12.4963 29.171 13.0427 29.105 13.424 28.973C13.8127 28.8337 14.007 28.6393 14.007 28.39C14.007 28.1407 13.8127 27.95 13.424 27.818C13.0427 27.6787 12.4963 27.609 11.785 27.609C11.0737 27.609 10.5237 27.6787 10.135 27.818C9.75367 27.95 9.563 28.1407 9.563 28.39Z" fill="white"/>
<defs>
<clipPath id="clip0_483_7558">
<rect width="24" height="24" fill="white"/>
</clipPath>
</defs>
</svg>
